<?xml version="1.0" encoding="UTF-8" standalone="yes"?><svg xmlns="http://www.w3.org/2000/svg" xmlns:xlink="http://www.w3.org/1999/xlink" height="1196pt" style="width:1771px;height:1196px;" version="1.1" viewBox="0 0 1771 1196" width="1771pt"><defs><filter height="300%" id="f1" width="300%" x="-1" y="-1"><feGaussianBlur result="blurOut" stdDeviation="2.0"/><feColorMatrix in="blurOut" result="blurOut2" type="matrix" values="0 0 0 0 0 0 0 0 0 0 0 0 0 0 0 0 0 0 .4 0"/><feOffset dx="4.0" dy="4.0" in="blurOut2" result="blurOut3"/><feBlend in="SourceGraphic" in2="blurOut3" mode="normal"/></filter></defs><g><text fill="#000000" font-family="sans-serif" font-size="18" lengthAdjust="spacingAndGlyphs" textLength="191" x="794" y="17.4023">Deployment instances</text><rect fill="#FEFECE" filter="url(#f1)" height="54.2656" style="stroke: #A80036; stroke-width: 1.5;" width="126" x="1340.5" y="497.6992"/><ellipse cx="1355.5" cy="516.832" fill="#FFFF00" rx="11" ry="11" style="stroke: #A80036; stroke-width: 1.0;"/><path d="M1357.2031,512.5112 Q1357.3691,512.2124 1357.5435,512.0879 Q1357.7178,511.9634 1357.9834,511.9634 Q1358.3901,511.9634 1358.5603,512.1792 Q1358.7305,512.395 1358.7305,512.918 L1358.7471,515.0762 Q1358.7471,515.6489 1358.5603,515.8481 Q1358.3735,516.0474 1357.8838,516.0474 Q1357.5352,516.0474 1357.3484,515.8813 Q1357.1616,515.7153 1357.0288,515.2671 Q1356.813,514.4785 1356.3398,514.134 Q1355.8667,513.7896 1355.0283,513.7896 Q1353.75,513.7896 1353.0693,514.6528 Q1352.3887,515.5161 1352.3887,517.1514 Q1352.3887,518.7783 1353.0776,519.6499 Q1353.7666,520.5215 1355.0449,520.5215 Q1355.9165,520.5215 1356.9666,519.9404 Q1358.0166,519.3594 1358.2905,519.3594 Q1358.6143,519.3594 1358.8342,519.6333 Q1359.0542,519.9072 1359.0542,520.314 Q1359.0542,521.0444 1357.7676,521.6919 Q1356.481,522.3394 1354.8706,522.3394 Q1352.6958,522.3394 1351.3511,520.9033 Q1350.0063,519.4673 1350.0063,517.1514 Q1350.0063,514.9185 1351.3677,513.4409 Q1352.729,511.9634 1354.8208,511.9634 Q1355.4102,511.9634 1355.9829,512.0962 Q1356.5557,512.229 1357.2031,512.5112 Z "/><text fill="#000000" font-family="sans-serif" font-size="12" font-style="italic" lengthAdjust="spacingAndGlyphs" textLength="98" x="1367.5" y="514.3008">&lt;&lt; Foreman &gt;&gt;</text><text fill="#000000" font-family="sans-serif" font-size="12" lengthAdjust="spacingAndGlyphs" textLength="60" x="1386.5" y="528.4336">Hostgroup</text><line style="stroke: #A80036; stroke-width: 1.5;" x1="1341.5" x2="1465.5" y1="535.9648" y2="535.9648"/><line style="stroke: #A80036; stroke-width: 1.5;" x1="1341.5" x2="1465.5" y1="543.9648" y2="543.9648"/><rect fill="#FEFECE" filter="url(#f1)" height="54.2656" style="stroke: #A80036; stroke-width: 1.5;" width="126" x="524.5" y="918.1992"/><ellipse cx="539.5" cy="937.332" fill="#FFFF00" rx="11" ry="11" style="stroke: #A80036; stroke-width: 1.0;"/><path d="M541.2031,933.0112 Q541.3691,932.7124 541.5435,932.5879 Q541.7178,932.4634 541.9834,932.4634 Q542.3901,932.4634 542.5603,932.6792 Q542.7305,932.895 542.7305,933.418 L542.7471,935.5762 Q542.7471,936.1489 542.5603,936.3481 Q542.3735,936.5474 541.8838,936.5474 Q541.5352,936.5474 541.3484,936.3813 Q541.1616,936.2153 541.0288,935.7671 Q540.813,934.9785 540.3398,934.634 Q539.8667,934.2896 539.0283,934.2896 Q537.75,934.2896 537.0693,935.1528 Q536.3887,936.0161 536.3887,937.6514 Q536.3887,939.2783 537.0776,940.1499 Q537.7666,941.0215 539.0449,941.0215 Q539.9165,941.0215 540.9666,940.4404 Q542.0166,939.8594 542.2905,939.8594 Q542.6143,939.8594 542.8342,940.1333 Q543.0542,940.4072 543.0542,940.814 Q543.0542,941.5444 541.7676,942.1919 Q540.481,942.8394 538.8706,942.8394 Q536.6958,942.8394 535.3511,941.4033 Q534.0063,939.9673 534.0063,937.6514 Q534.0063,935.4185 535.3677,933.9409 Q536.729,932.4634 538.8208,932.4634 Q539.4102,932.4634 539.9829,932.5962 Q540.5557,932.729 541.2031,933.0112 Z "/><text fill="#000000" font-family="sans-serif" font-size="12" font-style="italic" lengthAdjust="spacingAndGlyphs" textLength="98" x="551.5" y="934.8008">&lt;&lt; Foreman &gt;&gt;</text><text fill="#000000" font-family="sans-serif" font-size="12" lengthAdjust="spacingAndGlyphs" textLength="26" x="587.5" y="948.9336">Host</text><line style="stroke: #A80036; stroke-width: 1.5;" x1="525.5" x2="649.5" y1="956.4648" y2="956.4648"/><line style="stroke: #A80036; stroke-width: 1.5;" x1="525.5" x2="649.5" y1="964.4648" y2="964.4648"/><rect fill="#FEFECE" filter="url(#f1)" height="54.2656" style="stroke: #A80036; stroke-width: 1.5;" width="126" x="185.5" y="1064.1992"/><ellipse cx="200.5" cy="1083.332" fill="#FFFF00" rx="11" ry="11" style="stroke: #A80036; stroke-width: 1.0;"/><path d="M202.2031,1079.0112 Q202.3691,1078.7124 202.5435,1078.5879 Q202.7178,1078.4634 202.9834,1078.4634 Q203.3901,1078.4634 203.5603,1078.6792 Q203.7305,1078.895 203.7305,1079.418 L203.7471,1081.5762 Q203.7471,1082.1489 203.5603,1082.3481 Q203.3735,1082.5474 202.8838,1082.5474 Q202.5352,1082.5474 202.3484,1082.3813 Q202.1616,1082.2153 202.0288,1081.7671 Q201.813,1080.9785 201.3398,1080.634 Q200.8667,1080.2896 200.0283,1080.2896 Q198.75,1080.2896 198.0693,1081.1528 Q197.3887,1082.0161 197.3887,1083.6514 Q197.3887,1085.2783 198.0776,1086.1499 Q198.7666,1087.0215 200.0449,1087.0215 Q200.9165,1087.0215 201.9666,1086.4404 Q203.0166,1085.8594 203.2905,1085.8594 Q203.6143,1085.8594 203.8342,1086.1333 Q204.0542,1086.4072 204.0542,1086.814 Q204.0542,1087.5444 202.7676,1088.1919 Q201.481,1088.8394 199.8706,1088.8394 Q197.6958,1088.8394 196.3511,1087.4033 Q195.0063,1085.9673 195.0063,1083.6514 Q195.0063,1081.4185 196.3677,1079.9409 Q197.729,1078.4634 199.8208,1078.4634 Q200.4102,1078.4634 200.9829,1078.5962 Q201.5557,1078.729 202.2031,1079.0112 Z "/><text fill="#000000" font-family="sans-serif" font-size="12" font-style="italic" lengthAdjust="spacingAndGlyphs" textLength="98" x="212.5" y="1080.8008">&lt;&lt; Foreman &gt;&gt;</text><text fill="#000000" font-family="sans-serif" font-size="12" lengthAdjust="spacingAndGlyphs" textLength="50" x="236.5" y="1094.9336">Interface</text><line style="stroke: #A80036; stroke-width: 1.5;" x1="186.5" x2="310.5" y1="1102.4648" y2="1102.4648"/><line style="stroke: #A80036; stroke-width: 1.5;" x1="186.5" x2="310.5" y1="1110.4648" y2="1110.4648"/><rect fill="#FEFECE" filter="url(#f1)" height="54.2656" style="stroke: #A80036; stroke-width: 1.5;" width="126" x="51.5" y="834.1992"/><ellipse cx="66.5" cy="853.332" fill="#FFFF00" rx="11" ry="11" style="stroke: #A80036; stroke-width: 1.0;"/><path d="M68.2031,849.0112 Q68.3691,848.7124 68.5435,848.5879 Q68.7178,848.4634 68.9834,848.4634 Q69.3901,848.4634 69.5603,848.6792 Q69.7305,848.895 69.7305,849.418 L69.7471,851.5762 Q69.7471,852.1489 69.5603,852.3481 Q69.3735,852.5474 68.8838,852.5474 Q68.5352,852.5474 68.3484,852.3813 Q68.1616,852.2153 68.0288,851.7671 Q67.813,850.9785 67.3398,850.634 Q66.8667,850.2896 66.0283,850.2896 Q64.75,850.2896 64.0693,851.1528 Q63.3887,852.0161 63.3887,853.6514 Q63.3887,855.2783 64.0776,856.1499 Q64.7666,857.0215 66.0449,857.0215 Q66.9165,857.0215 67.9666,856.4404 Q69.0166,855.8594 69.2905,855.8594 Q69.6143,855.8594 69.8342,856.1333 Q70.0542,856.4072 70.0542,856.814 Q70.0542,857.5444 68.7676,858.1919 Q67.481,858.8394 65.8706,858.8394 Q63.6958,858.8394 62.3511,857.4033 Q61.0063,855.9673 61.0063,853.6514 Q61.0063,851.4185 62.3677,849.9409 Q63.729,848.4634 65.8208,848.4634 Q66.4102,848.4634 66.9829,848.5962 Q67.5557,848.729 68.2031,849.0112 Z "/><text fill="#000000" font-family="sans-serif" font-size="12" font-style="italic" lengthAdjust="spacingAndGlyphs" textLength="98" x="78.5" y="850.8008">&lt;&lt; Foreman &gt;&gt;</text><text fill="#000000" font-family="sans-serif" font-size="12" lengthAdjust="spacingAndGlyphs" textLength="39" x="108" y="864.9336">Subnet</text><line style="stroke: #A80036; stroke-width: 1.5;" x1="52.5" x2="176.5" y1="872.4648" y2="872.4648"/><line style="stroke: #A80036; stroke-width: 1.5;" x1="52.5" x2="176.5" y1="880.4648" y2="880.4648"/><rect fill="#FEFECE" filter="url(#f1)" height="108.7754" style="stroke: #A80036; stroke-width: 1.5;" width="178" x="987.5" y="470.1992"/><ellipse cx="1017.35" cy="486.1992" fill="#ADD1B2" rx="11" ry="11" style="stroke: #A80036; stroke-width: 1.0;"/><path d="M1019.0531,481.8784 Q1019.2191,481.5796 1019.3935,481.4551 Q1019.5678,481.3306 1019.8334,481.3306 Q1020.2401,481.3306 1020.4103,481.5464 Q1020.5805,481.7622 1020.5805,482.2852 L1020.5971,484.4434 Q1020.5971,485.0161 1020.4103,485.2153 Q1020.2235,485.4146 1019.7338,485.4146 Q1019.3852,485.4146 1019.1984,485.2485 Q1019.0116,485.0825 1018.8788,484.6343 Q1018.663,483.8457 1018.1898,483.5012 Q1017.7167,483.1567 1016.8783,483.1567 Q1015.6,483.1567 1014.9193,484.02 Q1014.2387,484.8833 1014.2387,486.5186 Q1014.2387,488.1455 1014.9276,489.0171 Q1015.6166,489.8887 1016.8949,489.8887 Q1017.7665,489.8887 1018.8166,489.3076 Q1019.8666,488.7266 1020.1405,488.7266 Q1020.4643,488.7266 1020.6842,489.0005 Q1020.9042,489.2744 1020.9042,489.6812 Q1020.9042,490.4116 1019.6176,491.0591 Q1018.331,491.7065 1016.7206,491.7065 Q1014.5458,491.7065 1013.2011,490.2705 Q1011.8563,488.8345 1011.8563,486.5186 Q1011.8563,484.2856 1013.2177,482.8081 Q1014.579,481.3306 1016.6708,481.3306 Q1017.2602,481.3306 1017.8329,481.4634 Q1018.4057,481.5962 1019.0531,481.8784 Z "/><text fill="#000000" font-family="sans-serif" font-size="12" lengthAdjust="spacingAndGlyphs" textLength="113" x="1034.65" y="490.7344">HostgroupResource</text><line style="stroke: #A80036; stroke-width: 1.5;" x1="988.5" x2="1164.5" y1="502.1992" y2="502.1992"/><text fill="#000000" font-family="sans-serif" font-size="11" lengthAdjust="spacingAndGlyphs" textLength="64" x="993.5" y="516.834">String name</text><text fill="#000000" font-family="sans-serif" font-size="11" lengthAdjust="spacingAndGlyphs" textLength="157" x="993.5" y="546.7441">Parent is HostgroupResource</text><text fill="#000000" font-family="sans-serif" font-size="11" lengthAdjust="spacingAndGlyphs" textLength="166" x="993.5" y="559.6992">or it's provided on Deployment</text><text fill="#000000" font-family="sans-serif" font-size="11" lengthAdjust="spacingAndGlyphs" textLength="76" x="993.5" y="572.6543">configuration.</text><line style="stroke: #A80036; stroke-width: 1.0; stroke-dasharray: 1.0,2.0;" x1="988.5" x2="1061.5" y1="529.6318" y2="529.6318"/><text fill="#000000" font-family="sans-serif" font-size="11" lengthAdjust="spacingAndGlyphs" textLength="30" x="1061.5" y="533.2891">notes</text><line style="stroke: #A80036; stroke-width: 1.0; stroke-dasharray: 1.0,2.0;" x1="1091.5" x2="1164.5" y1="529.6318" y2="529.6318"/><rect fill="#FEFECE" filter="url(#f1)" height="121.7305" style="stroke: #A80036; stroke-width: 1.5;" width="152" x="1150.5" y="256.1992"/><ellipse cx="1179" cy="272.1992" fill="#ADD1B2" rx="11" ry="11" style="stroke: #A80036; stroke-width: 1.0;"/><path d="M1180.7031,267.8784 Q1180.8691,267.5796 1181.0435,267.4551 Q1181.2178,267.3306 1181.4834,267.3306 Q1181.8901,267.3306 1182.0603,267.5464 Q1182.2305,267.7622 1182.2305,268.2852 L1182.2471,270.4434 Q1182.2471,271.0161 1182.0603,271.2153 Q1181.8735,271.4146 1181.3838,271.4146 Q1181.0352,271.4146 1180.8484,271.2485 Q1180.6616,271.0825 1180.5288,270.6343 Q1180.313,269.8457 1179.8398,269.5012 Q1179.3667,269.1567 1178.5283,269.1567 Q1177.25,269.1567 1176.5693,270.02 Q1175.8887,270.8833 1175.8887,272.5186 Q1175.8887,274.1455 1176.5776,275.0171 Q1177.2666,275.8887 1178.5449,275.8887 Q1179.4165,275.8887 1180.4666,275.3076 Q1181.5166,274.7266 1181.7905,274.7266 Q1182.1143,274.7266 1182.3342,275.0005 Q1182.5542,275.2744 1182.5542,275.6812 Q1182.5542,276.4116 1181.2676,277.0591 Q1179.981,277.7065 1178.3706,277.7065 Q1176.1958,277.7065 1174.8511,276.2705 Q1173.5063,274.8345 1173.5063,272.5186 Q1173.5063,270.2856 1174.8677,268.8081 Q1176.229,267.3306 1178.3208,267.3306 Q1178.9102,267.3306 1179.4829,267.4634 Q1180.0557,267.5962 1180.7031,267.8784 Z "/><text fill="#000000" font-family="sans-serif" font-size="12" lengthAdjust="spacingAndGlyphs" textLength="90" x="1196" y="276.7344">ParamResource</text><line style="stroke: #A80036; stroke-width: 1.5;" x1="1151.5" x2="1301.5" y1="288.1992" y2="288.1992"/><text fill="#000000" font-family="sans-serif" font-size="11" lengthAdjust="spacingAndGlyphs" textLength="64" x="1156.5" y="302.834">String name</text><text fill="#000000" font-family="sans-serif" font-size="11" lengthAdjust="spacingAndGlyphs" textLength="140" x="1156.5" y="315.7891">String description # intent</text><text fill="#000000" font-family="sans-serif" font-size="11" lengthAdjust="spacingAndGlyphs" textLength="106" x="1156.5" y="328.7441">String default_value</text><text fill="#000000" font-family="sans-serif" font-size="11" lengthAdjust="spacingAndGlyphs" textLength="115" x="1156.5" y="358.6543">validations, like list of</text><text fill="#000000" font-family="sans-serif" font-size="11" lengthAdjust="spacingAndGlyphs" textLength="77" x="1156.5" y="371.6094">allowed values</text><line style="stroke: #A80036; stroke-width: 1.0; stroke-dasharray: 1.0,2.0;" x1="1151.5" x2="1211.5" y1="341.542" y2="341.542"/><text fill="#000000" font-family="sans-serif" font-size="11" lengthAdjust="spacingAndGlyphs" textLength="30" x="1211.5" y="345.1992">notes</text><line style="stroke: #A80036; stroke-width: 1.0; stroke-dasharray: 1.0,2.0;" x1="1241.5" x2="1301.5" y1="341.542" y2="341.542"/><rect fill="#FEFECE" filter="url(#f1)" height="73.9102" style="stroke: #A80036; stroke-width: 1.5;" width="172" x="1573.5" y="59.6992"/><ellipse cx="1588.5" cy="75.6992" fill="#ADD1B2" rx="11" ry="11" style="stroke: #A80036; stroke-width: 1.0;"/><path d="M1590.2031,71.3784 Q1590.3691,71.0796 1590.5435,70.9551 Q1590.7178,70.8306 1590.9834,70.8306 Q1591.3901,70.8306 1591.5603,71.0464 Q1591.7305,71.2622 1591.7305,71.7852 L1591.7471,73.9434 Q1591.7471,74.5161 1591.5603,74.7153 Q1591.3735,74.9146 1590.8838,74.9146 Q1590.5352,74.9146 1590.3484,74.7485 Q1590.1616,74.5825 1590.0288,74.1343 Q1589.813,73.3457 1589.3398,73.0012 Q1588.8667,72.6567 1588.0283,72.6567 Q1586.75,72.6567 1586.0693,73.52 Q1585.3887,74.3833 1585.3887,76.0186 Q1585.3887,77.6455 1586.0776,78.5171 Q1586.7666,79.3887 1588.0449,79.3887 Q1588.9165,79.3887 1589.9666,78.8076 Q1591.0166,78.2266 1591.2905,78.2266 Q1591.6143,78.2266 1591.8342,78.5005 Q1592.0542,78.7744 1592.0542,79.1812 Q1592.0542,79.9116 1590.7676,80.5591 Q1589.481,81.2065 1587.8706,81.2065 Q1585.6958,81.2065 1584.3511,79.7705 Q1583.0063,78.3345 1583.0063,76.0186 Q1583.0063,73.7856 1584.3677,72.3081 Q1585.729,70.8306 1587.8208,70.8306 Q1588.4102,70.8306 1588.9829,70.9634 Q1589.5557,71.0962 1590.2031,71.3784 Z "/><text fill="#000000" font-family="sans-serif" font-size="12" lengthAdjust="spacingAndGlyphs" textLength="140" x="1602.5" y="80.2344">ParamOverrideResource</text><line style="stroke: #A80036; stroke-width: 1.5;" x1="1574.5" x2="1744.5" y1="91.6992" y2="91.6992"/><text fill="#000000" font-family="sans-serif" font-size="11" lengthAdjust="spacingAndGlyphs" textLength="53" x="1579.5" y="106.334">String key</text><text fill="#000000" font-family="sans-serif" font-size="11" lengthAdjust="spacingAndGlyphs" textLength="95" x="1579.5" y="119.2891">String value # ERB</text><line style="stroke: #A80036; stroke-width: 1.5;" x1="1574.5" x2="1744.5" y1="125.6094" y2="125.6094"/><rect fill="#FEFECE" filter="url(#f1)" height="147.6406" style="stroke: #A80036; stroke-width: 1.5;" width="225" x="900" y="656.1992"/><ellipse cx="930.75" cy="672.1992" fill="#ADD1B2" rx="11" ry="11" style="stroke: #A80036; stroke-width: 1.0;"/><path d="M932.4531,667.8784 Q932.6191,667.5796 932.7935,667.4551 Q932.9678,667.3306 933.2334,667.3306 Q933.6401,667.3306 933.8103,667.5464 Q933.9805,667.7622 933.9805,668.2852 L933.9971,670.4434 Q933.9971,671.0161 933.8103,671.2153 Q933.6235,671.4146 933.1338,671.4146 Q932.7852,671.4146 932.5984,671.2485 Q932.4116,671.0825 932.2788,670.6343 Q932.063,669.8457 931.5898,669.5012 Q931.1167,669.1567 930.2783,669.1567 Q929,669.1567 928.3193,670.02 Q927.6387,670.8833 927.6387,672.5186 Q927.6387,674.1455 928.3276,675.0171 Q929.0166,675.8887 930.2949,675.8887 Q931.1665,675.8887 932.2166,675.3076 Q933.2666,674.7266 933.5405,674.7266 Q933.8643,674.7266 934.0842,675.0005 Q934.3042,675.2744 934.3042,675.6812 Q934.3042,676.4116 933.0176,677.0591 Q931.731,677.7065 930.1206,677.7065 Q927.9458,677.7065 926.6011,676.2705 Q925.2563,674.8345 925.2563,672.5186 Q925.2563,670.2856 926.6177,668.8081 Q927.979,667.3306 930.0708,667.3306 Q930.6602,667.3306 931.2329,667.4634 Q931.8057,667.5962 932.4531,667.8784 Z "/><text fill="#000000" font-family="sans-serif" font-size="12" lengthAdjust="spacingAndGlyphs" textLength="158" x="948.25" y="676.7344">ComputeResourceResource</text><line style="stroke: #A80036; stroke-width: 1.5;" x1="901" x2="1124" y1="688.1992" y2="688.1992"/><text fill="#000000" font-family="sans-serif" font-size="11" lengthAdjust="spacingAndGlyphs" textLength="58" x="906" y="702.834">String type</text><text fill="#000000" font-family="sans-serif" font-size="11" lengthAdjust="spacingAndGlyphs" textLength="115" x="906" y="715.7891">Boolean image_based</text><text fill="#000000" font-family="sans-serif" font-size="11" lengthAdjust="spacingAndGlyphs" textLength="133" x="906" y="728.7441">String image_url nullable</text><text fill="#000000" font-family="sans-serif" font-size="11" lengthAdjust="spacingAndGlyphs" textLength="213" x="906" y="758.6543">Each ComputeResourceResource allows</text><text fill="#000000" font-family="sans-serif" font-size="11" lengthAdjust="spacingAndGlyphs" textLength="199" x="906" y="771.6094">particular ComputeResource type for</text><text fill="#000000" font-family="sans-serif" font-size="11" lengthAdjust="spacingAndGlyphs" textLength="165" x="906" y="784.5645">a given HostResource. It has to</text><text fill="#000000" font-family="sans-serif" font-size="11" lengthAdjust="spacingAndGlyphs" textLength="203" x="906" y="797.5195">contain image_url when image_based.</text><line style="stroke: #A80036; stroke-width: 1.0; stroke-dasharray: 1.0,2.0;" x1="901" x2="997.5" y1="741.542" y2="741.542"/><text fill="#000000" font-family="sans-serif" font-size="11" lengthAdjust="spacingAndGlyphs" textLength="30" x="997.5" y="745.1992">notes</text><line style="stroke: #A80036; stroke-width: 1.0; stroke-dasharray: 1.0,2.0;" x1="1027.5" x2="1124" y1="741.542" y2="741.542"/><rect fill="#FEFECE" filter="url(#f1)" height="95.8203" style="stroke: #A80036; stroke-width: 1.5;" width="173" x="692" y="682.1992"/><ellipse cx="707" cy="698.1992" fill="#ADD1B2" rx="11" ry="11" style="stroke: #A80036; stroke-width: 1.0;"/><path d="M708.7031,693.8784 Q708.8691,693.5796 709.0435,693.4551 Q709.2178,693.3306 709.4834,693.3306 Q709.8901,693.3306 710.0603,693.5464 Q710.2305,693.7622 710.2305,694.2852 L710.2471,696.4434 Q710.2471,697.0161 710.0603,697.2153 Q709.8735,697.4146 709.3838,697.4146 Q709.0352,697.4146 708.8484,697.2485 Q708.6616,697.0825 708.5288,696.6343 Q708.313,695.8457 707.8398,695.5012 Q707.3667,695.1567 706.5283,695.1567 Q705.25,695.1567 704.5693,696.02 Q703.8887,696.8833 703.8887,698.5186 Q703.8887,700.1455 704.5776,701.0171 Q705.2666,701.8887 706.5449,701.8887 Q707.4165,701.8887 708.4666,701.3076 Q709.5166,700.7266 709.7905,700.7266 Q710.1143,700.7266 710.3342,701.0005 Q710.5542,701.2744 710.5542,701.6812 Q710.5542,702.4116 709.2676,703.0591 Q707.981,703.7065 706.3706,703.7065 Q704.1958,703.7065 702.8511,702.2705 Q701.5063,700.8345 701.5063,698.5186 Q701.5063,696.2856 702.8677,694.8081 Q704.229,693.3306 706.3208,693.3306 Q706.9102,693.3306 707.4829,693.4634 Q708.0557,693.5962 708.7031,693.8784 Z "/><text fill="#000000" font-family="sans-serif" font-size="12" lengthAdjust="spacingAndGlyphs" textLength="141" x="721" y="702.7344">ComputeProfileResource</text><line style="stroke: #A80036; stroke-width: 1.5;" x1="693" x2="864" y1="714.1992" y2="714.1992"/><text fill="#000000" font-family="sans-serif" font-size="11" lengthAdjust="spacingAndGlyphs" textLength="88" x="698" y="745.7891">Type limitations.</text><text fill="#000000" font-family="sans-serif" font-size="11" lengthAdjust="spacingAndGlyphs" textLength="153" x="698" y="758.7441">Can be added later or stored</text><text fill="#000000" font-family="sans-serif" font-size="11" lengthAdjust="spacingAndGlyphs" textLength="138" x="698" y="771.6992">directly on HostResource.</text><line style="stroke: #A80036; stroke-width: 1.0; stroke-dasharray: 1.0,2.0;" x1="693" x2="763.5" y1="728.6768" y2="728.6768"/><text fill="#000000" font-family="sans-serif" font-size="11" lengthAdjust="spacingAndGlyphs" textLength="30" x="763.5" y="732.334">notes</text><line style="stroke: #A80036; stroke-width: 1.0; stroke-dasharray: 1.0,2.0;" x1="793.5" x2="864" y1="728.6768" y2="728.6768"/><rect fill="#FEFECE" filter="url(#f1)" height="73.9102" style="stroke: #A80036; stroke-width: 1.5;" width="156" x="1490.5" y="280.1992"/><ellipse cx="1505.5" cy="296.1992" fill="#ADD1B2" rx="11" ry="11" style="stroke: #A80036; stroke-width: 1.0;"/><path d="M1507.2031,291.8784 Q1507.3691,291.5796 1507.5435,291.4551 Q1507.7178,291.3306 1507.9834,291.3306 Q1508.3901,291.3306 1508.5603,291.5464 Q1508.7305,291.7622 1508.7305,292.2852 L1508.7471,294.4434 Q1508.7471,295.0161 1508.5603,295.2153 Q1508.3735,295.4146 1507.8838,295.4146 Q1507.5352,295.4146 1507.3484,295.2485 Q1507.1616,295.0825 1507.0288,294.6343 Q1506.813,293.8457 1506.3398,293.5012 Q1505.8667,293.1567 1505.0283,293.1567 Q1503.75,293.1567 1503.0693,294.02 Q1502.3887,294.8833 1502.3887,296.5186 Q1502.3887,298.1455 1503.0776,299.0171 Q1503.7666,299.8887 1505.0449,299.8887 Q1505.9165,299.8887 1506.9666,299.3076 Q1508.0166,298.7266 1508.2905,298.7266 Q1508.6143,298.7266 1508.8342,299.0005 Q1509.0542,299.2744 1509.0542,299.6812 Q1509.0542,300.4116 1507.7676,301.0591 Q1506.481,301.7065 1504.8706,301.7065 Q1502.6958,301.7065 1501.3511,300.2705 Q1500.0063,298.8345 1500.0063,296.5186 Q1500.0063,294.2856 1501.3677,292.8081 Q1502.729,291.3306 1504.8208,291.3306 Q1505.4102,291.3306 1505.9829,291.4634 Q1506.5557,291.5962 1507.2031,291.8784 Z "/><text fill="#000000" font-family="sans-serif" font-size="12" lengthAdjust="spacingAndGlyphs" textLength="124" x="1519.5" y="300.7344">PuppetClassResource</text><line style="stroke: #A80036; stroke-width: 1.5;" x1="1491.5" x2="1645.5" y1="312.1992" y2="312.1992"/><text fill="#000000" font-family="sans-serif" font-size="11" lengthAdjust="spacingAndGlyphs" textLength="64" x="1496.5" y="326.834">String name</text><text fill="#000000" font-family="sans-serif" font-size="11" lengthAdjust="spacingAndGlyphs" textLength="108" x="1496.5" y="339.7891"># of the class to add</text><line style="stroke: #A80036; stroke-width: 1.5;" x1="1491.5" x2="1645.5" y1="346.1094" y2="346.1094"/><rect fill="#FEFECE" filter="url(#f1)" height="95.8203" style="stroke: #A80036; stroke-width: 1.5;" width="153" x="302" y="682.1992"/><ellipse cx="317" cy="698.1992" fill="#ADD1B2" rx="11" ry="11" style="stroke: #A80036; stroke-width: 1.0;"/><path d="M318.7031,693.8784 Q318.8691,693.5796 319.0435,693.4551 Q319.2178,693.3306 319.4834,693.3306 Q319.8901,693.3306 320.0603,693.5464 Q320.2305,693.7622 320.2305,694.2852 L320.2471,696.4434 Q320.2471,697.0161 320.0603,697.2153 Q319.8735,697.4146 319.3838,697.4146 Q319.0352,697.4146 318.8484,697.2485 Q318.6616,697.0825 318.5288,696.6343 Q318.313,695.8457 317.8398,695.5012 Q317.3667,695.1567 316.5283,695.1567 Q315.25,695.1567 314.5693,696.02 Q313.8887,696.8833 313.8887,698.5186 Q313.8887,700.1455 314.5776,701.0171 Q315.2666,701.8887 316.5449,701.8887 Q317.4165,701.8887 318.4666,701.3076 Q319.5166,700.7266 319.7905,700.7266 Q320.1143,700.7266 320.3342,701.0005 Q320.5542,701.2744 320.5542,701.6812 Q320.5542,702.4116 319.2676,703.0591 Q317.981,703.7065 316.3706,703.7065 Q314.1958,703.7065 312.8511,702.2705 Q311.5063,700.8345 311.5063,698.5186 Q311.5063,696.2856 312.8677,694.8081 Q314.229,693.3306 316.3208,693.3306 Q316.9102,693.3306 317.4829,693.4634 Q318.0557,693.5962 318.7031,693.8784 Z "/><text fill="#000000" font-family="sans-serif" font-size="12" lengthAdjust="spacingAndGlyphs" textLength="121" x="331" y="702.7344">SubnetTypeResource</text><line style="stroke: #A80036; stroke-width: 1.5;" x1="303" x2="454" y1="714.1992" y2="714.1992"/><text fill="#000000" font-family="sans-serif" font-size="11" lengthAdjust="spacingAndGlyphs" textLength="64" x="308" y="728.834">String name</text><text fill="#000000" font-family="sans-serif" font-size="11" lengthAdjust="spacingAndGlyphs" textLength="65" x="308" y="758.7441">like Staypuft</text><text fill="#000000" font-family="sans-serif" font-size="11" lengthAdjust="spacingAndGlyphs" textLength="75" x="308" y="771.6992">network types</text><line style="stroke: #A80036; stroke-width: 1.0; stroke-dasharray: 1.0,2.0;" x1="303" x2="363.5" y1="741.6318" y2="741.6318"/><text fill="#000000" font-family="sans-serif" font-size="11" lengthAdjust="spacingAndGlyphs" textLength="30" x="363.5" y="745.2891">notes</text><line style="stroke: #A80036; stroke-width: 1.0; stroke-dasharray: 1.0,2.0;" x1="393.5" x2="454" y1="741.6318" y2="741.6318"/><rect fill="#FEFECE" filter="url(#f1)" height="95.8203" style="stroke: #A80036; stroke-width: 1.5;" width="144" x="306.5" y="476.6992"/><ellipse cx="325.55" cy="492.6992" fill="#ADD1B2" rx="11" ry="11" style="stroke: #A80036; stroke-width: 1.0;"/><path d="M327.2531,488.3784 Q327.4191,488.0796 327.5935,487.9551 Q327.7678,487.8306 328.0334,487.8306 Q328.4401,487.8306 328.6103,488.0464 Q328.7805,488.2622 328.7805,488.7852 L328.7971,490.9434 Q328.7971,491.5161 328.6103,491.7153 Q328.4235,491.9146 327.9338,491.9146 Q327.5852,491.9146 327.3984,491.7485 Q327.2116,491.5825 327.0788,491.1343 Q326.863,490.3457 326.3898,490.0012 Q325.9167,489.6567 325.0783,489.6567 Q323.8,489.6567 323.1193,490.52 Q322.4387,491.3833 322.4387,493.0186 Q322.4387,494.6455 323.1276,495.5171 Q323.8166,496.3887 325.0949,496.3887 Q325.9665,496.3887 327.0166,495.8076 Q328.0666,495.2266 328.3405,495.2266 Q328.6643,495.2266 328.8842,495.5005 Q329.1042,495.7744 329.1042,496.1812 Q329.1042,496.9116 327.8176,497.5591 Q326.531,498.2065 324.9206,498.2065 Q322.7458,498.2065 321.4011,496.7705 Q320.0563,495.3345 320.0563,493.0186 Q320.0563,490.7856 321.4177,489.3081 Q322.779,487.8306 324.8708,487.8306 Q325.4602,487.8306 326.0329,487.9634 Q326.6057,488.0962 327.2531,488.3784 Z "/><text fill="#000000" font-family="sans-serif" font-size="12" lengthAdjust="spacingAndGlyphs" textLength="103" x="340.45" y="497.2344">InterfaceResource</text><line style="stroke: #A80036; stroke-width: 1.5;" x1="307.5" x2="449.5" y1="508.6992" y2="508.6992"/><text fill="#000000" font-family="sans-serif" font-size="11" lengthAdjust="spacingAndGlyphs" textLength="45" x="312.5" y="523.334">String ip</text><text fill="#000000" font-family="sans-serif" font-size="11" lengthAdjust="spacingAndGlyphs" textLength="132" x="312.5" y="553.2441">creates interface without</text><text fill="#000000" font-family="sans-serif" font-size="11" lengthAdjust="spacingAndGlyphs" textLength="94" x="312.5" y="566.1992">Host to reserve IP</text><line style="stroke: #A80036; stroke-width: 1.0; stroke-dasharray: 1.0,2.0;" x1="307.5" x2="363.5" y1="536.1318" y2="536.1318"/><text fill="#000000" font-family="sans-serif" font-size="11" lengthAdjust="spacingAndGlyphs" textLength="30" x="363.5" y="539.7891">notes</text><line style="stroke: #A80036; stroke-width: 1.0; stroke-dasharray: 1.0,2.0;" x1="393.5" x2="449.5" y1="536.1318" y2="536.1318"/><rect fill="#FEFECE" filter="url(#f1)" height="86.8652" style="stroke: #A80036; stroke-width: 1.5;" width="145" x="740" y="481.1992"/><ellipse cx="770.3" cy="497.1992" fill="#ADD1B2" rx="11" ry="11" style="stroke: #A80036; stroke-width: 1.0;"/><path d="M772.0031,492.8784 Q772.1691,492.5796 772.3435,492.4551 Q772.5178,492.3306 772.7834,492.3306 Q773.1901,492.3306 773.3603,492.5464 Q773.5305,492.7622 773.5305,493.2852 L773.5471,495.4434 Q773.5471,496.0161 773.3603,496.2153 Q773.1735,496.4146 772.6838,496.4146 Q772.3352,496.4146 772.1484,496.2485 Q771.9616,496.0825 771.8288,495.6343 Q771.613,494.8457 771.1398,494.5012 Q770.6667,494.1567 769.8283,494.1567 Q768.55,494.1567 767.8693,495.02 Q767.1887,495.8833 767.1887,497.5186 Q767.1887,499.1455 767.8776,500.0171 Q768.5666,500.8887 769.8449,500.8887 Q770.7165,500.8887 771.7666,500.3076 Q772.8166,499.7266 773.0905,499.7266 Q773.4143,499.7266 773.6342,500.0005 Q773.8542,500.2744 773.8542,500.6812 Q773.8542,501.4116 772.5676,502.0591 Q771.281,502.7065 769.6706,502.7065 Q767.4958,502.7065 766.1511,501.2705 Q764.8063,499.8345 764.8063,497.5186 Q764.8063,495.2856 766.1677,493.8081 Q767.529,492.3306 769.6208,492.3306 Q770.2102,492.3306 770.7829,492.4634 Q771.3557,492.5962 772.0031,492.8784 Z "/><text fill="#000000" font-family="sans-serif" font-size="12" lengthAdjust="spacingAndGlyphs" textLength="79" x="787.7" y="501.7344">HostResource</text><line style="stroke: #A80036; stroke-width: 1.5;" x1="741" x2="884" y1="513.1992" y2="513.1992"/><text fill="#000000" font-family="sans-serif" font-size="11" lengthAdjust="spacingAndGlyphs" textLength="133" x="746" y="527.834">String name # "db-%02d"</text><text fill="#000000" font-family="sans-serif" font-size="11" lengthAdjust="spacingAndGlyphs" textLength="67" x="746" y="540.7891">Integere min</text><text fill="#000000" font-family="sans-serif" font-size="11" lengthAdjust="spacingAndGlyphs" textLength="70" x="746" y="553.7441">Integere max</text><line style="stroke: #A80036; stroke-width: 1.5;" x1="741" x2="884" y1="560.0645" y2="560.0645"/><rect fill="#FEFECE" filter="url(#f1)" height="134.6855" style="stroke: #A80036; stroke-width: 1.5;" width="195" x="1044" y="29.1992"/><ellipse cx="1071.15" cy="45.1992" fill="#ADD1B2" rx="11" ry="11" style="stroke: #A80036; stroke-width: 1.0;"/><path d="M1072.8531,40.8784 Q1073.0191,40.5796 1073.1935,40.4551 Q1073.3678,40.3306 1073.6334,40.3306 Q1074.0401,40.3306 1074.2103,40.5464 Q1074.3805,40.7622 1074.3805,41.2852 L1074.3971,43.4434 Q1074.3971,44.0161 1074.2103,44.2153 Q1074.0235,44.4146 1073.5338,44.4146 Q1073.1852,44.4146 1072.9984,44.2485 Q1072.8116,44.0825 1072.6788,43.6343 Q1072.463,42.8457 1071.9898,42.5012 Q1071.5167,42.1567 1070.6783,42.1567 Q1069.4,42.1567 1068.7193,43.02 Q1068.0387,43.8833 1068.0387,45.5186 Q1068.0387,47.1455 1068.7276,48.0171 Q1069.4166,48.8887 1070.6949,48.8887 Q1071.5665,48.8887 1072.6166,48.3076 Q1073.6666,47.7266 1073.9405,47.7266 Q1074.2643,47.7266 1074.4842,48.0005 Q1074.7042,48.2744 1074.7042,48.6812 Q1074.7042,49.4116 1073.4176,50.0591 Q1072.131,50.7065 1070.5206,50.7065 Q1068.3458,50.7065 1067.0011,49.2705 Q1065.6563,47.8345 1065.6563,45.5186 Q1065.6563,43.2856 1067.0177,41.8081 Q1068.379,40.3306 1070.4708,40.3306 Q1071.0602,40.3306 1071.6329,40.4634 Q1072.2057,40.5962 1072.8531,40.8784 Z "/><text fill="#000000" font-family="sans-serif" font-size="12" lengthAdjust="spacingAndGlyphs" textLength="136" x="1087.85" y="49.7344">ConnectParamResource</text><line style="stroke: #A80036; stroke-width: 1.5;" x1="1045" x2="1238" y1="61.1992" y2="61.1992"/><text fill="#000000" font-family="sans-serif" font-size="11" lengthAdjust="spacingAndGlyphs" textLength="124" x="1050" y="92.7891">Possibly allow to define</text><text fill="#000000" font-family="sans-serif" font-size="11" lengthAdjust="spacingAndGlyphs" textLength="141" x="1050" y="105.7441">a transformation function.</text><text fill="#000000" font-family="sans-serif" font-size="11" lengthAdjust="spacingAndGlyphs" textLength="183" x="1050" y="118.6992">Only resource allowing to connect</text><text fill="#000000" font-family="sans-serif" font-size="11" lengthAdjust="spacingAndGlyphs" textLength="152" x="1050" y="131.6543">resources form child stacks.</text><text fill="#000000" font-family="sans-serif" font-size="11" lengthAdjust="spacingAndGlyphs" textLength="155" x="1050" y="144.6094">ERB is inserted to destination</text><text fill="#000000" font-family="sans-serif" font-size="11" lengthAdjust="spacingAndGlyphs" textLength="172" x="1050" y="157.5645">to propagate value from source.</text><line style="stroke: #A80036; stroke-width: 1.0; stroke-dasharray: 1.0,2.0;" x1="1045" x2="1126.5" y1="75.6768" y2="75.6768"/><text fill="#000000" font-family="sans-serif" font-size="11" lengthAdjust="spacingAndGlyphs" textLength="30" x="1126.5" y="79.334">notes</text><line style="stroke: #A80036; stroke-width: 1.0; stroke-dasharray: 1.0,2.0;" x1="1156.5" x2="1238" y1="75.6768" y2="75.6768"/><rect fill="#FEFECE" filter="url(#f1)" height="89.1309" style="stroke: #A80036; stroke-width: 1.5;" width="198" x="1284.5" y="52.1992"/><ellipse cx="1314.8" cy="71.332" fill="#008000" rx="11" ry="11" style="stroke: #A80036; stroke-width: 1.0;"/><path d="M1316.5031,67.0112 Q1316.6691,66.7124 1316.8435,66.5879 Q1317.0178,66.4634 1317.2834,66.4634 Q1317.6901,66.4634 1317.8603,66.6792 Q1318.0305,66.895 1318.0305,67.418 L1318.0471,69.5762 Q1318.0471,70.1489 1317.8603,70.3481 Q1317.6735,70.5474 1317.1838,70.5474 Q1316.8352,70.5474 1316.6484,70.3813 Q1316.4616,70.2153 1316.3288,69.7671 Q1316.113,68.9785 1315.6398,68.634 Q1315.1667,68.2896 1314.3283,68.2896 Q1313.05,68.2896 1312.3693,69.1528 Q1311.6887,70.0161 1311.6887,71.6514 Q1311.6887,73.2783 1312.3776,74.1499 Q1313.0666,75.0215 1314.3449,75.0215 Q1315.2165,75.0215 1316.2666,74.4404 Q1317.3166,73.8594 1317.5905,73.8594 Q1317.9143,73.8594 1318.1342,74.1333 Q1318.3542,74.4072 1318.3542,74.814 Q1318.3542,75.5444 1317.0676,76.1919 Q1315.781,76.8394 1314.1706,76.8394 Q1311.9958,76.8394 1310.6511,75.4033 Q1309.3063,73.9673 1309.3063,71.6514 Q1309.3063,69.4185 1310.6677,67.9409 Q1312.029,66.4634 1314.1208,66.4634 Q1314.7102,66.4634 1315.2829,66.5962 Q1315.8557,66.729 1316.5031,67.0112 Z "/><text fill="#000000" font-family="sans-serif" font-size="12" font-style="italic" lengthAdjust="spacingAndGlyphs" textLength="97" x="1349.7" y="68.8008">&lt;&lt; Ordered &gt;&gt;</text><text fill="#000000" font-family="sans-serif" font-size="12" lengthAdjust="spacingAndGlyphs" textLength="132" x="1332.2" y="82.9336">ParamUpdateResource</text><line style="stroke: #A80036; stroke-width: 1.5;" x1="1285.5" x2="1481.5" y1="90.4648" y2="90.4648"/><text fill="#000000" font-family="sans-serif" font-size="11" lengthAdjust="spacingAndGlyphs" textLength="69" x="1290.5" y="105.0996">Staring value</text><text fill="#000000" font-family="sans-serif" font-size="11" lengthAdjust="spacingAndGlyphs" textLength="186" x="1290.5" y="135.0098">possibly ERB to compute new value</text><line style="stroke: #A80036; stroke-width: 1.0; stroke-dasharray: 1.0,2.0;" x1="1285.5" x2="1368.5" y1="117.8975" y2="117.8975"/><text fill="#000000" font-family="sans-serif" font-size="11" lengthAdjust="spacingAndGlyphs" textLength="30" x="1368.5" y="121.5547">notes</text><line style="stroke: #A80036; stroke-width: 1.0; stroke-dasharray: 1.0,2.0;" x1="1398.5" x2="1481.5" y1="117.8975" y2="117.8975"/><rect fill="#FEFECE" filter="url(#f1)" height="54.2656" style="stroke: #A80036; stroke-width: 1.5;" width="148" x="738.5" y="290.1992"/><ellipse cx="753.5" cy="309.332" fill="#008000" rx="11" ry="11" style="stroke: #A80036; stroke-width: 1.0;"/><path d="M755.2031,305.0112 Q755.3691,304.7124 755.5435,304.5879 Q755.7178,304.4634 755.9834,304.4634 Q756.3901,304.4634 756.5603,304.6792 Q756.7305,304.895 756.7305,305.418 L756.7471,307.5762 Q756.7471,308.1489 756.5603,308.3481 Q756.3735,308.5474 755.8838,308.5474 Q755.5352,308.5474 755.3484,308.3813 Q755.1616,308.2153 755.0288,307.7671 Q754.813,306.9785 754.3398,306.634 Q753.8667,306.2896 753.0283,306.2896 Q751.75,306.2896 751.0693,307.1528 Q750.3887,308.0161 750.3887,309.6514 Q750.3887,311.2783 751.0776,312.1499 Q751.7666,313.0215 753.0449,313.0215 Q753.9165,313.0215 754.9666,312.4404 Q756.0166,311.8594 756.2905,311.8594 Q756.6143,311.8594 756.8342,312.1333 Q757.0542,312.4072 757.0542,312.814 Q757.0542,313.5444 755.7676,314.1919 Q754.481,314.8394 752.8706,314.8394 Q750.6958,314.8394 749.3511,313.4033 Q748.0063,311.9673 748.0063,309.6514 Q748.0063,307.4185 749.3677,305.9409 Q750.729,304.4634 752.8208,304.4634 Q753.4102,304.4634 753.9829,304.5962 Q754.5557,304.729 755.2031,305.0112 Z "/><text fill="#000000" font-family="sans-serif" font-size="12" font-style="italic" lengthAdjust="spacingAndGlyphs" textLength="97" x="777" y="306.8008">&lt;&lt; Ordered &gt;&gt;</text><text fill="#000000" font-family="sans-serif" font-size="12" lengthAdjust="spacingAndGlyphs" textLength="116" x="767.5" y="320.9336">PuppetRunResource</text><line style="stroke: #A80036; stroke-width: 1.5;" x1="739.5" x2="885.5" y1="328.4648" y2="328.4648"/><line style="stroke: #A80036; stroke-width: 1.5;" x1="739.5" x2="885.5" y1="336.4648" y2="336.4648"/><rect fill="#FEFECE" filter="url(#f1)" height="82.8652" style="stroke: #A80036; stroke-width: 1.5;" width="193" x="922" y="275.6992"/><ellipse cx="951.4" cy="291.6992" fill="#ADD1B2" rx="11" ry="11" style="stroke: #A80036; stroke-width: 1.0;"/><path d="M953.1031,287.3784 Q953.2691,287.0796 953.4435,286.9551 Q953.6178,286.8306 953.8834,286.8306 Q954.2901,286.8306 954.4603,287.0464 Q954.6305,287.2622 954.6305,287.7852 L954.6471,289.9434 Q954.6471,290.5161 954.4603,290.7153 Q954.2735,290.9146 953.7838,290.9146 Q953.4352,290.9146 953.2484,290.7485 Q953.0616,290.5825 952.9288,290.1343 Q952.713,289.3457 952.2398,289.0012 Q951.7667,288.6567 950.9283,288.6567 Q949.65,288.6567 948.9693,289.52 Q948.2887,290.3833 948.2887,292.0186 Q948.2887,293.6455 948.9776,294.5171 Q949.6666,295.3887 950.9449,295.3887 Q951.8165,295.3887 952.8666,294.8076 Q953.9166,294.2266 954.1905,294.2266 Q954.5143,294.2266 954.7342,294.5005 Q954.9542,294.7744 954.9542,295.1812 Q954.9542,295.9116 953.6676,296.5591 Q952.381,297.2065 950.7706,297.2065 Q948.5958,297.2065 947.2511,295.7705 Q945.9063,294.3345 945.9063,292.0186 Q945.9063,289.7856 947.2677,288.3081 Q948.629,286.8306 950.7208,286.8306 Q951.3102,286.8306 951.8829,286.9634 Q952.4557,287.0962 953.1031,287.3784 Z "/><text fill="#000000" font-family="sans-serif" font-size="12" lengthAdjust="spacingAndGlyphs" textLength="129" x="968.6" y="296.2344">HostgroupDeployment</text><line style="stroke: #A80036; stroke-width: 1.5;" x1="923" x2="1114" y1="307.6992" y2="307.6992"/><text fill="#000000" font-family="sans-serif" font-size="11" lengthAdjust="spacingAndGlyphs" textLength="160" x="928" y="339.2891">hostgroup created for a given</text><text fill="#000000" font-family="sans-serif" font-size="11" lengthAdjust="spacingAndGlyphs" textLength="181" x="928" y="352.2441">resource within given deployment</text><line style="stroke: #A80036; stroke-width: 1.0; stroke-dasharray: 1.0,2.0;" x1="923" x2="1003.5" y1="322.1768" y2="322.1768"/><text fill="#000000" font-family="sans-serif" font-size="11" lengthAdjust="spacingAndGlyphs" textLength="30" x="1003.5" y="325.834">notes</text><line style="stroke: #A80036; stroke-width: 1.0; stroke-dasharray: 1.0,2.0;" x1="1033.5" x2="1114" y1="322.1768" y2="322.1768"/><rect fill="#FEFECE" filter="url(#f1)" height="48" style="stroke: #A80036; stroke-width: 1.5;" width="101" x="441" y="72.6992"/><ellipse cx="456" cy="88.6992" fill="#ADD1B2" rx="11" ry="11" style="stroke: #A80036; stroke-width: 1.0;"/><path d="M457.7031,84.3784 Q457.8691,84.0796 458.0435,83.9551 Q458.2178,83.8306 458.4834,83.8306 Q458.8901,83.8306 459.0603,84.0464 Q459.2305,84.2622 459.2305,84.7852 L459.2471,86.9434 Q459.2471,87.5161 459.0603,87.7153 Q458.8735,87.9146 458.3838,87.9146 Q458.0352,87.9146 457.8484,87.7485 Q457.6616,87.5825 457.5288,87.1343 Q457.313,86.3457 456.8398,86.0012 Q456.3667,85.6567 455.5283,85.6567 Q454.25,85.6567 453.5693,86.52 Q452.8887,87.3833 452.8887,89.0186 Q452.8887,90.6455 453.5776,91.5171 Q454.2666,92.3887 455.5449,92.3887 Q456.4165,92.3887 457.4666,91.8076 Q458.5166,91.2266 458.7905,91.2266 Q459.1143,91.2266 459.3342,91.5005 Q459.5542,91.7744 459.5542,92.1812 Q459.5542,92.9116 458.2676,93.5591 Q456.981,94.2065 455.3706,94.2065 Q453.1958,94.2065 451.8511,92.7705 Q450.5063,91.3345 450.5063,89.0186 Q450.5063,86.7856 451.8677,85.3081 Q453.229,83.8306 455.3208,83.8306 Q455.9102,83.8306 456.4829,83.9634 Q457.0557,84.0962 457.7031,84.3784 Z "/><text fill="#000000" font-family="sans-serif" font-size="12" lengthAdjust="spacingAndGlyphs" textLength="69" x="470" y="93.2344">Deployment</text><line style="stroke: #A80036; stroke-width: 1.5;" x1="442" x2="541" y1="104.6992" y2="104.6992"/><line style="stroke: #A80036; stroke-width: 1.5;" x1="442" x2="541" y1="112.6992" y2="112.6992"/><rect fill="#FEFECE" filter="url(#f1)" height="82.8652" style="stroke: #A80036; stroke-width: 1.5;" width="193" x="6" y="483.1992"/><ellipse cx="31.8" cy="499.1992" fill="#ADD1B2" rx="11" ry="11" style="stroke: #A80036; stroke-width: 1.0;"/><path d="M33.5031,494.8784 Q33.6691,494.5796 33.8435,494.4551 Q34.0178,494.3306 34.2834,494.3306 Q34.6901,494.3306 34.8603,494.5464 Q35.0305,494.7622 35.0305,495.2852 L35.0471,497.4434 Q35.0471,498.0161 34.8603,498.2153 Q34.6735,498.4146 34.1838,498.4146 Q33.8352,498.4146 33.6484,498.2485 Q33.4616,498.0825 33.3288,497.6343 Q33.113,496.8457 32.6398,496.5012 Q32.1667,496.1567 31.3283,496.1567 Q30.05,496.1567 29.3693,497.02 Q28.6887,497.8833 28.6887,499.5186 Q28.6887,501.1455 29.3776,502.0171 Q30.0666,502.8887 31.3449,502.8887 Q32.2165,502.8887 33.2666,502.3076 Q34.3166,501.7266 34.5905,501.7266 Q34.9143,501.7266 35.1342,502.0005 Q35.3542,502.2744 35.3542,502.6812 Q35.3542,503.4116 34.0676,504.0591 Q32.781,504.7065 31.1706,504.7065 Q28.9958,504.7065 27.6511,503.2705 Q26.3063,501.8345 26.3063,499.5186 Q26.3063,497.2856 27.6677,495.8081 Q29.029,494.3306 31.1208,494.3306 Q31.7102,494.3306 32.2829,494.4634 Q32.8557,494.5962 33.5031,494.8784 Z "/><text fill="#000000" font-family="sans-serif" font-size="12" lengthAdjust="spacingAndGlyphs" textLength="137" x="48.2" y="503.7344">SubnetTypeDeployment</text><line style="stroke: #A80036; stroke-width: 1.5;" x1="7" x2="198" y1="515.1992" y2="515.1992"/><text fill="#000000" font-family="sans-serif" font-size="11" lengthAdjust="spacingAndGlyphs" textLength="148" x="12" y="546.7891">subnet selection for a given</text><text fill="#000000" font-family="sans-serif" font-size="11" lengthAdjust="spacingAndGlyphs" textLength="181" x="12" y="559.7441">resource within given deployment</text><line style="stroke: #A80036; stroke-width: 1.0; stroke-dasharray: 1.0,2.0;" x1="7" x2="87.5" y1="529.6768" y2="529.6768"/><text fill="#000000" font-family="sans-serif" font-size="11" lengthAdjust="spacingAndGlyphs" textLength="30" x="87.5" y="533.334">notes</text><line style="stroke: #A80036; stroke-width: 1.0; stroke-dasharray: 1.0,2.0;" x1="117.5" x2="198" y1="529.6768" y2="529.6768"/><rect fill="#FEFECE" filter="url(#f1)" height="82.8652" style="stroke: #A80036; stroke-width: 1.5;" width="193" x="281" y="275.6992"/><ellipse cx="314.9" cy="291.6992" fill="#ADD1B2" rx="11" ry="11" style="stroke: #A80036; stroke-width: 1.0;"/><path d="M316.6031,287.3784 Q316.7691,287.0796 316.9435,286.9551 Q317.1178,286.8306 317.3834,286.8306 Q317.7901,286.8306 317.9603,287.0464 Q318.1305,287.2622 318.1305,287.7852 L318.1471,289.9434 Q318.1471,290.5161 317.9603,290.7153 Q317.7735,290.9146 317.2838,290.9146 Q316.9352,290.9146 316.7484,290.7485 Q316.5616,290.5825 316.4288,290.1343 Q316.213,289.3457 315.7398,289.0012 Q315.2667,288.6567 314.4283,288.6567 Q313.15,288.6567 312.4693,289.52 Q311.7887,290.3833 311.7887,292.0186 Q311.7887,293.6455 312.4776,294.5171 Q313.1666,295.3887 314.4449,295.3887 Q315.3165,295.3887 316.3666,294.8076 Q317.4166,294.2266 317.6905,294.2266 Q318.0143,294.2266 318.2342,294.5005 Q318.4542,294.7744 318.4542,295.1812 Q318.4542,295.9116 317.1676,296.5591 Q315.881,297.2065 314.2706,297.2065 Q312.0958,297.2065 310.7511,295.7705 Q309.4063,294.3345 309.4063,292.0186 Q309.4063,289.7856 310.7677,288.3081 Q312.129,286.8306 314.2208,286.8306 Q314.8102,286.8306 315.3829,286.9634 Q315.9557,287.0962 316.6031,287.3784 Z "/><text fill="#000000" font-family="sans-serif" font-size="12" lengthAdjust="spacingAndGlyphs" textLength="119" x="333.1" y="296.2344">InterfaceDeployment</text><line style="stroke: #A80036; stroke-width: 1.5;" x1="282" x2="473" y1="307.6992" y2="307.6992"/><text fill="#000000" font-family="sans-serif" font-size="11" lengthAdjust="spacingAndGlyphs" textLength="150" x="287" y="339.2891">interface created for a given</text><text fill="#000000" font-family="sans-serif" font-size="11" lengthAdjust="spacingAndGlyphs" textLength="181" x="287" y="352.2441">resource within given deployment</text><line style="stroke: #A80036; stroke-width: 1.0; stroke-dasharray: 1.0,2.0;" x1="282" x2="362.5" y1="322.1768" y2="322.1768"/><text fill="#000000" font-family="sans-serif" font-size="11" lengthAdjust="spacingAndGlyphs" textLength="30" x="362.5" y="325.834">notes</text><line style="stroke: #A80036; stroke-width: 1.0; stroke-dasharray: 1.0,2.0;" x1="392.5" x2="473" y1="322.1768" y2="322.1768"/><rect fill="#FEFECE" filter="url(#f1)" height="95.8203" style="stroke: #A80036; stroke-width: 1.5;" width="194" x="509.5" y="269.1992"/><ellipse cx="554.75" cy="285.1992" fill="#ADD1B2" rx="11" ry="11" style="stroke: #A80036; stroke-width: 1.0;"/><path d="M556.4531,280.8784 Q556.6191,280.5796 556.7935,280.4551 Q556.9678,280.3306 557.2334,280.3306 Q557.6401,280.3306 557.8103,280.5464 Q557.9805,280.7622 557.9805,281.2852 L557.9971,283.4434 Q557.9971,284.0161 557.8103,284.2153 Q557.6235,284.4146 557.1338,284.4146 Q556.7852,284.4146 556.5984,284.2485 Q556.4116,284.0825 556.2788,283.6343 Q556.063,282.8457 555.5898,282.5012 Q555.1167,282.1567 554.2783,282.1567 Q553,282.1567 552.3193,283.02 Q551.6387,283.8833 551.6387,285.5186 Q551.6387,287.1455 552.3276,288.0171 Q553.0166,288.8887 554.2949,288.8887 Q555.1665,288.8887 556.2166,288.3076 Q557.2666,287.7266 557.5405,287.7266 Q557.8643,287.7266 558.0842,288.0005 Q558.3042,288.2744 558.3042,288.6812 Q558.3042,289.4116 557.0176,290.0591 Q555.731,290.7065 554.1206,290.7065 Q551.9458,290.7065 550.6011,289.2705 Q549.2563,287.8345 549.2563,285.5186 Q549.2563,283.2856 550.6177,281.8081 Q551.979,280.3306 554.0708,280.3306 Q554.6602,280.3306 555.2329,280.4634 Q555.8057,280.5962 556.4531,280.8784 Z "/><text fill="#000000" font-family="sans-serif" font-size="12" lengthAdjust="spacingAndGlyphs" textLength="95" x="575.25" y="289.7344">HostDeployment</text><line style="stroke: #A80036; stroke-width: 1.5;" x1="510.5" x2="702.5" y1="301.1992" y2="301.1992"/><text fill="#000000" font-family="sans-serif" font-size="11" lengthAdjust="spacingAndGlyphs" textLength="182" x="515.5" y="332.7891">host provisioned (not configured)</text><text fill="#000000" font-family="sans-serif" font-size="11" lengthAdjust="spacingAndGlyphs" textLength="175" x="515.5" y="345.7441">for a given resource within given</text><text fill="#000000" font-family="sans-serif" font-size="11" lengthAdjust="spacingAndGlyphs" textLength="63" x="515.5" y="358.6992">deployment</text><line style="stroke: #A80036; stroke-width: 1.0; stroke-dasharray: 1.0,2.0;" x1="510.5" x2="591.5" y1="315.6768" y2="315.6768"/><text fill="#000000" font-family="sans-serif" font-size="11" lengthAdjust="spacingAndGlyphs" textLength="30" x="591.5" y="319.334">notes</text><line style="stroke: #A80036; stroke-width: 1.0; stroke-dasharray: 1.0,2.0;" x1="621.5" x2="702.5" y1="315.6768" y2="315.6768"/><rect fill="#FEFECE" filter="url(#f1)" height="48" style="stroke: #A80036; stroke-width: 1.5;" width="95" x="490" y="706.1992"/><ellipse cx="505" cy="722.1992" fill="#ADD1B2" rx="11" ry="11" style="stroke: #A80036; stroke-width: 1.0;"/><path d="M506.7031,717.8784 Q506.8691,717.5796 507.0435,717.4551 Q507.2178,717.3306 507.4834,717.3306 Q507.8901,717.3306 508.0603,717.5464 Q508.2305,717.7622 508.2305,718.2852 L508.2471,720.4434 Q508.2471,721.0161 508.0603,721.2153 Q507.8735,721.4146 507.3838,721.4146 Q507.0352,721.4146 506.8484,721.2485 Q506.6616,721.0825 506.5288,720.6343 Q506.313,719.8457 505.8398,719.5012 Q505.3667,719.1567 504.5283,719.1567 Q503.25,719.1567 502.5693,720.02 Q501.8887,720.8833 501.8887,722.5186 Q501.8887,724.1455 502.5776,725.0171 Q503.2666,725.8887 504.5449,725.8887 Q505.4165,725.8887 506.4666,725.3076 Q507.5166,724.7266 507.7905,724.7266 Q508.1143,724.7266 508.3342,725.0005 Q508.5542,725.2744 508.5542,725.6812 Q508.5542,726.4116 507.2676,727.0591 Q505.981,727.7065 504.3706,727.7065 Q502.1958,727.7065 500.8511,726.2705 Q499.5063,724.8345 499.5063,722.5186 Q499.5063,720.2856 500.8677,718.8081 Q502.229,717.3306 504.3208,717.3306 Q504.9102,717.3306 505.4829,717.4634 Q506.0557,717.5962 506.7031,717.8784 Z "/><text fill="#000000" font-family="sans-serif" font-size="12" lengthAdjust="spacingAndGlyphs" textLength="63" x="519" y="726.7344">PuppetRun</text><line style="stroke: #A80036; stroke-width: 1.5;" x1="491" x2="584" y1="738.1992" y2="738.1992"/><line style="stroke: #A80036; stroke-width: 1.5;" x1="491" x2="584" y1="746.1992" y2="746.1992"/><path d="M547.2,116.8492 C627.155,144.8592 778.592,199.8072 903.5,256.1992 C916.636,262.1292 930.391,268.8442 943.635,275.5812 " fill="none" style="stroke: #A80036; stroke-width: 1.0;"/><polygon fill="#A80036" points="542.038,115.0492,549.2108,121.7984,546.7572,116.7014,551.8542,114.2477,542.038,115.0492" style="stroke: #A80036; stroke-width: 1.0;"/><text fill="#000000" font-family="sans-serif" font-size="13" lengthAdjust="spacingAndGlyphs" textLength="8" x="550.0483" y="114.234">1</text><path d="M1071.22,358.9922 C1115.54,393.1822 1172.59,436.9452 1178.5,440.1992 C1228.5,467.7382 1289.43,489.7162 1335.27,504.1982 " fill="none" style="stroke: #A80036; stroke-width: 1.0;"/><polygon fill="#A80036" points="1340.21,505.7512,1332.8239,499.2362,1335.4401,504.2517,1330.4247,506.868,1340.21,505.7512" style="stroke: #A80036; stroke-width: 1.0;"/><text fill="#000000" font-family="sans-serif" font-size="13" lengthAdjust="spacingAndGlyphs" textLength="8" x="1324.4296" y="500.2641">1</text><path d="M1023.46,358.8582 C1026.96,382.8462 1032.49,413.6162 1040.5,440.1992 C1042.95,448.3352 1045.96,456.7412 1049.19,464.9442 " fill="none" style="stroke: #A80036; stroke-width: 1.0;"/><polygon fill="#A80036" points="1051.23,470.0222,1051.5936,460.1801,1049.3694,465.3813,1044.1681,463.1571,1051.23,470.0222" style="stroke: #A80036; stroke-width: 1.0;"/><text fill="#000000" font-family="sans-serif" font-size="13" lengthAdjust="spacingAndGlyphs" textLength="8" x="1039.2968" y="459.2715">1</text><path d="M1262.58,378.4682 C1275.95,398.8992 1291.91,421.3132 1308.5,440.1992 C1325.61,459.6782 1347.15,478.9512 1365.38,494.0642 " fill="none" style="stroke: #A80036; stroke-width: 1.0; stroke-dasharray: 7.0,7.0;"/><polygon fill="#A80036" points="1369.46,497.4202,1365.0454,488.6162,1365.5967,494.2461,1359.9668,494.7974,1369.46,497.4202" style="stroke: #A80036; stroke-width: 1.0;"/><text fill="#000000" font-family="sans-serif" font-size="13" lengthAdjust="spacingAndGlyphs" textLength="67" x="1309.5" y="429.2676">configures</text><path d="M1671.66,133.7002 C1688.45,190.4302 1711.67,302.0002 1664.5,378.1992 C1621.72,447.3052 1533.55,486.3212 1471.57,506.1942 " fill="none" style="stroke: #A80036; stroke-width: 1.0; stroke-dasharray: 7.0,7.0;"/><polygon fill="#A80036" points="1466.78,507.7092,1476.5655,508.8243,1471.5496,506.2089,1474.165,501.193,1466.78,507.7092" style="stroke: #A80036; stroke-width: 1.0;"/><text fill="#000000" font-family="sans-serif" font-size="13" lengthAdjust="spacingAndGlyphs" textLength="67" x="1692.5" y="322.2676">configures</text><path d="M1539.38,354.4652 C1507.6,394.0432 1457.31,456.6842 1427.64,493.6312 " fill="none" style="stroke: #A80036; stroke-width: 1.0; stroke-dasharray: 7.0,7.0;"/><polygon fill="#A80036" points="1424.48,497.5652,1433.2338,493.0518,1427.6104,493.6665,1426.9958,488.0431,1424.48,497.5652" style="stroke: #A80036; stroke-width: 1.0;"/><text fill="#000000" font-family="sans-serif" font-size="13" lengthAdjust="spacingAndGlyphs" textLength="67" x="1496.5" y="429.2676">configures</text><path d="M927.751,804.3632 C889.941,833.9232 843.584,866.1842 797.5,888.1992 C752.514,909.6902 698.024,923.9142 655.824,932.6482 " fill="none" style="stroke: #A80036; stroke-width: 1.0; stroke-dasharray: 7.0,7.0;"/><polygon fill="#A80036" points="650.74,933.6862,660.3587,935.8031,655.6387,932.685,658.7568,927.9651,650.74,933.6862" style="stroke: #A80036; stroke-width: 1.0;"/><text fill="#000000" font-family="sans-serif" font-size="13" lengthAdjust="spacingAndGlyphs" textLength="77" x="886.5" y="858.7676">limits user's</text><text fill="#000000" font-family="sans-serif" font-size="13" lengthAdjust="spacingAndGlyphs" textLength="57" x="896.5" y="874.0781">selection</text><path d="M749.797,778.4972 C728.581,811.3262 697.714,854.9592 664.5,888.1992 C655.011,897.6962 643.792,906.8032 632.897,914.8122 " fill="none" style="stroke: #A80036; stroke-width: 1.0; stroke-dasharray: 7.0,7.0;"/><polygon fill="#A80036" points="628.58,917.9422,638.2143,915.8978,632.628,915.0073,633.5185,909.421,628.58,917.9422" style="stroke: #A80036; stroke-width: 1.0;"/><text fill="#000000" font-family="sans-serif" font-size="13" lengthAdjust="spacingAndGlyphs" textLength="77" x="711.5" y="858.7676">limits user's</text><text fill="#000000" font-family="sans-serif" font-size="13" lengthAdjust="spacingAndGlyphs" textLength="57" x="721.5" y="874.0781">selection</text><path d="M443.098,123.2522 C393.644,151.0882 316.756,199.3252 263.5,256.1992 C197.924,326.2302 146.063,427.2982 120.299,483.0062 " fill="none" style="stroke: #A80036; stroke-width: 1.0;"/><polygon fill="#A80036" points="447.5,120.7882,437.693,121.695,443.1373,123.231,441.6014,128.6753,447.5,120.7882" style="stroke: #A80036; stroke-width: 1.0;"/><text fill="#000000" font-family="sans-serif" font-size="13" lengthAdjust="spacingAndGlyphs" textLength="8" x="427.8" y="141.0942">1</text><path d="M103.9594,566.3812 C106.385,633.9852 111.194,768.0312 113.376,828.8652 " fill="none" style="stroke: #A80036; stroke-width: 1.0;"/><polygon fill="#A80036" points="113.566,834.1692,117.2394,825.0311,113.386,829.1725,109.2446,825.319,113.566,834.1692" style="stroke: #A80036; stroke-width: 1.0;"/><text fill="#000000" font-family="sans-serif" font-size="13" lengthAdjust="spacingAndGlyphs" textLength="8" x="104.3636" y="823.3264">1</text><path d="M157.689,566.3912 C201.668,598.8172 263.452,644.3722 310.486,679.0512 " fill="none" style="stroke: #A80036; stroke-width: 1.0;"/><polygon fill="#A80036" points="314.703,682.1612,309.8349,673.5996,310.6793,679.1931,305.0858,680.0375,314.703,682.1612" style="stroke: #A80036; stroke-width: 1.0;"/><text fill="#000000" font-family="sans-serif" font-size="13" lengthAdjust="spacingAndGlyphs" textLength="8" x="296.7453" y="671.6084">1</text><path d="M393.216,778.4242 C405.986,812.7202 427.512,858.1922 459.5,888.1992 C476.358,904.0132 498.401,915.8132 519.434,924.3962 " fill="none" style="stroke: #A80036; stroke-width: 1.0; stroke-dasharray: 7.0,7.0;"/><polygon fill="#A80036" points="524.186,926.2892,517.3044,919.2434,519.5408,924.4394,514.3447,926.6758,524.186,926.2892" style="stroke: #A80036; stroke-width: 1.0;"/><text fill="#000000" font-family="sans-serif" font-size="13" lengthAdjust="spacingAndGlyphs" textLength="93" x="460.5" y="858.7676">defines subnet</text><text fill="#000000" font-family="sans-serif" font-size="13" lengthAdjust="spacingAndGlyphs" textLength="83" x="465.5" y="874.0781">requirements</text><path d="M120.579,893.2882 C125.858,916.0802 134.834,947.2662 148.5,972.1992 C167.731,1007.2852 198.452,1041.5028 220.773,1063.9769 " fill="none" style="stroke: #A80036; stroke-width: 1.0;"/><polygon fill="#A80036" points="119.444,888.2672,117.5248,897.9273,120.5454,893.1444,125.3283,896.165,119.444,888.2672" style="stroke: #A80036; stroke-width: 1.0;"/><text fill="#000000" font-family="sans-serif" font-size="13" lengthAdjust="spacingAndGlyphs" textLength="72" x="149.5" y="950.2676">assigned in</text><path d="M476.963,125.5622 C457.138,163.5592 421.488,231.8892 398.688,275.5892 " fill="none" style="stroke: #A80036; stroke-width: 1.0;"/><polygon fill="#A80036" points="479.3,121.0822,471.5905,127.2111,476.9871,125.5151,478.6831,130.9117,479.3,121.0822" style="stroke: #A80036; stroke-width: 1.0;"/><text fill="#000000" font-family="sans-serif" font-size="13" lengthAdjust="spacingAndGlyphs" textLength="8" x="467.3513" y="141.4599">1</text><path d="M346.519,358.9572 C326.111,388.2362 300.942,429.5552 288.5,470.1992 C222.032,687.3252 237.833,966.6212 245.545,1059.0059 " fill="none" style="stroke: #A80036; stroke-width: 1.0;"/><polygon fill="#A80036" points="245.973,1064.0435,249.1966,1054.7372,245.5496,1059.0615,241.2253,1055.4145,245.973,1064.0435" style="stroke: #A80036; stroke-width: 1.0;"/><text fill="#000000" font-family="sans-serif" font-size="13" lengthAdjust="spacingAndGlyphs" textLength="8" x="236.4636" y="1053.6029">1</text><path d="M377.698,358.7992 C377.854,391.0192 378.075,436.2992 378.245,471.2612 " fill="none" style="stroke: #A80036; stroke-width: 1.0;"/><polygon fill="#A80036" points="378.27,476.3422,382.2262,467.3229,378.2457,471.3423,374.2263,467.3618,378.27,476.3422" style="stroke: #A80036; stroke-width: 1.0;"/><text fill="#000000" font-family="sans-serif" font-size="13" lengthAdjust="spacingAndGlyphs" textLength="8" x="369.6752" y="466.0902">1</text><path d="M521.375,974.2872 C460.026,1000.3472 369.446,1038.824 309.719,1064.1945 " fill="none" style="stroke: #A80036; stroke-width: 1.0; stroke-dasharray: 7.0,7.0;"/><polygon fill="#A80036" points="526.11,972.2762,516.2625,972.1154,521.5084,974.232,519.3917,979.4779,526.11,972.2762" style="stroke: #A80036; stroke-width: 1.0;"/><text fill="#000000" font-family="sans-serif" font-size="13" lengthAdjust="spacingAndGlyphs" textLength="57" x="452.5" y="1015.7676">blocks IP</text><text fill="#000000" font-family="sans-serif" font-size="13" lengthAdjust="spacingAndGlyphs" textLength="63" x="449.5" y="1031.0781">addresses</text><path d="M506.281,125.7822 C525.305,161.9282 558.637,225.2602 581.604,268.8972 " fill="none" style="stroke: #A80036; stroke-width: 1.0;"/><polygon fill="#A80036" points="503.807,121.0822,504.459,130.9095,506.1357,125.5068,511.5384,127.1835,503.807,121.0822" style="stroke: #A80036; stroke-width: 1.0;"/><text fill="#000000" font-family="sans-serif" font-size="13" lengthAdjust="spacingAndGlyphs" textLength="8" x="497.8318" y="141.4599">1</text><path d="M606.355,365.4592 C606.035,452.3352 605.078,643.2692 602.5,804.1992 C601.902,841.5382 605.191,851.1512 600.5,888.1992 C599.462,896.3992 597.735,905.1542 595.873,913.2462 " fill="none" style="stroke: #A80036; stroke-width: 1.0;"/><polygon fill="#A80036" points="594.702,918.1892,600.6692,910.3539,595.8548,913.3239,592.8847,908.5095,594.702,918.1892" style="stroke: #A80036; stroke-width: 1.0;"/><text fill="#000000" font-family="sans-serif" font-size="13" lengthAdjust="spacingAndGlyphs" textLength="8" x="587.4825" y="907.3512">1</text><path d="M653.761,365.3452 C687.456,398.9582 732.54,443.9332 766.05,477.3622 " fill="none" style="stroke: #A80036; stroke-width: 1.0;"/><polygon fill="#A80036" points="769.666,480.9692,766.1193,471.7811,766.1262,477.438,760.4693,477.4448,769.666,480.9692" style="stroke: #A80036; stroke-width: 1.0;"/><text fill="#000000" font-family="sans-serif" font-size="13" lengthAdjust="spacingAndGlyphs" textLength="8" x="754.2018" y="470.4083">1</text><path d="M1385.55,141.2862 C1389.59,227.3312 1398.5,417.1732 1402.02,492.2522 " fill="none" style="stroke: #A80036; stroke-width: 1.0; stroke-dasharray: 7.0,7.0;"/><polygon fill="#A80036" points="1402.27,497.4562,1405.8431,488.2784,1402.0353,492.4617,1397.852,488.6539,1402.27,497.4562" style="stroke: #A80036; stroke-width: 1.0;"/><text fill="#000000" font-family="sans-serif" font-size="13" lengthAdjust="spacingAndGlyphs" textLength="50" x="1396.5" y="322.2676">updates</text><path d="M542.946,754.3992 C551.969,792.8392 570.028,869.7692 580.165,912.9512 " fill="none" style="stroke: #A80036; stroke-width: 1.0; stroke-dasharray: 7.0,7.0;"/><polygon fill="#A80036" points="581.361,918.0452,583.2011,908.3698,580.2197,913.1772,575.4123,910.1959,581.361,918.0452" style="stroke: #A80036; stroke-width: 1.0;"/><text fill="#000000" font-family="sans-serif" font-size="13" lengthAdjust="spacingAndGlyphs" textLength="16" x="575.5" y="866.2676">on</text><path d="M812.5,344.2262 C812.5,377.2652 812.5,434.8952 812.5,475.9342 " fill="none" style="stroke: #A80036; stroke-width: 1.0;"/><polygon fill="#A80036" points="812.5,481.1062,816.5,472.1062,812.5,476.1062,808.5,472.1062,812.5,481.1062" style="stroke: #A80036; stroke-width: 1.0;"/><text fill="#000000" font-family="sans-serif" font-size="13" lengthAdjust="spacingAndGlyphs" textLength="16" x="813.5" y="429.2676">on</text><text fill="#000000" font-family="sans-serif" font-size="13" lengthAdjust="spacingAndGlyphs" textLength="22" x="787.8188" y="365.216">0..*</text><text fill="#000000" font-family="sans-serif" font-size="13" lengthAdjust="spacingAndGlyphs" textLength="8" x="803.8625" y="470.5671">1</text><path d="M378.5,572.8972 C378.5,603.9922 378.5,644.7382 378.5,676.8312 " fill="none" style="stroke: #A80036; stroke-width: 1.0;"/><polygon fill="#A80036" points="378.5,681.9042,382.5,672.9042,378.5,676.9042,374.5,672.9042,378.5,681.9042" style="stroke: #A80036; stroke-width: 1.0;"/><text fill="#000000" font-family="sans-serif" font-size="13" lengthAdjust="spacingAndGlyphs" textLength="37" x="379.5" y="622.7676">where</text><text fill="#000000" font-family="sans-serif" font-size="13" lengthAdjust="spacingAndGlyphs" textLength="22" x="355.0219" y="592.9829">0..*</text><text fill="#000000" font-family="sans-serif" font-size="13" lengthAdjust="spacingAndGlyphs" textLength="8" x="369.9125" y="671.3137">1</text><path d="M1150.21,369.4612 C1136.96,380.9912 1124.3,394.0512 1114.5,408.1992 C1102.75,425.1552 1094.44,445.9962 1088.64,465.2842 " fill="none" style="stroke: #A80036; stroke-width: 1.0;"/><polygon fill="#A80036" points="1087.23,470.1512,1093.59,462.6312,1088.63,465.3512,1085.91,460.3912,1087.23,470.1512" style="stroke: #A80036; stroke-width: 1.0;"/><text fill="#000000" font-family="sans-serif" font-size="13" lengthAdjust="spacingAndGlyphs" textLength="41" x="1122.5" y="421.7676">will be</text><text fill="#000000" font-family="sans-serif" font-size="13" lengthAdjust="spacingAndGlyphs" textLength="55" x="1115.5" y="437.0781">added to</text><text fill="#000000" font-family="sans-serif" font-size="13" lengthAdjust="spacingAndGlyphs" textLength="22" x="1123.0827" y="372.1904">0..*</text><text fill="#000000" font-family="sans-serif" font-size="13" lengthAdjust="spacingAndGlyphs" textLength="8" x="1080.1343" y="459.4178">1</text><path d="M1352.11,141.3912 C1329.4,172.9852 1298.36,216.1862 1272.82,251.7362 " fill="none" style="stroke: #A80036; stroke-width: 1.0;"/><polygon fill="#A80036" points="1269.73,256.0322,1278.2328,251.0621,1272.6498,251.9733,1271.7386,246.3904,1269.73,256.0322" style="stroke: #A80036; stroke-width: 1.0;"/><text fill="#000000" font-family="sans-serif" font-size="13" lengthAdjust="spacingAndGlyphs" textLength="50" x="1310.5" y="215.2676">updates</text><text fill="#000000" font-family="sans-serif" font-size="13" lengthAdjust="spacingAndGlyphs" textLength="22" x="1323.619" y="161.9652">0..*</text><text fill="#000000" font-family="sans-serif" font-size="13" lengthAdjust="spacingAndGlyphs" textLength="8" x="1266.5112" y="245.2671">1</text><path d="M1644.47,133.7802 C1628.27,172.6832 1602.53,234.4952 1585.57,275.2072 " fill="none" style="stroke: #A80036; stroke-width: 1.0;"/><polygon fill="#A80036" points="1583.55,280.0652,1590.7041,273.2963,1585.4733,275.4499,1583.3197,270.2191,1583.55,280.0652" style="stroke: #A80036; stroke-width: 1.0;"/><text fill="#000000" font-family="sans-serif" font-size="13" lengthAdjust="spacingAndGlyphs" textLength="58" x="1617.5" y="207.7676">overrides</text><text fill="#000000" font-family="sans-serif" font-size="13" lengthAdjust="spacingAndGlyphs" textLength="12" x="1640.5" y="223.0781">in</text><text fill="#000000" font-family="sans-serif" font-size="13" lengthAdjust="spacingAndGlyphs" textLength="22" x="1617.9961" y="154.0453">0..*</text><text fill="#000000" font-family="sans-serif" font-size="13" lengthAdjust="spacingAndGlyphs" textLength="8" x="1577.5873" y="269.4411">1</text><path d="M1514.85,354.2892 C1498.92,363.4752 1481.04,372.3832 1463.5,378.1992 C1358.96,412.8722 1318.78,364.9192 1217.5,408.1992 C1212.89,410.1702 1178.23,438.5442 1144.43,466.6722 " fill="none" style="stroke: #A80036; stroke-width: 1.0;"/><polygon fill="#A80036" points="1140.32,470.0992,1149.7952,467.4122,1144.1617,466.899,1144.6749,461.2655,1140.32,470.0992" style="stroke: #A80036; stroke-width: 1.0;"/><text fill="#000000" font-family="sans-serif" font-size="13" lengthAdjust="spacingAndGlyphs" textLength="41" x="1225.5" y="421.7676">will be</text><text fill="#000000" font-family="sans-serif" font-size="13" lengthAdjust="spacingAndGlyphs" textLength="55" x="1218.5" y="437.0781">added to</text><text fill="#000000" font-family="sans-serif" font-size="13" lengthAdjust="spacingAndGlyphs" textLength="22" x="1481.7383" y="374.5559">0..*</text><text fill="#000000" font-family="sans-serif" font-size="13" lengthAdjust="spacingAndGlyphs" textLength="8" x="1140.3583" y="459.3588">1</text><path d="M739.764,546.7552 C668.982,568.8042 559.657,607.0582 472.5,656.1992 C460.718,662.8422 448.815,670.8612 437.623,679.1182 " fill="none" style="stroke: #A80036; stroke-width: 1.0;"/><polygon fill="#A80036" points="433.534,682.1682,443.1394,679.9918,437.5414,679.1781,438.3551,673.58,433.534,682.1682" style="stroke: #A80036; stroke-width: 1.0;"/><text fill="#000000" font-family="sans-serif" font-size="13" lengthAdjust="spacingAndGlyphs" textLength="74" x="563.5" y="622.7676">connects to</text><text fill="#000000" font-family="sans-serif" font-size="13" lengthAdjust="spacingAndGlyphs" textLength="22" x="710.0446" y="545.686">0..*</text><text fill="#000000" font-family="sans-serif" font-size="13" lengthAdjust="spacingAndGlyphs" textLength="22" x="418.0015" y="671.6165">0..*</text><path d="M854.427,568.3592 C878.324,592.6752 908.993,623.8812 936.947,652.3242 " fill="none" style="stroke: #A80036; stroke-width: 1.0;"/><polygon fill="#A80036" points="940.695,656.1372,937.2395,646.9145,937.1903,652.5711,931.5337,652.522,940.695,656.1372" style="stroke: #A80036; stroke-width: 1.0;"/><text fill="#000000" font-family="sans-serif" font-size="13" lengthAdjust="spacingAndGlyphs" textLength="173" x="908.5" y="622.7676">allowed ComputeResources</text><text fill="#000000" font-family="sans-serif" font-size="13" lengthAdjust="spacingAndGlyphs" textLength="22" x="836.9694" y="588.4744">1..*</text><text fill="#000000" font-family="sans-serif" font-size="13" lengthAdjust="spacingAndGlyphs" textLength="22" x="910.1557" y="645.329">1..*</text><path d="M805.372,568.3592 C800.105,599.8892 792.901,643.0032 787.279,676.6572 " fill="none" style="stroke: #A80036; stroke-width: 1.0;"/><polygon fill="#A80036" points="786.39,681.9732,791.819,673.7558,787.2143,677.0416,783.9285,672.4369,786.39,681.9732" style="stroke: #A80036; stroke-width: 1.0;"/><text fill="#000000" font-family="sans-serif" font-size="13" lengthAdjust="spacingAndGlyphs" textLength="63" x="800.5" y="622.7676">limited by</text><text fill="#000000" font-family="sans-serif" font-size="13" lengthAdjust="spacingAndGlyphs" textLength="22" x="780.7095" y="588.4744">0..*</text><text fill="#000000" font-family="sans-serif" font-size="13" lengthAdjust="spacingAndGlyphs" textLength="8" x="778.9613" y="671.3928">1</text><path d="M1122.2,164.4252 C1119.53,184.9282 1120.11,207.1072 1128.5,226.1992 C1133.01,236.4682 1139.34,246.0792 1146.63,254.9122 " fill="none" style="stroke: #A80036; stroke-width: 1.0;"/><polygon fill="#A80036" points="1150.28,259.1862,1147.4722,249.7461,1147.031,255.3857,1141.3914,254.9445,1150.28,259.1862" style="stroke: #A80036; stroke-width: 1.0;"/><text fill="#000000" font-family="sans-serif" font-size="13" lengthAdjust="spacingAndGlyphs" textLength="42" x="1129.5" y="215.2676">source</text><text fill="#000000" font-family="sans-serif" font-size="13" lengthAdjust="spacingAndGlyphs" textLength="22" x="1097.2173" y="184.4294">0..*</text><text fill="#000000" font-family="sans-serif" font-size="13" lengthAdjust="spacingAndGlyphs" textLength="8" x="1134.3833" y="250.3342">1</text><path d="M1167.46,164.4432 C1178.22,192.0862 1190.64,224.0302 1201.32,251.4592 " fill="none" style="stroke: #A80036; stroke-width: 1.0;"/><polygon fill="#A80036" points="1203.15,256.1722,1203.623,246.3347,1201.3411,251.5109,1196.1649,249.229,1203.15,256.1722" style="stroke: #A80036; stroke-width: 1.0;"/><text fill="#000000" font-family="sans-serif" font-size="13" lengthAdjust="spacingAndGlyphs" textLength="71" x="1189.5" y="215.2676">destination</text><text fill="#000000" font-family="sans-serif" font-size="13" lengthAdjust="spacingAndGlyphs" textLength="24" x="1144.8342" y="184.4492">0..1</text><text fill="#000000" font-family="sans-serif" font-size="13" lengthAdjust="spacingAndGlyphs" textLength="8" x="1191.8167" y="245.4242">1</text><polygon fill="#DDDDDD" points="1298,1136.1992,1298,1195.6641,1770,1195.6641,1770,1136.1992,1298,1136.1992" style="stroke: #000000; stroke-width: 1.0;"/><text fill="#000000" font-family="sans-serif" font-size="14" lengthAdjust="spacingAndGlyphs" textLength="460" x="1304" y="1154.7344">After deployment is configured Resources without Ordered module</text><text fill="#000000" font-family="sans-serif" font-size="14" lengthAdjust="spacingAndGlyphs" textLength="391" x="1304" y="1171.2227">are processed first (they just configure Foreman objects).</text><text fill="#000000" font-family="sans-serif" font-size="14" lengthAdjust="spacingAndGlyphs" textLength="406" x="1304" y="1187.7109">Then Ordered Resources are orchestrated in defined order.</text></g></svg>