<?xml version="1.0" encoding="UTF-8" standalone="yes"?><svg xmlns="http://www.w3.org/2000/svg" xmlns:xlink="http://www.w3.org/1999/xlink" height="402pt" style="width:554px;height:402px;" version="1.1" viewBox="0 0 554 402" width="554pt"><defs><filter height="300%" id="f1" width="300%" x="-1" y="-1"><feGaussianBlur result="blurOut" stdDeviation="2.0"/><feColorMatrix in="blurOut" result="blurOut2" type="matrix" values="0 0 0 0 0 0 0 0 0 0 0 0 0 0 0 0 0 0 .4 0"/><feOffset dx="4.0" dy="4.0" in="blurOut2" result="blurOut3"/><feBlend in="SourceGraphic" in2="blurOut3" mode="normal"/></filter></defs><g><text fill="#000000" font-family="Helvetica Neue" font-size="18" lengthAdjust="spacingAndGlyphs" textLength="126" x="219" y="17.64">Class Overview</text><rect fill="#FEFECE" filter="url(#f1)" height="74.036" style="stroke: #A80036; stroke-width: 1.5;" width="208" x="172.5" y="29.474"/><text fill="#000000" font-family="Helvetica Neue" font-size="12" lengthAdjust="spacingAndGlyphs" textLength="64" x="244.5" y="43.234">Deployment</text><line style="stroke: #A80036; stroke-width: 1.5;" x1="173.5" x2="379.5" y1="47.79" y2="47.79"/><text fill="#000000" font-family="Helvetica Neue" font-size="10" lengthAdjust="spacingAndGlyphs" textLength="180" x="178.5" y="61.59">The result of performing the instructions</text><text fill="#000000" font-family="Helvetica Neue" font-size="10" lengthAdjust="spacingAndGlyphs" textLength="178" x="178.5" y="73.52">in a stack, taking in any necessary input</text><text fill="#000000" font-family="Helvetica Neue" font-size="10" lengthAdjust="spacingAndGlyphs" textLength="182" x="178.5" y="85.45">parameters from user. It's a composition</text><text fill="#000000" font-family="Helvetica Neue" font-size="10" lengthAdjust="spacingAndGlyphs" textLength="196" x="178.5" y="97.38">of created and configured Foreman objects.</text><rect fill="#FEFECE" filter="url(#f1)" height="85.966" style="stroke: #A80036; stroke-width: 1.5;" width="189" x="6" y="180.474"/><text fill="#000000" font-family="Helvetica Neue" font-size="12" lengthAdjust="spacingAndGlyphs" textLength="30" x="85.5" y="194.234">Stack</text><line style="stroke: #A80036; stroke-width: 1.5;" x1="7" x2="194" y1="198.79" y2="198.79"/><text fill="#000000" font-family="Helvetica Neue" font-size="10" lengthAdjust="spacingAndGlyphs" textLength="161" x="12" y="212.59">Composable pieces of infrastructure</text><text fill="#000000" font-family="Helvetica Neue" font-size="10" lengthAdjust="spacingAndGlyphs" textLength="157" x="12" y="224.52">templates. The instructions needed</text><text fill="#000000" font-family="Helvetica Neue" font-size="10" lengthAdjust="spacingAndGlyphs" textLength="159" x="12" y="236.45">to assemble a set of resources for a</text><text fill="#000000" font-family="Helvetica Neue" font-size="10" lengthAdjust="spacingAndGlyphs" textLength="143" x="12" y="248.38">specific purpose, e.g. Database,</text><text fill="#000000" font-family="Helvetica Neue" font-size="10" lengthAdjust="spacingAndGlyphs" textLength="177" x="12" y="260.31">Load balancer, Neutron networked, etc.</text><rect fill="#FEFECE" filter="url(#f1)" height="50.176" style="stroke: #A80036; stroke-width: 1.5;" width="215" x="102" y="343.474"/><text fill="#000000" font-family="Helvetica Neue" font-size="12" lengthAdjust="spacingAndGlyphs" textLength="50" x="184.5" y="357.234">Resource</text><line style="stroke: #A80036; stroke-width: 1.5;" x1="103" x2="316" y1="361.79" y2="361.79"/><text fill="#000000" font-family="Helvetica Neue" font-size="10" lengthAdjust="spacingAndGlyphs" textLength="203" x="108" y="375.59">A Foreman object to be configured or created</text><text fill="#000000" font-family="Helvetica Neue" font-size="10" lengthAdjust="spacingAndGlyphs" textLength="147" x="108" y="387.52">to form an Deployment instance.</text><rect fill="#FEFECE" filter="url(#f1)" height="38.246" style="stroke: #A80036; stroke-width: 1.5;" width="130" x="388.5" y="349.474"/><text fill="#000000" font-family="Helvetica Neue" font-size="12" lengthAdjust="spacingAndGlyphs" textLength="90" x="408.5" y="363.234">AForemanObject</text><line style="stroke: #A80036; stroke-width: 1.5;" x1="389.5" x2="517.5" y1="367.79" y2="367.79"/><text fill="#000000" font-family="Helvetica Neue" font-size="10" lengthAdjust="spacingAndGlyphs" textLength="118" x="394.5" y="381.59">E.g. Host, Hostgroup, etc.</text><rect fill="#FEFECE" filter="url(#f1)" height="74.036" style="stroke: #A80036; stroke-width: 1.5;" width="184" x="361.5" y="186.474"/><text fill="#000000" font-family="Helvetica Neue" font-size="12" lengthAdjust="spacingAndGlyphs" textLength="140" x="383.5" y="200.234">DeployedAForemanObject</text><line style="stroke: #A80036; stroke-width: 1.5;" x1="362.5" x2="544.5" y1="204.79" y2="204.79"/><text fill="#000000" font-family="Helvetica Neue" font-size="10" lengthAdjust="spacingAndGlyphs" textLength="81" x="367.5" y="218.59">Association entity.</text><text fill="#000000" font-family="Helvetica Neue" font-size="10" lengthAdjust="spacingAndGlyphs" textLength="172" x="367.5" y="230.52">Represents AForemanObject deployed</text><text fill="#000000" font-family="Helvetica Neue" font-size="10" lengthAdjust="spacingAndGlyphs" textLength="156" x="367.5" y="242.45">in given Deployment fulfilling given</text><text fill="#000000" font-family="Helvetica Neue" font-size="10" lengthAdjust="spacingAndGlyphs" textLength="45" x="367.5" y="254.38">Resource.</text><path d="M235.236,103.815 C210.445,125.648 178.683,153.62 152.224,176.922 " fill="none" style="stroke: #A80036; stroke-width: 1.0;"/><polygon fill="#A80036" points="148.36,180.324,157.7582,177.3787,152.1127,177.0199,152.4715,171.3744,148.36,180.324" style="stroke: #A80036; stroke-width: 1.0;"/><text fill="#000000" font-family="Helvetica Neue" font-size="13" lengthAdjust="spacingAndGlyphs" textLength="47" x="200.5" y="147.214">deploys</text><text fill="#000000" font-family="Helvetica Neue" font-size="13" lengthAdjust="spacingAndGlyphs" textLength="20" x="206.425" y="124.3027">0..*</text><text fill="#000000" font-family="Helvetica Neue" font-size="13" lengthAdjust="spacingAndGlyphs" textLength="20" x="134.6306" y="169.7201">1..*</text><path d="M195.077,208.937 C215.338,210.386 230,215.232 230,223.474 C230,231.008 217.749,235.704 200.17,237.562 " fill="none" style="stroke: #A80036; stroke-width: 1.0;"/><polygon fill="#A80036" points="195.077,238.011,204.3931,241.2063,200.0577,237.5725,203.6915,233.2371,195.077,238.011" style="stroke: #A80036; stroke-width: 1.0;"/><text fill="#000000" font-family="Helvetica Neue" font-size="13" lengthAdjust="spacingAndGlyphs" textLength="71" x="251" y="208.714">has children</text><polygon fill="#FBFB77" filter="url(#f1)" points="235,222.483,235,247.483,334,247.483,334,232.483,324,222.483,235,222.483" style="stroke: #A80036; stroke-width: 1.0;"/><line style="stroke: #A80036; stroke-width: 1.0;" x1="324" x2="324" y1="222.483" y2="232.483"/><line style="stroke: #A80036; stroke-width: 1.0;" x1="334" x2="324" y1="232.483" y2="232.483"/><text fill="#000000" font-family="Helvetica Neue" font-size="13" lengthAdjust="spacingAndGlyphs" textLength="78" x="241" y="240.223">acyclic graph</text><text fill="#000000" font-family="Helvetica Neue" font-size="13" lengthAdjust="spacingAndGlyphs" textLength="20" x="203.0837" y="205.0106">0..*</text><text fill="#000000" font-family="Helvetica Neue" font-size="13" lengthAdjust="spacingAndGlyphs" textLength="20" x="203.0837" y="236.3106">0..*</text><path d="M140.662,277.164 C154.881,295.8183 170.502,316.3118 183.264,333.0546 " fill="none" style="stroke: #A80036; stroke-width: 1.0;"/><polygon fill="#A80036" points="191.194,343.4584,188.9192,333.8759,188.1629,339.4819,182.5568,338.7256,191.194,343.4584" style="stroke: #A80036; stroke-width: 1.0;"/><line style="stroke: #A80036; stroke-width: 1.0;" x1="188.1629" x2="183.3135" y1="339.4819" y2="333.1194"/><polygon fill="#A80036" points="132.614,266.605,133.0705,273.8016,139.8891,276.1482,139.4326,268.9516,132.614,266.605" style="stroke: #A80036; stroke-width: 1.0;"/><text fill="#000000" font-family="Helvetica Neue" font-size="13" lengthAdjust="spacingAndGlyphs" textLength="91" x="169.5" y="310.214">is composed of</text><text fill="#000000" font-family="Helvetica Neue" font-size="13" lengthAdjust="spacingAndGlyphs" textLength="7" x="129.9955" y="287.1394">1</text><text fill="#000000" font-family="Helvetica Neue" font-size="13" lengthAdjust="spacingAndGlyphs" textLength="20" x="163.5868" y="332.5046">1..*</text><path d="M380.516,267.248 C342.389,289.592 296.603,316.426 262.005,336.7029 " fill="none" style="stroke: #A80036; stroke-width: 1.0;"/><polygon fill="#A80036" points="250.727,343.3121,260.5143,342.2127,255.0408,340.7841,256.4694,335.3106,250.727,343.3121" style="stroke: #A80036; stroke-width: 1.0;"/><line style="stroke: #A80036; stroke-width: 1.0;" x1="255.0408" x2="261.9435" y1="340.7841" y2="336.7388"/><polygon fill="#A80036" points="391.928,260.559,384.729,260.1416,381.5749,266.6263,388.7739,267.0437,391.928,260.559" style="stroke: #A80036; stroke-width: 1.0;"/><text fill="#000000" font-family="Helvetica Neue" font-size="13" lengthAdjust="spacingAndGlyphs" textLength="20" x="359.1792" y="281.2828">0..*</text><text fill="#000000" font-family="Helvetica Neue" font-size="13" lengthAdjust="spacingAndGlyphs" textLength="7" x="253.3945" y="332.7252">1</text><path d="M327.976,112.552 C351.329,133.002 378.877,157.127 402.208,177.557 " fill="none" style="stroke: #A80036; stroke-width: 1.0;"/><polygon fill="#A80036" points="412.261,186.361,410.3823,179.3989,403.2332,178.4554,405.1119,185.4175,412.261,186.361" style="stroke: #A80036; stroke-width: 1.0;"/><polygon fill="#A80036" points="317.999,103.815,322.1347,112.7535,321.7606,107.109,327.4051,106.7349,317.999,103.815" style="stroke: #A80036; stroke-width: 1.0;"/><line style="stroke: #A80036; stroke-width: 1.0;" x1="321.7606" x2="327.7785" y1="107.109" y2="112.379"/><text fill="#000000" font-family="Helvetica Neue" font-size="13" lengthAdjust="spacingAndGlyphs" textLength="7" x="317.5301" y="124.3027">1</text><text fill="#000000" font-family="Helvetica Neue" font-size="13" lengthAdjust="spacingAndGlyphs" textLength="20" x="382.4936" y="175.6417">0..*</text><path d="M453.5,273.73 C453.5,294.4377 453.5,317.9104 453.5,336.1878 " fill="none" style="stroke: #A80036; stroke-width: 1.0;"/><polygon fill="#A80036" points="453.5,349.2995,457.5,340.2995,453.5,344.2995,449.5,340.2995,453.5,349.2995" style="stroke: #A80036; stroke-width: 1.0;"/><line style="stroke: #A80036; stroke-width: 1.0;" x1="453.5" x2="453.5" y1="344.2995" y2="336.2994"/><polygon fill="#A80036" points="453.5,260.559,449.5,266.559,453.5,272.559,457.5,266.559,453.5,260.559" style="stroke: #A80036; stroke-width: 1.0;"/><text fill="#000000" font-family="Helvetica Neue" font-size="13" lengthAdjust="spacingAndGlyphs" textLength="20" x="431.7188" y="281.2828">0..*</text><text fill="#000000" font-family="Helvetica Neue" font-size="13" lengthAdjust="spacingAndGlyphs" textLength="7" x="445.3844" y="338.5789">1</text></g></svg>