<?xml version="1.0" encoding="UTF-8" standalone="yes"?><svg xmlns="http://www.w3.org/2000/svg" xmlns:xlink="http://www.w3.org/1999/xlink" height="755pt" style="width:871px;height:755px;" version="1.1" viewBox="0 0 871 755" width="871pt"><defs><filter height="300%" id="f1" width="300%" x="-1" y="-1"><feGaussianBlur result="blurOut" stdDeviation="2.0"/><feColorMatrix in="blurOut" result="blurOut2" type="matrix" values="0 0 0 0 0 0 0 0 0 0 0 0 0 0 0 0 0 0 .4 0"/><feOffset dx="4.0" dy="4.0" in="blurOut2" result="blurOut3"/><feBlend in="SourceGraphic" in2="blurOut3" mode="normal"/></filter></defs><g><text fill="#000000" font-family="Helvetica Neue" font-size="18" lengthAdjust="spacingAndGlyphs" textLength="136" x="372" y="17.64">Object Overview</text><rect fill="#FEFECE" filter="url(#f1)" height="48.692" style="stroke: #A80036; stroke-width: 1.5;" width="96" x="532" y="155.474"/><text fill="#000000" font-family="Helvetica Neue" font-size="12" font-style="italic" lengthAdjust="spacingAndGlyphs" textLength="58" x="551" y="167.294">&lt;&lt;Stack&gt;&gt;</text><text fill="#000000" font-family="Helvetica Neue" font-size="12" lengthAdjust="spacingAndGlyphs" textLength="82" x="539" y="183.61">HA_OpenStack</text><line style="stroke: #A80036; stroke-width: 1.5;" x1="533" x2="627" y1="188.166" y2="188.166"/><rect fill="#FEFECE" filter="url(#f1)" height="48.692" style="stroke: #A80036; stroke-width: 1.5;" width="125" x="125.5" y="155.474"/><text fill="#000000" font-family="Helvetica Neue" font-size="12" font-style="italic" lengthAdjust="spacingAndGlyphs" textLength="58" x="159" y="167.294">&lt;&lt;Stack&gt;&gt;</text><text fill="#000000" font-family="Helvetica Neue" font-size="12" lengthAdjust="spacingAndGlyphs" textLength="111" x="132.5" y="183.61">Non_HA_OpenStack</text><line style="stroke: #A80036; stroke-width: 1.5;" x1="126.5" x2="249.5" y1="188.166" y2="188.166"/><rect fill="#FEFECE" filter="url(#f1)" height="48.692" style="stroke: #A80036; stroke-width: 1.5;" width="91" x="534.5" y="281.474"/><text fill="#000000" font-family="Helvetica Neue" font-size="12" font-style="italic" lengthAdjust="spacingAndGlyphs" textLength="58" x="551" y="293.294">&lt;&lt;Stack&gt;&gt;</text><text fill="#000000" font-family="Helvetica Neue" font-size="12" lengthAdjust="spacingAndGlyphs" textLength="77" x="541.5" y="309.61">HA_Controller</text><line style="stroke: #A80036; stroke-width: 1.5;" x1="535.5" x2="624.5" y1="314.166" y2="314.166"/><rect fill="#FEFECE" filter="url(#f1)" height="48.692" style="stroke: #A80036; stroke-width: 1.5;" width="120" x="108" y="281.474"/><text fill="#000000" font-family="Helvetica Neue" font-size="12" font-style="italic" lengthAdjust="spacingAndGlyphs" textLength="58" x="139" y="293.294">&lt;&lt;Stack&gt;&gt;</text><text fill="#000000" font-family="Helvetica Neue" font-size="12" lengthAdjust="spacingAndGlyphs" textLength="106" x="115" y="309.61">Non_HA_Controller</text><line style="stroke: #A80036; stroke-width: 1.5;" x1="109" x2="227" y1="314.166" y2="314.166"/><rect fill="#FEFECE" filter="url(#f1)" height="48.692" style="stroke: #A80036; stroke-width: 1.5;" width="68" x="412" y="281.474"/><text fill="#000000" font-family="Helvetica Neue" font-size="12" font-style="italic" lengthAdjust="spacingAndGlyphs" textLength="58" x="417" y="293.294">&lt;&lt;Stack&gt;&gt;</text><text fill="#000000" font-family="Helvetica Neue" font-size="12" lengthAdjust="spacingAndGlyphs" textLength="50" x="421" y="309.61">Compute</text><line style="stroke: #A80036; stroke-width: 1.5;" x1="413" x2="479" y1="314.166" y2="314.166"/><rect fill="#FEFECE" filter="url(#f1)" height="48.692" style="stroke: #006400; stroke-width: 1.5;" width="165" x="613.5" y="29.474"/><text fill="#000000" font-family="Helvetica Neue" font-size="12" font-style="italic" lengthAdjust="spacingAndGlyphs" textLength="92" x="650" y="41.294">&lt;&lt;Deployment&gt;&gt;</text><text fill="#000000" font-family="Helvetica Neue" font-size="12" lengthAdjust="spacingAndGlyphs" textLength="151" x="620.5" y="57.61">HA_OpenStack_deployment</text><line style="stroke: #006400; stroke-width: 1.5;" x1="614.5" x2="777.5" y1="62.166" y2="62.166"/><rect fill="#FEFECE" filter="url(#f1)" height="48.692" style="stroke: #006400; stroke-width: 1.5;" width="194" x="91" y="29.474"/><text fill="#000000" font-family="Helvetica Neue" font-size="12" font-style="italic" lengthAdjust="spacingAndGlyphs" textLength="92" x="142" y="41.294">&lt;&lt;Deployment&gt;&gt;</text><text fill="#000000" font-family="Helvetica Neue" font-size="12" lengthAdjust="spacingAndGlyphs" textLength="180" x="98" y="57.61">Non_HA_OpenStack_deployment</text><line style="stroke: #006400; stroke-width: 1.5;" x1="92" x2="284" y1="62.166" y2="62.166"/><rect fill="#FEFECE" filter="url(#f1)" height="48.692" style="stroke: #A80036; stroke-width: 1.5;" width="88" x="546" y="407.474"/><text fill="#000000" font-family="Helvetica Neue" font-size="12" font-style="italic" lengthAdjust="spacingAndGlyphs" textLength="78" x="551" y="419.294">&lt;&lt;Resource&gt;&gt;</text><text fill="#000000" font-family="Helvetica Neue" font-size="12" lengthAdjust="spacingAndGlyphs" textLength="52" x="564" y="435.61">resources</text><line style="stroke: #A80036; stroke-width: 1.5;" x1="547" x2="633" y1="440.166" y2="440.166"/><rect fill="#FEFECE" filter="url(#f1)" height="48.692" style="stroke: #A80036; stroke-width: 1.5;" width="88" x="402" y="407.474"/><text fill="#000000" font-family="Helvetica Neue" font-size="12" font-style="italic" lengthAdjust="spacingAndGlyphs" textLength="78" x="407" y="419.294">&lt;&lt;Resource&gt;&gt;</text><text fill="#000000" font-family="Helvetica Neue" font-size="12" lengthAdjust="spacingAndGlyphs" textLength="52" x="420" y="435.61">resources</text><line style="stroke: #A80036; stroke-width: 1.5;" x1="403" x2="489" y1="440.166" y2="440.166"/><rect fill="#FEFECE" filter="url(#f1)" height="48.692" style="stroke: #A80036; stroke-width: 1.5;" width="88" x="112" y="407.474"/><text fill="#000000" font-family="Helvetica Neue" font-size="12" font-style="italic" lengthAdjust="spacingAndGlyphs" textLength="78" x="117" y="419.294">&lt;&lt;Resource&gt;&gt;</text><text fill="#000000" font-family="Helvetica Neue" font-size="12" lengthAdjust="spacingAndGlyphs" textLength="52" x="130" y="435.61">resources</text><line style="stroke: #A80036; stroke-width: 1.5;" x1="113" x2="199" y1="440.166" y2="440.166"/><rect fill="#FEFECE" filter="url(#f1)" height="48.692" style="stroke: #FF8C00; stroke-width: 1.5;" width="128" x="709" y="627.474"/><text fill="#000000" font-family="Helvetica Neue" font-size="12" font-style="italic" lengthAdjust="spacingAndGlyphs" textLength="118" x="714" y="639.294">&lt;&lt;AForemanObject&gt;&gt;</text><text fill="#000000" font-family="Helvetica Neue" font-size="12" lengthAdjust="spacingAndGlyphs" textLength="101" x="722.5" y="655.61">a_foreman_objects</text><line style="stroke: #FF8C00; stroke-width: 1.5;" x1="710" x2="836" y1="660.166" y2="660.166"/><rect fill="#FEFECE" filter="url(#f1)" height="48.692" style="stroke: #FF8C00; stroke-width: 1.5;" width="128" x="496" y="627.474"/><text fill="#000000" font-family="Helvetica Neue" font-size="12" font-style="italic" lengthAdjust="spacingAndGlyphs" textLength="118" x="501" y="639.294">&lt;&lt;AForemanObject&gt;&gt;</text><text fill="#000000" font-family="Helvetica Neue" font-size="12" lengthAdjust="spacingAndGlyphs" textLength="101" x="509.5" y="655.61">a_foreman_objects</text><line style="stroke: #FF8C00; stroke-width: 1.5;" x1="497" x2="623" y1="660.166" y2="660.166"/><rect fill="#FEFECE" filter="url(#f1)" height="48.692" style="stroke: #FF8C00; stroke-width: 1.5;" width="128" x="283" y="627.474"/><text fill="#000000" font-family="Helvetica Neue" font-size="12" font-style="italic" lengthAdjust="spacingAndGlyphs" textLength="118" x="288" y="639.294">&lt;&lt;AForemanObject&gt;&gt;</text><text fill="#000000" font-family="Helvetica Neue" font-size="12" lengthAdjust="spacingAndGlyphs" textLength="101" x="296.5" y="655.61">a_foreman_objects</text><line style="stroke: #FF8C00; stroke-width: 1.5;" x1="284" x2="410" y1="660.166" y2="660.166"/><rect fill="#FEFECE" filter="url(#f1)" height="48.692" style="stroke: #FF8C00; stroke-width: 1.5;" width="128" x="31" y="627.474"/><text fill="#000000" font-family="Helvetica Neue" font-size="12" font-style="italic" lengthAdjust="spacingAndGlyphs" textLength="118" x="36" y="639.294">&lt;&lt;AForemanObject&gt;&gt;</text><text fill="#000000" font-family="Helvetica Neue" font-size="12" lengthAdjust="spacingAndGlyphs" textLength="101" x="44.5" y="655.61">a_foreman_objects</text><line style="stroke: #FF8C00; stroke-width: 1.5;" x1="32" x2="158" y1="660.166" y2="660.166"/><rect fill="#FEFECE" filter="url(#f1)" height="48.692" style="stroke: #006400; stroke-width: 1.5;" width="178" x="684" y="517.474"/><text fill="#000000" font-family="Helvetica Neue" font-size="12" font-style="italic" lengthAdjust="spacingAndGlyphs" textLength="168" x="689" y="529.294">&lt;&lt;DeployedAForemanObject&gt;&gt;</text><text fill="#000000" font-family="Helvetica Neue" font-size="12" lengthAdjust="spacingAndGlyphs" textLength="156" x="695" y="545.61">deployed_a_foreman_objects</text><line style="stroke: #006400; stroke-width: 1.5;" x1="685" x2="861" y1="550.166" y2="550.166"/><rect fill="#FEFECE" filter="url(#f1)" height="48.692" style="stroke: #006400; stroke-width: 1.5;" width="178" x="471" y="517.474"/><text fill="#000000" font-family="Helvetica Neue" font-size="12" font-style="italic" lengthAdjust="spacingAndGlyphs" textLength="168" x="476" y="529.294">&lt;&lt;DeployedAForemanObject&gt;&gt;</text><text fill="#000000" font-family="Helvetica Neue" font-size="12" lengthAdjust="spacingAndGlyphs" textLength="156" x="482" y="545.61">deployed_a_foreman_objects</text><line style="stroke: #006400; stroke-width: 1.5;" x1="472" x2="648" y1="550.166" y2="550.166"/><rect fill="#FEFECE" filter="url(#f1)" height="48.692" style="stroke: #006400; stroke-width: 1.5;" width="178" x="258" y="517.474"/><text fill="#000000" font-family="Helvetica Neue" font-size="12" font-style="italic" lengthAdjust="spacingAndGlyphs" textLength="168" x="263" y="529.294">&lt;&lt;DeployedAForemanObject&gt;&gt;</text><text fill="#000000" font-family="Helvetica Neue" font-size="12" lengthAdjust="spacingAndGlyphs" textLength="156" x="269" y="545.61">deployed_a_foreman_objects</text><line style="stroke: #006400; stroke-width: 1.5;" x1="259" x2="435" y1="550.166" y2="550.166"/><rect fill="#FEFECE" filter="url(#f1)" height="48.692" style="stroke: #006400; stroke-width: 1.5;" width="178" x="6" y="517.474"/><text fill="#000000" font-family="Helvetica Neue" font-size="12" font-style="italic" lengthAdjust="spacingAndGlyphs" textLength="168" x="11" y="529.294">&lt;&lt;DeployedAForemanObject&gt;&gt;</text><text fill="#000000" font-family="Helvetica Neue" font-size="12" lengthAdjust="spacingAndGlyphs" textLength="156" x="17" y="545.61">deployed_a_foreman_objects</text><line style="stroke: #006400; stroke-width: 1.5;" x1="7" x2="183" y1="550.166" y2="550.166"/><path d="M580,204.589 C580,225.016 580,254.607 580,276.372 " fill="none" style="stroke: #A80036; stroke-width: 1.0;"/><polygon fill="#A80036" points="580,281.447,584,272.447,580,276.447,576,272.447,580,281.447" style="stroke: #A80036; stroke-width: 1.0;"/><text fill="#000000" font-family="Helvetica Neue" font-size="13" lengthAdjust="spacingAndGlyphs" textLength="71" x="581" y="248.214">has children</text><path d="M538.437,204.554 C525.12,213.092 510.783,223.387 499,234.474 C485.558,247.121 473.025,263.487 463.524,277.267 " fill="none" style="stroke: #A80036; stroke-width: 1.0;"/><polygon fill="#A80036" points="460.676,281.453,469.0467,276.2634,463.4893,277.3195,462.4331,271.7622,460.676,281.453" style="stroke: #A80036; stroke-width: 1.0;"/><text fill="#000000" font-family="Helvetica Neue" font-size="13" lengthAdjust="spacingAndGlyphs" textLength="71" x="500" y="248.214">has children</text><path d="M157.386,204.578 C148.807,212.983 140.579,223.192 136,234.474 C130.232,248.685 135.962,264.233 144.088,277.104 " fill="none" style="stroke: #A80036; stroke-width: 1.0;"/><polygon fill="#A80036" points="146.922,281.36,145.2625,271.652,144.1505,277.1984,138.604,276.0864,146.922,281.36" style="stroke: #A80036; stroke-width: 1.0;"/><text fill="#000000" font-family="Helvetica Neue" font-size="13" lengthAdjust="spacingAndGlyphs" textLength="71" x="137" y="248.214">has children</text><path d="M237.135,204.589 C286.607,228.367 361.916,264.562 407.303,286.375 " fill="none" style="stroke: #A80036; stroke-width: 1.0;"/><polygon fill="#A80036" points="411.871,288.571,405.4913,281.0677,407.3643,286.4055,402.0265,288.2785,411.871,288.571" style="stroke: #A80036; stroke-width: 1.0;"/><text fill="#000000" font-family="Helvetica Neue" font-size="13" lengthAdjust="spacingAndGlyphs" textLength="71" x="334" y="248.214">has children</text><path d="M656.462,78.513 C644.2,86.98 631.234,97.243 621,108.474 C609.605,120.98 599.915,137.171 592.821,150.882 " fill="none" style="stroke: #A80036; stroke-width: 1.0;"/><polygon fill="#A80036" points="590.516,155.428,598.1537,149.2098,592.7772,150.9685,591.0185,145.592,590.516,155.428" style="stroke: #A80036; stroke-width: 1.0;"/><text fill="#000000" font-family="Helvetica Neue" font-size="13" lengthAdjust="spacingAndGlyphs" textLength="47" x="622" y="122.214">deploys</text><path d="M188,78.589 C188,99.016 188,128.607 188,150.372 " fill="none" style="stroke: #A80036; stroke-width: 1.0;"/><polygon fill="#A80036" points="188,155.447,192,146.447,188,150.447,184,146.447,188,155.447" style="stroke: #A80036; stroke-width: 1.0;"/><text fill="#000000" font-family="Helvetica Neue" font-size="13" lengthAdjust="spacingAndGlyphs" textLength="47" x="189" y="122.214">deploys</text><path d="M577.102,330.547 C575.885,344.279 575.135,361.904 577,377.474 C577.979,385.648 579.77,394.377 581.717,402.363 " fill="none" style="stroke: #A80036; stroke-width: 1.0;"/><polygon fill="#A80036" points="582.943,407.228,584.6233,397.5235,581.7216,402.3795,576.8656,399.4778,582.943,407.228" style="stroke: #A80036; stroke-width: 1.0;"/><text fill="#000000" font-family="Helvetica Neue" font-size="13" lengthAdjust="spacingAndGlyphs" textLength="91" x="578" y="374.214">is composed of</text><text fill="#000000" font-family="Helvetica Neue" font-size="13" lengthAdjust="spacingAndGlyphs" textLength="5" x="575.494" y="396.8096">*</text><path d="M444.924,330.672 C444.552,339.963 444.182,350.716 444,360.474 C443.746,374.078 444.089,389.156 444.559,401.864 " fill="none" style="stroke: #A80036; stroke-width: 1.0;"/><polygon fill="#A80036" points="444.767,407.155,448.4116,398.0053,444.5713,402.1588,440.4177,398.3185,444.767,407.155" style="stroke: #A80036; stroke-width: 1.0;"/><text fill="#000000" font-family="Helvetica Neue" font-size="13" lengthAdjust="spacingAndGlyphs" textLength="91" x="445" y="374.214">is composed of</text><text fill="#000000" font-family="Helvetica Neue" font-size="13" lengthAdjust="spacingAndGlyphs" textLength="5" x="438.8104" y="396.7179">*</text><path d="M165.715,330.589 C163.738,351.016 160.874,380.607 158.768,402.372 " fill="none" style="stroke: #A80036; stroke-width: 1.0;"/><polygon fill="#A80036" points="158.277,407.447,163.1252,398.8741,158.7585,402.4702,155.1623,398.1036,158.277,407.447" style="stroke: #A80036; stroke-width: 1.0;"/><text fill="#000000" font-family="Helvetica Neue" font-size="13" lengthAdjust="spacingAndGlyphs" textLength="91" x="164" y="374.214">is composed of</text><text fill="#000000" font-family="Helvetica Neue" font-size="13" lengthAdjust="spacingAndGlyphs" textLength="5" x="153.2171" y="396.6895">*</text><path d="M773,566.675 C773,582.9939 773,604.7709 773,622.103 " fill="none" style="stroke: #006400; stroke-width: 1.0;"/><polygon fill="#006400" points="773,627.3282,777,618.3282,773,622.3282,769,618.3282,773,627.3282" style="stroke: #006400; stroke-width: 1.0;"/><path d="M560,566.675 C560,582.9939 560,604.7709 560,622.103 " fill="none" style="stroke: #006400; stroke-width: 1.0;"/><polygon fill="#006400" points="560,627.3282,564,618.3282,560,622.3282,556,618.3282,560,627.3282" style="stroke: #006400; stroke-width: 1.0;"/><path d="M347,566.675 C347,582.9939 347,604.7709 347,622.103 " fill="none" style="stroke: #006400; stroke-width: 1.0;"/><polygon fill="#006400" points="347,627.3282,351,618.3282,347,622.3282,343,618.3282,347,627.3282" style="stroke: #006400; stroke-width: 1.0;"/><path d="M95,566.675 C95,582.9939 95,604.7709 95,622.103 " fill="none" style="stroke: #006400; stroke-width: 1.0;"/><polygon fill="#006400" points="95,627.3282,99,618.3282,95,622.3282,91,618.3282,95,627.3282" style="stroke: #006400; stroke-width: 1.0;"/><path d="M634.523,459.25 C664.563,476.979 703.874,500.178 732.934,517.328 " fill="none" style="stroke: #006400; stroke-width: 1.0;"/><polygon fill="#006400" points="630.16,456.675,635.8774,464.6945,634.4659,459.2165,639.9438,457.805,630.16,456.675" style="stroke: #006400; stroke-width: 1.0;"/><path d="M474.66,460.126 C493.25,477.738 517.235,500.459 535.041,517.328 " fill="none" style="stroke: #006400; stroke-width: 1.0;"/><polygon fill="#006400" points="471.018,456.675,474.8011,465.7683,474.648,460.1135,480.3027,459.9604,471.018,456.675" style="stroke: #006400; stroke-width: 1.0;"/><path d="M420.706,460.567 C404.62,478.116 384.009,500.6 368.675,517.328 " fill="none" style="stroke: #006400; stroke-width: 1.0;"/><polygon fill="#006400" points="424.274,456.675,415.2439,460.6065,420.8954,460.3608,421.1411,466.0123,424.274,456.675" style="stroke: #006400; stroke-width: 1.0;"/><path d="M139.913,461.456 C130.077,478.87 117.645,500.881 108.355,517.328 " fill="none" style="stroke: #006400; stroke-width: 1.0;"/><polygon fill="#006400" points="142.613,456.675,134.704,462.5442,140.154,461.0286,141.6697,466.4786,142.613,456.675" style="stroke: #006400; stroke-width: 1.0;"/><path d="M723.842,82.623 C744.465,106.135 769,141.898 769,178.974 C769,178.974 769,178.974 769,432.974 C769,462.056 770.466,495.514 771.623,517.387 " fill="none" style="stroke: #006400; stroke-width: 1.0;"/><polygon fill="#006400" points="720.308,78.668,723.3235,88.0439,723.6401,82.3959,729.2881,82.7125,720.308,78.668" style="stroke: #006400; stroke-width: 1.0;"/><path d="M696,83.916 C696,109.047 696,146.415 696,178.974 C696,178.974 696,178.974 696,432.974 C696,472.622 660.115,500.034 625.212,517.32 " fill="none" style="stroke: #006400; stroke-width: 1.0;"/><polygon fill="#006400" points="696,78.746,692,87.746,696,83.746,700,87.746,696,78.746" style="stroke: #006400; stroke-width: 1.0;"/><path d="M262.724,80.694 C304.403,100.29 348,132.012 348,178.974 C348,178.974 348,178.974 348,432.974 C348,462.038 347.633,495.499 347.344,517.378 " fill="none" style="stroke: #006400; stroke-width: 1.0;"/><polygon fill="#006400" points="258.178,78.601,264.6796,85.9989,262.7196,80.6925,268.026,78.7324,258.178,78.601" style="stroke: #006400; stroke-width: 1.0;"/><path d="M130.682,81.139 C94.6724,101.922 55,134.835 55,178.974 C55,178.974 55,178.974 55,432.974 C55,463.566 69.2877,496.168 80.7849,517.45 " fill="none" style="stroke: #006400; stroke-width: 1.0;"/><polygon fill="#006400" points="135.053,78.665,125.2505,79.6194,130.7022,81.1289,129.1928,86.5806,135.053,78.665" style="stroke: #006400; stroke-width: 1.0;"/><polygon fill="#DDDDDD" points="254,694.474,254,754.58,625,754.58,625,694.474,254,694.474" style="stroke: #000000; stroke-width: 1.0;"/><text fill="#000000" font-family="Helvetica Neue" font-size="14" lengthAdjust="spacingAndGlyphs" textLength="127" x="260" y="713.194">Modularity of stacks</text><text fill="#000000" font-family="Helvetica Neue" font-size="14" lengthAdjust="spacingAndGlyphs" textLength="359" x="260" y="729.896">-   Disconnected from Foreman objects and other stacks</text><text fill="#000000" font-family="Helvetica Neue" font-size="14" lengthAdjust="spacingAndGlyphs" textLength="267" x="260" y="746.598">-   Uses parameters to connect the stacks</text></g></svg>