<?xml version="1.0" encoding="UTF-8" standalone="yes"?><svg xmlns="http://www.w3.org/2000/svg" xmlns:xlink="http://www.w3.org/1999/xlink" height="1051pt" style="width:1776px;height:1051px;" version="1.1" viewBox="0 0 1776 1051" width="1776pt"><defs><filter height="300%" id="f1" width="300%" x="-1" y="-1"><feGaussianBlur result="blurOut" stdDeviation="2.0"/><feColorMatrix in="blurOut" result="blurOut2" type="matrix" values="0 0 0 0 0 0 0 0 0 0 0 0 0 0 0 0 0 0 .4 0"/><feOffset dx="4.0" dy="4.0" in="blurOut2" result="blurOut3"/><feBlend in="SourceGraphic" in2="blurOut3" mode="normal"/></filter></defs><g><text fill="#000000" font-family="Helvetica Neue" font-size="18" lengthAdjust="spacingAndGlyphs" textLength="131" x="804" y="17.64">Resource Types</text><rect fill="#FEFECE" filter="url(#f1)" height="48" style="stroke: #A80036; stroke-width: 1.5;" width="75" x="264.5" y="54.474"/><ellipse cx="279.5" cy="70.474" fill="#DA70D6" rx="11" ry="11" style="stroke: #A80036; stroke-width: 1.0;"/><path d="M275.2139,64.0809 L278.1357,64.0809 L279.6133,69.5179 L281.0825,64.0809 L284.021,64.0809 L284.021,76.474 L281.9126,76.474 L281.9126,66.5463 L280.6011,71.9667 L278.6504,71.9667 L277.3223,66.5463 L277.3223,76.474 L275.2139,76.474 Z "/><text fill="#000000" font-family="Helvetica Neue" font-size="12" font-style="italic" lengthAdjust="spacingAndGlyphs" textLength="43" x="293.5" y="75.106">Ordered</text><line style="stroke: #A80036; stroke-width: 1.5;" x1="265.5" x2="338.5" y1="86.474" y2="86.474"/><line style="stroke: #A80036; stroke-width: 1.5;" x1="265.5" x2="338.5" y1="94.474" y2="94.474"/><rect fill="#FEFECE" filter="url(#f1)" height="83.369" style="stroke: #A80036; stroke-width: 1.5;" width="235" x="858.5" y="188.474"/><ellipse cx="946.75" cy="204.474" fill="#A9DCDF" rx="11" ry="11" style="stroke: #A80036; stroke-width: 1.0;"/><path d="M946.8633,199.8221 L945.7095,204.8939 L948.0254,204.8939 Z M945.3691,197.5809 L948.3657,197.5809 L951.7109,209.974 L949.2622,209.974 L948.4985,206.911 L945.2197,206.911 L944.4727,209.974 L942.0239,209.974 Z "/><text fill="#000000" font-family="Helvetica Neue" font-size="12" font-style="italic" lengthAdjust="spacingAndGlyphs" textLength="50" x="967.25" y="209.106">Resource</text><line style="stroke: #A80036; stroke-width: 1.5;" x1="859.5" x2="1092.5" y1="220.474" y2="220.474"/><text fill="#000000" font-family="Helvetica Neue" font-size="11" lengthAdjust="spacingAndGlyphs" textLength="223" x="864.5" y="252.377">A Foreman object to be configured or created</text><text fill="#000000" font-family="Helvetica Neue" font-size="11" lengthAdjust="spacingAndGlyphs" textLength="158" x="864.5" y="265.5">to form an Deployment instance.</text><line style="stroke: #A80036; stroke-width: 1.0; stroke-dasharray: 1.0,2.0;" x1="859.5" x2="962.5" y1="235.0355" y2="235.0355"/><text fill="#000000" font-family="Helvetica Neue" font-size="11" lengthAdjust="spacingAndGlyphs" textLength="27" x="962.5" y="238.754">notes</text><line style="stroke: #A80036; stroke-width: 1.0; stroke-dasharray: 1.0,2.0;" x1="989.5" x2="1092.5" y1="235.0355" y2="235.0355"/><rect fill="#FEFECE" filter="url(#f1)" height="109.615" style="stroke: #A80036; stroke-width: 1.5;" width="164" x="655" y="859.974"/><ellipse cx="680.8" cy="875.974" fill="#ADD1B2" rx="11" ry="11" style="stroke: #A80036; stroke-width: 1.0;"/><path d="M683.7731,881.6171 Q683.1921,881.9159 682.5529,882.0653 Q681.9138,882.2147 681.2082,882.2147 Q678.7014,882.2147 677.3815,880.5629 Q676.0617,878.911 676.0617,875.7899 Q676.0617,872.6605 677.3815,871.0087 Q678.7014,869.3568 681.2082,869.3568 Q681.9138,869.3568 682.5612,869.5062 Q683.2087,869.6556 683.7731,869.9545 L683.7731,872.6771 Q683.1423,872.0961 682.5488,871.8263 Q681.9553,871.5565 681.3244,871.5565 Q679.9797,871.5565 679.2949,872.6232 Q678.6101,873.6898 678.6101,875.7899 Q678.6101,877.8817 679.2949,878.9484 Q679.9797,880.015 681.3244,880.015 Q681.9553,880.015 682.5488,879.7452 Q683.1423,879.4755 683.7731,878.8944 Z "/><text fill="#000000" font-family="Helvetica Neue" font-size="12" lengthAdjust="spacingAndGlyphs" textLength="108" x="697.2" y="880.576">HostgroupResource</text><line style="stroke: #A80036; stroke-width: 1.5;" x1="656" x2="818" y1="891.974" y2="891.974"/><text fill="#000000" font-family="Helvetica Neue" font-size="11" lengthAdjust="spacingAndGlyphs" textLength="58" x="661" y="906.754">String name</text><text fill="#000000" font-family="Helvetica Neue" font-size="11" lengthAdjust="spacingAndGlyphs" textLength="146" x="661" y="937">Parent is HostgroupResource</text><text fill="#000000" font-family="Helvetica Neue" font-size="11" lengthAdjust="spacingAndGlyphs" textLength="152" x="661" y="950.123">or it's provided on Deployment</text><text fill="#000000" font-family="Helvetica Neue" font-size="11" lengthAdjust="spacingAndGlyphs" textLength="65" x="661" y="963.246">configuration.</text><line style="stroke: #A80036; stroke-width: 1.0; stroke-dasharray: 1.0,2.0;" x1="656" x2="723.5" y1="919.6585" y2="919.6585"/><text fill="#000000" font-family="Helvetica Neue" font-size="11" lengthAdjust="spacingAndGlyphs" textLength="27" x="723.5" y="923.377">notes</text><line style="stroke: #A80036; stroke-width: 1.0; stroke-dasharray: 1.0,2.0;" x1="750.5" x2="818" y1="919.6585" y2="919.6585"/><rect fill="#FEFECE" filter="url(#f1)" height="122.738" style="stroke: #A80036; stroke-width: 1.5;" width="136" x="505" y="624.474"/><ellipse cx="529" cy="640.474" fill="#ADD1B2" rx="11" ry="11" style="stroke: #A80036; stroke-width: 1.0;"/><path d="M531.9731,646.1171 Q531.3921,646.4159 530.7529,646.5653 Q530.1138,646.7147 529.4082,646.7147 Q526.9014,646.7147 525.5815,645.0629 Q524.2617,643.411 524.2617,640.2899 Q524.2617,637.1605 525.5815,635.5087 Q526.9014,633.8568 529.4082,633.8568 Q530.1138,633.8568 530.7612,634.0062 Q531.4087,634.1556 531.9731,634.4545 L531.9731,637.1771 Q531.3423,636.5961 530.7488,636.3263 Q530.1553,636.0565 529.5244,636.0565 Q528.1797,636.0565 527.4949,637.1232 Q526.8101,638.1898 526.8101,640.2899 Q526.8101,642.3817 527.4949,643.4484 Q528.1797,644.515 529.5244,644.515 Q530.1553,644.515 530.7488,644.2452 Q531.3423,643.9755 531.9731,643.3944 Z "/><text fill="#000000" font-family="Helvetica Neue" font-size="12" lengthAdjust="spacingAndGlyphs" textLength="84" x="545" y="645.076">ParamResource</text><line style="stroke: #A80036; stroke-width: 1.5;" x1="506" x2="640" y1="656.474" y2="656.474"/><text fill="#000000" font-family="Helvetica Neue" font-size="11" lengthAdjust="spacingAndGlyphs" textLength="58" x="511" y="671.254">String name</text><text fill="#000000" font-family="Helvetica Neue" font-size="11" lengthAdjust="spacingAndGlyphs" textLength="124" x="511" y="684.377">String description # intent</text><text fill="#000000" font-family="Helvetica Neue" font-size="11" lengthAdjust="spacingAndGlyphs" textLength="96" x="511" y="697.5">String default_value</text><text fill="#000000" font-family="Helvetica Neue" font-size="11" lengthAdjust="spacingAndGlyphs" textLength="102" x="511" y="727.746">validations, like list of</text><text fill="#000000" font-family="Helvetica Neue" font-size="11" lengthAdjust="spacingAndGlyphs" textLength="72" x="511" y="740.869">allowed values</text><line style="stroke: #A80036; stroke-width: 1.0; stroke-dasharray: 1.0,2.0;" x1="506" x2="559.5" y1="710.4045" y2="710.4045"/><text fill="#000000" font-family="Helvetica Neue" font-size="11" lengthAdjust="spacingAndGlyphs" textLength="27" x="559.5" y="714.123">notes</text><line style="stroke: #A80036; stroke-width: 1.0; stroke-dasharray: 1.0,2.0;" x1="586.5" x2="640" y1="710.4045" y2="710.4045"/><rect fill="#FEFECE" filter="url(#f1)" height="74.246" style="stroke: #A80036; stroke-width: 1.5;" width="161" x="690.5" y="363.474"/><ellipse cx="705.5" cy="379.474" fill="#ADD1B2" rx="11" ry="11" style="stroke: #A80036; stroke-width: 1.0;"/><path d="M708.4731,385.1171 Q707.8921,385.4159 707.2529,385.5653 Q706.6138,385.7147 705.9082,385.7147 Q703.4014,385.7147 702.0815,384.0629 Q700.7617,382.411 700.7617,379.2899 Q700.7617,376.1605 702.0815,374.5087 Q703.4014,372.8568 705.9082,372.8568 Q706.6138,372.8568 707.2612,373.0062 Q707.9087,373.1556 708.4731,373.4545 L708.4731,376.1771 Q707.8423,375.5961 707.2488,375.3263 Q706.6553,375.0565 706.0244,375.0565 Q704.6797,375.0565 703.9949,376.1232 Q703.3101,377.1898 703.3101,379.2899 Q703.3101,381.3817 703.9949,382.4484 Q704.6797,383.515 706.0244,383.515 Q706.6553,383.515 707.2488,383.2452 Q707.8423,382.9755 708.4731,382.3944 Z "/><text fill="#000000" font-family="Helvetica Neue" font-size="12" lengthAdjust="spacingAndGlyphs" textLength="129" x="719.5" y="384.076">ParamOverrideResource</text><line style="stroke: #A80036; stroke-width: 1.5;" x1="691.5" x2="850.5" y1="395.474" y2="395.474"/><text fill="#000000" font-family="Helvetica Neue" font-size="11" lengthAdjust="spacingAndGlyphs" textLength="49" x="696.5" y="410.254">String key</text><text fill="#000000" font-family="Helvetica Neue" font-size="11" lengthAdjust="spacingAndGlyphs" textLength="92" x="696.5" y="423.377">String value # ERB</text><line style="stroke: #A80036; stroke-width: 1.5;" x1="691.5" x2="850.5" y1="429.72" y2="429.72"/><rect fill="#FEFECE" filter="url(#f1)" height="148.984" style="stroke: #A80036; stroke-width: 1.5;" width="214" x="1321" y="840.474"/><ellipse cx="1350.4" cy="856.474" fill="#ADD1B2" rx="11" ry="11" style="stroke: #A80036; stroke-width: 1.0;"/><path d="M1353.3731,862.1171 Q1352.7921,862.4159 1352.1529,862.5653 Q1351.5138,862.7147 1350.8082,862.7147 Q1348.3014,862.7147 1346.9815,861.0629 Q1345.6617,859.411 1345.6617,856.2899 Q1345.6617,853.1605 1346.9815,851.5087 Q1348.3014,849.8568 1350.8082,849.8568 Q1351.5138,849.8568 1352.1612,850.0062 Q1352.8087,850.1556 1353.3731,850.4545 L1353.3731,853.1771 Q1352.7423,852.5961 1352.1488,852.3263 Q1351.5553,852.0565 1350.9244,852.0565 Q1349.5797,852.0565 1348.8949,853.1232 Q1348.2101,854.1898 1348.2101,856.2899 Q1348.2101,858.3817 1348.8949,859.4484 Q1349.5797,860.515 1350.9244,860.515 Q1351.5553,860.515 1352.1488,860.2452 Q1352.7423,859.9755 1353.3731,859.3944 Z "/><text fill="#000000" font-family="Helvetica Neue" font-size="12" lengthAdjust="spacingAndGlyphs" textLength="150" x="1367.6" y="861.076">ComputeResourceResource</text><line style="stroke: #A80036; stroke-width: 1.5;" x1="1322" x2="1534" y1="872.474" y2="872.474"/><text fill="#000000" font-family="Helvetica Neue" font-size="11" lengthAdjust="spacingAndGlyphs" textLength="53" x="1327" y="887.254">String type</text><text fill="#000000" font-family="Helvetica Neue" font-size="11" lengthAdjust="spacingAndGlyphs" textLength="110" x="1327" y="900.377">Boolean image_based</text><text fill="#000000" font-family="Helvetica Neue" font-size="11" lengthAdjust="spacingAndGlyphs" textLength="118" x="1327" y="913.5">String image_url nullable</text><text fill="#000000" font-family="Helvetica Neue" font-size="11" lengthAdjust="spacingAndGlyphs" textLength="202" x="1327" y="943.746">Each ComputeResourceResource allows</text><text fill="#000000" font-family="Helvetica Neue" font-size="11" lengthAdjust="spacingAndGlyphs" textLength="183" x="1327" y="956.869">particular ComputeResource type for</text><text fill="#000000" font-family="Helvetica Neue" font-size="11" lengthAdjust="spacingAndGlyphs" textLength="154" x="1327" y="969.992">a given HostResource. It has to</text><text fill="#000000" font-family="Helvetica Neue" font-size="11" lengthAdjust="spacingAndGlyphs" textLength="187" x="1327" y="983.115">contain image_url when image_based.</text><line style="stroke: #A80036; stroke-width: 1.0; stroke-dasharray: 1.0,2.0;" x1="1322" x2="1414.5" y1="926.4045" y2="926.4045"/><text fill="#000000" font-family="Helvetica Neue" font-size="11" lengthAdjust="spacingAndGlyphs" textLength="27" x="1414.5" y="930.123">notes</text><line style="stroke: #A80036; stroke-width: 1.0; stroke-dasharray: 1.0,2.0;" x1="1441.5" x2="1534" y1="926.4045" y2="926.4045"/><rect fill="#FEFECE" filter="url(#f1)" height="96.492" style="stroke: #A80036; stroke-width: 1.5;" width="167" x="1118.5" y="866.974"/><ellipse cx="1133.5" cy="882.974" fill="#ADD1B2" rx="11" ry="11" style="stroke: #A80036; stroke-width: 1.0;"/><path d="M1136.4731,888.6171 Q1135.8921,888.9159 1135.2529,889.0653 Q1134.6138,889.2147 1133.9082,889.2147 Q1131.4014,889.2147 1130.0815,887.5629 Q1128.7617,885.911 1128.7617,882.7899 Q1128.7617,879.6605 1130.0815,878.0087 Q1131.4014,876.3568 1133.9082,876.3568 Q1134.6138,876.3568 1135.2612,876.5062 Q1135.9087,876.6556 1136.4731,876.9545 L1136.4731,879.6771 Q1135.8423,879.0961 1135.2488,878.8263 Q1134.6553,878.5565 1134.0244,878.5565 Q1132.6797,878.5565 1131.9949,879.6232 Q1131.3101,880.6898 1131.3101,882.7899 Q1131.3101,884.8817 1131.9949,885.9484 Q1132.6797,887.015 1134.0244,887.015 Q1134.6553,887.015 1135.2488,886.7452 Q1135.8423,886.4755 1136.4731,885.8944 Z "/><text fill="#000000" font-family="Helvetica Neue" font-size="12" lengthAdjust="spacingAndGlyphs" textLength="135" x="1147.5" y="887.576">ComputeProfileResource</text><line style="stroke: #A80036; stroke-width: 1.5;" x1="1119.5" x2="1284.5" y1="898.974" y2="898.974"/><text fill="#000000" font-family="Helvetica Neue" font-size="11" lengthAdjust="spacingAndGlyphs" textLength="78" x="1124.5" y="930.877">Type limitations.</text><text fill="#000000" font-family="Helvetica Neue" font-size="11" lengthAdjust="spacingAndGlyphs" textLength="144" x="1124.5" y="944">Can be added later or stored</text><text fill="#000000" font-family="Helvetica Neue" font-size="11" lengthAdjust="spacingAndGlyphs" textLength="128" x="1124.5" y="957.123">directly on HostResource.</text><line style="stroke: #A80036; stroke-width: 1.0; stroke-dasharray: 1.0,2.0;" x1="1119.5" x2="1188.5" y1="913.5355" y2="913.5355"/><text fill="#000000" font-family="Helvetica Neue" font-size="11" lengthAdjust="spacingAndGlyphs" textLength="27" x="1188.5" y="917.254">notes</text><line style="stroke: #A80036; stroke-width: 1.0; stroke-dasharray: 1.0,2.0;" x1="1215.5" x2="1284.5" y1="913.5355" y2="913.5355"/><rect fill="#FEFECE" filter="url(#f1)" height="109.615" style="stroke: #A80036; stroke-width: 1.5;" width="151" x="695.5" y="630.974"/><ellipse cx="710.5" cy="646.974" fill="#ADD1B2" rx="11" ry="11" style="stroke: #A80036; stroke-width: 1.0;"/><path d="M713.4731,652.6171 Q712.8921,652.9159 712.2529,653.0653 Q711.6138,653.2147 710.9082,653.2147 Q708.4014,653.2147 707.0815,651.5629 Q705.7617,649.911 705.7617,646.7899 Q705.7617,643.6605 707.0815,642.0087 Q708.4014,640.3568 710.9082,640.3568 Q711.6138,640.3568 712.2612,640.5062 Q712.9087,640.6556 713.4731,640.9545 L713.4731,643.6771 Q712.8423,643.0961 712.2488,642.8263 Q711.6553,642.5565 711.0244,642.5565 Q709.6797,642.5565 708.9949,643.6232 Q708.3101,644.6898 708.3101,646.7899 Q708.3101,648.8817 708.9949,649.9484 Q709.6797,651.015 711.0244,651.015 Q711.6553,651.015 712.2488,650.7452 Q712.8423,650.4755 713.4731,649.8944 Z "/><text fill="#000000" font-family="Helvetica Neue" font-size="12" lengthAdjust="spacingAndGlyphs" textLength="119" x="724.5" y="651.576">PuppetClassResource</text><line style="stroke: #A80036; stroke-width: 1.5;" x1="696.5" x2="845.5" y1="662.974" y2="662.974"/><text fill="#000000" font-family="Helvetica Neue" font-size="11" lengthAdjust="spacingAndGlyphs" textLength="58" x="701.5" y="677.754">String name</text><text fill="#000000" font-family="Helvetica Neue" font-size="11" lengthAdjust="spacingAndGlyphs" textLength="104" x="701.5" y="690.877">\# of the class to add</text><text fill="#000000" font-family="Helvetica Neue" font-size="11" lengthAdjust="spacingAndGlyphs" textLength="97" x="701.5" y="721.123">possibly allot to limit</text><text fill="#000000" font-family="Helvetica Neue" font-size="11" lengthAdjust="spacingAndGlyphs" textLength="110" x="701.5" y="734.246">puppet class versions</text><line style="stroke: #A80036; stroke-width: 1.0; stroke-dasharray: 1.0,2.0;" x1="696.5" x2="757.5" y1="703.7815" y2="703.7815"/><text fill="#000000" font-family="Helvetica Neue" font-size="11" lengthAdjust="spacingAndGlyphs" textLength="27" x="757.5" y="707.5">notes</text><line style="stroke: #A80036; stroke-width: 1.0; stroke-dasharray: 1.0,2.0;" x1="784.5" x2="845.5" y1="703.7815" y2="703.7815"/><rect fill="#FEFECE" filter="url(#f1)" height="96.492" style="stroke: #A80036; stroke-width: 1.5;" width="147" x="1570.5" y="866.974"/><ellipse cx="1585.5" cy="882.974" fill="#ADD1B2" rx="11" ry="11" style="stroke: #A80036; stroke-width: 1.0;"/><path d="M1588.4731,888.6171 Q1587.8921,888.9159 1587.2529,889.0653 Q1586.6138,889.2147 1585.9082,889.2147 Q1583.4014,889.2147 1582.0815,887.5629 Q1580.7617,885.911 1580.7617,882.7899 Q1580.7617,879.6605 1582.0815,878.0087 Q1583.4014,876.3568 1585.9082,876.3568 Q1586.6138,876.3568 1587.2612,876.5062 Q1587.9087,876.6556 1588.4731,876.9545 L1588.4731,879.6771 Q1587.8423,879.0961 1587.2488,878.8263 Q1586.6553,878.5565 1586.0244,878.5565 Q1584.6797,878.5565 1583.9949,879.6232 Q1583.3101,880.6898 1583.3101,882.7899 Q1583.3101,884.8817 1583.9949,885.9484 Q1584.6797,887.015 1586.0244,887.015 Q1586.6553,887.015 1587.2488,886.7452 Q1587.8423,886.4755 1588.4731,885.8944 Z "/><text fill="#000000" font-family="Helvetica Neue" font-size="12" lengthAdjust="spacingAndGlyphs" textLength="115" x="1599.5" y="887.576">SubnetTypeResource</text><line style="stroke: #A80036; stroke-width: 1.5;" x1="1571.5" x2="1716.5" y1="898.974" y2="898.974"/><text fill="#000000" font-family="Helvetica Neue" font-size="11" lengthAdjust="spacingAndGlyphs" textLength="58" x="1576.5" y="913.754">String name</text><text fill="#000000" font-family="Helvetica Neue" font-size="11" lengthAdjust="spacingAndGlyphs" textLength="60" x="1576.5" y="944">like Staypuft</text><text fill="#000000" font-family="Helvetica Neue" font-size="11" lengthAdjust="spacingAndGlyphs" textLength="70" x="1576.5" y="957.123">network types</text><line style="stroke: #A80036; stroke-width: 1.0; stroke-dasharray: 1.0,2.0;" x1="1571.5" x2="1630.5" y1="926.6585" y2="926.6585"/><text fill="#000000" font-family="Helvetica Neue" font-size="11" lengthAdjust="spacingAndGlyphs" textLength="27" x="1630.5" y="930.377">notes</text><line style="stroke: #A80036; stroke-width: 1.0; stroke-dasharray: 1.0,2.0;" x1="1657.5" x2="1716.5" y1="926.6585" y2="926.6585"/><rect fill="#FEFECE" filter="url(#f1)" height="96.492" style="stroke: #A80036; stroke-width: 1.5;" width="131" x="1577.5" y="498.474"/><ellipse cx="1593.85" cy="514.474" fill="#ADD1B2" rx="11" ry="11" style="stroke: #A80036; stroke-width: 1.0;"/><path d="M1596.8231,520.1171 Q1596.2421,520.4159 1595.6029,520.5653 Q1594.9638,520.7147 1594.2582,520.7147 Q1591.7514,520.7147 1590.4315,519.0629 Q1589.1117,517.411 1589.1117,514.2899 Q1589.1117,511.1605 1590.4315,509.5087 Q1591.7514,507.8568 1594.2582,507.8568 Q1594.9638,507.8568 1595.6112,508.0062 Q1596.2587,508.1556 1596.8231,508.4545 L1596.8231,511.1771 Q1596.1923,510.5961 1595.5988,510.3263 Q1595.0053,510.0565 1594.3744,510.0565 Q1593.0297,510.0565 1592.3449,511.1232 Q1591.6601,512.1898 1591.6601,514.2899 Q1591.6601,516.3817 1592.3449,517.4484 Q1593.0297,518.515 1594.3744,518.515 Q1595.0053,518.515 1595.5988,518.2452 Q1596.1923,517.9755 1596.8231,517.3944 Z "/><text fill="#000000" font-family="Helvetica Neue" font-size="12" lengthAdjust="spacingAndGlyphs" textLength="96" x="1608.15" y="519.076">InterfaceResource</text><line style="stroke: #A80036; stroke-width: 1.5;" x1="1578.5" x2="1707.5" y1="530.474" y2="530.474"/><text fill="#000000" font-family="Helvetica Neue" font-size="11" lengthAdjust="spacingAndGlyphs" textLength="40" x="1583.5" y="545.254">String ip</text><text fill="#000000" font-family="Helvetica Neue" font-size="11" lengthAdjust="spacingAndGlyphs" textLength="119" x="1583.5" y="575.5">creates interface without</text><text fill="#000000" font-family="Helvetica Neue" font-size="11" lengthAdjust="spacingAndGlyphs" textLength="89" x="1583.5" y="588.623">Host to reserve IP</text><line style="stroke: #A80036; stroke-width: 1.0; stroke-dasharray: 1.0,2.0;" x1="1578.5" x2="1629.5" y1="558.1585" y2="558.1585"/><text fill="#000000" font-family="Helvetica Neue" font-size="11" lengthAdjust="spacingAndGlyphs" textLength="27" x="1629.5" y="561.877">notes</text><line style="stroke: #A80036; stroke-width: 1.0; stroke-dasharray: 1.0,2.0;" x1="1656.5" x2="1707.5" y1="558.1585" y2="558.1585"/><rect fill="#FEFECE" filter="url(#f1)" height="87.369" style="stroke: #A80036; stroke-width: 1.5;" width="140" x="1140" y="642.474"/><ellipse cx="1169.4" cy="658.474" fill="#ADD1B2" rx="11" ry="11" style="stroke: #A80036; stroke-width: 1.0;"/><path d="M1172.3731,664.1171 Q1171.7921,664.4159 1171.1529,664.5653 Q1170.5138,664.7147 1169.8082,664.7147 Q1167.3014,664.7147 1165.9815,663.0629 Q1164.6617,661.411 1164.6617,658.2899 Q1164.6617,655.1605 1165.9815,653.5087 Q1167.3014,651.8568 1169.8082,651.8568 Q1170.5138,651.8568 1171.1612,652.0062 Q1171.8087,652.1556 1172.3731,652.4545 L1172.3731,655.1771 Q1171.7423,654.5961 1171.1488,654.3263 Q1170.5553,654.0565 1169.9244,654.0565 Q1168.5797,654.0565 1167.8949,655.1232 Q1167.2101,656.1898 1167.2101,658.2899 Q1167.2101,660.3817 1167.8949,661.4484 Q1168.5797,662.515 1169.9244,662.515 Q1170.5553,662.515 1171.1488,662.2452 Q1171.7423,661.9755 1172.3731,661.3944 Z "/><text fill="#000000" font-family="Helvetica Neue" font-size="12" lengthAdjust="spacingAndGlyphs" textLength="76" x="1186.6" y="663.076">HostResource</text><line style="stroke: #A80036; stroke-width: 1.5;" x1="1141" x2="1279" y1="674.474" y2="674.474"/><text fill="#000000" font-family="Helvetica Neue" font-size="11" lengthAdjust="spacingAndGlyphs" textLength="128" x="1146" y="689.254">String name # "db-%02d"</text><text fill="#000000" font-family="Helvetica Neue" font-size="11" lengthAdjust="spacingAndGlyphs" textLength="60" x="1146" y="702.377">Integere min</text><text fill="#000000" font-family="Helvetica Neue" font-size="11" lengthAdjust="spacingAndGlyphs" textLength="64" x="1146" y="715.5">Integere max</text><line style="stroke: #A80036; stroke-width: 1.5;" x1="1141" x2="1279" y1="721.843" y2="721.843"/><rect fill="#FEFECE" filter="url(#f1)" height="135.861" style="stroke: #A80036; stroke-width: 1.5;" width="176" x="408" y="332.474"/><ellipse cx="429.3" cy="348.474" fill="#ADD1B2" rx="11" ry="11" style="stroke: #A80036; stroke-width: 1.0;"/><path d="M432.2731,354.1171 Q431.6921,354.4159 431.0529,354.5653 Q430.4138,354.7147 429.7082,354.7147 Q427.2014,354.7147 425.8815,353.0629 Q424.5617,351.411 424.5617,348.2899 Q424.5617,345.1605 425.8815,343.5087 Q427.2014,341.8568 429.7082,341.8568 Q430.4138,341.8568 431.0612,342.0062 Q431.7087,342.1556 432.2731,342.4545 L432.2731,345.1771 Q431.6423,344.5961 431.0488,344.3263 Q430.4553,344.0565 429.8244,344.0565 Q428.4797,344.0565 427.7949,345.1232 Q427.1101,346.1898 427.1101,348.2899 Q427.1101,350.3817 427.7949,351.4484 Q428.4797,352.515 429.8244,352.515 Q430.4553,352.515 431.0488,352.2452 Q431.6423,351.9755 432.2731,351.3944 Z "/><text fill="#000000" font-family="Helvetica Neue" font-size="12" lengthAdjust="spacingAndGlyphs" textLength="130" x="444.7" y="353.076">ConnectParamResource</text><line style="stroke: #A80036; stroke-width: 1.5;" x1="409" x2="583" y1="364.474" y2="364.474"/><text fill="#000000" font-family="Helvetica Neue" font-size="11" lengthAdjust="spacingAndGlyphs" textLength="114" x="414" y="396.377">Possibly allow to define</text><text fill="#000000" font-family="Helvetica Neue" font-size="11" lengthAdjust="spacingAndGlyphs" textLength="123" x="414" y="409.5">a transformation function.</text><text fill="#000000" font-family="Helvetica Neue" font-size="11" lengthAdjust="spacingAndGlyphs" textLength="164" x="414" y="422.623">Only resource allowing to connect</text><text fill="#000000" font-family="Helvetica Neue" font-size="11" lengthAdjust="spacingAndGlyphs" textLength="140" x="414" y="435.746">resources form child stacks.</text><text fill="#000000" font-family="Helvetica Neue" font-size="11" lengthAdjust="spacingAndGlyphs" textLength="145" x="414" y="448.869">ERB is inserted to destination</text><text fill="#000000" font-family="Helvetica Neue" font-size="11" lengthAdjust="spacingAndGlyphs" textLength="157" x="414" y="461.992">to propagate value from source.</text><line style="stroke: #A80036; stroke-width: 1.0; stroke-dasharray: 1.0,2.0;" x1="409" x2="482.5" y1="379.0355" y2="379.0355"/><text fill="#000000" font-family="Helvetica Neue" font-size="11" lengthAdjust="spacingAndGlyphs" textLength="27" x="482.5" y="382.754">notes</text><line style="stroke: #A80036; stroke-width: 1.0; stroke-dasharray: 1.0,2.0;" x1="509.5" x2="583" y1="379.0355" y2="379.0355"/><rect fill="#FEFECE" filter="url(#f1)" height="54.692" style="stroke: #A80036; stroke-width: 1.5;" width="141" x="231.5" y="372.974"/><ellipse cx="246.5" cy="392.32" fill="#008000" rx="11" ry="11" style="stroke: #A80036; stroke-width: 1.0;"/><path d="M249.4731,397.9631 Q248.8921,398.2619 248.2529,398.4113 Q247.6138,398.5607 246.9082,398.5607 Q244.4014,398.5607 243.0815,396.9089 Q241.7617,395.257 241.7617,392.1359 Q241.7617,389.0065 243.0815,387.3547 Q244.4014,385.7028 246.9082,385.7028 Q247.6138,385.7028 248.2612,385.8522 Q248.9087,386.0016 249.4731,386.3005 L249.4731,389.0231 Q248.8423,388.4421 248.2488,388.1723 Q247.6553,387.9025 247.0244,387.9025 Q245.6797,387.9025 244.9949,388.9692 Q244.3101,390.0358 244.3101,392.1359 Q244.3101,394.2277 244.9949,395.2944 Q245.6797,396.361 247.0244,396.361 Q247.6553,396.361 248.2488,396.0912 Q248.8423,395.8215 249.4731,395.2404 Z "/><text fill="#000000" font-family="Helvetica Neue" font-size="12" font-style="italic" lengthAdjust="spacingAndGlyphs" textLength="77" x="276.5" y="389.794">&lt;&lt; Ordered &gt;&gt;</text><text fill="#000000" font-family="Helvetica Neue" font-size="12" lengthAdjust="spacingAndGlyphs" textLength="109" x="260.5" y="404.11">ChildStackResource</text><line style="stroke: #A80036; stroke-width: 1.5;" x1="232.5" x2="371.5" y1="411.666" y2="411.666"/><line style="stroke: #A80036; stroke-width: 1.5;" x1="232.5" x2="371.5" y1="419.666" y2="419.666"/><rect fill="#FEFECE" filter="url(#f1)" height="90.061" style="stroke: #A80036; stroke-width: 1.5;" width="190" x="6" y="355.474"/><ellipse cx="36.75" cy="374.82" fill="#008000" rx="11" ry="11" style="stroke: #A80036; stroke-width: 1.0;"/><path d="M39.7231,380.4631 Q39.1421,380.7619 38.5029,380.9113 Q37.8638,381.0607 37.1582,381.0607 Q34.6514,381.0607 33.3315,379.4089 Q32.0117,377.757 32.0117,374.6359 Q32.0117,371.5065 33.3315,369.8547 Q34.6514,368.2028 37.1582,368.2028 Q37.8638,368.2028 38.5112,368.3522 Q39.1587,368.5016 39.7231,368.8005 L39.7231,371.5231 Q39.0923,370.9421 38.4988,370.6723 Q37.9053,370.4025 37.2744,370.4025 Q35.9297,370.4025 35.2449,371.4692 Q34.5601,372.5358 34.5601,374.6359 Q34.5601,376.7277 35.2449,377.7944 Q35.9297,378.861 37.2744,378.861 Q37.9053,378.861 38.4988,378.5912 Q39.0923,378.3215 39.7231,377.7404 Z "/><text fill="#000000" font-family="Helvetica Neue" font-size="12" font-style="italic" lengthAdjust="spacingAndGlyphs" textLength="77" x="77.25" y="372.294">&lt;&lt; Ordered &gt;&gt;</text><text fill="#000000" font-family="Helvetica Neue" font-size="12" lengthAdjust="spacingAndGlyphs" textLength="123" x="54.25" y="386.61">ParamUpdateResource</text><line style="stroke: #A80036; stroke-width: 1.5;" x1="7" x2="195" y1="394.166" y2="394.166"/><text fill="#000000" font-family="Helvetica Neue" font-size="11" lengthAdjust="spacingAndGlyphs" textLength="63" x="12" y="408.946">Staring value</text><text fill="#000000" font-family="Helvetica Neue" font-size="11" lengthAdjust="spacingAndGlyphs" textLength="178" x="12" y="439.192">possibly ERB to compute new value</text><line style="stroke: #A80036; stroke-width: 1.0; stroke-dasharray: 1.0,2.0;" x1="7" x2="87.5" y1="421.8505" y2="421.8505"/><text fill="#000000" font-family="Helvetica Neue" font-size="11" lengthAdjust="spacingAndGlyphs" textLength="27" x="87.5" y="425.569">notes</text><line style="stroke: #A80036; stroke-width: 1.0; stroke-dasharray: 1.0,2.0;" x1="114.5" x2="195" y1="421.8505" y2="421.8505"/><rect fill="#FEFECE" filter="url(#f1)" height="54.692" style="stroke: #A80036; stroke-width: 1.5;" width="143" x="1171.5" y="372.974"/><ellipse cx="1186.5" cy="392.32" fill="#008000" rx="11" ry="11" style="stroke: #A80036; stroke-width: 1.0;"/><path d="M1189.4731,397.9631 Q1188.8921,398.2619 1188.2529,398.4113 Q1187.6138,398.5607 1186.9082,398.5607 Q1184.4014,398.5607 1183.0815,396.9089 Q1181.7617,395.257 1181.7617,392.1359 Q1181.7617,389.0065 1183.0815,387.3547 Q1184.4014,385.7028 1186.9082,385.7028 Q1187.6138,385.7028 1188.2612,385.8522 Q1188.9087,386.0016 1189.4731,386.3005 L1189.4731,389.0231 Q1188.8423,388.4421 1188.2488,388.1723 Q1187.6553,387.9025 1187.0244,387.9025 Q1185.6797,387.9025 1184.9949,388.9692 Q1184.3101,390.0358 1184.3101,392.1359 Q1184.3101,394.2277 1184.9949,395.2944 Q1185.6797,396.361 1187.0244,396.361 Q1187.6553,396.361 1188.2488,396.0912 Q1188.8423,395.8215 1189.4731,395.2404 Z "/><text fill="#000000" font-family="Helvetica Neue" font-size="12" font-style="italic" lengthAdjust="spacingAndGlyphs" textLength="77" x="1217.5" y="389.794">&lt;&lt; Ordered &gt;&gt;</text><text fill="#000000" font-family="Helvetica Neue" font-size="12" lengthAdjust="spacingAndGlyphs" textLength="111" x="1200.5" y="404.11">PuppetRunResource</text><line style="stroke: #A80036; stroke-width: 1.5;" x1="1172.5" x2="1313.5" y1="411.666" y2="411.666"/><line style="stroke: #A80036; stroke-width: 1.5;" x1="1172.5" x2="1313.5" y1="419.666" y2="419.666"/><path d="M971.291,291.865 C961.778,391.259 934.772,592.786 864,747.474 C845.169,788.633 814.617,829.138 788.198,859.891 " fill="none" style="stroke: #808080; stroke-width: 1.0;"/><polygon fill="none" points="964.342,290.984,973.113,271.695,978.286,292.243,964.342,290.984" style="stroke: #808080; stroke-width: 1.0;"/><path d="M838.877,247.317 C780.37,261.029 715.847,286.219 673,332.474 C591.396,420.568 642.839,479.865 607,594.474 C603.944,604.246 600.414,614.499 596.81,624.449 " fill="none" style="stroke: #808080; stroke-width: 1.0;"/><polygon fill="none" points="837.422,240.47,858.448,243.093,840.375,254.155,837.422,240.47" style="stroke: #808080; stroke-width: 1.0;"/><path d="M901.97,283.494 C894.124,289.44 886.337,295.508 879,301.474 C855.034,320.961 829.383,344.132 809.095,363.049 " fill="none" style="stroke: #808080; stroke-width: 1.0;"/><polygon fill="none" points="897.812,277.862,918.034,271.531,906.174,289.091,897.812,277.862" style="stroke: #808080; stroke-width: 1.0;"/><path d="M953.871,290.375 C918.072,386.106 849.945,566.642 835,594.474 C828.445,606.681 820.515,619.18 812.502,630.842 " fill="none" style="stroke: #808080; stroke-width: 1.0;"/><polygon fill="none" points="947.329,287.884,960.885,271.597,960.444,292.782,947.329,287.884" style="stroke: #808080; stroke-width: 1.0;"/><path d="M1113.6,244.774 C1184.93,257.813 1269.88,283.169 1332,332.474 C1509.17,473.104 1522.3,558.494 1579,777.474 C1582.68,791.672 1585.84,797.498 1579,810.474 C1573.04,821.791 1555.89,836.225 1535.19,850.697 " fill="none" style="stroke: #808080; stroke-width: 1.0;"/><polygon fill="none" points="1112.41,251.673,1093.87,241.414,1114.76,237.872,1112.41,251.673" style="stroke: #808080; stroke-width: 1.0;"/><path d="M999.376,291.249 C1000.349,294.683 1001.234,298.107 1002,301.474 C1027.2,412.257 989.439,714.348 1050,810.474 C1063.81,832.401 1078.36,826.219 1100,840.474 C1112.58,848.758 1125.79,857.916 1138.37,866.875 " fill="none" style="stroke: #808080; stroke-width: 1.0;"/><polygon fill="none" points="992.584,292.994,993.09,271.81,1005.905,288.686,992.584,292.994" style="stroke: #808080; stroke-width: 1.0;"/><path d="M1114,238.713 C1271.5,248.893 1518.6,269.351 1606,301.474 C1629.14,309.979 1636.94,312.952 1652,332.474 C1775.78,492.971 1700.51,759.337 1662.25,866.836 " fill="none" style="stroke: #808080; stroke-width: 1.0;"/><polygon fill="none" points="1113.35,245.685,1093.83,237.433,1114.23,231.713,1113.35,245.685" style="stroke: #808080; stroke-width: 1.0;"/><path d="M1113.75,238.892 C1281.11,249.758 1545.54,271.422 1580,301.474 C1636.22,350.501 1645.5,442.455 1645.43,498.409 " fill="none" style="stroke: #808080; stroke-width: 1.0;"/><polygon fill="none" points="1113.11,245.865,1093.59,237.604,1114,231.893,1113.11,245.865" style="stroke: #808080; stroke-width: 1.0;"/><path d="M838.198,240.754 C767.528,249.87 681.69,267.477 611,301.474 C594.334,309.489 578.126,320.522 563.387,332.303 " fill="none" style="stroke: #808080; stroke-width: 1.0;"/><polygon fill="none" points="837.484,233.789,858.177,238.348,839.158,247.689,837.484,233.789" style="stroke: #808080; stroke-width: 1.0;"/><path d="M838.224,236.374 C715.99,245.398 534.869,269.316 390,332.474 C367.822,342.143 346.157,358.525 329.874,372.669 " fill="none" style="stroke: #808080; stroke-width: 1.0;"/><polygon fill="none" points="838.016,229.372,858.451,234.977,838.981,243.339,838.016,229.372" style="stroke: #808080; stroke-width: 1.0;"/><path d="M1058.74,285.277 C1063.92,290.394 1068.75,295.803 1073,301.474 C1114.79,357.29 1173.52,554.77 1198.27,642.47 " fill="none" style="stroke: #808080; stroke-width: 1.0;"/><polygon fill="none" points="1053.7,290.163,1043.37,271.657,1062.98,279.687,1053.7,290.163" style="stroke: #808080; stroke-width: 1.0;"/><path d="M838.09,232.844 C682.458,238.686 423.673,259.762 214,332.474 C197.408,338.228 180.574,346.582 165.145,355.451 " fill="none" style="stroke: #808080; stroke-width: 1.0;"/><polygon fill="none" points="838.187,225.836,858.415,232.145,838.667,239.828,838.187,225.836" style="stroke: #808080; stroke-width: 1.0;"/><path d="M1107.44,280.263 C1120.15,286.752 1132.56,293.832 1144,301.474 C1173.97,321.487 1202.59,351.402 1221.28,372.913 " fill="none" style="stroke: #808080; stroke-width: 1.0;"/><polygon fill="none" points="1104.28,286.51,1089.34,271.486,1110.39,273.913,1104.28,286.51" style="stroke: #808080; stroke-width: 1.0;"/><path d="M302,122.773 C302,189.958 302,317.33 302,372.677 " fill="none" style="stroke: #808080; stroke-width: 1.0;"/><polygon fill="none" points="295,122.488,302,102.488,309,122.488,295,122.488" style="stroke: #808080; stroke-width: 1.0;"/><path d="M276.738,119.692 C238.946,179.859 167.949,292.889 128.754,355.289 " fill="none" style="stroke: #808080; stroke-width: 1.0;"/><polygon fill="none" points="270.979,115.7,287.545,102.488,282.834,123.147,270.979,115.7" style="stroke: #808080; stroke-width: 1.0;"/><path d="M359.82,80.985 C523.486,86.225 986.193,107.974 1111,188.474 C1179.63,232.739 1218.87,326.652 1234.71,372.777 " fill="none" style="stroke: #808080; stroke-width: 1.0;"/><polygon fill="none" points="359.42,87.976,339.641,80.375,359.843,73.983,359.42,87.976" style="stroke: #808080; stroke-width: 1.0;"/><path d="M339.675,64.243 C358.127,62.381 374.5,67.124 374.5,78.474 C374.5,88.76 361.053,93.62 344.798,93.055 " fill="none" style="stroke: #A80036; stroke-width: 1.0;"/><polygon fill="#A80036" points="339.675,92.705,348.3822,97.3077,344.6634,93.045,348.9262,89.3262,339.675,92.705" style="stroke: #A80036; stroke-width: 1.0;"/><text fill="#000000" font-family="Helvetica Neue" font-size="13" lengthAdjust="spacingAndGlyphs" textLength="70" x="458" y="48.214">depends on</text><polygon fill="#FBFB77" filter="url(#f1)" points="379.5,61.983,379.5,117.983,602.5,117.983,602.5,71.983,592.5,61.983,379.5,61.983" style="stroke: #A80036; stroke-width: 1.0;"/><line style="stroke: #A80036; stroke-width: 1.0;" x1="592.5" x2="592.5" y1="61.983" y2="71.983"/><line style="stroke: #A80036; stroke-width: 1.0;" x1="602.5" x2="592.5" y1="71.983" y2="71.983"/><text fill="#000000" font-family="Helvetica Neue" font-size="13" lengthAdjust="spacingAndGlyphs" textLength="185" x="385.5" y="79.723">Acyclic graph of dependencies.</text><text fill="#000000" font-family="Helvetica Neue" font-size="13" lengthAdjust="spacingAndGlyphs" textLength="202" x="385.5" y="95.232">Defines order between Resources.</text><text fill="#000000" font-family="Helvetica Neue" font-size="13" lengthAdjust="spacingAndGlyphs" textLength="192" x="385.5" y="110.741">Used by orchestration to deploy.</text><text fill="#000000" font-family="Helvetica Neue" font-size="13" lengthAdjust="spacingAndGlyphs" textLength="20" x="347.5712" y="58.426">0..*</text><text fill="#000000" font-family="Helvetica Neue" font-size="13" lengthAdjust="spacingAndGlyphs" textLength="20" x="347.5712" y="91.602">0..*</text><path d="M1239.9,428.145 C1234.32,476.008 1222.56,577.079 1215.56,637.173 " fill="none" style="stroke: #A80036; stroke-width: 1.0;"/><polygon fill="#A80036" points="1214.99,642.141,1220.004,633.664,1215.5682,637.1745,1212.0576,632.7388,1214.99,642.141" style="stroke: #A80036; stroke-width: 1.0;"/><text fill="#000000" font-family="Helvetica Neue" font-size="13" lengthAdjust="spacingAndGlyphs" textLength="14" x="1233" y="551.714">on</text><text fill="#000000" font-family="Helvetica Neue" font-size="13" lengthAdjust="spacingAndGlyphs" textLength="20" x="1217.1981" y="448.2233">0..*</text><text fill="#000000" font-family="Helvetica Neue" font-size="13" lengthAdjust="spacingAndGlyphs" textLength="7" x="1208.2275" y="631.711">1</text><path d="M1643.13,594.637 C1643.32,663.266 1643.66,790.235 1643.86,861.657 " fill="none" style="stroke: #A80036; stroke-width: 1.0;"/><polygon fill="#A80036" points="1643.87,866.702,1647.8443,857.6906,1643.8557,861.702,1639.8443,857.7135,1643.87,866.702" style="stroke: #A80036; stroke-width: 1.0;"/><text fill="#000000" font-family="Helvetica Neue" font-size="13" lengthAdjust="spacingAndGlyphs" textLength="35" x="1644" y="691.214">where</text><text fill="#000000" font-family="Helvetica Neue" font-size="13" lengthAdjust="spacingAndGlyphs" textLength="20" x="1621.6803" y="615.5538">0..*</text><text fill="#000000" font-family="Helvetica Neue" font-size="13" lengthAdjust="spacingAndGlyphs" textLength="7" x="1636.3368" y="856.2517">1</text><path d="M616.734,747.508 C640.889,780.943 670.756,822.282 694.683,855.401 " fill="none" style="stroke: #A80036; stroke-width: 1.0;"/><polygon fill="#A80036" points="697.869,859.81,695.8422,850.1719,694.9415,855.7566,689.3568,854.856,697.869,859.81" style="stroke: #A80036; stroke-width: 1.0;"/><text fill="#000000" font-family="Helvetica Neue" font-size="13" lengthAdjust="spacingAndGlyphs" textLength="38" x="668.5" y="791.214">will be</text><text fill="#000000" font-family="Helvetica Neue" font-size="13" lengthAdjust="spacingAndGlyphs" textLength="53" x="661" y="806.723">added to</text><text fill="#000000" font-family="Helvetica Neue" font-size="13" lengthAdjust="spacingAndGlyphs" textLength="20" x="600.4237" y="767.8408">0..*</text><text fill="#000000" font-family="Helvetica Neue" font-size="13" lengthAdjust="spacingAndGlyphs" textLength="7" x="685.1405" y="849.1896">1</text><path d="M162.609,445.522 C220.572,486.191 310.411,547.256 392,594.474 C426.779,614.601 466.61,634.809 500.037,651.007 " fill="none" style="stroke: #A80036; stroke-width: 1.0;"/><polygon fill="#A80036" points="504.921,653.367,498.5586,645.8491,500.4193,651.1911,495.0772,653.0518,504.921,653.367" style="stroke: #A80036; stroke-width: 1.0;"/><text fill="#000000" font-family="Helvetica Neue" font-size="13" lengthAdjust="spacingAndGlyphs" textLength="48" x="393" y="551.714">updates</text><text fill="#000000" font-family="Helvetica Neue" font-size="13" lengthAdjust="spacingAndGlyphs" textLength="20" x="150.5116" y="466.3427">0..*</text><text fill="#000000" font-family="Helvetica Neue" font-size="13" lengthAdjust="spacingAndGlyphs" textLength="7" x="490.092" y="663.4031">1</text><path d="M771,437.667 C771,485.122 771,568.99 771,625.758 " fill="none" style="stroke: #A80036; stroke-width: 1.0;"/><polygon fill="#A80036" points="771,630.822,775,621.822,771,625.822,767,621.822,771,630.822" style="stroke: #A80036; stroke-width: 1.0;"/><text fill="#000000" font-family="Helvetica Neue" font-size="13" lengthAdjust="spacingAndGlyphs" textLength="54" x="772" y="543.714">overrides</text><text fill="#000000" font-family="Helvetica Neue" font-size="13" lengthAdjust="spacingAndGlyphs" textLength="10" x="794" y="559.223">in</text><text fill="#000000" font-family="Helvetica Neue" font-size="13" lengthAdjust="spacingAndGlyphs" textLength="20" x="749.2188" y="458.3914">0..*</text><text fill="#000000" font-family="Helvetica Neue" font-size="13" lengthAdjust="spacingAndGlyphs" textLength="7" x="763.5297" y="620.2032">1</text><path d="M762.899,741.058 C757.77,775.305 751.135,819.603 745.865,854.789 " fill="none" style="stroke: #A80036; stroke-width: 1.0;"/><polygon fill="#A80036" points="745.097,859.912,750.3848,851.603,745.8369,854.967,742.4728,850.4192,745.097,859.912" style="stroke: #A80036; stroke-width: 1.0;"/><text fill="#000000" font-family="Helvetica Neue" font-size="13" lengthAdjust="spacingAndGlyphs" textLength="38" x="766.5" y="791.214">will be</text><text fill="#000000" font-family="Helvetica Neue" font-size="13" lengthAdjust="spacingAndGlyphs" textLength="53" x="759" y="806.723">added to</text><text fill="#000000" font-family="Helvetica Neue" font-size="13" lengthAdjust="spacingAndGlyphs" textLength="20" x="740.6929" y="761.4799">0..*</text><text fill="#000000" font-family="Helvetica Neue" font-size="13" lengthAdjust="spacingAndGlyphs" textLength="7" x="738.7147" y="849.3053">1</text><path d="M1280.09,704.995 C1333.66,720.28 1408.36,744.918 1469,777.474 C1509.8,799.38 1515.46,812.018 1552,840.474 C1561.46,847.838 1571.41,855.684 1581.13,863.405 " fill="none" style="stroke: #A80036; stroke-width: 1.0;"/><polygon fill="#A80036" points="1585.28,866.704,1580.7291,857.9696,1581.3679,863.5903,1575.7472,864.229,1585.28,866.704" style="stroke: #A80036; stroke-width: 1.0;"/><text fill="#000000" font-family="Helvetica Neue" font-size="13" lengthAdjust="spacingAndGlyphs" textLength="68" x="1518" y="799.214">connects to</text><text fill="#000000" font-family="Helvetica Neue" font-size="13" lengthAdjust="spacingAndGlyphs" textLength="20" x="1287.9739" y="703.876">0..*</text><text fill="#000000" font-family="Helvetica Neue" font-size="13" lengthAdjust="spacingAndGlyphs" textLength="20" x="1555.1868" y="856.254">0..*</text><path d="M1236.65,729.747 C1253.11,754.586 1275.52,785.752 1299,810.474 C1307.55,819.481 1316.9,828.399 1326.52,837.001 " fill="none" style="stroke: #A80036; stroke-width: 1.0;"/><polygon fill="#A80036" points="1330.37,840.41,1326.2838,831.4488,1326.6267,837.0953,1320.9802,837.4382,1330.37,840.41" style="stroke: #A80036; stroke-width: 1.0;"/><text fill="#000000" font-family="Helvetica Neue" font-size="13" lengthAdjust="spacingAndGlyphs" textLength="164" x="1300" y="799.214">allowed ComputeResources</text><text fill="#000000" font-family="Helvetica Neue" font-size="13" lengthAdjust="spacingAndGlyphs" textLength="20" x="1219.3036" y="750.6698">1..*</text><text fill="#000000" font-family="Helvetica Neue" font-size="13" lengthAdjust="spacingAndGlyphs" textLength="20" x="1299.2707" y="829.7142">1..*</text><path d="M1203.73,729.691 C1201.81,744.756 1199.95,761.833 1199,777.474 C1197.31,805.312 1197.81,836.394 1198.84,861.858 " fill="none" style="stroke: #A80036; stroke-width: 1.0;"/><polygon fill="#A80036" points="1199.05,866.873,1202.6662,857.712,1198.8388,861.8775,1194.6733,858.05,1199.05,866.873" style="stroke: #A80036; stroke-width: 1.0;"/><text fill="#000000" font-family="Helvetica Neue" font-size="13" lengthAdjust="spacingAndGlyphs" textLength="58" x="1200" y="799.214">limited by</text><text fill="#000000" font-family="Helvetica Neue" font-size="13" lengthAdjust="spacingAndGlyphs" textLength="20" x="1181.137" y="750.6049">0..*</text><text fill="#000000" font-family="Helvetica Neue" font-size="13" lengthAdjust="spacingAndGlyphs" textLength="7" x="1191.0623" y="856.1004">1</text><path d="M523.945,468.543 C527.598,478.486 531.08,488.681 534,498.474 C545.756,537.903 555.295,583.044 561.996,619.039 " fill="none" style="stroke: #A80036; stroke-width: 1.0;"/><polygon fill="#A80036" points="562.964,624.282,565.2621,614.705,562.0555,619.3652,557.3953,616.1586,562.964,624.282" style="stroke: #A80036; stroke-width: 1.0;"/><text fill="#000000" font-family="Helvetica Neue" font-size="13" lengthAdjust="spacingAndGlyphs" textLength="39" x="559" y="551.714">source</text><text fill="#000000" font-family="Helvetica Neue" font-size="13" lengthAdjust="spacingAndGlyphs" textLength="20" x="505.7956" y="489.1095">0..*</text><text fill="#000000" font-family="Helvetica Neue" font-size="13" lengthAdjust="spacingAndGlyphs" textLength="7" x="554.3143" y="613.6362">1</text><path d="M463.833,468.478 C450.111,506.896 441.111,555.146 460,594.474 C469.079,613.376 484.241,629.57 500.559,642.813 " fill="none" style="stroke: #A80036; stroke-width: 1.0;"/><polygon fill="#A80036" points="504.729,646.116,500.1567,637.3928,500.8092,643.0119,495.1901,643.6644,504.729,646.116" style="stroke: #A80036; stroke-width: 1.0;"/><text fill="#000000" font-family="Helvetica Neue" font-size="13" lengthAdjust="spacingAndGlyphs" textLength="64" x="461" y="551.714">destination</text><text fill="#000000" font-family="Helvetica Neue" font-size="13" lengthAdjust="spacingAndGlyphs" textLength="22" x="437.3814" y="489.0378">0..1</text><text fill="#000000" font-family="Helvetica Neue" font-size="13" lengthAdjust="spacingAndGlyphs" textLength="7" x="489.879" y="638.7184">1</text><path d="M1144.56,729.583 C1104.34,754.811 1051.25,786.434 1002,810.474 C944.049,838.759 876.282,865.114 823.784,884.15 " fill="none" style="stroke: #A80036; stroke-width: 1.0;"/><polygon fill="#A80036" points="819.073,885.854,828.8969,886.5552,823.775,884.1538,826.1765,879.032,819.073,885.854" style="stroke: #A80036; stroke-width: 1.0;"/><text fill="#000000" font-family="Helvetica Neue" font-size="13" lengthAdjust="spacingAndGlyphs" textLength="74" x="1062" y="799.214">provisions in</text><text fill="#000000" font-family="Helvetica Neue" font-size="13" lengthAdjust="spacingAndGlyphs" textLength="20" x="1112.5368" y="750.4797">0..*</text><text fill="#000000" font-family="Helvetica Neue" font-size="13" lengthAdjust="spacingAndGlyphs" textLength="7" x="826.9618" y="880.2593">1</text><path d="M824.061,893.3758 C841.526,895.7775 854,902.9769 854,914.974 C854,928.099 839.07,935.4818 819.009,937.1224 " fill="none" style="stroke: #A80036; stroke-width: 1.0;"/><polygon fill="#A80036" points="819.009,892.8256,827.5229,897.7766,823.9796,893.367,828.3892,889.8237,819.009,892.8256" style="stroke: #A80036; stroke-width: 1.0;"/><text fill="#000000" font-family="Helvetica Neue" font-size="13" lengthAdjust="spacingAndGlyphs" textLength="71" x="941.5" y="884.714">be parent of</text><polygon fill="#FBFB77" filter="url(#f1)" points="859,898.483,859,954.483,1091,954.483,1091,908.483,1081,898.483,859,898.483" style="stroke: #A80036; stroke-width: 1.0;"/><line style="stroke: #A80036; stroke-width: 1.0;" x1="1081" x2="1081" y1="898.483" y2="908.483"/><line style="stroke: #A80036; stroke-width: 1.0;" x1="1091" x2="1081" y1="908.483" y2="908.483"/><text fill="#000000" font-family="Helvetica Neue" font-size="13" lengthAdjust="spacingAndGlyphs" textLength="195" x="865" y="916.223">Foreign keys cannot be stored on</text><text fill="#000000" font-family="Helvetica Neue" font-size="13" lengthAdjust="spacingAndGlyphs" textLength="156" x="865" y="931.732">target HostgroupResource.</text><text fill="#000000" font-family="Helvetica Neue" font-size="13" lengthAdjust="spacingAndGlyphs" textLength="211" x="865" y="947.241">It would prevent Stack share-ability.</text><text fill="#000000" font-family="Helvetica Neue" font-size="13" lengthAdjust="spacingAndGlyphs" textLength="20" x="826.916" y="904.3452">0..*</text><text fill="#000000" font-family="Helvetica Neue" font-size="13" lengthAdjust="spacingAndGlyphs" textLength="22" x="827.002" y="936.1597">0..1</text><polygon fill="#DDDDDD" points="684.5,1007.474,684.5,1050.878,1053.5,1050.878,1053.5,1007.474,684.5,1007.474" style="stroke: #000000; stroke-width: 1.0;"/><text fill="#000000" font-family="Helvetica Neue" font-size="14" lengthAdjust="spacingAndGlyphs" textLength="185" x="690.5" y="1026.194">All types share a single table.</text><text fill="#000000" font-family="Helvetica Neue" font-size="14" lengthAdjust="spacingAndGlyphs" textLength="357" x="690.5" y="1042.896">It's using STI. Plugins can add another implementations.</text></g></svg>