<?xml version="1.0" encoding="UTF-8" standalone="yes"?><svg xmlns="http://www.w3.org/2000/svg" xmlns:xlink="http://www.w3.org/1999/xlink" height="1051pt" style="width:1800px;height:1051px;" version="1.1" viewBox="0 0 1800 1051" width="1800pt"><defs><filter height="300%" id="f1" width="300%" x="-1" y="-1"><feGaussianBlur result="blurOut" stdDeviation="2.0"/><feColorMatrix in="blurOut" result="blurOut2" type="matrix" values="0 0 0 0 0 0 0 0 0 0 0 0 0 0 0 0 0 0 .4 0"/><feOffset dx="4.0" dy="4.0" in="blurOut2" result="blurOut3"/><feBlend in="SourceGraphic" in2="blurOut3" mode="normal"/></filter></defs><g><text fill="#000000" font-family="Helvetica Neue" font-size="18" lengthAdjust="spacingAndGlyphs" textLength="131" x="816" y="17.64">Resource Types</text><rect fill="#FEFECE" filter="url(#f1)" height="48" style="stroke: #A80036; stroke-width: 1.5;" width="75" x="264.5" y="54.474"/><ellipse cx="279.5" cy="70.474" fill="#DA70D6" rx="11" ry="11" style="stroke: #A80036; stroke-width: 1.0;"/><path d="M275.2139,64.0809 L278.1357,64.0809 L279.6133,69.5179 L281.0825,64.0809 L284.021,64.0809 L284.021,76.474 L281.9126,76.474 L281.9126,66.5463 L280.6011,71.9667 L278.6504,71.9667 L277.3223,66.5463 L277.3223,76.474 L275.2139,76.474 Z "/><text fill="#000000" font-family="Helvetica Neue" font-size="12" font-style="italic" lengthAdjust="spacingAndGlyphs" textLength="43" x="293.5" y="75.106">Ordered</text><line style="stroke: #A80036; stroke-width: 1.5;" x1="265.5" x2="338.5" y1="86.474" y2="86.474"/><line style="stroke: #A80036; stroke-width: 1.5;" x1="265.5" x2="338.5" y1="94.474" y2="94.474"/><rect fill="#FEFECE" filter="url(#f1)" height="83.369" style="stroke: #A80036; stroke-width: 1.5;" width="235" x="884.5" y="188.474"/><ellipse cx="972.75" cy="204.474" fill="#A9DCDF" rx="11" ry="11" style="stroke: #A80036; stroke-width: 1.0;"/><path d="M972.8633,199.8221 L971.7095,204.8939 L974.0254,204.8939 Z M971.3691,197.5809 L974.3657,197.5809 L977.7109,209.974 L975.2622,209.974 L974.4985,206.911 L971.2197,206.911 L970.4727,209.974 L968.0239,209.974 Z "/><text fill="#000000" font-family="Helvetica Neue" font-size="12" font-style="italic" lengthAdjust="spacingAndGlyphs" textLength="50" x="993.25" y="209.106">Resource</text><line style="stroke: #A80036; stroke-width: 1.5;" x1="885.5" x2="1118.5" y1="220.474" y2="220.474"/><text fill="#000000" font-family="Helvetica Neue" font-size="11" lengthAdjust="spacingAndGlyphs" textLength="223" x="890.5" y="252.377">A Foreman object to be configured or created</text><text fill="#000000" font-family="Helvetica Neue" font-size="11" lengthAdjust="spacingAndGlyphs" textLength="158" x="890.5" y="265.5">to form an Deployment instance.</text><line style="stroke: #A80036; stroke-width: 1.0; stroke-dasharray: 1.0,2.0;" x1="885.5" x2="988.5" y1="235.0355" y2="235.0355"/><text fill="#000000" font-family="Helvetica Neue" font-size="11" lengthAdjust="spacingAndGlyphs" textLength="27" x="988.5" y="238.754">notes</text><line style="stroke: #A80036; stroke-width: 1.0; stroke-dasharray: 1.0,2.0;" x1="1015.5" x2="1118.5" y1="235.0355" y2="235.0355"/><rect fill="#FEFECE" filter="url(#f1)" height="109.615" style="stroke: #A80036; stroke-width: 1.5;" width="164" x="679" y="859.974"/><ellipse cx="704.8" cy="875.974" fill="#ADD1B2" rx="11" ry="11" style="stroke: #A80036; stroke-width: 1.0;"/><path d="M707.7731,881.6171 Q707.1921,881.9159 706.5529,882.0653 Q705.9138,882.2147 705.2082,882.2147 Q702.7014,882.2147 701.3815,880.5629 Q700.0617,878.911 700.0617,875.7899 Q700.0617,872.6605 701.3815,871.0087 Q702.7014,869.3568 705.2082,869.3568 Q705.9138,869.3568 706.5612,869.5062 Q707.2087,869.6556 707.7731,869.9545 L707.7731,872.6771 Q707.1423,872.0961 706.5488,871.8263 Q705.9553,871.5565 705.3244,871.5565 Q703.9797,871.5565 703.2949,872.6232 Q702.6101,873.6898 702.6101,875.7899 Q702.6101,877.8817 703.2949,878.9484 Q703.9797,880.015 705.3244,880.015 Q705.9553,880.015 706.5488,879.7452 Q707.1423,879.4755 707.7731,878.8944 Z "/><text fill="#000000" font-family="Helvetica Neue" font-size="12" lengthAdjust="spacingAndGlyphs" textLength="108" x="721.2" y="880.576">HostgroupResource</text><line style="stroke: #A80036; stroke-width: 1.5;" x1="680" x2="842" y1="891.974" y2="891.974"/><text fill="#000000" font-family="Helvetica Neue" font-size="11" lengthAdjust="spacingAndGlyphs" textLength="58" x="685" y="906.754">String name</text><text fill="#000000" font-family="Helvetica Neue" font-size="11" lengthAdjust="spacingAndGlyphs" textLength="146" x="685" y="937">Parent is HostgroupResource</text><text fill="#000000" font-family="Helvetica Neue" font-size="11" lengthAdjust="spacingAndGlyphs" textLength="152" x="685" y="950.123">or it's provided on Deployment</text><text fill="#000000" font-family="Helvetica Neue" font-size="11" lengthAdjust="spacingAndGlyphs" textLength="65" x="685" y="963.246">configuration.</text><line style="stroke: #A80036; stroke-width: 1.0; stroke-dasharray: 1.0,2.0;" x1="680" x2="747.5" y1="919.6585" y2="919.6585"/><text fill="#000000" font-family="Helvetica Neue" font-size="11" lengthAdjust="spacingAndGlyphs" textLength="27" x="747.5" y="923.377">notes</text><line style="stroke: #A80036; stroke-width: 1.0; stroke-dasharray: 1.0,2.0;" x1="774.5" x2="842" y1="919.6585" y2="919.6585"/><rect fill="#FEFECE" filter="url(#f1)" height="122.738" style="stroke: #A80036; stroke-width: 1.5;" width="136" x="511" y="624.474"/><ellipse cx="526" cy="640.474" fill="#ADD1B2" rx="11" ry="11" style="stroke: #A80036; stroke-width: 1.0;"/><path d="M528.9731,646.1171 Q528.3921,646.4159 527.7529,646.5653 Q527.1138,646.7147 526.4082,646.7147 Q523.9014,646.7147 522.5815,645.0629 Q521.2617,643.411 521.2617,640.2899 Q521.2617,637.1605 522.5815,635.5087 Q523.9014,633.8568 526.4082,633.8568 Q527.1138,633.8568 527.7612,634.0062 Q528.4087,634.1556 528.9731,634.4545 L528.9731,637.1771 Q528.3423,636.5961 527.7488,636.3263 Q527.1553,636.0565 526.5244,636.0565 Q525.1797,636.0565 524.4949,637.1232 Q523.8101,638.1898 523.8101,640.2899 Q523.8101,642.3817 524.4949,643.4484 Q525.1797,644.515 526.5244,644.515 Q527.1553,644.515 527.7488,644.2452 Q528.3423,643.9755 528.9731,643.3944 Z "/><text fill="#000000" font-family="Helvetica Neue" font-size="12" lengthAdjust="spacingAndGlyphs" textLength="104" x="540" y="645.076">ParameterResource</text><line style="stroke: #A80036; stroke-width: 1.5;" x1="512" x2="646" y1="656.474" y2="656.474"/><text fill="#000000" font-family="Helvetica Neue" font-size="11" lengthAdjust="spacingAndGlyphs" textLength="58" x="517" y="671.254">String name</text><text fill="#000000" font-family="Helvetica Neue" font-size="11" lengthAdjust="spacingAndGlyphs" textLength="124" x="517" y="684.377">String description # intent</text><text fill="#000000" font-family="Helvetica Neue" font-size="11" lengthAdjust="spacingAndGlyphs" textLength="96" x="517" y="697.5">String default_value</text><text fill="#000000" font-family="Helvetica Neue" font-size="11" lengthAdjust="spacingAndGlyphs" textLength="102" x="517" y="727.746">validations, like list of</text><text fill="#000000" font-family="Helvetica Neue" font-size="11" lengthAdjust="spacingAndGlyphs" textLength="72" x="517" y="740.869">allowed values</text><line style="stroke: #A80036; stroke-width: 1.0; stroke-dasharray: 1.0,2.0;" x1="512" x2="565.5" y1="710.4045" y2="710.4045"/><text fill="#000000" font-family="Helvetica Neue" font-size="11" lengthAdjust="spacingAndGlyphs" textLength="27" x="565.5" y="714.123">notes</text><line style="stroke: #A80036; stroke-width: 1.0; stroke-dasharray: 1.0,2.0;" x1="592.5" x2="646" y1="710.4045" y2="710.4045"/><rect fill="#FEFECE" filter="url(#f1)" height="74.246" style="stroke: #A80036; stroke-width: 1.5;" width="181" x="696.5" y="363.474"/><ellipse cx="711.5" cy="379.474" fill="#ADD1B2" rx="11" ry="11" style="stroke: #A80036; stroke-width: 1.0;"/><path d="M714.4731,385.1171 Q713.8921,385.4159 713.2529,385.5653 Q712.6138,385.7147 711.9082,385.7147 Q709.4014,385.7147 708.0815,384.0629 Q706.7617,382.411 706.7617,379.2899 Q706.7617,376.1605 708.0815,374.5087 Q709.4014,372.8568 711.9082,372.8568 Q712.6138,372.8568 713.2612,373.0062 Q713.9087,373.1556 714.4731,373.4545 L714.4731,376.1771 Q713.8423,375.5961 713.2488,375.3263 Q712.6553,375.0565 712.0244,375.0565 Q710.6797,375.0565 709.9949,376.1232 Q709.3101,377.1898 709.3101,379.2899 Q709.3101,381.3817 709.9949,382.4484 Q710.6797,383.515 712.0244,383.515 Q712.6553,383.515 713.2488,383.2452 Q713.8423,382.9755 714.4731,382.3944 Z "/><text fill="#000000" font-family="Helvetica Neue" font-size="12" lengthAdjust="spacingAndGlyphs" textLength="149" x="725.5" y="384.076">ParameterOverrideResource</text><line style="stroke: #A80036; stroke-width: 1.5;" x1="697.5" x2="876.5" y1="395.474" y2="395.474"/><text fill="#000000" font-family="Helvetica Neue" font-size="11" lengthAdjust="spacingAndGlyphs" textLength="49" x="702.5" y="410.254">String key</text><text fill="#000000" font-family="Helvetica Neue" font-size="11" lengthAdjust="spacingAndGlyphs" textLength="92" x="702.5" y="423.377">String value # ERB</text><line style="stroke: #A80036; stroke-width: 1.5;" x1="697.5" x2="876.5" y1="429.72" y2="429.72"/><rect fill="#FEFECE" filter="url(#f1)" height="148.984" style="stroke: #A80036; stroke-width: 1.5;" width="214" x="1345" y="840.474"/><ellipse cx="1374.4" cy="856.474" fill="#ADD1B2" rx="11" ry="11" style="stroke: #A80036; stroke-width: 1.0;"/><path d="M1377.3731,862.1171 Q1376.7921,862.4159 1376.1529,862.5653 Q1375.5138,862.7147 1374.8082,862.7147 Q1372.3014,862.7147 1370.9815,861.0629 Q1369.6617,859.411 1369.6617,856.2899 Q1369.6617,853.1605 1370.9815,851.5087 Q1372.3014,849.8568 1374.8082,849.8568 Q1375.5138,849.8568 1376.1612,850.0062 Q1376.8087,850.1556 1377.3731,850.4545 L1377.3731,853.1771 Q1376.7423,852.5961 1376.1488,852.3263 Q1375.5553,852.0565 1374.9244,852.0565 Q1373.5797,852.0565 1372.8949,853.1232 Q1372.2101,854.1898 1372.2101,856.2899 Q1372.2101,858.3817 1372.8949,859.4484 Q1373.5797,860.515 1374.9244,860.515 Q1375.5553,860.515 1376.1488,860.2452 Q1376.7423,859.9755 1377.3731,859.3944 Z "/><text fill="#000000" font-family="Helvetica Neue" font-size="12" lengthAdjust="spacingAndGlyphs" textLength="150" x="1391.6" y="861.076">ComputeResourceResource</text><line style="stroke: #A80036; stroke-width: 1.5;" x1="1346" x2="1558" y1="872.474" y2="872.474"/><text fill="#000000" font-family="Helvetica Neue" font-size="11" lengthAdjust="spacingAndGlyphs" textLength="53" x="1351" y="887.254">String type</text><text fill="#000000" font-family="Helvetica Neue" font-size="11" lengthAdjust="spacingAndGlyphs" textLength="110" x="1351" y="900.377">Boolean image_based</text><text fill="#000000" font-family="Helvetica Neue" font-size="11" lengthAdjust="spacingAndGlyphs" textLength="118" x="1351" y="913.5">String image_url nullable</text><text fill="#000000" font-family="Helvetica Neue" font-size="11" lengthAdjust="spacingAndGlyphs" textLength="202" x="1351" y="943.746">Each ComputeResourceResource allows</text><text fill="#000000" font-family="Helvetica Neue" font-size="11" lengthAdjust="spacingAndGlyphs" textLength="183" x="1351" y="956.869">particular ComputeResource type for</text><text fill="#000000" font-family="Helvetica Neue" font-size="11" lengthAdjust="spacingAndGlyphs" textLength="154" x="1351" y="969.992">a given HostResource. It has to</text><text fill="#000000" font-family="Helvetica Neue" font-size="11" lengthAdjust="spacingAndGlyphs" textLength="187" x="1351" y="983.115">contain image_url when image_based.</text><line style="stroke: #A80036; stroke-width: 1.0; stroke-dasharray: 1.0,2.0;" x1="1346" x2="1438.5" y1="926.4045" y2="926.4045"/><text fill="#000000" font-family="Helvetica Neue" font-size="11" lengthAdjust="spacingAndGlyphs" textLength="27" x="1438.5" y="930.123">notes</text><line style="stroke: #A80036; stroke-width: 1.0; stroke-dasharray: 1.0,2.0;" x1="1465.5" x2="1558" y1="926.4045" y2="926.4045"/><rect fill="#FEFECE" filter="url(#f1)" height="96.492" style="stroke: #A80036; stroke-width: 1.5;" width="167" x="1142.5" y="866.974"/><ellipse cx="1157.5" cy="882.974" fill="#ADD1B2" rx="11" ry="11" style="stroke: #A80036; stroke-width: 1.0;"/><path d="M1160.4731,888.6171 Q1159.8921,888.9159 1159.2529,889.0653 Q1158.6138,889.2147 1157.9082,889.2147 Q1155.4014,889.2147 1154.0815,887.5629 Q1152.7617,885.911 1152.7617,882.7899 Q1152.7617,879.6605 1154.0815,878.0087 Q1155.4014,876.3568 1157.9082,876.3568 Q1158.6138,876.3568 1159.2612,876.5062 Q1159.9087,876.6556 1160.4731,876.9545 L1160.4731,879.6771 Q1159.8423,879.0961 1159.2488,878.8263 Q1158.6553,878.5565 1158.0244,878.5565 Q1156.6797,878.5565 1155.9949,879.6232 Q1155.3101,880.6898 1155.3101,882.7899 Q1155.3101,884.8817 1155.9949,885.9484 Q1156.6797,887.015 1158.0244,887.015 Q1158.6553,887.015 1159.2488,886.7452 Q1159.8423,886.4755 1160.4731,885.8944 Z "/><text fill="#000000" font-family="Helvetica Neue" font-size="12" lengthAdjust="spacingAndGlyphs" textLength="135" x="1171.5" y="887.576">ComputeProfileResource</text><line style="stroke: #A80036; stroke-width: 1.5;" x1="1143.5" x2="1308.5" y1="898.974" y2="898.974"/><text fill="#000000" font-family="Helvetica Neue" font-size="11" lengthAdjust="spacingAndGlyphs" textLength="78" x="1148.5" y="930.877">Type limitations.</text><text fill="#000000" font-family="Helvetica Neue" font-size="11" lengthAdjust="spacingAndGlyphs" textLength="144" x="1148.5" y="944">Can be added later or stored</text><text fill="#000000" font-family="Helvetica Neue" font-size="11" lengthAdjust="spacingAndGlyphs" textLength="128" x="1148.5" y="957.123">directly on HostResource.</text><line style="stroke: #A80036; stroke-width: 1.0; stroke-dasharray: 1.0,2.0;" x1="1143.5" x2="1212.5" y1="913.5355" y2="913.5355"/><text fill="#000000" font-family="Helvetica Neue" font-size="11" lengthAdjust="spacingAndGlyphs" textLength="27" x="1212.5" y="917.254">notes</text><line style="stroke: #A80036; stroke-width: 1.0; stroke-dasharray: 1.0,2.0;" x1="1239.5" x2="1308.5" y1="913.5355" y2="913.5355"/><rect fill="#FEFECE" filter="url(#f1)" height="109.615" style="stroke: #A80036; stroke-width: 1.5;" width="151" x="711.5" y="630.974"/><ellipse cx="726.5" cy="646.974" fill="#ADD1B2" rx="11" ry="11" style="stroke: #A80036; stroke-width: 1.0;"/><path d="M729.4731,652.6171 Q728.8921,652.9159 728.2529,653.0653 Q727.6138,653.2147 726.9082,653.2147 Q724.4014,653.2147 723.0815,651.5629 Q721.7617,649.911 721.7617,646.7899 Q721.7617,643.6605 723.0815,642.0087 Q724.4014,640.3568 726.9082,640.3568 Q727.6138,640.3568 728.2612,640.5062 Q728.9087,640.6556 729.4731,640.9545 L729.4731,643.6771 Q728.8423,643.0961 728.2488,642.8263 Q727.6553,642.5565 727.0244,642.5565 Q725.6797,642.5565 724.9949,643.6232 Q724.3101,644.6898 724.3101,646.7899 Q724.3101,648.8817 724.9949,649.9484 Q725.6797,651.015 727.0244,651.015 Q727.6553,651.015 728.2488,650.7452 Q728.8423,650.4755 729.4731,649.8944 Z "/><text fill="#000000" font-family="Helvetica Neue" font-size="12" lengthAdjust="spacingAndGlyphs" textLength="119" x="740.5" y="651.576">PuppetClassResource</text><line style="stroke: #A80036; stroke-width: 1.5;" x1="712.5" x2="861.5" y1="662.974" y2="662.974"/><text fill="#000000" font-family="Helvetica Neue" font-size="11" lengthAdjust="spacingAndGlyphs" textLength="58" x="717.5" y="677.754">String name</text><text fill="#000000" font-family="Helvetica Neue" font-size="11" lengthAdjust="spacingAndGlyphs" textLength="104" x="717.5" y="690.877">\# of the class to add</text><text fill="#000000" font-family="Helvetica Neue" font-size="11" lengthAdjust="spacingAndGlyphs" textLength="97" x="717.5" y="721.123">possibly allot to limit</text><text fill="#000000" font-family="Helvetica Neue" font-size="11" lengthAdjust="spacingAndGlyphs" textLength="110" x="717.5" y="734.246">puppet class versions</text><line style="stroke: #A80036; stroke-width: 1.0; stroke-dasharray: 1.0,2.0;" x1="712.5" x2="773.5" y1="703.7815" y2="703.7815"/><text fill="#000000" font-family="Helvetica Neue" font-size="11" lengthAdjust="spacingAndGlyphs" textLength="27" x="773.5" y="707.5">notes</text><line style="stroke: #A80036; stroke-width: 1.0; stroke-dasharray: 1.0,2.0;" x1="800.5" x2="861.5" y1="703.7815" y2="703.7815"/><rect fill="#FEFECE" filter="url(#f1)" height="96.492" style="stroke: #A80036; stroke-width: 1.5;" width="147" x="1594.5" y="866.974"/><ellipse cx="1609.5" cy="882.974" fill="#ADD1B2" rx="11" ry="11" style="stroke: #A80036; stroke-width: 1.0;"/><path d="M1612.4731,888.6171 Q1611.8921,888.9159 1611.2529,889.0653 Q1610.6138,889.2147 1609.9082,889.2147 Q1607.4014,889.2147 1606.0815,887.5629 Q1604.7617,885.911 1604.7617,882.7899 Q1604.7617,879.6605 1606.0815,878.0087 Q1607.4014,876.3568 1609.9082,876.3568 Q1610.6138,876.3568 1611.2612,876.5062 Q1611.9087,876.6556 1612.4731,876.9545 L1612.4731,879.6771 Q1611.8423,879.0961 1611.2488,878.8263 Q1610.6553,878.5565 1610.0244,878.5565 Q1608.6797,878.5565 1607.9949,879.6232 Q1607.3101,880.6898 1607.3101,882.7899 Q1607.3101,884.8817 1607.9949,885.9484 Q1608.6797,887.015 1610.0244,887.015 Q1610.6553,887.015 1611.2488,886.7452 Q1611.8423,886.4755 1612.4731,885.8944 Z "/><text fill="#000000" font-family="Helvetica Neue" font-size="12" lengthAdjust="spacingAndGlyphs" textLength="115" x="1623.5" y="887.576">SubnetTypeResource</text><line style="stroke: #A80036; stroke-width: 1.5;" x1="1595.5" x2="1740.5" y1="898.974" y2="898.974"/><text fill="#000000" font-family="Helvetica Neue" font-size="11" lengthAdjust="spacingAndGlyphs" textLength="58" x="1600.5" y="913.754">String name</text><text fill="#000000" font-family="Helvetica Neue" font-size="11" lengthAdjust="spacingAndGlyphs" textLength="60" x="1600.5" y="944">like Staypuft</text><text fill="#000000" font-family="Helvetica Neue" font-size="11" lengthAdjust="spacingAndGlyphs" textLength="70" x="1600.5" y="957.123">network types</text><line style="stroke: #A80036; stroke-width: 1.0; stroke-dasharray: 1.0,2.0;" x1="1595.5" x2="1654.5" y1="926.6585" y2="926.6585"/><text fill="#000000" font-family="Helvetica Neue" font-size="11" lengthAdjust="spacingAndGlyphs" textLength="27" x="1654.5" y="930.377">notes</text><line style="stroke: #A80036; stroke-width: 1.0; stroke-dasharray: 1.0,2.0;" x1="1681.5" x2="1740.5" y1="926.6585" y2="926.6585"/><rect fill="#FEFECE" filter="url(#f1)" height="96.492" style="stroke: #A80036; stroke-width: 1.5;" width="131" x="1601.5" y="498.474"/><ellipse cx="1617.85" cy="514.474" fill="#ADD1B2" rx="11" ry="11" style="stroke: #A80036; stroke-width: 1.0;"/><path d="M1620.8231,520.1171 Q1620.2421,520.4159 1619.6029,520.5653 Q1618.9638,520.7147 1618.2582,520.7147 Q1615.7514,520.7147 1614.4315,519.0629 Q1613.1117,517.411 1613.1117,514.2899 Q1613.1117,511.1605 1614.4315,509.5087 Q1615.7514,507.8568 1618.2582,507.8568 Q1618.9638,507.8568 1619.6112,508.0062 Q1620.2587,508.1556 1620.8231,508.4545 L1620.8231,511.1771 Q1620.1923,510.5961 1619.5988,510.3263 Q1619.0053,510.0565 1618.3744,510.0565 Q1617.0297,510.0565 1616.3449,511.1232 Q1615.6601,512.1898 1615.6601,514.2899 Q1615.6601,516.3817 1616.3449,517.4484 Q1617.0297,518.515 1618.3744,518.515 Q1619.0053,518.515 1619.5988,518.2452 Q1620.1923,517.9755 1620.8231,517.3944 Z "/><text fill="#000000" font-family="Helvetica Neue" font-size="12" lengthAdjust="spacingAndGlyphs" textLength="96" x="1632.15" y="519.076">InterfaceResource</text><line style="stroke: #A80036; stroke-width: 1.5;" x1="1602.5" x2="1731.5" y1="530.474" y2="530.474"/><text fill="#000000" font-family="Helvetica Neue" font-size="11" lengthAdjust="spacingAndGlyphs" textLength="40" x="1607.5" y="545.254">String ip</text><text fill="#000000" font-family="Helvetica Neue" font-size="11" lengthAdjust="spacingAndGlyphs" textLength="119" x="1607.5" y="575.5">creates interface without</text><text fill="#000000" font-family="Helvetica Neue" font-size="11" lengthAdjust="spacingAndGlyphs" textLength="89" x="1607.5" y="588.623">Host to reserve IP</text><line style="stroke: #A80036; stroke-width: 1.0; stroke-dasharray: 1.0,2.0;" x1="1602.5" x2="1653.5" y1="558.1585" y2="558.1585"/><text fill="#000000" font-family="Helvetica Neue" font-size="11" lengthAdjust="spacingAndGlyphs" textLength="27" x="1653.5" y="561.877">notes</text><line style="stroke: #A80036; stroke-width: 1.0; stroke-dasharray: 1.0,2.0;" x1="1680.5" x2="1731.5" y1="558.1585" y2="558.1585"/><rect fill="#FEFECE" filter="url(#f1)" height="87.369" style="stroke: #A80036; stroke-width: 1.5;" width="140" x="1165" y="642.474"/><ellipse cx="1194.4" cy="658.474" fill="#ADD1B2" rx="11" ry="11" style="stroke: #A80036; stroke-width: 1.0;"/><path d="M1197.3731,664.1171 Q1196.7921,664.4159 1196.1529,664.5653 Q1195.5138,664.7147 1194.8082,664.7147 Q1192.3014,664.7147 1190.9815,663.0629 Q1189.6617,661.411 1189.6617,658.2899 Q1189.6617,655.1605 1190.9815,653.5087 Q1192.3014,651.8568 1194.8082,651.8568 Q1195.5138,651.8568 1196.1612,652.0062 Q1196.8087,652.1556 1197.3731,652.4545 L1197.3731,655.1771 Q1196.7423,654.5961 1196.1488,654.3263 Q1195.5553,654.0565 1194.9244,654.0565 Q1193.5797,654.0565 1192.8949,655.1232 Q1192.2101,656.1898 1192.2101,658.2899 Q1192.2101,660.3817 1192.8949,661.4484 Q1193.5797,662.515 1194.9244,662.515 Q1195.5553,662.515 1196.1488,662.2452 Q1196.7423,661.9755 1197.3731,661.3944 Z "/><text fill="#000000" font-family="Helvetica Neue" font-size="12" lengthAdjust="spacingAndGlyphs" textLength="76" x="1211.6" y="663.076">HostResource</text><line style="stroke: #A80036; stroke-width: 1.5;" x1="1166" x2="1304" y1="674.474" y2="674.474"/><text fill="#000000" font-family="Helvetica Neue" font-size="11" lengthAdjust="spacingAndGlyphs" textLength="128" x="1171" y="689.254">String name # "db-%02d"</text><text fill="#000000" font-family="Helvetica Neue" font-size="11" lengthAdjust="spacingAndGlyphs" textLength="60" x="1171" y="702.377">Integere min</text><text fill="#000000" font-family="Helvetica Neue" font-size="11" lengthAdjust="spacingAndGlyphs" textLength="64" x="1171" y="715.5">Integere max</text><line style="stroke: #A80036; stroke-width: 1.5;" x1="1166" x2="1304" y1="721.843" y2="721.843"/><rect fill="#FEFECE" filter="url(#f1)" height="135.861" style="stroke: #A80036; stroke-width: 1.5;" width="182" x="408" y="332.474"/><ellipse cx="423" cy="348.474" fill="#ADD1B2" rx="11" ry="11" style="stroke: #A80036; stroke-width: 1.0;"/><path d="M425.9731,354.1171 Q425.3921,354.4159 424.7529,354.5653 Q424.1138,354.7147 423.4082,354.7147 Q420.9014,354.7147 419.5815,353.0629 Q418.2617,351.411 418.2617,348.2899 Q418.2617,345.1605 419.5815,343.5087 Q420.9014,341.8568 423.4082,341.8568 Q424.1138,341.8568 424.7612,342.0062 Q425.4087,342.1556 425.9731,342.4545 L425.9731,345.1771 Q425.3423,344.5961 424.7488,344.3263 Q424.1553,344.0565 423.5244,344.0565 Q422.1797,344.0565 421.4949,345.1232 Q420.8101,346.1898 420.8101,348.2899 Q420.8101,350.3817 421.4949,351.4484 Q422.1797,352.515 423.5244,352.515 Q424.1553,352.515 424.7488,352.2452 Q425.3423,351.9755 425.9731,351.3944 Z "/><text fill="#000000" font-family="Helvetica Neue" font-size="12" lengthAdjust="spacingAndGlyphs" textLength="150" x="437" y="353.076">ConnectParameterResource</text><line style="stroke: #A80036; stroke-width: 1.5;" x1="409" x2="589" y1="364.474" y2="364.474"/><text fill="#000000" font-family="Helvetica Neue" font-size="11" lengthAdjust="spacingAndGlyphs" textLength="114" x="414" y="396.377">Possibly allow to define</text><text fill="#000000" font-family="Helvetica Neue" font-size="11" lengthAdjust="spacingAndGlyphs" textLength="123" x="414" y="409.5">a transformation function.</text><text fill="#000000" font-family="Helvetica Neue" font-size="11" lengthAdjust="spacingAndGlyphs" textLength="164" x="414" y="422.623">Only resource allowing to connect</text><text fill="#000000" font-family="Helvetica Neue" font-size="11" lengthAdjust="spacingAndGlyphs" textLength="140" x="414" y="435.746">resources form child stacks.</text><text fill="#000000" font-family="Helvetica Neue" font-size="11" lengthAdjust="spacingAndGlyphs" textLength="145" x="414" y="448.869">ERB is inserted to destination</text><text fill="#000000" font-family="Helvetica Neue" font-size="11" lengthAdjust="spacingAndGlyphs" textLength="157" x="414" y="461.992">to propagate value from source.</text><line style="stroke: #A80036; stroke-width: 1.0; stroke-dasharray: 1.0,2.0;" x1="409" x2="485.5" y1="379.0355" y2="379.0355"/><text fill="#000000" font-family="Helvetica Neue" font-size="11" lengthAdjust="spacingAndGlyphs" textLength="27" x="485.5" y="382.754">notes</text><line style="stroke: #A80036; stroke-width: 1.0; stroke-dasharray: 1.0,2.0;" x1="512.5" x2="589" y1="379.0355" y2="379.0355"/><rect fill="#FEFECE" filter="url(#f1)" height="54.692" style="stroke: #A80036; stroke-width: 1.5;" width="141" x="231.5" y="372.974"/><ellipse cx="246.5" cy="392.32" fill="#008000" rx="11" ry="11" style="stroke: #A80036; stroke-width: 1.0;"/><path d="M249.4731,397.9631 Q248.8921,398.2619 248.2529,398.4113 Q247.6138,398.5607 246.9082,398.5607 Q244.4014,398.5607 243.0815,396.9089 Q241.7617,395.257 241.7617,392.1359 Q241.7617,389.0065 243.0815,387.3547 Q244.4014,385.7028 246.9082,385.7028 Q247.6138,385.7028 248.2612,385.8522 Q248.9087,386.0016 249.4731,386.3005 L249.4731,389.0231 Q248.8423,388.4421 248.2488,388.1723 Q247.6553,387.9025 247.0244,387.9025 Q245.6797,387.9025 244.9949,388.9692 Q244.3101,390.0358 244.3101,392.1359 Q244.3101,394.2277 244.9949,395.2944 Q245.6797,396.361 247.0244,396.361 Q247.6553,396.361 248.2488,396.0912 Q248.8423,395.8215 249.4731,395.2404 Z "/><text fill="#000000" font-family="Helvetica Neue" font-size="12" font-style="italic" lengthAdjust="spacingAndGlyphs" textLength="77" x="276.5" y="389.794">&lt;&lt; Ordered &gt;&gt;</text><text fill="#000000" font-family="Helvetica Neue" font-size="12" lengthAdjust="spacingAndGlyphs" textLength="109" x="260.5" y="404.11">ChildStackResource</text><line style="stroke: #A80036; stroke-width: 1.5;" x1="232.5" x2="371.5" y1="411.666" y2="411.666"/><line style="stroke: #A80036; stroke-width: 1.5;" x1="232.5" x2="371.5" y1="419.666" y2="419.666"/><rect fill="#FEFECE" filter="url(#f1)" height="90.061" style="stroke: #A80036; stroke-width: 1.5;" width="190" x="6" y="355.474"/><ellipse cx="27.75" cy="374.82" fill="#008000" rx="11" ry="11" style="stroke: #A80036; stroke-width: 1.0;"/><path d="M30.7231,380.4631 Q30.1421,380.7619 29.5029,380.9113 Q28.8638,381.0607 28.1582,381.0607 Q25.6514,381.0607 24.3315,379.4089 Q23.0117,377.757 23.0117,374.6359 Q23.0117,371.5065 24.3315,369.8547 Q25.6514,368.2028 28.1582,368.2028 Q28.8638,368.2028 29.5112,368.3522 Q30.1587,368.5016 30.7231,368.8005 L30.7231,371.5231 Q30.0923,370.9421 29.4988,370.6723 Q28.9053,370.4025 28.2744,370.4025 Q26.9297,370.4025 26.2449,371.4692 Q25.5601,372.5358 25.5601,374.6359 Q25.5601,376.7277 26.2449,377.7944 Q26.9297,378.861 28.2744,378.861 Q28.9053,378.861 29.4988,378.5912 Q30.0923,378.3215 30.7231,377.7404 Z "/><text fill="#000000" font-family="Helvetica Neue" font-size="12" font-style="italic" lengthAdjust="spacingAndGlyphs" textLength="77" x="76.25" y="372.294">&lt;&lt; Ordered &gt;&gt;</text><text fill="#000000" font-family="Helvetica Neue" font-size="12" lengthAdjust="spacingAndGlyphs" textLength="143" x="43.25" y="386.61">ParameterUpdateResource</text><line style="stroke: #A80036; stroke-width: 1.5;" x1="7" x2="195" y1="394.166" y2="394.166"/><text fill="#000000" font-family="Helvetica Neue" font-size="11" lengthAdjust="spacingAndGlyphs" textLength="63" x="12" y="408.946">Staring value</text><text fill="#000000" font-family="Helvetica Neue" font-size="11" lengthAdjust="spacingAndGlyphs" textLength="178" x="12" y="439.192">possibly ERB to compute new value</text><line style="stroke: #A80036; stroke-width: 1.0; stroke-dasharray: 1.0,2.0;" x1="7" x2="87.5" y1="421.8505" y2="421.8505"/><text fill="#000000" font-family="Helvetica Neue" font-size="11" lengthAdjust="spacingAndGlyphs" textLength="27" x="87.5" y="425.569">notes</text><line style="stroke: #A80036; stroke-width: 1.0; stroke-dasharray: 1.0,2.0;" x1="114.5" x2="195" y1="421.8505" y2="421.8505"/><rect fill="#FEFECE" filter="url(#f1)" height="54.692" style="stroke: #A80036; stroke-width: 1.5;" width="143" x="1197.5" y="372.974"/><ellipse cx="1212.5" cy="392.32" fill="#008000" rx="11" ry="11" style="stroke: #A80036; stroke-width: 1.0;"/><path d="M1215.4731,397.9631 Q1214.8921,398.2619 1214.2529,398.4113 Q1213.6138,398.5607 1212.9082,398.5607 Q1210.4014,398.5607 1209.0815,396.9089 Q1207.7617,395.257 1207.7617,392.1359 Q1207.7617,389.0065 1209.0815,387.3547 Q1210.4014,385.7028 1212.9082,385.7028 Q1213.6138,385.7028 1214.2612,385.8522 Q1214.9087,386.0016 1215.4731,386.3005 L1215.4731,389.0231 Q1214.8423,388.4421 1214.2488,388.1723 Q1213.6553,387.9025 1213.0244,387.9025 Q1211.6797,387.9025 1210.9949,388.9692 Q1210.3101,390.0358 1210.3101,392.1359 Q1210.3101,394.2277 1210.9949,395.2944 Q1211.6797,396.361 1213.0244,396.361 Q1213.6553,396.361 1214.2488,396.0912 Q1214.8423,395.8215 1215.4731,395.2404 Z "/><text fill="#000000" font-family="Helvetica Neue" font-size="12" font-style="italic" lengthAdjust="spacingAndGlyphs" textLength="77" x="1243.5" y="389.794">&lt;&lt; Ordered &gt;&gt;</text><text fill="#000000" font-family="Helvetica Neue" font-size="12" lengthAdjust="spacingAndGlyphs" textLength="111" x="1226.5" y="404.11">PuppetRunResource</text><line style="stroke: #A80036; stroke-width: 1.5;" x1="1198.5" x2="1339.5" y1="411.666" y2="411.666"/><line style="stroke: #A80036; stroke-width: 1.5;" x1="1198.5" x2="1339.5" y1="419.666" y2="419.666"/><path d="M995.379,291.664 C982.903,390.774 950.554,591.905 880,747.474 C861.583,788.083 832.624,828.891 807.885,859.944 " fill="none" style="stroke: #808080; stroke-width: 1.0;"/><polygon fill="none" points="988.461,290.569,997.812,271.554,1002.359,292.25,988.461,290.569" style="stroke: #808080; stroke-width: 1.0;"/><path d="M864.658,243.382 C800.116,256.122 726.991,281.631 679,332.474 C596.574,419.799 648.839,479.865 613,594.474 C609.944,604.246 606.414,614.499 602.81,624.449 " fill="none" style="stroke: #808080; stroke-width: 1.0;"/><polygon fill="none" points="863.45,236.487,884.375,239.824,865.936,250.264,863.45,236.487" style="stroke: #808080; stroke-width: 1.0;"/><path d="M928.541,283.592 C920.542,289.551 912.563,295.595 905,301.474 C879.35,321.413 851.348,344.605 829.062,363.42 " fill="none" style="stroke: #808080; stroke-width: 1.0;"/><polygon fill="none" points="924.614,277.791,944.866,271.56,932.92,289.061,924.614,277.791" style="stroke: #808080; stroke-width: 1.0;"/><path d="M979.234,290.232 C945.018,378.482 881.14,539.904 851,594.474 C844.301,606.602 836.308,619.067 828.278,630.72 " fill="none" style="stroke: #808080; stroke-width: 1.0;"/><polygon fill="none" points="972.719,287.672,986.461,271.543,985.776,292.722,972.719,287.672" style="stroke: #808080; stroke-width: 1.0;"/><path d="M1139.27,244.616 C1210.71,257.609 1295.85,282.971 1358,332.474 C1534.6,473.14 1546.79,558.813 1603,777.474 C1606.65,791.679 1609.84,797.498 1603,810.474 C1597.04,821.791 1579.89,836.225 1559.19,850.697 " fill="none" style="stroke: #808080; stroke-width: 1.0;"/><polygon fill="none" points="1138.06,251.512,1119.51,241.27,1140.4,237.708,1138.06,251.512" style="stroke: #808080; stroke-width: 1.0;"/><path d="M1025.39,291.245 C1026.36,294.68 1027.24,298.106 1028,301.474 C1052.98,412.266 1013.65,714.265 1074,810.474 C1087.77,832.427 1102.36,826.219 1124,840.474 C1136.58,848.758 1149.79,857.916 1162.37,866.875 " fill="none" style="stroke: #808080; stroke-width: 1.0;"/><polygon fill="none" points="1018.6,292.987,1019.12,271.804,1031.92,288.688,1018.6,292.987" style="stroke: #808080; stroke-width: 1.0;"/><path d="M1139.9,238.764 C1296.92,248.98 1542.94,269.459 1630,301.474 C1653.14,309.983 1660.94,312.952 1676,332.474 C1799.78,492.971 1724.51,759.337 1686.25,866.836 " fill="none" style="stroke: #808080; stroke-width: 1.0;"/><polygon fill="none" points="1139.3,245.74,1119.79,237.48,1140.19,231.768,1139.3,245.74" style="stroke: #808080; stroke-width: 1.0;"/><path d="M1139.64,238.943 C1306.47,249.847 1569.68,271.535 1604,301.474 C1660.21,350.511 1669.49,442.462 1669.42,498.413 " fill="none" style="stroke: #808080; stroke-width: 1.0;"/><polygon fill="none" points="1139.06,245.92,1119.55,237.651,1139.96,231.949,1139.06,245.92" style="stroke: #808080; stroke-width: 1.0;"/><path d="M864.083,239.116 C788.289,247.728 694.258,265.377 617,301.474 C599.87,309.478 583.166,320.58 567.968,332.446 " fill="none" style="stroke: #808080; stroke-width: 1.0;"/><polygon fill="none" points="863.819,232.105,884.443,236.967,865.288,246.027,863.819,232.105" style="stroke: #808080; stroke-width: 1.0;"/><path d="M863.924,234.946 C736.264,242.938 543.653,266.14 390,332.474 C367.611,342.14 345.778,358.705 329.46,372.944 " fill="none" style="stroke: #808080; stroke-width: 1.0;"/><polygon fill="none" points="863.859,227.938,884.23,233.769,864.669,241.915,863.859,227.938" style="stroke: #808080; stroke-width: 1.0;"/><path d="M1084.75,285.266 C1089.93,290.385 1094.76,295.798 1099,301.474 C1140.69,357.292 1198.88,554.771 1223.39,642.471 " fill="none" style="stroke: #808080; stroke-width: 1.0;"/><polygon fill="none" points="1079.71,290.151,1069.39,271.641,1089,279.678,1079.71,290.151" style="stroke: #808080; stroke-width: 1.0;"/><path d="M864.034,231.972 C703.646,236.914 432.962,257.07 214,332.474 C197.395,338.192 180.556,346.532 165.126,355.399 " fill="none" style="stroke: #808080; stroke-width: 1.0;"/><polygon fill="none" points="864.289,224.962,884.475,231.406,864.676,238.957,864.289,224.962" style="stroke: #808080; stroke-width: 1.0;"/><path d="M1133.44,280.263 C1146.15,286.752 1158.56,293.832 1170,301.474 C1199.97,321.487 1228.59,351.402 1247.28,372.913 " fill="none" style="stroke: #808080; stroke-width: 1.0;"/><polygon fill="none" points="1130.28,286.51,1115.34,271.486,1136.39,273.913,1130.28,286.51" style="stroke: #808080; stroke-width: 1.0;"/><path d="M302,122.773 C302,189.958 302,317.33 302,372.677 " fill="none" style="stroke: #808080; stroke-width: 1.0;"/><polygon fill="none" points="295,122.488,302,102.488,309,122.488,295,122.488" style="stroke: #808080; stroke-width: 1.0;"/><path d="M276.738,119.692 C238.946,179.859 167.949,292.889 128.754,355.289 " fill="none" style="stroke: #808080; stroke-width: 1.0;"/><polygon fill="none" points="270.979,115.7,287.545,102.488,282.834,123.147,270.979,115.7" style="stroke: #808080; stroke-width: 1.0;"/><path d="M360.003,80.715 C527.407,85.266 1007.66,105.424 1137,188.474 C1205.72,232.598 1244.92,326.578 1260.73,372.748 " fill="none" style="stroke: #808080; stroke-width: 1.0;"/><polygon fill="none" points="359.664,87.709,339.849,80.203,360.02,73.714,359.664,87.709" style="stroke: #808080; stroke-width: 1.0;"/><path d="M339.675,64.243 C358.127,62.381 374.5,67.124 374.5,78.474 C374.5,88.76 361.053,93.62 344.798,93.055 " fill="none" style="stroke: #A80036; stroke-width: 1.0;"/><polygon fill="#A80036" points="339.675,92.705,348.3822,97.3077,344.6634,93.045,348.9262,89.3262,339.675,92.705" style="stroke: #A80036; stroke-width: 1.0;"/><text fill="#000000" font-family="Helvetica Neue" font-size="13" lengthAdjust="spacingAndGlyphs" textLength="70" x="458" y="48.214">depends on</text><polygon fill="#FBFB77" filter="url(#f1)" points="379.5,61.983,379.5,117.983,602.5,117.983,602.5,71.983,592.5,61.983,379.5,61.983" style="stroke: #A80036; stroke-width: 1.0;"/><line style="stroke: #A80036; stroke-width: 1.0;" x1="592.5" x2="592.5" y1="61.983" y2="71.983"/><line style="stroke: #A80036; stroke-width: 1.0;" x1="602.5" x2="592.5" y1="71.983" y2="71.983"/><text fill="#000000" font-family="Helvetica Neue" font-size="13" lengthAdjust="spacingAndGlyphs" textLength="185" x="385.5" y="79.723">Acyclic graph of dependencies.</text><text fill="#000000" font-family="Helvetica Neue" font-size="13" lengthAdjust="spacingAndGlyphs" textLength="202" x="385.5" y="95.232">Defines order between Resources.</text><text fill="#000000" font-family="Helvetica Neue" font-size="13" lengthAdjust="spacingAndGlyphs" textLength="192" x="385.5" y="110.741">Used by orchestration to deploy.</text><text fill="#000000" font-family="Helvetica Neue" font-size="13" lengthAdjust="spacingAndGlyphs" textLength="20" x="347.5712" y="58.426">0..*</text><text fill="#000000" font-family="Helvetica Neue" font-size="13" lengthAdjust="spacingAndGlyphs" textLength="20" x="347.5712" y="91.602">0..*</text><path d="M1265.8,428.145 C1260.06,476.008 1247.94,577.079 1240.73,637.173 " fill="none" style="stroke: #A80036; stroke-width: 1.0;"/><polygon fill="#A80036" points="1240.14,642.141,1245.18,633.6794,1240.7335,637.1763,1237.2365,632.7298,1240.14,642.141" style="stroke: #A80036; stroke-width: 1.0;"/><text fill="#000000" font-family="Helvetica Neue" font-size="13" lengthAdjust="spacingAndGlyphs" textLength="14" x="1259" y="551.714">on</text><text fill="#000000" font-family="Helvetica Neue" font-size="13" lengthAdjust="spacingAndGlyphs" textLength="20" x="1243.0775" y="448.2233">0..*</text><text fill="#000000" font-family="Helvetica Neue" font-size="13" lengthAdjust="spacingAndGlyphs" textLength="7" x="1233.4014" y="631.711">1</text><path d="M1667.13,594.637 C1667.32,663.266 1667.66,790.235 1667.86,861.657 " fill="none" style="stroke: #A80036; stroke-width: 1.0;"/><polygon fill="#A80036" points="1667.87,866.702,1671.8443,857.6906,1667.8557,861.702,1663.8443,857.7135,1667.87,866.702" style="stroke: #A80036; stroke-width: 1.0;"/><text fill="#000000" font-family="Helvetica Neue" font-size="13" lengthAdjust="spacingAndGlyphs" textLength="35" x="1668" y="691.214">where</text><text fill="#000000" font-family="Helvetica Neue" font-size="13" lengthAdjust="spacingAndGlyphs" textLength="20" x="1645.6803" y="615.5538">0..*</text><text fill="#000000" font-family="Helvetica Neue" font-size="13" lengthAdjust="spacingAndGlyphs" textLength="7" x="1660.3368" y="856.2517">1</text><path d="M627.534,747.508 C654.45,781.079 687.756,822.62 714.363,855.806 " fill="none" style="stroke: #A80036; stroke-width: 1.0;"/><polygon fill="#A80036" points="717.574,859.81,715.0646,850.2862,714.4462,855.9091,708.8232,855.2907,717.574,859.81" style="stroke: #A80036; stroke-width: 1.0;"/><text fill="#000000" font-family="Helvetica Neue" font-size="13" lengthAdjust="spacingAndGlyphs" textLength="38" x="684.5" y="791.214">will be</text><text fill="#000000" font-family="Helvetica Neue" font-size="13" lengthAdjust="spacingAndGlyphs" textLength="53" x="677" y="806.723">added to</text><text fill="#000000" font-family="Helvetica Neue" font-size="13" lengthAdjust="spacingAndGlyphs" textLength="20" x="611.7487" y="767.8408">0..*</text><text fill="#000000" font-family="Helvetica Neue" font-size="13" lengthAdjust="spacingAndGlyphs" textLength="7" x="704.2683" y="849.1896">1</text><path d="M164.039,445.649 C223.067,486.269 314.329,547.181 397,594.474 C432.033,614.515 472.091,634.713 505.692,650.927 " fill="none" style="stroke: #A80036; stroke-width: 1.0;"/><polygon fill="#A80036" points="510.601,653.29,504.2261,645.7826,506.0957,651.1216,500.7567,652.9912,510.601,653.29" style="stroke: #A80036; stroke-width: 1.0;"/><text fill="#000000" font-family="Helvetica Neue" font-size="13" lengthAdjust="spacingAndGlyphs" textLength="48" x="398" y="551.714">updates</text><text fill="#000000" font-family="Helvetica Neue" font-size="13" lengthAdjust="spacingAndGlyphs" textLength="20" x="151.8291" y="466.1585">0..*</text><text fill="#000000" font-family="Helvetica Neue" font-size="13" lengthAdjust="spacingAndGlyphs" textLength="7" x="496.1864" y="663.4727">1</text><path d="M787,437.667 C787,485.122 787,568.99 787,625.758 " fill="none" style="stroke: #A80036; stroke-width: 1.0;"/><polygon fill="#A80036" points="787,630.822,791,621.822,787,625.822,783,621.822,787,630.822" style="stroke: #A80036; stroke-width: 1.0;"/><text fill="#000000" font-family="Helvetica Neue" font-size="13" lengthAdjust="spacingAndGlyphs" textLength="54" x="788" y="543.714">overrides</text><text fill="#000000" font-family="Helvetica Neue" font-size="13" lengthAdjust="spacingAndGlyphs" textLength="10" x="810" y="559.223">in</text><text fill="#000000" font-family="Helvetica Neue" font-size="13" lengthAdjust="spacingAndGlyphs" textLength="20" x="765.2188" y="458.3914">0..*</text><text fill="#000000" font-family="Helvetica Neue" font-size="13" lengthAdjust="spacingAndGlyphs" textLength="7" x="779.5297" y="620.2032">1</text><path d="M780.805,741.058 C776.883,775.305 771.809,819.603 767.779,854.789 " fill="none" style="stroke: #A80036; stroke-width: 1.0;"/><polygon fill="#A80036" points="767.192,859.912,772.1896,851.4253,767.7606,854.9444,764.2415,850.5155,767.192,859.912" style="stroke: #A80036; stroke-width: 1.0;"/><text fill="#000000" font-family="Helvetica Neue" font-size="13" lengthAdjust="spacingAndGlyphs" textLength="38" x="785.5" y="791.214">will be</text><text fill="#000000" font-family="Helvetica Neue" font-size="13" lengthAdjust="spacingAndGlyphs" textLength="53" x="778" y="806.723">added to</text><text fill="#000000" font-family="Helvetica Neue" font-size="13" lengthAdjust="spacingAndGlyphs" textLength="20" x="758.8312" y="761.4799">0..*</text><text fill="#000000" font-family="Helvetica Neue" font-size="13" lengthAdjust="spacingAndGlyphs" textLength="7" x="760.5537" y="849.3053">1</text><path d="M1305.09,705.118 C1358.43,720.432 1432.69,745.05 1493,777.474 C1533.79,799.405 1539.46,812.018 1576,840.474 C1585.46,847.838 1595.41,855.684 1605.13,863.405 " fill="none" style="stroke: #A80036; stroke-width: 1.0;"/><polygon fill="#A80036" points="1609.28,866.704,1604.7291,857.9696,1605.3679,863.5903,1599.7472,864.229,1609.28,866.704" style="stroke: #A80036; stroke-width: 1.0;"/><text fill="#000000" font-family="Helvetica Neue" font-size="13" lengthAdjust="spacingAndGlyphs" textLength="68" x="1542" y="799.214">connects to</text><text fill="#000000" font-family="Helvetica Neue" font-size="13" lengthAdjust="spacingAndGlyphs" textLength="20" x="1312.9739" y="704.0111">0..*</text><text fill="#000000" font-family="Helvetica Neue" font-size="13" lengthAdjust="spacingAndGlyphs" textLength="20" x="1579.1868" y="856.254">0..*</text><path d="M1261.08,729.482 C1277.35,754.376 1299.59,785.688 1323,810.474 C1331.53,819.504 1340.86,828.437 1350.47,837.049 " fill="none" style="stroke: #A80036; stroke-width: 1.0;"/><polygon fill="#A80036" points="1354.32,840.461,1350.2388,831.4975,1350.5785,837.1442,1344.9319,837.4838,1354.32,840.461" style="stroke: #A80036; stroke-width: 1.0;"/><text fill="#000000" font-family="Helvetica Neue" font-size="13" lengthAdjust="spacingAndGlyphs" textLength="164" x="1324" y="799.214">allowed ComputeResources</text><text fill="#000000" font-family="Helvetica Neue" font-size="13" lengthAdjust="spacingAndGlyphs" textLength="20" x="1243.7433" y="750.6818">1..*</text><text fill="#000000" font-family="Helvetica Neue" font-size="13" lengthAdjust="spacingAndGlyphs" textLength="20" x="1323.2155" y="829.7705">1..*</text><path d="M1228.16,729.673 C1226.06,744.736 1224.03,761.817 1223,777.474 C1221.16,805.302 1221.65,836.384 1222.71,861.85 " fill="none" style="stroke: #A80036; stroke-width: 1.0;"/><polygon fill="#A80036" points="1222.93,866.865,1226.5331,857.6989,1222.7116,861.8698,1218.5408,858.0483,1222.93,866.865" style="stroke: #A80036; stroke-width: 1.0;"/><text fill="#000000" font-family="Helvetica Neue" font-size="13" lengthAdjust="spacingAndGlyphs" textLength="58" x="1224" y="799.214">limited by</text><text fill="#000000" font-family="Helvetica Neue" font-size="13" lengthAdjust="spacingAndGlyphs" textLength="20" x="1205.4761" y="750.584">0..*</text><text fill="#000000" font-family="Helvetica Neue" font-size="13" lengthAdjust="spacingAndGlyphs" textLength="7" x="1214.924" y="856.0912">1</text><path d="M529.378,468.687 C533.264,478.564 536.945,488.702 540,498.474 C552.278,537.744 561.832,582.881 568.41,618.913 " fill="none" style="stroke: #A80036; stroke-width: 1.0;"/><polygon fill="#A80036" points="569.359,624.161,571.6958,614.5934,568.4704,619.2406,563.8231,616.0152,569.359,624.161" style="stroke: #A80036; stroke-width: 1.0;"/><text fill="#000000" font-family="Helvetica Neue" font-size="13" lengthAdjust="spacingAndGlyphs" textLength="39" x="565" y="551.714">source</text><text fill="#000000" font-family="Helvetica Neue" font-size="13" lengthAdjust="spacingAndGlyphs" textLength="20" x="511.4795" y="489.2683">0..*</text><text fill="#000000" font-family="Helvetica Neue" font-size="13" lengthAdjust="spacingAndGlyphs" textLength="7" x="560.7574" y="613.5005">1</text><path d="M468.371,468.558 C455.412,507.002 447.162,555.252 466,594.474 C475.079,613.376 490.241,629.57 506.559,642.813 " fill="none" style="stroke: #A80036; stroke-width: 1.0;"/><polygon fill="#A80036" points="510.729,646.116,506.1567,637.3928,506.8092,643.0119,501.1901,643.6644,510.729,646.116" style="stroke: #A80036; stroke-width: 1.0;"/><text fill="#000000" font-family="Helvetica Neue" font-size="13" lengthAdjust="spacingAndGlyphs" textLength="64" x="467" y="551.714">destination</text><text fill="#000000" font-family="Helvetica Neue" font-size="13" lengthAdjust="spacingAndGlyphs" textLength="22" x="442.078" y="489.126">0..1</text><text fill="#000000" font-family="Helvetica Neue" font-size="13" lengthAdjust="spacingAndGlyphs" textLength="7" x="495.879" y="638.7184">1</text><path d="M1169.92,729.652 C1129.91,754.905 1077.08,786.53 1028,810.474 C969.447,839.038 900.876,865.479 847.887,884.486 " fill="none" style="stroke: #A80036; stroke-width: 1.0;"/><polygon fill="#A80036" points="843.132,886.187,852.9534,886.922,847.8399,884.503,850.2589,879.3894,843.132,886.187" style="stroke: #A80036; stroke-width: 1.0;"/><text fill="#000000" font-family="Helvetica Neue" font-size="13" lengthAdjust="spacingAndGlyphs" textLength="74" x="1088" y="799.214">provisions in</text><text fill="#000000" font-family="Helvetica Neue" font-size="13" lengthAdjust="spacingAndGlyphs" textLength="20" x="1137.9541" y="750.5596">0..*</text><text fill="#000000" font-family="Helvetica Neue" font-size="13" lengthAdjust="spacingAndGlyphs" textLength="7" x="851.0262" y="880.623">1</text><path d="M848.061,893.3758 C865.526,895.7775 878,902.9769 878,914.974 C878,928.099 863.07,935.4818 843.009,937.1224 " fill="none" style="stroke: #A80036; stroke-width: 1.0;"/><polygon fill="#A80036" points="843.009,892.8256,851.5229,897.7766,847.9796,893.367,852.3892,889.8237,843.009,892.8256" style="stroke: #A80036; stroke-width: 1.0;"/><text fill="#000000" font-family="Helvetica Neue" font-size="13" lengthAdjust="spacingAndGlyphs" textLength="71" x="965.5" y="884.714">be parent of</text><polygon fill="#FBFB77" filter="url(#f1)" points="883,898.483,883,954.483,1115,954.483,1115,908.483,1105,898.483,883,898.483" style="stroke: #A80036; stroke-width: 1.0;"/><line style="stroke: #A80036; stroke-width: 1.0;" x1="1105" x2="1105" y1="898.483" y2="908.483"/><line style="stroke: #A80036; stroke-width: 1.0;" x1="1115" x2="1105" y1="908.483" y2="908.483"/><text fill="#000000" font-family="Helvetica Neue" font-size="13" lengthAdjust="spacingAndGlyphs" textLength="195" x="889" y="916.223">Foreign keys cannot be stored on</text><text fill="#000000" font-family="Helvetica Neue" font-size="13" lengthAdjust="spacingAndGlyphs" textLength="156" x="889" y="931.732">target HostgroupResource.</text><text fill="#000000" font-family="Helvetica Neue" font-size="13" lengthAdjust="spacingAndGlyphs" textLength="211" x="889" y="947.241">It would prevent Stack share-ability.</text><text fill="#000000" font-family="Helvetica Neue" font-size="13" lengthAdjust="spacingAndGlyphs" textLength="20" x="850.916" y="904.3452">0..*</text><text fill="#000000" font-family="Helvetica Neue" font-size="13" lengthAdjust="spacingAndGlyphs" textLength="22" x="851.002" y="936.1597">0..1</text><polygon fill="#DDDDDD" points="696.5,1007.474,696.5,1050.878,1065.5,1050.878,1065.5,1007.474,696.5,1007.474" style="stroke: #000000; stroke-width: 1.0;"/><text fill="#000000" font-family="Helvetica Neue" font-size="14" lengthAdjust="spacingAndGlyphs" textLength="185" x="702.5" y="1026.194">All types share a single table.</text><text fill="#000000" font-family="Helvetica Neue" font-size="14" lengthAdjust="spacingAndGlyphs" textLength="357" x="702.5" y="1042.896">It's using STI. Plugins can add another implementations.</text></g></svg>