<?xml version="1.0" encoding="UTF-8" standalone="yes"?><svg xmlns="http://www.w3.org/2000/svg" xmlns:xlink="http://www.w3.org/1999/xlink" height="661pt" style="width:822px;height:661px;" version="1.1" viewBox="0 0 822 661" width="822pt"><defs><filter height="300%" id="f1" width="300%" x="-1" y="-1"><feGaussianBlur result="blurOut" stdDeviation="2.0"/><feColorMatrix in="blurOut" result="blurOut2" type="matrix" values="0 0 0 0 0 0 0 0 0 0 0 0 0 0 0 0 0 0 .4 0"/><feOffset dx="4.0" dy="4.0" in="blurOut2" result="blurOut3"/><feBlend in="SourceGraphic" in2="blurOut3" mode="normal"/></filter></defs><g><text fill="#000000" font-family="Helvetica Neue" font-size="18" lengthAdjust="spacingAndGlyphs" textLength="56" x="392" y="17.64">Stacks</text><rect fill="#FEFECE" filter="url(#f1)" height="183.23" style="stroke: #A80036; stroke-width: 1.5;" width="235" x="45.1986" y="29.474"/><ellipse cx="143.4486" cy="45.474" fill="#ADD1B2" rx="11" ry="11" style="stroke: #A80036; stroke-width: 1.0;"/><path d="M146.4217,51.1171 Q145.8407,51.4159 145.2015,51.5653 Q144.5624,51.7147 143.8568,51.7147 Q141.35,51.7147 140.0301,50.0629 Q138.7103,48.411 138.7103,45.2899 Q138.7103,42.1605 140.0301,40.5087 Q141.35,38.8568 143.8568,38.8568 Q144.5624,38.8568 145.2098,39.0062 Q145.8573,39.1556 146.4217,39.4545 L146.4217,42.1771 Q145.7909,41.5961 145.1974,41.3263 Q144.6039,41.0565 143.973,41.0565 Q142.6283,41.0565 141.9435,42.1232 Q141.2587,43.1898 141.2587,45.2899 Q141.2587,47.3817 141.9435,48.4484 Q142.6283,49.515 143.973,49.515 Q144.6039,49.515 145.1974,49.2452 Q145.7909,48.9755 146.4217,48.3944 Z "/><text fill="#000000" font-family="Helvetica Neue" font-size="12" lengthAdjust="spacingAndGlyphs" textLength="30" x="163.9486" y="50.076">Stack</text><line style="stroke: #A80036; stroke-width: 1.5;" x1="46.1986" x2="279.1986" y1="61.474" y2="61.474"/><text fill="#000000" font-family="Helvetica Neue" font-size="11" lengthAdjust="spacingAndGlyphs" textLength="58" x="51.1986" y="76.254">String name</text><text fill="#000000" font-family="Helvetica Neue" font-size="11" lengthAdjust="spacingAndGlyphs" textLength="126" x="51.1986" y="89.377">String description nullable</text><line style="stroke: #A80036; stroke-width: 1.0;" x1="46.1986" x2="279.1986" y1="95.72" y2="95.72"/><text fill="#000000" font-family="Helvetica Neue" font-size="11" lengthAdjust="spacingAndGlyphs" textLength="223" x="51.1986" y="110.5">\# has_many :children, through: :child_stacks</text><text fill="#000000" font-family="Helvetica Neue" font-size="11" lengthAdjust="spacingAndGlyphs" textLength="76" x="51.1986" y="123.623">Stack children()</text><text fill="#000000" font-family="Helvetica Neue" font-size="11" lengthAdjust="spacingAndGlyphs" textLength="179" x="51.1986" y="153.869">Composable pieces of infrastructure</text><text fill="#000000" font-family="Helvetica Neue" font-size="11" lengthAdjust="spacingAndGlyphs" textLength="172" x="51.1986" y="166.992">templates. The instructions needed</text><text fill="#000000" font-family="Helvetica Neue" font-size="11" lengthAdjust="spacingAndGlyphs" textLength="177" x="51.1986" y="180.115">to assemble a set of resources for a</text><text fill="#000000" font-family="Helvetica Neue" font-size="11" lengthAdjust="spacingAndGlyphs" textLength="161" x="51.1986" y="193.238">specific purpose, e.g. Database,</text><text fill="#000000" font-family="Helvetica Neue" font-size="11" lengthAdjust="spacingAndGlyphs" textLength="195" x="51.1986" y="206.361">Load balancer, Neutron networked, etc.</text><line style="stroke: #A80036; stroke-width: 1.0; stroke-dasharray: 1.0,2.0;" x1="46.1986" x2="149.1986" y1="136.5275" y2="136.5275"/><text fill="#000000" font-family="Helvetica Neue" font-size="11" lengthAdjust="spacingAndGlyphs" textLength="27" x="149.1986" y="140.246">notes</text><line style="stroke: #A80036; stroke-width: 1.0; stroke-dasharray: 1.0,2.0;" x1="176.1986" x2="279.1986" y1="136.5275" y2="136.5275"/><rect fill="#FEFECE" filter="url(#f1)" height="83.369" style="stroke: #A80036; stroke-width: 1.5;" width="235" x="215.199" y="289.474"/><ellipse cx="303.449" cy="305.474" fill="#A9DCDF" rx="11" ry="11" style="stroke: #A80036; stroke-width: 1.0;"/><path d="M303.5623,300.8221 L302.4085,305.8939 L304.7244,305.8939 Z M302.0681,298.5809 L305.0647,298.5809 L308.4099,310.974 L305.9612,310.974 L305.1975,307.911 L301.9187,307.911 L301.1717,310.974 L298.7229,310.974 Z "/><text fill="#000000" font-family="Helvetica Neue" font-size="12" font-style="italic" lengthAdjust="spacingAndGlyphs" textLength="50" x="323.949" y="310.106">Resource</text><line style="stroke: #A80036; stroke-width: 1.5;" x1="216.199" x2="449.199" y1="321.474" y2="321.474"/><text fill="#000000" font-family="Helvetica Neue" font-size="11" lengthAdjust="spacingAndGlyphs" textLength="223" x="221.199" y="353.377">A Foreman object to be configured or created</text><text fill="#000000" font-family="Helvetica Neue" font-size="11" lengthAdjust="spacingAndGlyphs" textLength="158" x="221.199" y="366.5">to form an Deployment instance.</text><line style="stroke: #A80036; stroke-width: 1.0; stroke-dasharray: 1.0,2.0;" x1="216.199" x2="319.199" y1="336.0355" y2="336.0355"/><text fill="#000000" font-family="Helvetica Neue" font-size="11" lengthAdjust="spacingAndGlyphs" textLength="27" x="319.199" y="339.754">notes</text><line style="stroke: #A80036; stroke-width: 1.0; stroke-dasharray: 1.0,2.0;" x1="346.199" x2="449.199" y1="336.0355" y2="336.0355"/><rect fill="#FEFECE" filter="url(#f1)" height="48" style="stroke: #A80036; stroke-width: 1.5;" width="75" x="475.199" y="96.974"/><ellipse cx="490.199" cy="112.974" fill="#DA70D6" rx="11" ry="11" style="stroke: #A80036; stroke-width: 1.0;"/><path d="M485.9129,106.5809 L488.8347,106.5809 L490.3123,112.0179 L491.7815,106.5809 L494.72,106.5809 L494.72,118.974 L492.6116,118.974 L492.6116,109.0463 L491.3001,114.4667 L489.3494,114.4667 L488.0213,109.0463 L488.0213,118.974 L485.9129,118.974 Z "/><text fill="#000000" font-family="Helvetica Neue" font-size="12" font-style="italic" lengthAdjust="spacingAndGlyphs" textLength="43" x="504.199" y="117.606">Ordered</text><line style="stroke: #A80036; stroke-width: 1.5;" x1="476.199" x2="549.199" y1="128.974" y2="128.974"/><line style="stroke: #A80036; stroke-width: 1.5;" x1="476.199" x2="549.199" y1="136.974" y2="136.974"/><rect fill="#FEFECE" filter="url(#f1)" height="87.369" style="stroke: #A80036; stroke-width: 1.5;" width="140" x="330.699" y="565.474"/><ellipse cx="360.099" cy="581.474" fill="#ADD1B2" rx="11" ry="11" style="stroke: #A80036; stroke-width: 1.0;"/><path d="M363.0721,587.1171 Q362.4911,587.4159 361.8519,587.5653 Q361.2128,587.7147 360.5072,587.7147 Q358.0004,587.7147 356.6805,586.0629 Q355.3607,584.411 355.3607,581.2899 Q355.3607,578.1605 356.6805,576.5087 Q358.0004,574.8568 360.5072,574.8568 Q361.2128,574.8568 361.8602,575.0062 Q362.5077,575.1556 363.0721,575.4545 L363.0721,578.1771 Q362.4413,577.5961 361.8478,577.3263 Q361.2543,577.0565 360.6234,577.0565 Q359.2787,577.0565 358.5939,578.1232 Q357.9091,579.1898 357.9091,581.2899 Q357.9091,583.3817 358.5939,584.4484 Q359.2787,585.515 360.6234,585.515 Q361.2543,585.515 361.8478,585.2452 Q362.4413,584.9755 363.0721,584.3944 Z "/><text fill="#000000" font-family="Helvetica Neue" font-size="12" lengthAdjust="spacingAndGlyphs" textLength="76" x="377.299" y="586.076">HostResource</text><line style="stroke: #A80036; stroke-width: 1.5;" x1="331.699" x2="469.699" y1="597.474" y2="597.474"/><text fill="#000000" font-family="Helvetica Neue" font-size="11" lengthAdjust="spacingAndGlyphs" textLength="128" x="336.699" y="612.254">String name # "db-%02d"</text><text fill="#000000" font-family="Helvetica Neue" font-size="11" lengthAdjust="spacingAndGlyphs" textLength="60" x="336.699" y="625.377">Integere min</text><text fill="#000000" font-family="Helvetica Neue" font-size="11" lengthAdjust="spacingAndGlyphs" textLength="64" x="336.699" y="638.5">Integere max</text><line style="stroke: #A80036; stroke-width: 1.5;" x1="331.699" x2="469.699" y1="644.843" y2="644.843"/><rect fill="#FEFECE" filter="url(#f1)" height="54.692" style="stroke: #A80036; stroke-width: 1.5;" width="141" x="161.199" y="433.474"/><ellipse cx="176.199" cy="452.82" fill="#008000" rx="11" ry="11" style="stroke: #A80036; stroke-width: 1.0;"/><path d="M179.1721,458.4631 Q178.5911,458.7619 177.9519,458.9113 Q177.3128,459.0607 176.6072,459.0607 Q174.1004,459.0607 172.7805,457.4089 Q171.4607,455.757 171.4607,452.6359 Q171.4607,449.5065 172.7805,447.8547 Q174.1004,446.2028 176.6072,446.2028 Q177.3128,446.2028 177.9602,446.3522 Q178.6077,446.5016 179.1721,446.8005 L179.1721,449.5231 Q178.5413,448.9421 177.9478,448.6723 Q177.3543,448.4025 176.7234,448.4025 Q175.3787,448.4025 174.6939,449.4692 Q174.0091,450.5358 174.0091,452.6359 Q174.0091,454.7277 174.6939,455.7944 Q175.3787,456.861 176.7234,456.861 Q177.3543,456.861 177.9478,456.5912 Q178.5413,456.3215 179.1721,455.7404 Z "/><text fill="#000000" font-family="Helvetica Neue" font-size="12" font-style="italic" lengthAdjust="spacingAndGlyphs" textLength="77" x="206.199" y="450.294">&lt;&lt; Ordered &gt;&gt;</text><text fill="#000000" font-family="Helvetica Neue" font-size="12" lengthAdjust="spacingAndGlyphs" textLength="109" x="190.199" y="464.61">ChildStackResource</text><line style="stroke: #A80036; stroke-width: 1.5;" x1="162.199" x2="301.199" y1="472.166" y2="472.166"/><line style="stroke: #A80036; stroke-width: 1.5;" x1="162.199" x2="301.199" y1="480.166" y2="480.166"/><rect fill="#FEFECE" filter="url(#f1)" height="54.692" style="stroke: #A80036; stroke-width: 1.5;" width="143" x="409.199" y="433.474"/><ellipse cx="424.199" cy="452.82" fill="#008000" rx="11" ry="11" style="stroke: #A80036; stroke-width: 1.0;"/><path d="M427.1721,458.4631 Q426.5911,458.7619 425.9519,458.9113 Q425.3128,459.0607 424.6072,459.0607 Q422.1004,459.0607 420.7805,457.4089 Q419.4607,455.757 419.4607,452.6359 Q419.4607,449.5065 420.7805,447.8547 Q422.1004,446.2028 424.6072,446.2028 Q425.3128,446.2028 425.9602,446.3522 Q426.6077,446.5016 427.1721,446.8005 L427.1721,449.5231 Q426.5413,448.9421 425.9478,448.6723 Q425.3543,448.4025 424.7234,448.4025 Q423.3787,448.4025 422.6939,449.4692 Q422.0091,450.5358 422.0091,452.6359 Q422.0091,454.7277 422.6939,455.7944 Q423.3787,456.861 424.7234,456.861 Q425.3543,456.861 425.9478,456.5912 Q426.5413,456.3215 427.1721,455.7404 Z "/><text fill="#000000" font-family="Helvetica Neue" font-size="12" font-style="italic" lengthAdjust="spacingAndGlyphs" textLength="77" x="455.199" y="450.294">&lt;&lt; Ordered &gt;&gt;</text><text fill="#000000" font-family="Helvetica Neue" font-size="12" lengthAdjust="spacingAndGlyphs" textLength="111" x="438.199" y="464.61">PuppetRunResource</text><line style="stroke: #A80036; stroke-width: 1.5;" x1="410.199" x2="551.199" y1="472.166" y2="472.166"/><line style="stroke: #A80036; stroke-width: 1.5;" x1="410.199" x2="551.199" y1="480.166" y2="480.166"/><path d="M245.024,222.701 C261.019,242.272 277.141,261.998 291.121,279.103 " fill="none" style="stroke: #A80036; stroke-width: 1.0;"/><polygon fill="#A80036" points="299.528,289.389,296.9301,279.8889,296.364,285.5174,290.7356,284.9513,299.528,289.389" style="stroke: #A80036; stroke-width: 1.0;"/><line style="stroke: #A80036; stroke-width: 1.0;" x1="296.364" x2="291.3015" y1="285.5174" y2="279.3235"/><polygon fill="#A80036" points="236.769,212.601,237.469,219.778,244.3632,221.8923,243.6632,214.7153,236.769,212.601" style="stroke: #A80036; stroke-width: 1.0;"/><text fill="#000000" font-family="Helvetica Neue" font-size="13" lengthAdjust="spacingAndGlyphs" textLength="91" x="274.699" y="256.214">is composed of</text><text fill="#000000" font-family="Helvetica Neue" font-size="13" lengthAdjust="spacingAndGlyphs" textLength="7" x="235.6131" y="233.5615">1</text><text fill="#000000" font-family="Helvetica Neue" font-size="13" lengthAdjust="spacingAndGlyphs" textLength="20" x="272.108" y="278.7045">1..*</text><path d="M287.996,388.627 C275.754,404.142 263.051,420.24 252.817,433.21 " fill="none" style="stroke: #808080; stroke-width: 1.0;"/><polygon fill="none" points="282.58,384.191,300.464,372.826,293.57,392.863,282.58,384.191" style="stroke: #808080; stroke-width: 1.0;"/><path d="M347.546,392.236 C360.428,444.524 378.755,518.91 390.176,565.2652 " fill="none" style="stroke: #808080; stroke-width: 1.0;"/><polygon fill="none" points="340.72,393.793,342.732,372.699,354.314,390.443,340.72,393.793" style="stroke: #808080; stroke-width: 1.0;"/><path d="M395.096,385.939 C413.975,402.267 433.888,419.49 449.753,433.21 " fill="none" style="stroke: #808080; stroke-width: 1.0;"/><polygon fill="none" points="390.482,391.204,379.934,372.826,399.64,380.614,390.482,391.204" style="stroke: #808080; stroke-width: 1.0;"/><path d="M517.037,165.271 C520.063,219.904 516.794,313.8 467.699,372.474 C426.757,421.403 355.754,442.983 302.295,452.493 " fill="none" style="stroke: #808080; stroke-width: 1.0;"/><polygon fill="none" points="510.041,165.586,515.531,145.12,524.002,164.542,510.041,165.586" style="stroke: #808080; stroke-width: 1.0;"/><path d="M525.693,164.454 C540.686,220.983 559.68,323.143 529.699,403.474 C525.613,414.422 518.343,424.655 510.634,433.323 " fill="none" style="stroke: #808080; stroke-width: 1.0;"/><polygon fill="none" points="518.944,166.312,520.253,145.163,532.418,162.512,518.944,166.312" style="stroke: #808080; stroke-width: 1.0;"/><path d="M51.9173,222.661 C14.2066,269.205 -11.2472,324.643 20.6986,372.474 C49.0856,414.977 102.3699,436.862 148.288,448.116 " fill="none" style="stroke: #A80036; stroke-width: 1.0;"/><polygon fill="none" points="161.017,451.016,156.0553,445.7833,149.3167,448.3507,154.2784,453.5835,161.017,451.016" style="stroke: #A80036; stroke-width: 1.0;"/><polygon fill="#A80036" points="60.3986,212.565,51.5466,216.8826,57.1822,216.3932,57.6717,222.0288,60.3986,212.565" style="stroke: #A80036; stroke-width: 1.0;"/><line style="stroke: #A80036; stroke-width: 1.0;" x1="57.1822" x2="52.0365" y1="216.3932" y2="222.519"/><text fill="#000000" font-family="Helvetica Neue" font-size="13" lengthAdjust="spacingAndGlyphs" textLength="28" x="95.1986" y="316.214">child</text><polygon fill="#FBFB77" filter="url(#f1)" points="25.6986,324.983,25.6986,349.983,188.6986,349.983,188.6986,334.983,178.6986,324.983,25.6986,324.983" style="stroke: #A80036; stroke-width: 1.0;"/><line style="stroke: #A80036; stroke-width: 1.0;" x1="178.6986" x2="178.6986" y1="324.983" y2="334.983"/><line style="stroke: #A80036; stroke-width: 1.0;" x1="188.6986" x2="178.6986" y1="334.983" y2="334.983"/><text fill="#000000" font-family="Helvetica Neue" font-size="13" lengthAdjust="spacingAndGlyphs" textLength="142" x="31.6986" y="342.723">Acyclic graph of Stacks.</text><text fill="#000000" font-family="Helvetica Neue" font-size="13" lengthAdjust="spacingAndGlyphs" textLength="7" x="44.637" y="233.5225">1</text><text fill="#000000" font-family="Helvetica Neue" font-size="13" lengthAdjust="spacingAndGlyphs" textLength="20" x="133.0749" y="447.0777">0..*</text><path d="M550.373,97.255 C568.825,94.152 585.199,102.058 585.199,120.974 C585.199,138.117 571.751,146.217 555.496,145.275 " fill="none" style="stroke: #A80036; stroke-width: 1.0;"/><polygon fill="#A80036" points="550.373,144.693,558.8627,149.6855,555.3409,145.2586,559.7677,141.7368,550.373,144.693" style="stroke: #A80036; stroke-width: 1.0;"/><text fill="#000000" font-family="Helvetica Neue" font-size="13" lengthAdjust="spacingAndGlyphs" textLength="70" x="668.699" y="90.714">depends on</text><polygon fill="#FBFB77" filter="url(#f1)" points="590.199,104.483,590.199,160.483,813.199,160.483,813.199,114.483,803.199,104.483,590.199,104.483" style="stroke: #A80036; stroke-width: 1.0;"/><line style="stroke: #A80036; stroke-width: 1.0;" x1="803.199" x2="803.199" y1="104.483" y2="114.483"/><line style="stroke: #A80036; stroke-width: 1.0;" x1="813.199" x2="803.199" y1="114.483" y2="114.483"/><text fill="#000000" font-family="Helvetica Neue" font-size="13" lengthAdjust="spacingAndGlyphs" textLength="185" x="596.199" y="122.223">Acyclic graph of dependencies.</text><text fill="#000000" font-family="Helvetica Neue" font-size="13" lengthAdjust="spacingAndGlyphs" textLength="202" x="596.199" y="137.732">Defines order between Resources.</text><text fill="#000000" font-family="Helvetica Neue" font-size="13" lengthAdjust="spacingAndGlyphs" textLength="192" x="596.199" y="153.241">Used by orchestration to deploy.</text><text fill="#000000" font-family="Helvetica Neue" font-size="13" lengthAdjust="spacingAndGlyphs" textLength="20" x="538.1563" y="86.2862">0..*</text><text fill="#000000" font-family="Helvetica Neue" font-size="13" lengthAdjust="spacingAndGlyphs" textLength="20" x="537.8104" y="165.8915">0..*</text><path d="M466.025,488.753 C454.984,508.902 439.57,537.033 426.487,560.9096 " fill="none" style="stroke: #A80036; stroke-width: 1.0;"/><polygon fill="#A80036" points="424.073,565.3154,431.9053,559.3442,426.4754,560.9303,424.8892,555.5004,424.073,565.3154" style="stroke: #A80036; stroke-width: 1.0;"/><text fill="#000000" font-family="Helvetica Neue" font-size="13" lengthAdjust="spacingAndGlyphs" textLength="14" x="448.699" y="532.214">on</text><text fill="#000000" font-family="Helvetica Neue" font-size="13" lengthAdjust="spacingAndGlyphs" textLength="20" x="440.936" y="508.8535">0..*</text><text fill="#000000" font-family="Helvetica Neue" font-size="13" lengthAdjust="spacingAndGlyphs" textLength="7" x="420.3646" y="554.5934">1</text></g></svg>