<?xml version="1.0" encoding="UTF-8" standalone="yes"?><svg xmlns="http://www.w3.org/2000/svg" xmlns:xlink="http://www.w3.org/1999/xlink" height="1256pt" style="width:1619px;height:1256px;" version="1.1" viewBox="0 0 1619 1256" width="1619pt"><defs><filter height="300%" id="f1" width="300%" x="-1" y="-1"><feGaussianBlur result="blurOut" stdDeviation="2.0"/><feColorMatrix in="blurOut" result="blurOut2" type="matrix" values="0 0 0 0 0 0 0 0 0 0 0 0 0 0 0 0 0 0 .4 0"/><feOffset dx="4.0" dy="4.0" in="blurOut2" result="blurOut3"/><feBlend in="SourceGraphic" in2="blurOut3" mode="normal"/></filter></defs><g><text fill="#000000" font-family="sans-serif" font-size="18" lengthAdjust="spacingAndGlyphs" textLength="56" x="790.5" y="17.4023">Stacks</text><rect fill="#FFFFFF" filter="url(#f1)" height="1140" style="stroke: #000000; stroke-width: 2.0;" width="1310" x="273" y="109.1992"/><text fill="#000000" font-family="sans-serif" font-size="14" font-weight="bold" lengthAdjust="spacingAndGlyphs" textLength="46" x="905" y="127.7344">Stacks</text><rect fill="#FEFECE" filter="url(#f1)" height="99.8203" style="stroke: #A80036; stroke-width: 1.5;" width="251" x="1210.5" y="294.1992"/><ellipse cx="1316.75" cy="310.1992" fill="#ADD1B2" rx="11" ry="11" style="stroke: #A80036; stroke-width: 1.0;"/><path d="M1318.4531,305.8784 Q1318.6191,305.5796 1318.7935,305.4551 Q1318.9678,305.3306 1319.2334,305.3306 Q1319.6401,305.3306 1319.8103,305.5464 Q1319.9805,305.7622 1319.9805,306.2852 L1319.9971,308.4434 Q1319.9971,309.0161 1319.8103,309.2153 Q1319.6235,309.4146 1319.1338,309.4146 Q1318.7852,309.4146 1318.5984,309.2485 Q1318.4116,309.0825 1318.2788,308.6343 Q1318.063,307.8457 1317.5898,307.5012 Q1317.1167,307.1567 1316.2783,307.1567 Q1315,307.1567 1314.3193,308.02 Q1313.6387,308.8833 1313.6387,310.5186 Q1313.6387,312.1455 1314.3276,313.0171 Q1315.0166,313.8887 1316.2949,313.8887 Q1317.1665,313.8887 1318.2166,313.3076 Q1319.2666,312.7266 1319.5405,312.7266 Q1319.8643,312.7266 1320.0842,313.0005 Q1320.3042,313.2744 1320.3042,313.6812 Q1320.3042,314.4116 1319.0176,315.0591 Q1317.731,315.7065 1316.1206,315.7065 Q1313.9458,315.7065 1312.6011,314.2705 Q1311.2563,312.8345 1311.2563,310.5186 Q1311.2563,308.2856 1312.6177,306.8081 Q1313.979,305.3306 1316.0708,305.3306 Q1316.6602,305.3306 1317.2329,305.4634 Q1317.8057,305.5962 1318.4531,305.8784 Z "/><text fill="#000000" font-family="sans-serif" font-size="12" lengthAdjust="spacingAndGlyphs" textLength="30" x="1337.25" y="314.7344">Stack</text><line style="stroke: #A80036; stroke-width: 1.5;" x1="1211.5" x2="1460.5" y1="326.1992" y2="326.1992"/><text fill="#000000" font-family="sans-serif" font-size="11" lengthAdjust="spacingAndGlyphs" textLength="64" x="1216.5" y="340.834">String name</text><text fill="#000000" font-family="sans-serif" font-size="11" lengthAdjust="spacingAndGlyphs" textLength="141" x="1216.5" y="353.7891">String description nullable</text><line style="stroke: #A80036; stroke-width: 1.0;" x1="1211.5" x2="1460.5" y1="360.1094" y2="360.1094"/><text fill="#000000" font-family="sans-serif" font-size="11" lengthAdjust="spacingAndGlyphs" textLength="239" x="1216.5" y="374.7441"># has_many :children, through: :child_stacks</text><text fill="#000000" font-family="sans-serif" font-size="11" lengthAdjust="spacingAndGlyphs" textLength="83" x="1216.5" y="387.6992">Stack children()</text><polygon fill="#FBFB77" filter="url(#f1)" points="1192.5,152.1992,1192.5,208.1309,1479.5,208.1309,1479.5,162.1992,1469.5,152.1992,1192.5,152.1992" style="stroke: #A80036; stroke-width: 1.0;"/><polygon fill="#FBFB77" points="1192.5,152.1992,1192.5,208.1309,1332,208.1309,1336,294.0312,1340,208.1309,1479.5,208.1309,1479.5,162.1992,1469.5,152.1992,1192.5,152.1992" style="stroke: #A80036; stroke-width: 1.0;"/><line style="stroke: #A80036; stroke-width: 1.0;" x1="1469.5" x2="1469.5" y1="152.1992" y2="162.1992"/><line style="stroke: #A80036; stroke-width: 1.0;" x1="1479.5" x2="1469.5" y1="162.1992" y2="162.1992"/><text fill="#000000" font-family="sans-serif" font-size="13" lengthAdjust="spacingAndGlyphs" textLength="266" x="1198.5" y="169.7676">The instructions needed to assemble a set</text><text fill="#000000" font-family="sans-serif" font-size="13" lengthAdjust="spacingAndGlyphs" textLength="223" x="1198.5" y="185.0781">of resources for a  specific purpose</text><text fill="#000000" font-family="sans-serif" font-size="13" lengthAdjust="spacingAndGlyphs" textLength="144" x="1198.5" y="200.3887">(e.g. a database stack).</text><rect fill="#FEFECE" filter="url(#f1)" height="48" style="stroke: #A80036; stroke-width: 1.5;" width="85" x="607.5" y="475.1992"/><ellipse cx="622.5" cy="491.1992" fill="#A9DCDF" rx="11" ry="11" style="stroke: #A80036; stroke-width: 1.0;"/><path d="M626.7803,493.3813 L626.9214,493.3813 Q627.3696,493.3813 627.6021,493.6096 Q627.8345,493.8379 627.8345,494.2778 Q627.8345,494.7676 627.5896,494.9834 Q627.3447,495.1992 626.7803,495.1992 L624.2817,495.1992 Q623.709,495.1992 623.4683,494.9875 Q623.2275,494.7759 623.2275,494.2778 Q623.2275,493.7964 623.4683,493.5889 Q623.709,493.3813 624.2817,493.3813 L624.5723,493.3813 L624.2319,492.4102 L620.646,492.4102 L620.2891,493.3813 L620.5796,493.3813 Q621.144,493.3813 621.3889,493.593 Q621.6338,493.8047 621.6338,494.2778 Q621.6338,494.7676 621.3889,494.9834 Q621.144,495.1992 620.5796,495.1992 L618.438,495.1992 Q617.8652,495.1992 617.6245,494.9834 Q617.3838,494.7676 617.3838,494.2778 Q617.3838,493.8379 617.6162,493.6096 Q617.8486,493.3813 618.2969,493.3813 L618.438,493.3813 L620.6626,487.189 L619.9985,487.189 Q619.4341,487.189 619.1892,486.9731 Q618.9443,486.7573 618.9443,486.2759 Q618.9443,485.7861 619.1892,485.5703 Q619.4341,485.3545 619.9985,485.3545 L623.1113,485.3545 Q623.8501,485.3545 624.1489,486.1514 L624.1489,486.1763 Z M622.4307,487.189 L621.2271,490.6919 L623.6343,490.6919 Z "/><text fill="#000000" font-family="sans-serif" font-size="12" font-style="italic" lengthAdjust="spacingAndGlyphs" textLength="53" x="636.5" y="495.7344">Resource</text><line style="stroke: #A80036; stroke-width: 1.5;" x1="608.5" x2="691.5" y1="507.1992" y2="507.1992"/><line style="stroke: #A80036; stroke-width: 1.5;" x1="608.5" x2="691.5" y1="515.1992" y2="515.1992"/><polygon fill="#FBFB77" filter="url(#f1)" points="313,323.6992,313,364.3203,581,364.3203,581,333.6992,571,323.6992,313,323.6992" style="stroke: #A80036; stroke-width: 1.0;"/><polygon fill="#FBFB77" points="313,323.6992,313,364.3203,469.123,364.3203,619.339,475.0902,477.123,364.3203,581,364.3203,581,333.6992,571,323.6992,313,323.6992" style="stroke: #A80036; stroke-width: 1.0;"/><line style="stroke: #A80036; stroke-width: 1.0;" x1="571" x2="571" y1="323.6992" y2="333.6992"/><line style="stroke: #A80036; stroke-width: 1.0;" x1="581" x2="571" y1="333.6992" y2="333.6992"/><text fill="#000000" font-family="sans-serif" font-size="13" lengthAdjust="spacingAndGlyphs" textLength="247" x="319" y="341.2676">A Foreman object to be used or created</text><text fill="#000000" font-family="sans-serif" font-size="13" lengthAdjust="spacingAndGlyphs" textLength="207" x="319" y="356.5781">to form an Deployment instance.</text><rect fill="#FEFECE" filter="url(#f1)" height="48" style="stroke: #A80036; stroke-width: 1.5;" width="81" x="828.5" y="320.1992"/><ellipse cx="843.5" cy="336.1992" fill="#DA70D6" rx="11" ry="11" style="stroke: #A80036; stroke-width: 1.0;"/><path d="M843.6133,336.9492 L845.1987,332.2427 Q845.3481,331.7778 845.6138,331.5662 Q845.8794,331.3545 846.3193,331.3545 L847.6143,331.3545 Q848.1787,331.3545 848.4236,331.5703 Q848.6685,331.7861 848.6685,332.2759 Q848.6685,332.7241 848.4319,332.9565 Q848.1953,333.189 847.7471,333.189 L847.6143,333.189 L847.8467,339.3813 L847.9878,339.3813 Q848.436,339.3813 848.6602,339.6096 Q848.8843,339.8379 848.8843,340.2778 Q848.8843,340.7676 848.6477,340.9834 Q848.4111,341.1992 847.8467,341.1992 L845.979,341.1992 Q845.4146,341.1992 845.178,340.9875 Q844.9414,340.7759 844.9414,340.2778 Q844.9414,339.8379 845.1697,339.6096 Q845.3979,339.3813 845.8462,339.3813 L845.979,339.3813 L845.8628,334.3179 L844.6509,338.0864 Q844.5181,338.5098 844.2732,338.6965 Q844.0283,338.8833 843.5967,338.8833 Q843.165,338.8833 842.9119,338.6965 Q842.6587,338.5098 842.5259,338.0864 L841.3223,334.3179 L841.2061,339.3813 L841.3389,339.3813 Q841.7871,339.3813 842.0154,339.6096 Q842.2437,339.8379 842.2437,340.2778 Q842.2437,340.7676 842.0029,340.9834 Q841.7622,341.1992 841.2061,341.1992 L839.3301,341.1992 Q838.7739,341.1992 838.5332,340.9834 Q838.2925,340.7676 838.2925,340.2778 Q838.2925,339.8379 838.5208,339.6096 Q838.749,339.3813 839.1973,339.3813 L839.3301,339.3813 L839.5708,333.189 L839.438,333.189 Q838.9897,333.189 838.7532,332.9565 Q838.5166,332.7241 838.5166,332.2759 Q838.5166,331.7861 838.7615,331.5703 Q839.0063,331.3545 839.5708,331.3545 L840.8657,331.3545 Q841.2974,331.3545 841.5588,331.562 Q841.8203,331.7695 841.9863,332.2427 Z "/><text fill="#000000" font-family="sans-serif" font-size="12" font-style="italic" lengthAdjust="spacingAndGlyphs" textLength="49" x="857.5" y="340.7344">Ordered</text><line style="stroke: #A80036; stroke-width: 1.5;" x1="829.5" x2="908.5" y1="352.1992" y2="352.1992"/><line style="stroke: #A80036; stroke-width: 1.5;" x1="829.5" x2="908.5" y1="360.1992" y2="360.1992"/><rect fill="#FEFECE" filter="url(#f1)" height="108.7754" style="stroke: #A80036; stroke-width: 1.5;" width="178" x="938" y="1112.6992"/><ellipse cx="967.85" cy="1128.6992" fill="#ADD1B2" rx="11" ry="11" style="stroke: #A80036; stroke-width: 1.0;"/><path d="M969.5531,1124.3784 Q969.7191,1124.0796 969.8935,1123.9551 Q970.0678,1123.8306 970.3334,1123.8306 Q970.7401,1123.8306 970.9103,1124.0464 Q971.0805,1124.2622 971.0805,1124.7852 L971.0971,1126.9434 Q971.0971,1127.5161 970.9103,1127.7153 Q970.7235,1127.9146 970.2338,1127.9146 Q969.8852,1127.9146 969.6984,1127.7485 Q969.5116,1127.5825 969.3788,1127.1343 Q969.163,1126.3457 968.6898,1126.0012 Q968.2167,1125.6567 967.3783,1125.6567 Q966.1,1125.6567 965.4193,1126.52 Q964.7387,1127.3833 964.7387,1129.0186 Q964.7387,1130.6455 965.4276,1131.5171 Q966.1166,1132.3887 967.3949,1132.3887 Q968.2665,1132.3887 969.3166,1131.8076 Q970.3666,1131.2266 970.6405,1131.2266 Q970.9643,1131.2266 971.1842,1131.5005 Q971.4042,1131.7744 971.4042,1132.1812 Q971.4042,1132.9116 970.1176,1133.5591 Q968.831,1134.2065 967.2206,1134.2065 Q965.0458,1134.2065 963.7011,1132.7705 Q962.3563,1131.3345 962.3563,1129.0186 Q962.3563,1126.7856 963.7177,1125.3081 Q965.079,1123.8306 967.1708,1123.8306 Q967.7602,1123.8306 968.3329,1123.9634 Q968.9057,1124.0962 969.5531,1124.3784 Z "/><text fill="#000000" font-family="sans-serif" font-size="12" lengthAdjust="spacingAndGlyphs" textLength="113" x="985.15" y="1133.2344">HostgroupResource</text><line style="stroke: #A80036; stroke-width: 1.5;" x1="939" x2="1115" y1="1144.6992" y2="1144.6992"/><text fill="#000000" font-family="sans-serif" font-size="11" lengthAdjust="spacingAndGlyphs" textLength="64" x="944" y="1159.334">String name</text><text fill="#000000" font-family="sans-serif" font-size="11" lengthAdjust="spacingAndGlyphs" textLength="157" x="944" y="1189.2441">Parent is HostgroupResource</text><text fill="#000000" font-family="sans-serif" font-size="11" lengthAdjust="spacingAndGlyphs" textLength="166" x="944" y="1202.1992">or it's provided on Deployment</text><text fill="#000000" font-family="sans-serif" font-size="11" lengthAdjust="spacingAndGlyphs" textLength="76" x="944" y="1215.1543">configuration.</text><line style="stroke: #A80036; stroke-width: 1.0; stroke-dasharray: 1.0,2.0;" x1="939" x2="1012" y1="1172.1318" y2="1172.1318"/><text fill="#000000" font-family="sans-serif" font-size="11" lengthAdjust="spacingAndGlyphs" textLength="30" x="1012" y="1175.7891">notes</text><line style="stroke: #A80036; stroke-width: 1.0; stroke-dasharray: 1.0,2.0;" x1="1042" x2="1115" y1="1172.1318" y2="1172.1318"/><rect fill="#FEFECE" filter="url(#f1)" height="121.7305" style="stroke: #A80036; stroke-width: 1.5;" width="152" x="842" y="879.1992"/><ellipse cx="870.5" cy="895.1992" fill="#ADD1B2" rx="11" ry="11" style="stroke: #A80036; stroke-width: 1.0;"/><path d="M872.2031,890.8784 Q872.3691,890.5796 872.5435,890.4551 Q872.7178,890.3306 872.9834,890.3306 Q873.3901,890.3306 873.5603,890.5464 Q873.7305,890.7622 873.7305,891.2852 L873.7471,893.4434 Q873.7471,894.0161 873.5603,894.2153 Q873.3735,894.4146 872.8838,894.4146 Q872.5352,894.4146 872.3484,894.2485 Q872.1616,894.0825 872.0288,893.6343 Q871.813,892.8457 871.3398,892.5012 Q870.8667,892.1567 870.0283,892.1567 Q868.75,892.1567 868.0693,893.02 Q867.3887,893.8833 867.3887,895.5186 Q867.3887,897.1455 868.0776,898.0171 Q868.7666,898.8887 870.0449,898.8887 Q870.9165,898.8887 871.9666,898.3076 Q873.0166,897.7266 873.2905,897.7266 Q873.6143,897.7266 873.8342,898.0005 Q874.0542,898.2744 874.0542,898.6812 Q874.0542,899.4116 872.7676,900.0591 Q871.481,900.7065 869.8706,900.7065 Q867.6958,900.7065 866.3511,899.2705 Q865.0063,897.8345 865.0063,895.5186 Q865.0063,893.2856 866.3677,891.8081 Q867.729,890.3306 869.8208,890.3306 Q870.4102,890.3306 870.9829,890.4634 Q871.5557,890.5962 872.2031,890.8784 Z "/><text fill="#000000" font-family="sans-serif" font-size="12" lengthAdjust="spacingAndGlyphs" textLength="90" x="887.5" y="899.7344">ParamResource</text><line style="stroke: #A80036; stroke-width: 1.5;" x1="843" x2="993" y1="911.1992" y2="911.1992"/><text fill="#000000" font-family="sans-serif" font-size="11" lengthAdjust="spacingAndGlyphs" textLength="64" x="848" y="925.834">String name</text><text fill="#000000" font-family="sans-serif" font-size="11" lengthAdjust="spacingAndGlyphs" textLength="140" x="848" y="938.7891">String description # intent</text><text fill="#000000" font-family="sans-serif" font-size="11" lengthAdjust="spacingAndGlyphs" textLength="106" x="848" y="951.7441">String default_value</text><text fill="#000000" font-family="sans-serif" font-size="11" lengthAdjust="spacingAndGlyphs" textLength="115" x="848" y="981.6543">validations, like list of</text><text fill="#000000" font-family="sans-serif" font-size="11" lengthAdjust="spacingAndGlyphs" textLength="77" x="848" y="994.6094">allowed values</text><line style="stroke: #A80036; stroke-width: 1.0; stroke-dasharray: 1.0,2.0;" x1="843" x2="903" y1="964.542" y2="964.542"/><text fill="#000000" font-family="sans-serif" font-size="11" lengthAdjust="spacingAndGlyphs" textLength="30" x="903" y="968.1992">notes</text><line style="stroke: #A80036; stroke-width: 1.0; stroke-dasharray: 1.0,2.0;" x1="933" x2="993" y1="964.542" y2="964.542"/><rect fill="#FEFECE" filter="url(#f1)" height="73.9102" style="stroke: #A80036; stroke-width: 1.5;" width="172" x="1187" y="618.6992"/><ellipse cx="1202" cy="634.6992" fill="#ADD1B2" rx="11" ry="11" style="stroke: #A80036; stroke-width: 1.0;"/><path d="M1203.7031,630.3784 Q1203.8691,630.0796 1204.0435,629.9551 Q1204.2178,629.8306 1204.4834,629.8306 Q1204.8901,629.8306 1205.0603,630.0464 Q1205.2305,630.2622 1205.2305,630.7852 L1205.2471,632.9434 Q1205.2471,633.5161 1205.0603,633.7153 Q1204.8735,633.9146 1204.3838,633.9146 Q1204.0352,633.9146 1203.8484,633.7485 Q1203.6616,633.5825 1203.5288,633.1343 Q1203.313,632.3457 1202.8398,632.0012 Q1202.3667,631.6567 1201.5283,631.6567 Q1200.25,631.6567 1199.5693,632.52 Q1198.8887,633.3833 1198.8887,635.0186 Q1198.8887,636.6455 1199.5776,637.5171 Q1200.2666,638.3887 1201.5449,638.3887 Q1202.4165,638.3887 1203.4666,637.8076 Q1204.5166,637.2266 1204.7905,637.2266 Q1205.1143,637.2266 1205.3342,637.5005 Q1205.5542,637.7744 1205.5542,638.1812 Q1205.5542,638.9116 1204.2676,639.5591 Q1202.981,640.2065 1201.3706,640.2065 Q1199.1958,640.2065 1197.8511,638.7705 Q1196.5063,637.3345 1196.5063,635.0186 Q1196.5063,632.7856 1197.8677,631.3081 Q1199.229,629.8306 1201.3208,629.8306 Q1201.9102,629.8306 1202.4829,629.9634 Q1203.0557,630.0962 1203.7031,630.3784 Z "/><text fill="#000000" font-family="sans-serif" font-size="12" lengthAdjust="spacingAndGlyphs" textLength="140" x="1216" y="639.2344">ParamOverrideResource</text><line style="stroke: #A80036; stroke-width: 1.5;" x1="1188" x2="1358" y1="650.6992" y2="650.6992"/><text fill="#000000" font-family="sans-serif" font-size="11" lengthAdjust="spacingAndGlyphs" textLength="53" x="1193" y="665.334">String key</text><text fill="#000000" font-family="sans-serif" font-size="11" lengthAdjust="spacingAndGlyphs" textLength="95" x="1193" y="678.2891">String value # ERB</text><line style="stroke: #A80036; stroke-width: 1.5;" x1="1188" x2="1358" y1="684.6094" y2="684.6094"/><rect fill="#FEFECE" filter="url(#f1)" height="147.6406" style="stroke: #A80036; stroke-width: 1.5;" width="225" x="677.5" y="1093.1992"/><ellipse cx="708.25" cy="1109.1992" fill="#ADD1B2" rx="11" ry="11" style="stroke: #A80036; stroke-width: 1.0;"/><path d="M709.9531,1104.8784 Q710.1191,1104.5796 710.2935,1104.4551 Q710.4678,1104.3306 710.7334,1104.3306 Q711.1401,1104.3306 711.3103,1104.5464 Q711.4805,1104.7622 711.4805,1105.2852 L711.4971,1107.4434 Q711.4971,1108.0161 711.3103,1108.2153 Q711.1235,1108.4146 710.6338,1108.4146 Q710.2852,1108.4146 710.0984,1108.2485 Q709.9116,1108.0825 709.7788,1107.6343 Q709.563,1106.8457 709.0898,1106.5012 Q708.6167,1106.1567 707.7783,1106.1567 Q706.5,1106.1567 705.8193,1107.02 Q705.1387,1107.8833 705.1387,1109.5186 Q705.1387,1111.1455 705.8276,1112.0171 Q706.5166,1112.8887 707.7949,1112.8887 Q708.6665,1112.8887 709.7166,1112.3076 Q710.7666,1111.7266 711.0405,1111.7266 Q711.3643,1111.7266 711.5842,1112.0005 Q711.8042,1112.2744 711.8042,1112.6812 Q711.8042,1113.4116 710.5176,1114.0591 Q709.231,1114.7065 707.6206,1114.7065 Q705.4458,1114.7065 704.1011,1113.2705 Q702.7563,1111.8345 702.7563,1109.5186 Q702.7563,1107.2856 704.1177,1105.8081 Q705.479,1104.3306 707.5708,1104.3306 Q708.1602,1104.3306 708.7329,1104.4634 Q709.3057,1104.5962 709.9531,1104.8784 Z "/><text fill="#000000" font-family="sans-serif" font-size="12" lengthAdjust="spacingAndGlyphs" textLength="158" x="725.75" y="1113.7344">ComputeResourceResource</text><line style="stroke: #A80036; stroke-width: 1.5;" x1="678.5" x2="901.5" y1="1125.1992" y2="1125.1992"/><text fill="#000000" font-family="sans-serif" font-size="11" lengthAdjust="spacingAndGlyphs" textLength="58" x="683.5" y="1139.834">String type</text><text fill="#000000" font-family="sans-serif" font-size="11" lengthAdjust="spacingAndGlyphs" textLength="115" x="683.5" y="1152.7891">Boolean image_based</text><text fill="#000000" font-family="sans-serif" font-size="11" lengthAdjust="spacingAndGlyphs" textLength="133" x="683.5" y="1165.7441">String image_url nullable</text><text fill="#000000" font-family="sans-serif" font-size="11" lengthAdjust="spacingAndGlyphs" textLength="213" x="683.5" y="1195.6543">Each ComputeResourceResource allows</text><text fill="#000000" font-family="sans-serif" font-size="11" lengthAdjust="spacingAndGlyphs" textLength="199" x="683.5" y="1208.6094">particular ComputeResource type for</text><text fill="#000000" font-family="sans-serif" font-size="11" lengthAdjust="spacingAndGlyphs" textLength="165" x="683.5" y="1221.5645">a given HostResource. It has to</text><text fill="#000000" font-family="sans-serif" font-size="11" lengthAdjust="spacingAndGlyphs" textLength="203" x="683.5" y="1234.5195">contain image_url when image_based.</text><line style="stroke: #A80036; stroke-width: 1.0; stroke-dasharray: 1.0,2.0;" x1="678.5" x2="775" y1="1178.542" y2="1178.542"/><text fill="#000000" font-family="sans-serif" font-size="11" lengthAdjust="spacingAndGlyphs" textLength="30" x="775" y="1182.1992">notes</text><line style="stroke: #A80036; stroke-width: 1.0; stroke-dasharray: 1.0,2.0;" x1="805" x2="901.5" y1="1178.542" y2="1178.542"/><rect fill="#FEFECE" filter="url(#f1)" height="95.8203" style="stroke: #A80036; stroke-width: 1.5;" width="173" x="281.5" y="1119.1992"/><ellipse cx="296.5" cy="1135.1992" fill="#ADD1B2" rx="11" ry="11" style="stroke: #A80036; stroke-width: 1.0;"/><path d="M298.2031,1130.8784 Q298.3691,1130.5796 298.5435,1130.4551 Q298.7178,1130.3306 298.9834,1130.3306 Q299.3901,1130.3306 299.5603,1130.5464 Q299.7305,1130.7622 299.7305,1131.2852 L299.7471,1133.4434 Q299.7471,1134.0161 299.5603,1134.2153 Q299.3735,1134.4146 298.8838,1134.4146 Q298.5352,1134.4146 298.3484,1134.2485 Q298.1616,1134.0825 298.0288,1133.6343 Q297.813,1132.8457 297.3398,1132.5012 Q296.8667,1132.1567 296.0283,1132.1567 Q294.75,1132.1567 294.0693,1133.02 Q293.3887,1133.8833 293.3887,1135.5186 Q293.3887,1137.1455 294.0776,1138.0171 Q294.7666,1138.8887 296.0449,1138.8887 Q296.9165,1138.8887 297.9666,1138.3076 Q299.0166,1137.7266 299.2905,1137.7266 Q299.6143,1137.7266 299.8342,1138.0005 Q300.0542,1138.2744 300.0542,1138.6812 Q300.0542,1139.4116 298.7676,1140.0591 Q297.481,1140.7065 295.8706,1140.7065 Q293.6958,1140.7065 292.3511,1139.2705 Q291.0063,1137.8345 291.0063,1135.5186 Q291.0063,1133.2856 292.3677,1131.8081 Q293.729,1130.3306 295.8208,1130.3306 Q296.4102,1130.3306 296.9829,1130.4634 Q297.5557,1130.5962 298.2031,1130.8784 Z "/><text fill="#000000" font-family="sans-serif" font-size="12" lengthAdjust="spacingAndGlyphs" textLength="141" x="310.5" y="1139.7344">ComputeProfileResource</text><line style="stroke: #A80036; stroke-width: 1.5;" x1="282.5" x2="453.5" y1="1151.1992" y2="1151.1992"/><text fill="#000000" font-family="sans-serif" font-size="11" lengthAdjust="spacingAndGlyphs" textLength="88" x="287.5" y="1182.7891">Type limitations.</text><text fill="#000000" font-family="sans-serif" font-size="11" lengthAdjust="spacingAndGlyphs" textLength="153" x="287.5" y="1195.7441">Can be added later or stored</text><text fill="#000000" font-family="sans-serif" font-size="11" lengthAdjust="spacingAndGlyphs" textLength="138" x="287.5" y="1208.6992">directly on HostResource.</text><line style="stroke: #A80036; stroke-width: 1.0; stroke-dasharray: 1.0,2.0;" x1="282.5" x2="353" y1="1165.6768" y2="1165.6768"/><text fill="#000000" font-family="sans-serif" font-size="11" lengthAdjust="spacingAndGlyphs" textLength="30" x="353" y="1169.334">notes</text><line style="stroke: #A80036; stroke-width: 1.0; stroke-dasharray: 1.0,2.0;" x1="383" x2="453.5" y1="1165.6768" y2="1165.6768"/><rect fill="#FEFECE" filter="url(#f1)" height="73.9102" style="stroke: #A80036; stroke-width: 1.5;" width="156" x="1195" y="903.1992"/><ellipse cx="1210" cy="919.1992" fill="#ADD1B2" rx="11" ry="11" style="stroke: #A80036; stroke-width: 1.0;"/><path d="M1211.7031,914.8784 Q1211.8691,914.5796 1212.0435,914.4551 Q1212.2178,914.3306 1212.4834,914.3306 Q1212.8901,914.3306 1213.0603,914.5464 Q1213.2305,914.7622 1213.2305,915.2852 L1213.2471,917.4434 Q1213.2471,918.0161 1213.0603,918.2153 Q1212.8735,918.4146 1212.3838,918.4146 Q1212.0352,918.4146 1211.8484,918.2485 Q1211.6616,918.0825 1211.5288,917.6343 Q1211.313,916.8457 1210.8398,916.5012 Q1210.3667,916.1567 1209.5283,916.1567 Q1208.25,916.1567 1207.5693,917.02 Q1206.8887,917.8833 1206.8887,919.5186 Q1206.8887,921.1455 1207.5776,922.0171 Q1208.2666,922.8887 1209.5449,922.8887 Q1210.4165,922.8887 1211.4666,922.3076 Q1212.5166,921.7266 1212.7905,921.7266 Q1213.1143,921.7266 1213.3342,922.0005 Q1213.5542,922.2744 1213.5542,922.6812 Q1213.5542,923.4116 1212.2676,924.0591 Q1210.981,924.7065 1209.3706,924.7065 Q1207.1958,924.7065 1205.8511,923.2705 Q1204.5063,921.8345 1204.5063,919.5186 Q1204.5063,917.2856 1205.8677,915.8081 Q1207.229,914.3306 1209.3208,914.3306 Q1209.9102,914.3306 1210.4829,914.4634 Q1211.0557,914.5962 1211.7031,914.8784 Z "/><text fill="#000000" font-family="sans-serif" font-size="12" lengthAdjust="spacingAndGlyphs" textLength="124" x="1224" y="923.7344">PuppetClassResource</text><line style="stroke: #A80036; stroke-width: 1.5;" x1="1196" x2="1350" y1="935.1992" y2="935.1992"/><text fill="#000000" font-family="sans-serif" font-size="11" lengthAdjust="spacingAndGlyphs" textLength="64" x="1201" y="949.834">String name</text><text fill="#000000" font-family="sans-serif" font-size="11" lengthAdjust="spacingAndGlyphs" textLength="108" x="1201" y="962.7891"># of the class to add</text><line style="stroke: #A80036; stroke-width: 1.5;" x1="1196" x2="1350" y1="969.1094" y2="969.1094"/><rect fill="#FEFECE" filter="url(#f1)" height="95.8203" style="stroke: #A80036; stroke-width: 1.5;" width="153" x="489.5" y="1119.1992"/><ellipse cx="504.5" cy="1135.1992" fill="#ADD1B2" rx="11" ry="11" style="stroke: #A80036; stroke-width: 1.0;"/><path d="M506.2031,1130.8784 Q506.3691,1130.5796 506.5435,1130.4551 Q506.7178,1130.3306 506.9834,1130.3306 Q507.3901,1130.3306 507.5603,1130.5464 Q507.7305,1130.7622 507.7305,1131.2852 L507.7471,1133.4434 Q507.7471,1134.0161 507.5603,1134.2153 Q507.3735,1134.4146 506.8838,1134.4146 Q506.5352,1134.4146 506.3484,1134.2485 Q506.1616,1134.0825 506.0288,1133.6343 Q505.813,1132.8457 505.3398,1132.5012 Q504.8667,1132.1567 504.0283,1132.1567 Q502.75,1132.1567 502.0693,1133.02 Q501.3887,1133.8833 501.3887,1135.5186 Q501.3887,1137.1455 502.0776,1138.0171 Q502.7666,1138.8887 504.0449,1138.8887 Q504.9165,1138.8887 505.9666,1138.3076 Q507.0166,1137.7266 507.2905,1137.7266 Q507.6143,1137.7266 507.8342,1138.0005 Q508.0542,1138.2744 508.0542,1138.6812 Q508.0542,1139.4116 506.7676,1140.0591 Q505.481,1140.7065 503.8706,1140.7065 Q501.6958,1140.7065 500.3511,1139.2705 Q499.0063,1137.8345 499.0063,1135.5186 Q499.0063,1133.2856 500.3677,1131.8081 Q501.729,1130.3306 503.8208,1130.3306 Q504.4102,1130.3306 504.9829,1130.4634 Q505.5557,1130.5962 506.2031,1130.8784 Z "/><text fill="#000000" font-family="sans-serif" font-size="12" lengthAdjust="spacingAndGlyphs" textLength="121" x="518.5" y="1139.7344">SubnetTypeResource</text><line style="stroke: #A80036; stroke-width: 1.5;" x1="490.5" x2="641.5" y1="1151.1992" y2="1151.1992"/><text fill="#000000" font-family="sans-serif" font-size="11" lengthAdjust="spacingAndGlyphs" textLength="64" x="495.5" y="1165.834">String name</text><text fill="#000000" font-family="sans-serif" font-size="11" lengthAdjust="spacingAndGlyphs" textLength="65" x="495.5" y="1195.7441">like Staypuft</text><text fill="#000000" font-family="sans-serif" font-size="11" lengthAdjust="spacingAndGlyphs" textLength="75" x="495.5" y="1208.6992">network types</text><line style="stroke: #A80036; stroke-width: 1.0; stroke-dasharray: 1.0,2.0;" x1="490.5" x2="551" y1="1178.6318" y2="1178.6318"/><text fill="#000000" font-family="sans-serif" font-size="11" lengthAdjust="spacingAndGlyphs" textLength="30" x="551" y="1182.2891">notes</text><line style="stroke: #A80036; stroke-width: 1.0; stroke-dasharray: 1.0,2.0;" x1="581" x2="641.5" y1="1178.6318" y2="1178.6318"/><rect fill="#FEFECE" filter="url(#f1)" height="95.8203" style="stroke: #A80036; stroke-width: 1.5;" width="144" x="325" y="753.1992"/><ellipse cx="344.05" cy="769.1992" fill="#ADD1B2" rx="11" ry="11" style="stroke: #A80036; stroke-width: 1.0;"/><path d="M345.7531,764.8784 Q345.9191,764.5796 346.0935,764.4551 Q346.2678,764.3306 346.5334,764.3306 Q346.9401,764.3306 347.1103,764.5464 Q347.2805,764.7622 347.2805,765.2852 L347.2971,767.4434 Q347.2971,768.0161 347.1103,768.2153 Q346.9235,768.4146 346.4338,768.4146 Q346.0852,768.4146 345.8984,768.2485 Q345.7116,768.0825 345.5788,767.6343 Q345.363,766.8457 344.8898,766.5012 Q344.4167,766.1567 343.5783,766.1567 Q342.3,766.1567 341.6193,767.02 Q340.9387,767.8833 340.9387,769.5186 Q340.9387,771.1455 341.6276,772.0171 Q342.3166,772.8887 343.5949,772.8887 Q344.4665,772.8887 345.5166,772.3076 Q346.5666,771.7266 346.8405,771.7266 Q347.1643,771.7266 347.3842,772.0005 Q347.6042,772.2744 347.6042,772.6812 Q347.6042,773.4116 346.3176,774.0591 Q345.031,774.7065 343.4206,774.7065 Q341.2458,774.7065 339.9011,773.2705 Q338.5563,771.8345 338.5563,769.5186 Q338.5563,767.2856 339.9177,765.8081 Q341.279,764.3306 343.3708,764.3306 Q343.9602,764.3306 344.5329,764.4634 Q345.1057,764.5962 345.7531,764.8784 Z "/><text fill="#000000" font-family="sans-serif" font-size="12" lengthAdjust="spacingAndGlyphs" textLength="103" x="358.95" y="773.7344">InterfaceResource</text><line style="stroke: #A80036; stroke-width: 1.5;" x1="326" x2="468" y1="785.1992" y2="785.1992"/><text fill="#000000" font-family="sans-serif" font-size="11" lengthAdjust="spacingAndGlyphs" textLength="45" x="331" y="799.834">String ip</text><text fill="#000000" font-family="sans-serif" font-size="11" lengthAdjust="spacingAndGlyphs" textLength="132" x="331" y="829.7441">creates interface without</text><text fill="#000000" font-family="sans-serif" font-size="11" lengthAdjust="spacingAndGlyphs" textLength="94" x="331" y="842.6992">Host to reserve IP</text><line style="stroke: #A80036; stroke-width: 1.0; stroke-dasharray: 1.0,2.0;" x1="326" x2="382" y1="812.6318" y2="812.6318"/><text fill="#000000" font-family="sans-serif" font-size="11" lengthAdjust="spacingAndGlyphs" textLength="30" x="382" y="816.2891">notes</text><line style="stroke: #A80036; stroke-width: 1.0; stroke-dasharray: 1.0,2.0;" x1="412" x2="468" y1="812.6318" y2="812.6318"/><rect fill="#FEFECE" filter="url(#f1)" height="86.8652" style="stroke: #A80036; stroke-width: 1.5;" width="145" x="491.5" y="896.6992"/><ellipse cx="521.8" cy="912.6992" fill="#ADD1B2" rx="11" ry="11" style="stroke: #A80036; stroke-width: 1.0;"/><path d="M523.5031,908.3784 Q523.6691,908.0796 523.8435,907.9551 Q524.0178,907.8306 524.2834,907.8306 Q524.6901,907.8306 524.8603,908.0464 Q525.0305,908.2622 525.0305,908.7852 L525.0471,910.9434 Q525.0471,911.5161 524.8603,911.7153 Q524.6735,911.9146 524.1838,911.9146 Q523.8352,911.9146 523.6484,911.7485 Q523.4616,911.5825 523.3288,911.1343 Q523.113,910.3457 522.6398,910.0012 Q522.1667,909.6567 521.3283,909.6567 Q520.05,909.6567 519.3693,910.52 Q518.6887,911.3833 518.6887,913.0186 Q518.6887,914.6455 519.3776,915.5171 Q520.0666,916.3887 521.3449,916.3887 Q522.2165,916.3887 523.2666,915.8076 Q524.3166,915.2266 524.5905,915.2266 Q524.9143,915.2266 525.1342,915.5005 Q525.3542,915.7744 525.3542,916.1812 Q525.3542,916.9116 524.0676,917.5591 Q522.781,918.2065 521.1706,918.2065 Q518.9958,918.2065 517.6511,916.7705 Q516.3063,915.3345 516.3063,913.0186 Q516.3063,910.7856 517.6677,909.3081 Q519.029,907.8306 521.1208,907.8306 Q521.7102,907.8306 522.2829,907.9634 Q522.8557,908.0962 523.5031,908.3784 Z "/><text fill="#000000" font-family="sans-serif" font-size="12" lengthAdjust="spacingAndGlyphs" textLength="79" x="539.2" y="917.2344">HostResource</text><line style="stroke: #A80036; stroke-width: 1.5;" x1="492.5" x2="635.5" y1="928.6992" y2="928.6992"/><text fill="#000000" font-family="sans-serif" font-size="11" lengthAdjust="spacingAndGlyphs" textLength="133" x="497.5" y="943.334">String name # "db-%02d"</text><text fill="#000000" font-family="sans-serif" font-size="11" lengthAdjust="spacingAndGlyphs" textLength="67" x="497.5" y="956.2891">Integere min</text><text fill="#000000" font-family="sans-serif" font-size="11" lengthAdjust="spacingAndGlyphs" textLength="70" x="497.5" y="969.2441">Integere max</text><line style="stroke: #A80036; stroke-width: 1.5;" x1="492.5" x2="635.5" y1="975.5645" y2="975.5645"/><rect fill="#FEFECE" filter="url(#f1)" height="134.6855" style="stroke: #A80036; stroke-width: 1.5;" width="195" x="686.5" y="588.1992"/><ellipse cx="713.65" cy="604.1992" fill="#ADD1B2" rx="11" ry="11" style="stroke: #A80036; stroke-width: 1.0;"/><path d="M715.3531,599.8784 Q715.5191,599.5796 715.6935,599.4551 Q715.8678,599.3306 716.1334,599.3306 Q716.5401,599.3306 716.7103,599.5464 Q716.8805,599.7622 716.8805,600.2852 L716.8971,602.4434 Q716.8971,603.0161 716.7103,603.2153 Q716.5235,603.4146 716.0338,603.4146 Q715.6852,603.4146 715.4984,603.2485 Q715.3116,603.0825 715.1788,602.6343 Q714.963,601.8457 714.4898,601.5012 Q714.0167,601.1567 713.1783,601.1567 Q711.9,601.1567 711.2193,602.02 Q710.5387,602.8833 710.5387,604.5186 Q710.5387,606.1455 711.2276,607.0171 Q711.9166,607.8887 713.1949,607.8887 Q714.0665,607.8887 715.1166,607.3076 Q716.1666,606.7266 716.4405,606.7266 Q716.7643,606.7266 716.9842,607.0005 Q717.2042,607.2744 717.2042,607.6812 Q717.2042,608.4116 715.9176,609.0591 Q714.631,609.7065 713.0206,609.7065 Q710.8458,609.7065 709.5011,608.2705 Q708.1563,606.8345 708.1563,604.5186 Q708.1563,602.2856 709.5177,600.8081 Q710.879,599.3306 712.9708,599.3306 Q713.5602,599.3306 714.1329,599.4634 Q714.7057,599.5962 715.3531,599.8784 Z "/><text fill="#000000" font-family="sans-serif" font-size="12" lengthAdjust="spacingAndGlyphs" textLength="136" x="730.35" y="608.7344">ConnectParamResource</text><line style="stroke: #A80036; stroke-width: 1.5;" x1="687.5" x2="880.5" y1="620.1992" y2="620.1992"/><text fill="#000000" font-family="sans-serif" font-size="11" lengthAdjust="spacingAndGlyphs" textLength="124" x="692.5" y="651.7891">Possibly allow to define</text><text fill="#000000" font-family="sans-serif" font-size="11" lengthAdjust="spacingAndGlyphs" textLength="141" x="692.5" y="664.7441">a transformation function.</text><text fill="#000000" font-family="sans-serif" font-size="11" lengthAdjust="spacingAndGlyphs" textLength="183" x="692.5" y="677.6992">Only resource allowing to connect</text><text fill="#000000" font-family="sans-serif" font-size="11" lengthAdjust="spacingAndGlyphs" textLength="152" x="692.5" y="690.6543">resources form child stacks.</text><text fill="#000000" font-family="sans-serif" font-size="11" lengthAdjust="spacingAndGlyphs" textLength="155" x="692.5" y="703.6094">ERB is inserted to destination</text><text fill="#000000" font-family="sans-serif" font-size="11" lengthAdjust="spacingAndGlyphs" textLength="172" x="692.5" y="716.5645">to propagate value from source.</text><line style="stroke: #A80036; stroke-width: 1.0; stroke-dasharray: 1.0,2.0;" x1="687.5" x2="769" y1="634.6768" y2="634.6768"/><text fill="#000000" font-family="sans-serif" font-size="11" lengthAdjust="spacingAndGlyphs" textLength="30" x="769" y="638.334">notes</text><line style="stroke: #A80036; stroke-width: 1.0; stroke-dasharray: 1.0,2.0;" x1="799" x2="880.5" y1="634.6768" y2="634.6768"/><rect fill="#FEFECE" filter="url(#f1)" height="54.2656" style="stroke: #A80036; stroke-width: 1.5;" width="144" x="1431" y="628.6992"/><ellipse cx="1446" cy="647.832" fill="#008000" rx="11" ry="11" style="stroke: #A80036; stroke-width: 1.0;"/><path d="M1447.7031,643.5112 Q1447.8691,643.2124 1448.0435,643.0879 Q1448.2178,642.9634 1448.4834,642.9634 Q1448.8901,642.9634 1449.0603,643.1792 Q1449.2305,643.395 1449.2305,643.918 L1449.2471,646.0762 Q1449.2471,646.6489 1449.0603,646.8481 Q1448.8735,647.0474 1448.3838,647.0474 Q1448.0352,647.0474 1447.8484,646.8813 Q1447.6616,646.7153 1447.5288,646.2671 Q1447.313,645.4785 1446.8398,645.134 Q1446.3667,644.7896 1445.5283,644.7896 Q1444.25,644.7896 1443.5693,645.6528 Q1442.8887,646.5161 1442.8887,648.1514 Q1442.8887,649.7783 1443.5776,650.6499 Q1444.2666,651.5215 1445.5449,651.5215 Q1446.4165,651.5215 1447.4666,650.9404 Q1448.5166,650.3594 1448.7905,650.3594 Q1449.1143,650.3594 1449.3342,650.6333 Q1449.5542,650.9072 1449.5542,651.314 Q1449.5542,652.0444 1448.2676,652.6919 Q1446.981,653.3394 1445.3706,653.3394 Q1443.1958,653.3394 1441.8511,651.9033 Q1440.5063,650.4673 1440.5063,648.1514 Q1440.5063,645.9185 1441.8677,644.4409 Q1443.229,642.9634 1445.3208,642.9634 Q1445.9102,642.9634 1446.4829,643.0962 Q1447.0557,643.229 1447.7031,643.5112 Z "/><text fill="#000000" font-family="sans-serif" font-size="12" font-style="italic" lengthAdjust="spacingAndGlyphs" textLength="97" x="1467.5" y="645.3008">&lt;&lt; Ordered &gt;&gt;</text><text fill="#000000" font-family="sans-serif" font-size="12" lengthAdjust="spacingAndGlyphs" textLength="112" x="1460" y="659.4336">ChildStackResource</text><line style="stroke: #A80036; stroke-width: 1.5;" x1="1432" x2="1574" y1="666.9648" y2="666.9648"/><line style="stroke: #A80036; stroke-width: 1.5;" x1="1432" x2="1574" y1="674.9648" y2="674.9648"/><rect fill="#FEFECE" filter="url(#f1)" height="89.1309" style="stroke: #A80036; stroke-width: 1.5;" width="198" x="954" y="611.1992"/><ellipse cx="984.3" cy="630.332" fill="#008000" rx="11" ry="11" style="stroke: #A80036; stroke-width: 1.0;"/><path d="M986.0031,626.0112 Q986.1691,625.7124 986.3435,625.5879 Q986.5178,625.4634 986.7834,625.4634 Q987.1901,625.4634 987.3603,625.6792 Q987.5305,625.895 987.5305,626.418 L987.5471,628.5762 Q987.5471,629.1489 987.3603,629.3481 Q987.1735,629.5474 986.6838,629.5474 Q986.3352,629.5474 986.1484,629.3813 Q985.9616,629.2153 985.8288,628.7671 Q985.613,627.9785 985.1398,627.634 Q984.6667,627.2896 983.8283,627.2896 Q982.55,627.2896 981.8693,628.1528 Q981.1887,629.0161 981.1887,630.6514 Q981.1887,632.2783 981.8776,633.1499 Q982.5666,634.0215 983.8449,634.0215 Q984.7165,634.0215 985.7666,633.4404 Q986.8166,632.8594 987.0905,632.8594 Q987.4143,632.8594 987.6342,633.1333 Q987.8542,633.4072 987.8542,633.814 Q987.8542,634.5444 986.5676,635.1919 Q985.281,635.8394 983.6706,635.8394 Q981.4958,635.8394 980.1511,634.4033 Q978.8063,632.9673 978.8063,630.6514 Q978.8063,628.4185 980.1677,626.9409 Q981.529,625.4634 983.6208,625.4634 Q984.2102,625.4634 984.7829,625.5962 Q985.3557,625.729 986.0031,626.0112 Z "/><text fill="#000000" font-family="sans-serif" font-size="12" font-style="italic" lengthAdjust="spacingAndGlyphs" textLength="97" x="1019.2" y="627.8008">&lt;&lt; Ordered &gt;&gt;</text><text fill="#000000" font-family="sans-serif" font-size="12" lengthAdjust="spacingAndGlyphs" textLength="132" x="1001.7" y="641.9336">ParamUpdateResource</text><line style="stroke: #A80036; stroke-width: 1.5;" x1="955" x2="1151" y1="649.4648" y2="649.4648"/><text fill="#000000" font-family="sans-serif" font-size="11" lengthAdjust="spacingAndGlyphs" textLength="69" x="960" y="664.0996">Staring value</text><text fill="#000000" font-family="sans-serif" font-size="11" lengthAdjust="spacingAndGlyphs" textLength="186" x="960" y="694.0098">possibly ERB to compute new value</text><line style="stroke: #A80036; stroke-width: 1.0; stroke-dasharray: 1.0,2.0;" x1="955" x2="1038" y1="676.8975" y2="676.8975"/><text fill="#000000" font-family="sans-serif" font-size="11" lengthAdjust="spacingAndGlyphs" textLength="30" x="1038" y="680.5547">notes</text><line style="stroke: #A80036; stroke-width: 1.0; stroke-dasharray: 1.0,2.0;" x1="1068" x2="1151" y1="676.8975" y2="676.8975"/><rect fill="#FEFECE" filter="url(#f1)" height="54.2656" style="stroke: #A80036; stroke-width: 1.5;" width="148" x="392" y="628.6992"/><ellipse cx="407" cy="647.832" fill="#008000" rx="11" ry="11" style="stroke: #A80036; stroke-width: 1.0;"/><path d="M408.7031,643.5112 Q408.8691,643.2124 409.0435,643.0879 Q409.2178,642.9634 409.4834,642.9634 Q409.8901,642.9634 410.0603,643.1792 Q410.2305,643.395 410.2305,643.918 L410.2471,646.0762 Q410.2471,646.6489 410.0603,646.8481 Q409.8735,647.0474 409.3838,647.0474 Q409.0352,647.0474 408.8484,646.8813 Q408.6616,646.7153 408.5288,646.2671 Q408.313,645.4785 407.8398,645.134 Q407.3667,644.7896 406.5283,644.7896 Q405.25,644.7896 404.5693,645.6528 Q403.8887,646.5161 403.8887,648.1514 Q403.8887,649.7783 404.5776,650.6499 Q405.2666,651.5215 406.5449,651.5215 Q407.4165,651.5215 408.4666,650.9404 Q409.5166,650.3594 409.7905,650.3594 Q410.1143,650.3594 410.3342,650.6333 Q410.5542,650.9072 410.5542,651.314 Q410.5542,652.0444 409.2676,652.6919 Q407.981,653.3394 406.3706,653.3394 Q404.1958,653.3394 402.8511,651.9033 Q401.5063,650.4673 401.5063,648.1514 Q401.5063,645.9185 402.8677,644.4409 Q404.229,642.9634 406.3208,642.9634 Q406.9102,642.9634 407.4829,643.0962 Q408.0557,643.229 408.7031,643.5112 Z "/><text fill="#000000" font-family="sans-serif" font-size="12" font-style="italic" lengthAdjust="spacingAndGlyphs" textLength="97" x="430.5" y="645.3008">&lt;&lt; Ordered &gt;&gt;</text><text fill="#000000" font-family="sans-serif" font-size="12" lengthAdjust="spacingAndGlyphs" textLength="116" x="421" y="659.4336">PuppetRunResource</text><line style="stroke: #A80036; stroke-width: 1.5;" x1="393" x2="539" y1="666.9648" y2="666.9648"/><line style="stroke: #A80036; stroke-width: 1.5;" x1="393" x2="539" y1="674.9648" y2="674.9648"/><rect fill="#FEFECE" filter="url(#f1)" height="73.9102" style="stroke: #A80036; stroke-width: 1.5;" width="153" x="103.5" y="143.1992"/><ellipse cx="141.9" cy="159.1992" fill="#ADD1B2" rx="11" ry="11" style="stroke: #A80036; stroke-width: 1.0;"/><path d="M143.6031,154.8784 Q143.7691,154.5796 143.9435,154.4551 Q144.1178,154.3306 144.3834,154.3306 Q144.7901,154.3306 144.9603,154.5464 Q145.1305,154.7622 145.1305,155.2852 L145.1471,157.4434 Q145.1471,158.0161 144.9603,158.2153 Q144.7735,158.4146 144.2838,158.4146 Q143.9352,158.4146 143.7484,158.2485 Q143.5616,158.0825 143.4288,157.6343 Q143.213,156.8457 142.7398,156.5012 Q142.2667,156.1567 141.4283,156.1567 Q140.15,156.1567 139.4693,157.02 Q138.7887,157.8833 138.7887,159.5186 Q138.7887,161.1455 139.4776,162.0171 Q140.1666,162.8887 141.4449,162.8887 Q142.3165,162.8887 143.3666,162.3076 Q144.4166,161.7266 144.6905,161.7266 Q145.0143,161.7266 145.2342,162.0005 Q145.4542,162.2744 145.4542,162.6812 Q145.4542,163.4116 144.1676,164.0591 Q142.881,164.7065 141.2706,164.7065 Q139.0958,164.7065 137.7511,163.2705 Q136.4063,161.8345 136.4063,159.5186 Q136.4063,157.2856 137.7677,155.8081 Q139.129,154.3306 141.2208,154.3306 Q141.8102,154.3306 142.3829,154.4634 Q142.9557,154.5962 143.6031,154.8784 Z "/><text fill="#000000" font-family="sans-serif" font-size="12" lengthAdjust="spacingAndGlyphs" textLength="69" x="161.1" y="163.7344">Deployment</text><line style="stroke: #A80036; stroke-width: 1.5;" x1="104.5" x2="255.5" y1="175.1992" y2="175.1992"/><text fill="#000000" font-family="sans-serif" font-size="11" lengthAdjust="spacingAndGlyphs" textLength="64" x="109.5" y="189.834">String name</text><text fill="#000000" font-family="sans-serif" font-size="11" lengthAdjust="spacingAndGlyphs" textLength="141" x="109.5" y="202.7891">String description nullable</text><line style="stroke: #A80036; stroke-width: 1.5;" x1="104.5" x2="255.5" y1="209.1094" y2="209.1094"/><polygon fill="#FBFB77" filter="url(#f1)" points="6,29.1992,6,69.8203,354,69.8203,354,39.1992,344,29.1992,6,29.1992" style="stroke: #A80036; stroke-width: 1.0;"/><polygon fill="#FBFB77" points="6,29.1992,6,69.8203,176,69.8203,180,143.1692,184,69.8203,354,69.8203,354,39.1992,344,29.1992,6,29.1992" style="stroke: #A80036; stroke-width: 1.0;"/><line style="stroke: #A80036; stroke-width: 1.0;" x1="344" x2="344" y1="29.1992" y2="39.1992"/><line style="stroke: #A80036; stroke-width: 1.0;" x1="354" x2="344" y1="39.1992" y2="39.1992"/><text fill="#000000" font-family="sans-serif" font-size="13" lengthAdjust="spacingAndGlyphs" textLength="327" x="12" y="46.7676">The result of performing the instructions in a stack,</text><text fill="#000000" font-family="sans-serif" font-size="13" lengthAdjust="spacingAndGlyphs" textLength="263" x="12" y="62.0781">taking in any necessary input parameters.</text><rect fill="#FEFECE" filter="url(#f1)" height="69.9102" style="stroke: #A80036; stroke-width: 1.5;" width="185" x="79.5" y="309.1992"/><ellipse cx="94.5" cy="325.1992" fill="#ADD1B2" rx="11" ry="11" style="stroke: #A80036; stroke-width: 1.0;"/><path d="M96.2031,320.8784 Q96.3691,320.5796 96.5435,320.4551 Q96.7178,320.3306 96.9834,320.3306 Q97.3901,320.3306 97.5603,320.5464 Q97.7305,320.7622 97.7305,321.2852 L97.7471,323.4434 Q97.7471,324.0161 97.5603,324.2153 Q97.3735,324.4146 96.8838,324.4146 Q96.5352,324.4146 96.3484,324.2485 Q96.1616,324.0825 96.0288,323.6343 Q95.813,322.8457 95.3398,322.5012 Q94.8667,322.1567 94.0283,322.1567 Q92.75,322.1567 92.0693,323.02 Q91.3887,323.8833 91.3887,325.5186 Q91.3887,327.1455 92.0776,328.0171 Q92.7666,328.8887 94.0449,328.8887 Q94.9165,328.8887 95.9666,328.3076 Q97.0166,327.7266 97.2905,327.7266 Q97.6143,327.7266 97.8342,328.0005 Q98.0542,328.2744 98.0542,328.6812 Q98.0542,329.4116 96.7676,330.0591 Q95.481,330.7065 93.8706,330.7065 Q91.6958,330.7065 90.3511,329.2705 Q89.0063,327.8345 89.0063,325.5186 Q89.0063,323.2856 90.3677,321.8081 Q91.729,320.3306 93.8208,320.3306 Q94.4102,320.3306 94.9829,320.4634 Q95.5557,320.5962 96.2031,320.8784 Z "/><text fill="#000000" font-family="sans-serif" font-size="12" lengthAdjust="spacingAndGlyphs" textLength="153" x="108.5" y="329.7344">DeploymentMaterialization</text><line style="stroke: #A80036; stroke-width: 1.5;" x1="80.5" x2="263.5" y1="341.1992" y2="341.1992"/><text fill="#000000" font-family="sans-serif" font-size="11" lengthAdjust="spacingAndGlyphs" textLength="73" x="85.5" y="372.7891">in next model</text><line style="stroke: #A80036; stroke-width: 1.0; stroke-dasharray: 1.0,2.0;" x1="80.5" x2="157" y1="355.6768" y2="355.6768"/><text fill="#000000" font-family="sans-serif" font-size="11" lengthAdjust="spacingAndGlyphs" textLength="30" x="157" y="359.334">notes</text><line style="stroke: #A80036; stroke-width: 1.0; stroke-dasharray: 1.0,2.0;" x1="187" x2="263.5" y1="355.6768" y2="355.6768"/><path d="M178.205,217.5592 C176.935,243.2692 175.234,277.7082 173.934,304.0282 " fill="none" style="stroke: #A80036; stroke-width: 1.0; stroke-dasharray: 7.0,7.0;"/><polygon fill="#A80036" points="173.68,309.1782,178.1199,300.3869,173.9271,304.1843,170.1297,299.9915,173.68,309.1782" style="stroke: #A80036; stroke-width: 1.0;"/><path d="M269.363,218.0192 C669.405,314.0372 792.179,210.2492 1193,294.1992 C1194.41,294.4952 1195.83,294.8012 1197.25,295.1162 " fill="none" style="stroke: #A80036; stroke-width: 1.0;"/><polygon fill="#A80036" points="1210.15,298.1892,1202.3227,292.2114,1205.2863,297.0299,1200.4678,299.9934,1210.15,298.1892" style="stroke: #A80036; stroke-width: 1.0;"/><line style="stroke: #A80036; stroke-width: 1.0;" x1="1205.2863" x2="1197.505" y1="297.0299" y2="295.1762"/><polygon fill="none" points="256.536,214.8992,261.4185,220.2059,268.1949,217.7401,263.3124,212.4334,256.536,214.8992" style="stroke: #A80036; stroke-width: 1.0;"/><text fill="#000000" font-family="sans-serif" font-size="13" lengthAdjust="spacingAndGlyphs" textLength="49" x="981" y="260.7676">deploys</text><text fill="#000000" font-family="sans-serif" font-size="13" lengthAdjust="spacingAndGlyphs" textLength="22" x="264.6057" y="214.9935">0..*</text><text fill="#000000" font-family="sans-serif" font-size="13" lengthAdjust="spacingAndGlyphs" textLength="22" x="1180.666" y="292.8447">1..*</text><path d="M1197.84,392.8942 C1196.22,393.3372 1194.61,393.7732 1193,394.1992 C1017.39,440.8532 804.588,475.3762 705.615,490.1992 " fill="none" style="stroke: #A80036; stroke-width: 1.0;"/><polygon fill="#A80036" points="692.703,492.1172,702.1933,494.7504,697.6487,491.382,701.017,486.8374,692.703,492.1172" style="stroke: #A80036; stroke-width: 1.0;"/><line style="stroke: #A80036; stroke-width: 1.0;" x1="697.6487" x2="705.562" y1="491.382" y2="490.2067"/><polygon fill="#A80036" points="1210.36,389.3462,1203.4947,387.14,1198.8176,392.6286,1205.6829,394.8349,1210.36,389.3462" style="stroke: #A80036; stroke-width: 1.0;"/><text fill="#000000" font-family="sans-serif" font-size="13" lengthAdjust="spacingAndGlyphs" textLength="97" x="1061" y="437.7676">is composed of</text><text fill="#000000" font-family="sans-serif" font-size="13" lengthAdjust="spacingAndGlyphs" textLength="8" x="1194.4601" y="389.2236">1</text><text fill="#000000" font-family="sans-serif" font-size="13" lengthAdjust="spacingAndGlyphs" textLength="22" x="700.5906" y="487.5667">1..*</text><path d="M909.776,327.9902 C928.352,326.3352 944.5,331.7382 944.5,344.1992 C944.5,355.4922 931.238,360.9882 914.925,360.6872 " fill="none" style="stroke: #A80036; stroke-width: 1.0;"/><polygon fill="#A80036" points="909.776,360.4082,918.5456,364.8909,914.7686,360.6796,918.9799,356.9027,909.776,360.4082" style="stroke: #A80036; stroke-width: 1.0;"/><text fill="#000000" font-family="sans-serif" font-size="13" lengthAdjust="spacingAndGlyphs" textLength="73" x="1032" y="314.2676">depends on</text><polygon fill="#FBFB77" filter="url(#f1)" points="949.5,328.0098,949.5,383.0098,1183.5,383.0098,1183.5,338.0098,1173.5,328.0098,949.5,328.0098" style="stroke: #A80036; stroke-width: 1.0;"/><line style="stroke: #A80036; stroke-width: 1.0;" x1="1173.5" x2="1173.5" y1="328.0098" y2="338.0098"/><line style="stroke: #A80036; stroke-width: 1.0;" x1="1183.5" x2="1173.5" y1="338.0098" y2="338.0098"/><text fill="#000000" font-family="sans-serif" font-size="13" lengthAdjust="spacingAndGlyphs" textLength="188" x="955.5" y="345.5781">Acyclic graph f dependencies.</text><text fill="#000000" font-family="sans-serif" font-size="13" lengthAdjust="spacingAndGlyphs" textLength="213" x="955.5" y="360.8887">Defines order between Resources.</text><text fill="#000000" font-family="sans-serif" font-size="13" lengthAdjust="spacingAndGlyphs" textLength="205" x="955.5" y="376.1992">Used by orchestration to deploy.</text><text fill="#000000" font-family="sans-serif" font-size="13" lengthAdjust="spacingAndGlyphs" textLength="22" x="917.3806" y="322.0991">0..*</text><text fill="#000000" font-family="sans-serif" font-size="13" lengthAdjust="spacingAndGlyphs" textLength="22" x="917.3806" y="359.2785">0..*</text><path d="M649.303,543.6572 C649.586,589.1572 652.922,662.3202 669,723.1992 C684.741,782.8042 697.46,795.0892 727,849.1992 C765.4,919.5392 762.644,949.6462 824,1001.1992 C850.542,1023.5002 867.342,1011.6932 896,1031.1992 C928.938,1053.6182 960.233,1085.3292 983.971,1112.3842 " fill="none" style="stroke: #808080; stroke-width: 1.0;"/><polygon fill="none" points="642.303,543.4142,649.37,523.4382,656.303,543.4612,642.303,543.4142" style="stroke: #808080; stroke-width: 1.0;"/><path d="M712.95,503.9202 C771.098,510.9952 854.932,531.1682 899,588.1992 C932.955,632.1432 928.234,791.0112 922.667,879.1842 " fill="none" style="stroke: #808080; stroke-width: 1.0;"/><polygon fill="none" points="711.995,510.8592,692.81,501.8612,713.418,496.9312,711.995,510.8592" style="stroke: #808080; stroke-width: 1.0;"/><path d="M712.681,502.6742 C812.613,508.3892 1012.79,527.1392 1170,588.1992 C1189.44,595.7512 1209.1,607.2672 1225.95,618.6042 " fill="none" style="stroke: #808080; stroke-width: 1.0;"/><polygon fill="none" points="712.253,509.6612,692.645,501.6282,712.982,495.6802,712.253,509.6612" style="stroke: #808080; stroke-width: 1.0;"/><path d="M712.456,506.6532 C886.667,524.7982 1365.97,575.7482 1377,588.1992 C1458.57,680.2372 1357.41,833.6742 1303.16,903.1082 " fill="none" style="stroke: #808080; stroke-width: 1.0;"/><polygon fill="none" points="711.71,513.6132,692.541,504.5832,713.157,499.6882,711.71,513.6132" style="stroke: #808080; stroke-width: 1.0;"/><path d="M642.475,543.2202 C641.871,547.9252 641.357,552.6552 641,557.1992 C630.788,687.3542 620.325,729.7422 673,849.1992 C705.626,923.1892 707.232,954.1492 773,1001.1992 C816.31,1032.1832 856.398,989.0932 889,1031.1992 C904.391,1051.0772 898.079,1072.9352 882.972,1093.1652 " fill="none" style="stroke: #808080; stroke-width: 1.0;"/><polygon fill="none" points="635.563,542.1152,645.494,523.3972,649.403,544.2232,635.563,542.1152" style="stroke: #808080; stroke-width: 1.0;"/><path d="M587.47,507.0952 C499.238,518.3102 345.412,543.8332 314,588.1992 C207.723,738.3042 250.496,821.1452 288,1001.1992 C296.796,1043.4292 318.693,1087.1812 337.358,1119.0122 " fill="none" style="stroke: #808080; stroke-width: 1.0;"/><polygon fill="none" points="586.628,500.1462,607.328,504.6712,588.324,514.0432,586.628,500.1462" style="stroke: #808080; stroke-width: 1.0;"/><path d="M587.414,508.6802 C506.352,521.1822 372.286,547.5632 346,588.1992 C305.817,650.3182 328.9,679.3792 324,753.1992 C314.85,891.0522 253.873,961.1472 347,1063.1992 C385.512,1105.4012 420.503,1068.4552 472,1093.1992 C486.341,1100.0902 500.559,1109.4392 513.43,1119.1462 " fill="none" style="stroke: #808080; stroke-width: 1.0;"/><polygon fill="none" points="586.461,501.7452,607.272,505.7312,588.518,515.5932,586.461,501.7452" style="stroke: #808080; stroke-width: 1.0;"/><path d="M587.116,500.3492 C521.819,504.2942 422.56,521.7482 374,588.1992 C339.16,635.8752 356.662,706.4382 374.808,752.8612 " fill="none" style="stroke: #808080; stroke-width: 1.0;"/><polygon fill="none" points="587.147,493.3422,607.425,499.4882,587.74,507.3292,587.147,493.3422" style="stroke: #808080; stroke-width: 1.0;"/><path d="M683.524,538.8522 C696.419,553.7202 711.541,571.1552 726.081,587.9192 " fill="none" style="stroke: #808080; stroke-width: 1.0;"/><polygon fill="none" points="677.877,543.0252,670.061,523.3292,688.454,533.8522,677.877,543.0252" style="stroke: #808080; stroke-width: 1.0;"/><path d="M712.598,505.6912 C881.834,520.7942 1340.05,563.4672 1404,588.1992 C1428.72,597.7592 1453.47,614.3842 1472.04,628.6192 " fill="none" style="stroke: #808080; stroke-width: 1.0;"/><polygon fill="none" points="711.825,512.6502,692.523,503.9082,713.064,498.7052,711.825,512.6502" style="stroke: #808080; stroke-width: 1.0;"/><path d="M613.842,539.2932 C609.986,544.9922 606.548,551.0282 604,557.1992 C556.273,672.7602 557.001,823.9632 560.808,896.6062 " fill="none" style="stroke: #808080; stroke-width: 1.0;"/><polygon fill="none" points="608.384,534.9082,626.187,523.4172,619.436,543.5022,608.384,534.9082" style="stroke: #808080; stroke-width: 1.0;"/><path d="M712.955,504.9682 C770.808,511.2162 857.817,525.4072 927,557.1992 C956.154,570.5962 984.758,591.8712 1007.32,611.1342 " fill="none" style="stroke: #808080; stroke-width: 1.0;"/><polygon fill="none" points="711.897,511.8972,692.678,502.9742,713.267,497.9652,711.897,511.8972" style="stroke: #808080; stroke-width: 1.0;"/><path d="M596.876,534.7392 C586.735,541.8712 576.368,549.5492 567,557.1992 C539.439,579.7052 510.464,608.2532 490.652,628.6302 " fill="none" style="stroke: #808080; stroke-width: 1.0;"/><polygon fill="none" points="593.056,528.8702,613.515,523.3512,600.963,540.4242,593.056,528.8702" style="stroke: #808080; stroke-width: 1.0;"/><path d="M928.493,368.9492 C1028.34,409.5582 1235,496.8432 1401,588.1992 C1423.22,600.4302 1447.03,615.8062 1466.04,628.6922 " fill="none" style="stroke: #808080; stroke-width: 1.0;"/><polygon fill="none" points="925.623,375.3392,909.709,361.3482,930.874,362.3612,925.623,375.3392" style="stroke: #808080; stroke-width: 1.0;"/><path d="M893.037,385.6302 C927.695,443.9282 991.448,551.1642 1027.11,611.1522 " fill="none" style="stroke: #808080; stroke-width: 1.0;"/><polygon fill="none" points="886.883,388.9772,882.68,368.2092,898.917,381.8232,886.883,388.9772" style="stroke: #808080; stroke-width: 1.0;"/><path d="M808.685,361.7782 C748.295,380.6672 655.211,416.2322 590,471.1992 C536.641,516.1762 496.614,589.6152 477.836,628.5492 " fill="none" style="stroke: #808080; stroke-width: 1.0;"/><polygon fill="none" points="807.035,354.9652,828.204,355.8982,811.073,368.3702,807.035,354.9652" style="stroke: #808080; stroke-width: 1.0;"/><path d="M1116.17,1145.2482 C1136.29,1147.2262 1151,1154.5432 1151,1167.1992 C1151,1178.7678 1138.71,1185.8753 1121.23,1188.5218 " fill="none" style="stroke: #A80036; stroke-width: 1.0;"/><polygon fill="#A80036" points="1116.17,1189.1499,1125.5933,1192.0139,1121.1321,1188.5356,1124.6104,1184.0745,1116.17,1189.1499" style="stroke: #A80036; stroke-width: 1.0;"/><text fill="#000000" font-family="sans-serif" font-size="13" lengthAdjust="spacingAndGlyphs" textLength="40" x="1157" y="1172.2676">parent</text><text fill="#000000" font-family="sans-serif" font-size="13" lengthAdjust="spacingAndGlyphs" textLength="22" x="1124.1523" y="1140.491">0..*</text><text fill="#000000" font-family="sans-serif" font-size="13" lengthAdjust="spacingAndGlyphs" textLength="24" x="1123.9158" y="1187.8451">0..1</text><path d="M636.59,969.1792 C675.667,985.3512 724.103,1007.2162 765,1031.1992 C785.55,1043.2502 786.557,1052.8212 808,1063.1992 C854.386,1085.6482 873.163,1071.7072 920,1093.1992 C930.462,1098.0002 941.018,1103.7992 951.213,1110.0062 " fill="none" style="stroke: #A80036; stroke-width: 1.0;"/><polygon fill="#A80036" points="955.558,1112.6902,950.0021,1104.5581,951.3038,1110.0631,945.7987,1111.3648,955.558,1112.6902" style="stroke: #A80036; stroke-width: 1.0;"/><text fill="#000000" font-family="sans-serif" font-size="13" lengthAdjust="spacingAndGlyphs" textLength="82" x="809" y="1052.2676">provisions in</text><text fill="#000000" font-family="sans-serif" font-size="13" lengthAdjust="spacingAndGlyphs" textLength="22" x="644.5572" y="968.8161">0..*</text><text fill="#000000" font-family="sans-serif" font-size="13" lengthAdjust="spacingAndGlyphs" textLength="8" x="937.4205" y="1101.9621">1</text><path d="M1368.79,405.9642 C1402.58,468.5912 1454.21,564.2762 1482.57,616.8432 " fill="none" style="stroke: #A80036; stroke-width: 1.0;"/><polygon fill="none" points="1488.76,628.3062,1489.4318,621.1265,1483.0627,617.7449,1482.3909,624.9247,1488.76,628.3062" style="stroke: #A80036; stroke-width: 1.0;"/><polygon fill="#A80036" points="1362.46,394.2402,1363.2135,404.0602,1364.8343,398.6405,1370.254,400.2613,1362.46,394.2402" style="stroke: #A80036; stroke-width: 1.0;"/><line style="stroke: #A80036; stroke-width: 1.0;" x1="1364.8343" x2="1368.635" y1="398.6405" y2="405.6812"/><text fill="#000000" font-family="sans-serif" font-size="13" lengthAdjust="spacingAndGlyphs" textLength="31" x="1510.5" y="484.7676">child</text><polygon fill="#FBFB77" filter="url(#f1)" points="1438,493.5098,1438,518.5098,1610,518.5098,1610,503.5098,1600,493.5098,1438,493.5098" style="stroke: #A80036; stroke-width: 1.0;"/><line style="stroke: #A80036; stroke-width: 1.0;" x1="1600" x2="1600" y1="493.5098" y2="503.5098"/><line style="stroke: #A80036; stroke-width: 1.0;" x1="1610" x2="1600" y1="503.5098" y2="503.5098"/><text fill="#000000" font-family="sans-serif" font-size="13" lengthAdjust="spacingAndGlyphs" textLength="151" x="1444" y="511.0781">Acyclic graph of Stacks.</text><text fill="#000000" font-family="sans-serif" font-size="13" lengthAdjust="spacingAndGlyphs" textLength="8" x="1357.4781" y="414.5736">1</text><text fill="#000000" font-family="sans-serif" font-size="13" lengthAdjust="spacingAndGlyphs" textLength="22" x="1460.9233" y="617.8108">0..*</text><path d="M475.044,682.7702 C491.498,730.2002 526.549,831.2422 547.405,891.3612 " fill="none" style="stroke: #A80036; stroke-width: 1.0;"/><polygon fill="#A80036" points="549.129,896.3322,549.9589,886.5184,547.4906,891.6083,542.4007,889.1399,549.129,896.3322" style="stroke: #A80036; stroke-width: 1.0;"/><text fill="#000000" font-family="sans-serif" font-size="13" lengthAdjust="spacingAndGlyphs" textLength="16" x="534" y="806.2676">on</text><text fill="#000000" font-family="sans-serif" font-size="13" lengthAdjust="spacingAndGlyphs" textLength="22" x="452.5917" y="703.3383">0..*</text><text fill="#000000" font-family="sans-serif" font-size="13" lengthAdjust="spacingAndGlyphs" textLength="8" x="538.2394" y="886.0691">1</text><path d="M374.699,849.2692 C351.519,905.8602 324.569,1000.9722 371,1063.1992 C399.004,1100.7302 430.347,1071.8032 472,1093.1992 C484.359,1099.5472 496.711,1107.5972 508.206,1116.0172 " fill="none" style="stroke: #A80036; stroke-width: 1.0;"/><polygon fill="#A80036" points="512.401,1119.1332,507.5608,1110.5558,508.387,1116.152,502.7908,1116.9782,512.401,1119.1332" style="stroke: #A80036; stroke-width: 1.0;"/><text fill="#000000" font-family="sans-serif" font-size="13" lengthAdjust="spacingAndGlyphs" textLength="37" x="365" y="945.2676">where</text><text fill="#000000" font-family="sans-serif" font-size="13" lengthAdjust="spacingAndGlyphs" textLength="22" x="348.016" y="869.6866">0..*</text><text fill="#000000" font-family="sans-serif" font-size="13" lengthAdjust="spacingAndGlyphs" textLength="8" x="505.1161" y="1108.5763">1</text><path d="M947.067,1001.1992 C963.056,1034.2042 982.81,1074.9812 998.68,1107.7392 " fill="none" style="stroke: #A80036; stroke-width: 1.0;"/><polygon fill="#A80036" points="1000.992,1112.5132,1000.668,1102.6697,998.8121,1108.0134,993.4684,1106.1575,1000.992,1112.5132" style="stroke: #A80036; stroke-width: 1.0;"/><text fill="#000000" font-family="sans-serif" font-size="13" lengthAdjust="spacingAndGlyphs" textLength="41" x="984" y="1044.7676">will be</text><text fill="#000000" font-family="sans-serif" font-size="13" lengthAdjust="spacingAndGlyphs" textLength="55" x="977" y="1060.0781">added to</text><text fill="#000000" font-family="sans-serif" font-size="13" lengthAdjust="spacingAndGlyphs" textLength="22" x="927.0431" y="1021.2915">0..*</text><text fill="#000000" font-family="sans-serif" font-size="13" lengthAdjust="spacingAndGlyphs" textLength="8" x="989.1472" y="1102.1483">1</text><path d="M1032.2,700.2212 C1009.98,746.7192 974.517,820.9322 949.002,874.3252 " fill="none" style="stroke: #A80036; stroke-width: 1.0;"/><polygon fill="#A80036" points="946.719,879.1012,954.2084,872.7052,948.8747,874.5898,946.9901,869.2561,946.719,879.1012" style="stroke: #A80036; stroke-width: 1.0;"/><text fill="#000000" font-family="sans-serif" font-size="13" lengthAdjust="spacingAndGlyphs" textLength="50" x="1007" y="806.2676">updates</text><text fill="#000000" font-family="sans-serif" font-size="13" lengthAdjust="spacingAndGlyphs" textLength="22" x="1005.3306" y="720.7692">0..*</text><text fill="#000000" font-family="sans-serif" font-size="13" lengthAdjust="spacingAndGlyphs" textLength="8" x="941.7316" y="868.3445">1</text><path d="M1273,692.7652 C1273,745.2172 1273,842.3122 1273,897.6772 " fill="none" style="stroke: #A80036; stroke-width: 1.0;"/><polygon fill="#A80036" points="1273,902.9022,1277,893.9022,1273,897.9022,1269,893.9022,1273,902.9022" style="stroke: #A80036; stroke-width: 1.0;"/><text fill="#000000" font-family="sans-serif" font-size="13" lengthAdjust="spacingAndGlyphs" textLength="58" x="1274" y="798.7676">overrides</text><text fill="#000000" font-family="sans-serif" font-size="13" lengthAdjust="spacingAndGlyphs" textLength="12" x="1297" y="814.0781">in</text><text fill="#000000" font-family="sans-serif" font-size="13" lengthAdjust="spacingAndGlyphs" textLength="22" x="1249.0406" y="713.3076">0..*</text><text fill="#000000" font-family="sans-serif" font-size="13" lengthAdjust="spacingAndGlyphs" textLength="8" x="1264.2875" y="892.5268">1</text><path d="M1233.48,977.3492 C1194.64,1012.8722 1134.77,1067.6252 1089.49,1109.0462 " fill="none" style="stroke: #A80036; stroke-width: 1.0;"/><polygon fill="#A80036" points="1085.7,1112.5072,1095.0424,1109.3896,1089.3913,1109.1346,1089.6462,1103.4835,1085.7,1112.5072" style="stroke: #A80036; stroke-width: 1.0;"/><text fill="#000000" font-family="sans-serif" font-size="13" lengthAdjust="spacingAndGlyphs" textLength="41" x="1180" y="1044.7676">will be</text><text fill="#000000" font-family="sans-serif" font-size="13" lengthAdjust="spacingAndGlyphs" textLength="55" x="1173" y="1060.0781">added to</text><text fill="#000000" font-family="sans-serif" font-size="13" lengthAdjust="spacingAndGlyphs" textLength="22" x="1202.7969" y="997.6262">0..*</text><text fill="#000000" font-family="sans-serif" font-size="13" lengthAdjust="spacingAndGlyphs" textLength="8" x="1084.7084" y="1102.1415">1</text><path d="M501.426,983.7402 C477.509,1005.6282 458.44,1033.8422 470,1063.1992 C477.555,1082.3852 490.553,1100.1102 504.588,1115.2542 " fill="none" style="stroke: #A80036; stroke-width: 1.0;"/><polygon fill="#A80036" points="508.176,1119.0472,504.8981,1109.7598,504.7404,1115.4145,499.0858,1115.2568,508.176,1119.0472" style="stroke: #A80036; stroke-width: 1.0;"/><text fill="#000000" font-family="sans-serif" font-size="13" lengthAdjust="spacingAndGlyphs" textLength="74" x="471" y="1052.2676">connects to</text><text fill="#000000" font-family="sans-serif" font-size="13" lengthAdjust="spacingAndGlyphs" textLength="22" x="468.16" y="1004.1583">0..*</text><text fill="#000000" font-family="sans-serif" font-size="13" lengthAdjust="spacingAndGlyphs" textLength="22" x="476.0675" y="1108.4777">0..*</text><path d="M561.88,983.8182 C562.802,1009.3982 568.092,1041.1452 586,1063.1992 C608.371,1090.7492 628.02,1077.8132 660,1093.1992 C664.197,1095.2182 668.446,1097.3142 672.719,1099.4662 " fill="none" style="stroke: #A80036; stroke-width: 1.0;"/><polygon fill="#A80036" points="677.364,1101.8222,671.1458,1094.1845,672.9045,1099.561,667.528,1101.3197,677.364,1101.8222" style="stroke: #A80036; stroke-width: 1.0;"/><text fill="#000000" font-family="sans-serif" font-size="13" lengthAdjust="spacingAndGlyphs" textLength="173" x="587" y="1052.2676">allowed ComputeResources</text><text fill="#000000" font-family="sans-serif" font-size="13" lengthAdjust="spacingAndGlyphs" textLength="22" x="537.871" y="1004.2483">1..*</text><text fill="#000000" font-family="sans-serif" font-size="13" lengthAdjust="spacingAndGlyphs" textLength="22" x="647.4436" y="1094.7434">1..*</text><path d="M491.411,975.9692 C448.31,997.2422 400.754,1022.0722 394,1031.1992 C376.563,1054.7622 369.873,1086.7872 367.631,1113.7322 " fill="none" style="stroke: #A80036; stroke-width: 1.0;"/><polygon fill="#A80036" points="367.24,1119.0492,371.89,1110.3672,367.6071,1114.0627,363.9116,1109.7798,367.24,1119.0492" style="stroke: #A80036; stroke-width: 1.0;"/><text fill="#000000" font-family="sans-serif" font-size="13" lengthAdjust="spacingAndGlyphs" textLength="63" x="395" y="1052.2676">limited by</text><text fill="#000000" font-family="sans-serif" font-size="13" lengthAdjust="spacingAndGlyphs" textLength="22" x="461.4439" y="976.2533">0..*</text><text fill="#000000" font-family="sans-serif" font-size="13" lengthAdjust="spacingAndGlyphs" textLength="8" x="358.5409" y="1108.48">1</text><path d="M815.905,723.3662 C820.427,733.3112 824.921,743.4842 829,753.1992 C846.642,795.2132 845.365,808.0782 865,849.1992 C868.956,857.4832 873.419,866.0102 878.036,874.3602 " fill="none" style="stroke: #A80036; stroke-width: 1.0;"/><polygon fill="#A80036" points="880.614,878.9782,879.7211,869.1699,878.1774,874.6121,872.7353,873.0684,880.614,878.9782" style="stroke: #A80036; stroke-width: 1.0;"/><text fill="#000000" font-family="sans-serif" font-size="13" lengthAdjust="spacingAndGlyphs" textLength="42" x="866" y="806.2676">source</text><text fill="#000000" font-family="sans-serif" font-size="13" lengthAdjust="spacingAndGlyphs" textLength="22" x="795.9628" y="743.3646">0..*</text><text fill="#000000" font-family="sans-serif" font-size="13" lengthAdjust="spacingAndGlyphs" textLength="8" x="867.8287" y="868.6342">1</text><path d="M749.68,723.6262 C734.768,762.6612 725.289,811.4792 748,849.1992 C753.526,858.3772 796.228,880.9682 837.447,901.2192 " fill="none" style="stroke: #A80036; stroke-width: 1.0;"/><polygon fill="#A80036" points="841.944,903.4222,835.622,895.8702,837.454,901.2222,832.102,903.0542,841.944,903.4222" style="stroke: #A80036; stroke-width: 1.0;"/><text fill="#000000" font-family="sans-serif" font-size="13" lengthAdjust="spacingAndGlyphs" textLength="71" x="749" y="806.2676">destination</text><text fill="#000000" font-family="sans-serif" font-size="13" lengthAdjust="spacingAndGlyphs" textLength="24" x="721.2651" y="743.4135">0..1</text><text fill="#000000" font-family="sans-serif" font-size="13" lengthAdjust="spacingAndGlyphs" textLength="8" x="826.0635" y="896.6606">1</text></g></svg>