<?xml version="1.0" encoding="UTF-8" standalone="yes"?><svg xmlns="http://www.w3.org/2000/svg" xmlns:xlink="http://www.w3.org/1999/xlink" height="658pt" style="width:1247px;height:658px;" version="1.1" viewBox="0 0 1247 658" width="1247pt"><defs><filter height="300%" id="f1" width="300%" x="-1" y="-1"><feGaussianBlur result="blurOut" stdDeviation="2.0"/><feColorMatrix in="blurOut" result="blurOut2" type="matrix" values="0 0 0 0 0 0 0 0 0 0 0 0 0 0 0 0 0 0 .4 0"/><feOffset dx="4.0" dy="4.0" in="blurOut2" result="blurOut3"/><feBlend in="SourceGraphic" in2="blurOut3" mode="normal"/></filter></defs><g><text fill="#000000" font-family="Helvetica Neue" font-size="18" lengthAdjust="spacingAndGlyphs" textLength="216" x="520" y="17.64">Web server stack example</text><rect fill="#FEFECE" filter="url(#f1)" height="48.692" style="stroke: #A80036; stroke-width: 1.5;" width="74" x="567" y="29.474"/><text fill="#000000" font-family="Helvetica Neue" font-size="12" font-style="italic" lengthAdjust="spacingAndGlyphs" textLength="61" x="573.5" y="41.294">&lt;&lt; Stack&gt;&gt;</text><text fill="#000000" font-family="Helvetica Neue" font-size="12" lengthAdjust="spacingAndGlyphs" textLength="60" x="574" y="57.61">web_server</text><line style="stroke: #A80036; stroke-width: 1.5;" x1="568" x2="640" y1="62.166" y2="62.166"/><rect fill="#FEFECE" filter="url(#f1)" height="48.692" style="stroke: #A80036; stroke-width: 1.5;" width="149" x="214.5" y="600.474"/><text fill="#000000" font-family="Helvetica Neue" font-size="12" font-style="italic" lengthAdjust="spacingAndGlyphs" textLength="139" x="219.5" y="612.294">&lt;&lt; HostgroupResource&gt;&gt;</text><text fill="#000000" font-family="Helvetica Neue" font-size="12" lengthAdjust="spacingAndGlyphs" textLength="122" x="228" y="628.61">web_server_hostgroup</text><line style="stroke: #A80036; stroke-width: 1.5;" x1="215.5" x2="362.5" y1="633.166" y2="633.166"/><rect fill="#FEFECE" filter="url(#f1)" height="64.552" style="stroke: #A80036; stroke-width: 1.5;" width="145" x="307.5" y="155.474"/><text fill="#000000" font-family="Helvetica Neue" font-size="12" font-style="italic" lengthAdjust="spacingAndGlyphs" textLength="135" x="312.5" y="167.294">&lt;&lt; ParameterResource&gt;&gt;</text><text fill="#000000" font-family="Helvetica Neue" font-size="12" lengthAdjust="spacingAndGlyphs" textLength="72" x="344" y="183.61">db_password</text><line style="stroke: #A80036; stroke-width: 1.5;" x1="308.5" x2="451.5" y1="188.166" y2="188.166"/><text fill="#000000" font-family="Helvetica Neue" font-size="10" lengthAdjust="spacingAndGlyphs" textLength="106" x="313.5" y="201.966">name = "db_password"</text><text fill="#000000" font-family="Helvetica Neue" font-size="10" lengthAdjust="spacingAndGlyphs" textLength="106" x="313.5" y="213.896">name = "db_password"</text><rect fill="#FEFECE" filter="url(#f1)" height="52.622" style="stroke: #A80036; stroke-width: 1.5;" width="145" x="127.5" y="161.474"/><text fill="#000000" font-family="Helvetica Neue" font-size="12" font-style="italic" lengthAdjust="spacingAndGlyphs" textLength="135" x="132.5" y="173.294">&lt;&lt; ParameterResource&gt;&gt;</text><text fill="#000000" font-family="Helvetica Neue" font-size="12" lengthAdjust="spacingAndGlyphs" textLength="56" x="172" y="189.61">db_api_url</text><line style="stroke: #A80036; stroke-width: 1.5;" x1="128.5" x2="271.5" y1="194.166" y2="194.166"/><text fill="#000000" font-family="Helvetica Neue" font-size="10" lengthAdjust="spacingAndGlyphs" textLength="91" x="133.5" y="207.966">name = "db_api_url"</text><rect fill="#FEFECE" filter="url(#f1)" height="48.692" style="stroke: #A80036; stroke-width: 1.5;" width="160" x="439" y="474.474"/><text fill="#000000" font-family="Helvetica Neue" font-size="12" font-style="italic" lengthAdjust="spacingAndGlyphs" textLength="150" x="444" y="486.294">&lt;&lt; PuppetClassResource&gt;&gt;</text><text fill="#000000" font-family="Helvetica Neue" font-size="12" lengthAdjust="spacingAndGlyphs" textLength="36" x="501" y="502.61">sinatra</text><line style="stroke: #A80036; stroke-width: 1.5;" x1="440" x2="598" y1="507.166" y2="507.166"/><rect fill="#FEFECE" filter="url(#f1)" height="64.552" style="stroke: #A80036; stroke-width: 1.5;" width="117" x="899.5" y="314.974"/><text fill="#000000" font-family="Helvetica Neue" font-size="12" font-style="italic" lengthAdjust="spacingAndGlyphs" textLength="107" x="904.5" y="326.794">&lt;&lt; HostResource&gt;&gt;</text><text fill="#000000" font-family="Helvetica Neue" font-size="12" lengthAdjust="spacingAndGlyphs" textLength="93" x="911.5" y="343.11">sinatra_instances</text><line style="stroke: #A80036; stroke-width: 1.5;" x1="900.5" x2="1015.5" y1="347.666" y2="347.666"/><text fill="#000000" font-family="Helvetica Neue" font-size="10" lengthAdjust="spacingAndGlyphs" textLength="35" x="905.5" y="361.466">min = 1</text><text fill="#000000" font-family="Helvetica Neue" font-size="10" lengthAdjust="spacingAndGlyphs" textLength="94" x="905.5" y="373.396">max = nil # unlimited</text><rect fill="#FEFECE" filter="url(#f1)" height="48.692" style="stroke: #A80036; stroke-width: 1.5;" width="152" x="1086" y="163.474"/><text fill="#000000" font-family="Helvetica Neue" font-size="12" font-style="italic" lengthAdjust="spacingAndGlyphs" textLength="142" x="1091" y="175.294">&lt;&lt; PuppetRunResource&gt;&gt;</text><text fill="#000000" font-family="Helvetica Neue" font-size="12" lengthAdjust="spacingAndGlyphs" textLength="122" x="1101" y="191.61">web_server_puppetrun</text><line style="stroke: #A80036; stroke-width: 1.5;" x1="1087" x2="1237" y1="196.166" y2="196.166"/><rect fill="#FEFECE" filter="url(#f1)" height="100.342" style="stroke: #A80036; stroke-width: 1.5;" width="208" x="324" y="297.474"/><text fill="#000000" font-family="Helvetica Neue" font-size="12" font-style="italic" lengthAdjust="spacingAndGlyphs" textLength="180" x="338" y="309.294">&lt;&lt; ParameterOverrideResource&gt;&gt;</text><text fill="#000000" font-family="Helvetica Neue" font-size="12" lengthAdjust="spacingAndGlyphs" textLength="83" x="386.5" y="325.61">db_url_override</text><line style="stroke: #A80036; stroke-width: 1.5;" x1="325" x2="531" y1="330.166" y2="330.166"/><text fill="#000000" font-family="Helvetica Neue" font-size="10" lengthAdjust="spacingAndGlyphs" textLength="105" x="330" y="343.966">key = "$sinatra::db::url"</text><text fill="#000000" font-family="Helvetica Neue" font-size="10" lengthAdjust="spacingAndGlyphs" textLength="68" x="330" y="355.896">\# only pseudo</text><text fill="#000000" font-family="Helvetica Neue" font-size="10" lengthAdjust="spacingAndGlyphs" textLength="32" x="330" y="367.826">value =</text><text fill="#000000" font-family="Helvetica Neue" font-size="10" lengthAdjust="spacingAndGlyphs" textLength="151" x="330" y="379.756">"&lt;%= get_param('web_server', "+</text><text fill="#000000" font-family="Helvetica Neue" font-size="10" lengthAdjust="spacingAndGlyphs" textLength="196" x="330" y="391.686">"'web_server_hostgroup', 'db_api_url') %&gt;"</text><rect fill="#FEFECE" filter="url(#f1)" height="100.342" style="stroke: #A80036; stroke-width: 1.5;" width="223" x="567.5" y="297.474"/><text fill="#000000" font-family="Helvetica Neue" font-size="12" font-style="italic" lengthAdjust="spacingAndGlyphs" textLength="180" x="589" y="309.294">&lt;&lt; ParameterOverrideResource&gt;&gt;</text><text fill="#000000" font-family="Helvetica Neue" font-size="12" lengthAdjust="spacingAndGlyphs" textLength="121" x="618.5" y="325.61">db_password_override</text><line style="stroke: #A80036; stroke-width: 1.5;" x1="568.5" x2="789.5" y1="330.166" y2="330.166"/><text fill="#000000" font-family="Helvetica Neue" font-size="10" lengthAdjust="spacingAndGlyphs" textLength="138" x="573.5" y="343.966">key = "$sinatra::db::password"</text><text fill="#000000" font-family="Helvetica Neue" font-size="10" lengthAdjust="spacingAndGlyphs" textLength="68" x="573.5" y="355.896">\# only pseudo</text><text fill="#000000" font-family="Helvetica Neue" font-size="10" lengthAdjust="spacingAndGlyphs" textLength="32" x="573.5" y="367.826">value =</text><text fill="#000000" font-family="Helvetica Neue" font-size="10" lengthAdjust="spacingAndGlyphs" textLength="151" x="573.5" y="379.756">"&lt;%= get_param('web_server', "+</text><text fill="#000000" font-family="Helvetica Neue" font-size="10" lengthAdjust="spacingAndGlyphs" textLength="211" x="573.5" y="391.686">"'web_server_hostgroup', 'db_password') %&gt;"</text><path d="M566.592,55.199 C435.676,56.982 6,71.618 6,186.974 C6,186.974 6,186.974 6,499.974 C6,589.1628 125.379,614.805 209.067,621.8232 " fill="none" style="stroke: #A80036; stroke-width: 1.0;"/><polygon fill="#A80036" points="214.275,622.2399,205.6225,617.5352,209.2909,621.8413,204.9848,625.5097,214.275,622.2399" style="stroke: #A80036; stroke-width: 1.0;"/><text fill="#000000" font-family="Helvetica Neue" font-size="13" lengthAdjust="spacingAndGlyphs" textLength="91" x="7" y="352.714">is composed of</text><path d="M566.729,54.648 C522.168,56.313 448.092,65.913 404,108.474 C392.669,119.412 386.648,135.534 383.465,150.327 " fill="none" style="stroke: #A80036; stroke-width: 1.0;"/><polygon fill="#A80036" points="382.49,155.283,388.153,147.2251,383.4557,150.3772,380.3037,145.6799,382.49,155.283" style="stroke: #A80036; stroke-width: 1.0;"/><text fill="#000000" font-family="Helvetica Neue" font-size="13" lengthAdjust="spacingAndGlyphs" textLength="91" x="405" y="122.214">is composed of</text><path d="M566.561,55.084 C506.006,56.61 384.069,65.343 292,108.474 C267.076,120.15 243.555,140.451 226.534,157.483 " fill="none" style="stroke: #A80036; stroke-width: 1.0;"/><polygon fill="#A80036" points="222.786,161.286,231.9532,157.6855,226.2964,157.7256,226.2564,152.0688,222.786,161.286" style="stroke: #A80036; stroke-width: 1.0;"/><text fill="#000000" font-family="Helvetica Neue" font-size="13" lengthAdjust="spacingAndGlyphs" textLength="91" x="293" y="122.214">is composed of</text><path d="M641.234,73.255 C673.243,90.594 718.744,119.341 748,155.474 C817.732,241.595 872.195,307.151 808,397.474 C762.187,461.934 671.924,485.41 604.402,493.77 " fill="none" style="stroke: #A80036; stroke-width: 1.0;"/><polygon fill="#A80036" points="599.172,494.393,608.582,497.3002,604.1369,493.8015,607.6356,489.3564,599.172,494.393" style="stroke: #A80036; stroke-width: 1.0;"/><text fill="#000000" font-family="Helvetica Neue" font-size="13" lengthAdjust="spacingAndGlyphs" textLength="91" x="825" y="264.214">is composed of</text><path d="M641.113,58.414 C705.185,65.007 833.052,81.235 868,108.474 C930.949,157.538 949.873,255.892 955.56,309.525 " fill="none" style="stroke: #A80036; stroke-width: 1.0;"/><polygon fill="#A80036" points="956.07,314.573,959.1445,305.2163,955.5671,309.5984,951.1851,306.021,956.07,314.573" style="stroke: #A80036; stroke-width: 1.0;"/><text fill="#000000" font-family="Helvetica Neue" font-size="13" lengthAdjust="spacingAndGlyphs" textLength="91" x="938" y="193.214">is composed of</text><path d="M641.115,56.809 C709.93,60.95 861.462,73.554 984,108.474 C1029.39,121.407 1078.25,143.608 1113.28,161.107 " fill="none" style="stroke: #A80036; stroke-width: 1.0;"/><polygon fill="#A80036" points="1117.92,163.434,1111.6717,155.821,1113.4516,161.1905,1108.0821,162.9704,1117.92,163.434" style="stroke: #A80036; stroke-width: 1.0;"/><text fill="#000000" font-family="Helvetica Neue" font-size="13" lengthAdjust="spacingAndGlyphs" textLength="91" x="1030" y="122.214">is composed of</text><path d="M582.619,78.475 C566.051,97.843 543.683,126.711 530,155.474 C507.911,201.907 525.636,222.341 501,267.474 C496.156,276.348 490.096,285.003 483.55,293.133 " fill="none" style="stroke: #A80036; stroke-width: 1.0;"/><polygon fill="#A80036" points="480.301,297.08,489.1089,292.6732,483.4785,293.2195,482.9322,287.5891,480.301,297.08" style="stroke: #A80036; stroke-width: 1.0;"/><text fill="#000000" font-family="Helvetica Neue" font-size="13" lengthAdjust="spacingAndGlyphs" textLength="91" x="531" y="193.214">is composed of</text><path d="M610.138,78.829 C622.071,125.211 648.67,228.59 665.095,292.432 " fill="none" style="stroke: #A80036; stroke-width: 1.0;"/><polygon fill="#A80036" points="666.358,297.339,667.9898,287.6263,665.1124,292.4966,660.242,289.6192,666.358,297.339" style="stroke: #A80036; stroke-width: 1.0;"/><text fill="#000000" font-family="Helvetica Neue" font-size="13" lengthAdjust="spacingAndGlyphs" textLength="91" x="648" y="193.214">is composed of</text><path d="M475.197,523.589 C435.87,544.792 378.229,575.8679 337.518,597.8165 " fill="none" style="stroke: #A80036; stroke-width: 1.0;"/><polygon fill="#A80036" points="332.64,600.4466,342.4602,599.6964,337.0411,598.0738,338.6637,592.6546,332.64,600.4466" style="stroke: #A80036; stroke-width: 1.0;"/><text fill="#000000" font-family="Helvetica Neue" font-size="13" lengthAdjust="spacingAndGlyphs" textLength="95" x="419" y="567.214">will be added to</text><path d="M935.333,380.272 C919.154,400.993 895.763,427.277 870,444.474 C711.233,550.4507 486.904,596.2699 368.828,614.0427 " fill="none" style="stroke: #A80036; stroke-width: 1.0;"/><polygon fill="#A80036" points="363.633,614.8168,373.1244,617.4463,368.5784,614.0797,371.945,609.5337,363.633,614.8168" style="stroke: #A80036; stroke-width: 1.0;"/><text fill="#000000" font-family="Helvetica Neue" font-size="13" lengthAdjust="spacingAndGlyphs" textLength="74" x="816" y="504.214">provisions in</text><path d="M1131.46,212.553 C1097.46,238.8 1042.18,281.479 1003.181,311.591 " fill="none" style="stroke: #A80036; stroke-width: 1.0;"/><polygon fill="#A80036" points="998.984,314.832,1008.5521,312.4973,1002.9414,311.7761,1003.6626,306.1654,998.984,314.832" style="stroke: #A80036; stroke-width: 1.0;"/><text fill="#000000" font-family="Helvetica Neue" font-size="13" lengthAdjust="spacingAndGlyphs" textLength="14" x="1079" y="264.214">on</text><path d="M186.19,214.59 C162.903,261.294 120.98,362.989 149,444.474 C170.513,507.037 223.754,564.5324 258.03,596.8361 " fill="none" style="stroke: #A80036; stroke-width: 1.0;"/><polygon fill="#A80036" points="261.699,600.266,257.8578,591.1971,258.0471,596.8508,252.3934,597.0401,261.699,600.266" style="stroke: #A80036; stroke-width: 1.0;"/><text fill="#000000" font-family="Helvetica Neue" font-size="13" lengthAdjust="spacingAndGlyphs" textLength="95" x="150" y="441.214">will be added to</text><path d="M351.504,220.609 C334.992,241 315.619,268.955 306,297.474 C270.607,402.413 279.289,537.049 285.421,595.1585 " fill="none" style="stroke: #A80036; stroke-width: 1.0;"/><polygon fill="#A80036" points="285.968,600.2079,288.9751,590.8293,285.4293,595.237,281.0217,591.6912,285.968,600.2079" style="stroke: #A80036; stroke-width: 1.0;"/><text fill="#000000" font-family="Helvetica Neue" font-size="13" lengthAdjust="spacingAndGlyphs" textLength="95" x="283" y="441.214">will be added to</text><path d="M458.049,397.84 C472.584,421.72 489.507,449.521 501.827,469.762 " fill="none" style="stroke: #A80036; stroke-width: 1.0;"/><polygon fill="#A80036" points="504.541,474.219,503.2807,464.4511,501.9423,469.9474,496.4461,468.609,504.541,474.219" style="stroke: #A80036; stroke-width: 1.0;"/><text fill="#000000" font-family="Helvetica Neue" font-size="13" lengthAdjust="spacingAndGlyphs" textLength="68" x="486" y="441.214">overrides in</text><path d="M626.167,397.84 C600.181,422.121 569.855,450.456 548.108,470.776 " fill="none" style="stroke: #A80036; stroke-width: 1.0;"/><polygon fill="#A80036" points="544.423,474.219,553.7307,470.9994,548.0772,470.8062,548.2703,465.1527,544.423,474.219" style="stroke: #A80036; stroke-width: 1.0;"/><text fill="#000000" font-family="Helvetica Neue" font-size="13" lengthAdjust="spacingAndGlyphs" textLength="68" x="596" y="441.214">overrides in</text><path d="M241.387,217.564 C273.528,239.767 318.861,271.082 356.797,297.288 " fill="none" style="stroke: #A80036; stroke-width: 1.0; stroke-dasharray: 7.0,7.0;"/><polygon fill="#A80036" points="237.14,214.63,242.2711,223.0367,241.2537,217.472,246.8184,216.4547,237.14,214.63" style="stroke: #A80036; stroke-width: 1.0;"/><text fill="#000000" font-family="Helvetica Neue" font-size="13" lengthAdjust="spacingAndGlyphs" textLength="28" x="309" y="264.214">uses</text><path d="M444.607,223.006 C485.889,244.752 540.087,273.301 585.967,297.468 " fill="none" style="stroke: #A80036; stroke-width: 1.0; stroke-dasharray: 7.0,7.0;"/><polygon fill="#A80036" points="440.147,220.657,446.2463,228.3899,444.571,222.9868,449.9741,221.3115,440.147,220.657" style="stroke: #A80036; stroke-width: 1.0;"/><text fill="#000000" font-family="Helvetica Neue" font-size="13" lengthAdjust="spacingAndGlyphs" textLength="28" x="522" y="264.214">uses</text></g></svg>