<?xml version="1.0" encoding="UTF-8" standalone="yes"?><svg xmlns="http://www.w3.org/2000/svg" xmlns:xlink="http://www.w3.org/1999/xlink" height="937pt" style="width:1431px;height:937px;" version="1.1" viewBox="0 0 1431 937" width="1431pt"><defs><filter height="300%" id="f1" width="300%" x="-1" y="-1"><feGaussianBlur result="blurOut" stdDeviation="2.0"/><feColorMatrix in="blurOut" result="blurOut2" type="matrix" values="0 0 0 0 0 0 0 0 0 0 0 0 0 0 0 0 0 0 .4 0"/><feOffset dx="4.0" dy="4.0" in="blurOut2" result="blurOut3"/><feBlend in="SourceGraphic" in2="blurOut3" mode="normal"/></filter></defs><g><text fill="#000000" font-family="Helvetica Neue" font-size="18" lengthAdjust="spacingAndGlyphs" textLength="256" x="597" y="17.64">Web application stack example</text><rect fill="#FFFFFF" filter="url(#f1)" height="268" style="stroke: #000000; stroke-width: 2.0;" width="564" x="14" y="549.474"/><text fill="#000000" font-family="Helvetica Neue" font-size="14" font-weight="bold" lengthAdjust="spacingAndGlyphs" textLength="20" x="286" y="568.53">DB</text><rect fill="#FFFFFF" filter="url(#f1)" height="250.5" style="stroke: #000000; stroke-width: 2.0;" width="486" x="938" y="549.474"/><text fill="#000000" font-family="Helvetica Neue" font-size="14" font-weight="bold" lengthAdjust="spacingAndGlyphs" textLength="72" x="1145" y="568.53">WebServer</text><rect fill="#FFFFFF" filter="url(#f1)" height="117" style="stroke: #000000; stroke-width: 2.0;" width="109" x="927" y="385.474"/><text fill="#000000" font-family="Helvetica Neue" font-size="14" font-weight="bold" lengthAdjust="spacingAndGlyphs" textLength="93" x="935" y="404.53">LoadBalancer</text><rect fill="#FEFECE" filter="url(#f1)" height="48.692" style="stroke: #A80036; stroke-width: 1.5;" width="71" x="224.5" y="593.474"/><text fill="#000000" font-family="Helvetica Neue" font-size="12" font-style="italic" lengthAdjust="spacingAndGlyphs" textLength="61" x="229.5" y="605.294">&lt;&lt; Stack&gt;&gt;</text><text fill="#000000" font-family="Helvetica Neue" font-size="12" lengthAdjust="spacingAndGlyphs" textLength="14" x="253" y="621.61">db</text><line style="stroke: #A80036; stroke-width: 1.5;" x1="225.5" x2="294.5" y1="626.166" y2="626.166"/><rect fill="#FEFECE" filter="url(#f1)" height="48.692" style="stroke: #A80036; stroke-width: 1.5;" width="149" x="182.5" y="740.974"/><text fill="#000000" font-family="Helvetica Neue" font-size="12" font-style="italic" lengthAdjust="spacingAndGlyphs" textLength="139" x="187.5" y="752.794">&lt;&lt; HostgroupResource&gt;&gt;</text><text fill="#000000" font-family="Helvetica Neue" font-size="12" lengthAdjust="spacingAndGlyphs" textLength="76" x="219" y="769.11">db_hostgroup</text><line style="stroke: #A80036; stroke-width: 1.5;" x1="183.5" x2="330.5" y1="773.666" y2="773.666"/><rect fill="#FEFECE" filter="url(#f1)" height="88.412" style="stroke: #A80036; stroke-width: 1.5;" width="203" x="366.5" y="721.474"/><text fill="#000000" font-family="Helvetica Neue" font-size="12" font-style="italic" lengthAdjust="spacingAndGlyphs" textLength="115" x="410.5" y="733.294">&lt;&lt; ParamResource&gt;&gt;</text><text fill="#000000" font-family="Helvetica Neue" font-size="12" lengthAdjust="spacingAndGlyphs" textLength="56" x="440" y="749.61">db_api_url</text><line style="stroke: #A80036; stroke-width: 1.5;" x1="367.5" x2="568.5" y1="754.166" y2="754.166"/><text fill="#000000" font-family="Helvetica Neue" font-size="10" lengthAdjust="spacingAndGlyphs" textLength="91" x="372.5" y="767.966">name = "db_api_url"</text><text fill="#000000" font-family="Helvetica Neue" font-size="10" lengthAdjust="spacingAndGlyphs" textLength="71" x="372.5" y="779.896">\# pseudo code</text><text fill="#000000" font-family="Helvetica Neue" font-size="10" lengthAdjust="spacingAndGlyphs" textLength="191" x="372.5" y="791.826">\# computes the url for other stacks to use</text><text fill="#000000" font-family="Helvetica Neue" font-size="10" lengthAdjust="spacingAndGlyphs" textLength="184" x="372.5" y="803.756">default_value = "&lt;%= compute_url() %&gt;"</text><rect fill="#FEFECE" filter="url(#f1)" height="52.622" style="stroke: #A80036; stroke-width: 1.5;" width="125" x="22.5" y="738.974"/><text fill="#000000" font-family="Helvetica Neue" font-size="12" font-style="italic" lengthAdjust="spacingAndGlyphs" textLength="115" x="27.5" y="750.794">&lt;&lt; ParamResource&gt;&gt;</text><text fill="#000000" font-family="Helvetica Neue" font-size="12" lengthAdjust="spacingAndGlyphs" textLength="72" x="49" y="767.11">db_password</text><line style="stroke: #A80036; stroke-width: 1.5;" x1="23.5" x2="146.5" y1="771.666" y2="771.666"/><text fill="#000000" font-family="Helvetica Neue" font-size="10" lengthAdjust="spacingAndGlyphs" textLength="106" x="28.5" y="785.466">name = "db_password"</text><rect fill="#FEFECE" filter="url(#f1)" height="48.692" style="stroke: #A80036; stroke-width: 1.5;" width="74" x="1112" y="593.474"/><text fill="#000000" font-family="Helvetica Neue" font-size="12" font-style="italic" lengthAdjust="spacingAndGlyphs" textLength="61" x="1118.5" y="605.294">&lt;&lt; Stack&gt;&gt;</text><text fill="#000000" font-family="Helvetica Neue" font-size="12" lengthAdjust="spacingAndGlyphs" textLength="60" x="1119" y="621.61">web_server</text><line style="stroke: #A80036; stroke-width: 1.5;" x1="1113" x2="1185" y1="626.166" y2="626.166"/><rect fill="#FEFECE" filter="url(#f1)" height="48.692" style="stroke: #A80036; stroke-width: 1.5;" width="149" x="946.5" y="740.974"/><text fill="#000000" font-family="Helvetica Neue" font-size="12" font-style="italic" lengthAdjust="spacingAndGlyphs" textLength="139" x="951.5" y="752.794">&lt;&lt; HostgroupResource&gt;&gt;</text><text fill="#000000" font-family="Helvetica Neue" font-size="12" lengthAdjust="spacingAndGlyphs" textLength="122" x="960" y="769.11">web_server_hostgroup</text><line style="stroke: #A80036; stroke-width: 1.5;" x1="947.5" x2="1094.5" y1="773.666" y2="773.666"/><rect fill="#FEFECE" filter="url(#f1)" height="52.622" style="stroke: #A80036; stroke-width: 1.5;" width="125" x="1130.5" y="738.974"/><text fill="#000000" font-family="Helvetica Neue" font-size="12" font-style="italic" lengthAdjust="spacingAndGlyphs" textLength="115" x="1135.5" y="750.794">&lt;&lt; ParamResource&gt;&gt;</text><text fill="#000000" font-family="Helvetica Neue" font-size="12" lengthAdjust="spacingAndGlyphs" textLength="72" x="1157" y="767.11">db_password</text><line style="stroke: #A80036; stroke-width: 1.5;" x1="1131.5" x2="1254.5" y1="771.666" y2="771.666"/><text fill="#000000" font-family="Helvetica Neue" font-size="10" lengthAdjust="spacingAndGlyphs" textLength="106" x="1136.5" y="785.466">name = "db_password"</text><rect fill="#FEFECE" filter="url(#f1)" height="52.622" style="stroke: #A80036; stroke-width: 1.5;" width="125" x="1290.5" y="738.974"/><text fill="#000000" font-family="Helvetica Neue" font-size="12" font-style="italic" lengthAdjust="spacingAndGlyphs" textLength="115" x="1295.5" y="750.794">&lt;&lt; ParamResource&gt;&gt;</text><text fill="#000000" font-family="Helvetica Neue" font-size="12" lengthAdjust="spacingAndGlyphs" textLength="56" x="1325" y="767.11">db_api_url</text><line style="stroke: #A80036; stroke-width: 1.5;" x1="1291.5" x2="1414.5" y1="771.666" y2="771.666"/><text fill="#000000" font-family="Helvetica Neue" font-size="10" lengthAdjust="spacingAndGlyphs" textLength="91" x="1296.5" y="785.466">name = "db_api_url"</text><rect fill="#FEFECE" filter="url(#f1)" height="64.552" style="stroke: #A80036; stroke-width: 1.5;" width="92" x="936" y="429.474"/><text fill="#000000" font-family="Helvetica Neue" font-size="12" font-style="italic" lengthAdjust="spacingAndGlyphs" textLength="61" x="951.5" y="441.294">&lt;&lt; Stack&gt;&gt;</text><text fill="#000000" font-family="Helvetica Neue" font-size="12" lengthAdjust="spacingAndGlyphs" textLength="74" x="945" y="457.61">load_balancer</text><line style="stroke: #A80036; stroke-width: 1.5;" x1="937" x2="1027" y1="462.166" y2="462.166"/><line style="stroke: #A80036; stroke-width: 1.0; stroke-dasharray: 1.0,2.0;" x1="942" x2="942" y1="472.131" y2="472.131"/><text fill="#000000" font-family="Helvetica Neue" font-size="10" lengthAdjust="spacingAndGlyphs" textLength="25" x="945" y="475.466">notes</text><line style="stroke: #A80036; stroke-width: 1.0; stroke-dasharray: 1.0,2.0;" x1="973" x2="973" y1="472.131" y2="472.131"/><text fill="#000000" font-family="Helvetica Neue" font-size="10" lengthAdjust="spacingAndGlyphs" textLength="80" x="942" y="487.896">resources omitted</text><rect fill="#FEFECE" filter="url(#f1)" height="48.692" style="stroke: #A80036; stroke-width: 1.5;" width="71" x="635.5" y="29.474"/><text fill="#000000" font-family="Helvetica Neue" font-size="12" font-style="italic" lengthAdjust="spacingAndGlyphs" textLength="61" x="640.5" y="41.294">&lt;&lt; Stack&gt;&gt;</text><text fill="#000000" font-family="Helvetica Neue" font-size="12" lengthAdjust="spacingAndGlyphs" textLength="48" x="647" y="57.61">web_app</text><line style="stroke: #A80036; stroke-width: 1.5;" x1="636.5" x2="705.5" y1="62.166" y2="62.166"/><rect fill="#FEFECE" filter="url(#f1)" height="52.622" style="stroke: #A80036; stroke-width: 1.5;" width="149" x="586.5" y="591.474"/><text fill="#000000" font-family="Helvetica Neue" font-size="12" font-style="italic" lengthAdjust="spacingAndGlyphs" textLength="139" x="591.5" y="603.294">&lt;&lt; HostgroupResource&gt;&gt;</text><text fill="#000000" font-family="Helvetica Neue" font-size="12" lengthAdjust="spacingAndGlyphs" textLength="98" x="612" y="619.61">master_hostgroup</text><line style="stroke: #A80036; stroke-width: 1.5;" x1="587.5" x2="734.5" y1="624.166" y2="624.166"/><text fill="#000000" font-family="Helvetica Neue" font-size="10" lengthAdjust="spacingAndGlyphs" textLength="127" x="592.5" y="637.966">name = "master_hostgroup"</text><rect fill="#FEFECE" filter="url(#f1)" height="64.552" style="stroke: #A80036; stroke-width: 1.5;" width="137" x="572.5" y="429.474"/><text fill="#000000" font-family="Helvetica Neue" font-size="12" font-style="italic" lengthAdjust="spacingAndGlyphs" textLength="115" x="583.5" y="441.294">&lt;&lt; ParamResource&gt;&gt;</text><text fill="#000000" font-family="Helvetica Neue" font-size="12" lengthAdjust="spacingAndGlyphs" textLength="94" x="594" y="457.61">master_password</text><line style="stroke: #A80036; stroke-width: 1.5;" x1="573.5" x2="708.5" y1="462.166" y2="462.166"/><text fill="#000000" font-family="Helvetica Neue" font-size="10" lengthAdjust="spacingAndGlyphs" textLength="124" x="578.5" y="475.966">name = "master_password"</text><text fill="#000000" font-family="Helvetica Neue" font-size="10" lengthAdjust="spacingAndGlyphs" textLength="125" x="578.5" y="487.896">default_value = "changeme"</text><rect fill="#FEFECE" filter="url(#f1)" height="48.692" style="stroke: #A80036; stroke-width: 1.5;" width="150" x="139" y="281.474"/><text fill="#000000" font-family="Helvetica Neue" font-size="12" font-style="italic" lengthAdjust="spacingAndGlyphs" textLength="140" x="144" y="293.294">&lt;&lt; ChildStackResource&gt;&gt;</text><text fill="#000000" font-family="Helvetica Neue" font-size="12" lengthAdjust="spacingAndGlyphs" textLength="46" x="191" y="309.61">db_child</text><line style="stroke: #A80036; stroke-width: 1.5;" x1="140" x2="288" y1="314.166" y2="314.166"/><rect fill="#FEFECE" filter="url(#f1)" height="48.692" style="stroke: #A80036; stroke-width: 1.5;" width="150" x="907" y="281.474"/><text fill="#000000" font-family="Helvetica Neue" font-size="12" font-style="italic" lengthAdjust="spacingAndGlyphs" textLength="140" x="912" y="293.294">&lt;&lt; ChildStackResource&gt;&gt;</text><text fill="#000000" font-family="Helvetica Neue" font-size="12" lengthAdjust="spacingAndGlyphs" textLength="106" x="929" y="309.61">load_balancer_child</text><line style="stroke: #A80036; stroke-width: 1.5;" x1="908" x2="1056" y1="314.166" y2="314.166"/><rect fill="#FEFECE" filter="url(#f1)" height="48.692" style="stroke: #A80036; stroke-width: 1.5;" width="150" x="1068" y="155.474"/><text fill="#000000" font-family="Helvetica Neue" font-size="12" font-style="italic" lengthAdjust="spacingAndGlyphs" textLength="140" x="1073" y="167.294">&lt;&lt; ChildStackResource&gt;&gt;</text><text fill="#000000" font-family="Helvetica Neue" font-size="12" lengthAdjust="spacingAndGlyphs" textLength="92" x="1097" y="183.61">web_server_child</text><line style="stroke: #A80036; stroke-width: 1.5;" x1="1069" x2="1217" y1="188.166" y2="188.166"/><rect fill="#FEFECE" filter="url(#f1)" height="48.692" style="stroke: #A80036; stroke-width: 1.5;" width="187" x="259.5" y="155.474"/><text fill="#000000" font-family="Helvetica Neue" font-size="12" font-style="italic" lengthAdjust="spacingAndGlyphs" textLength="161" x="272.5" y="167.294">&lt;&lt; ConnectParamResource&gt;&gt;</text><text fill="#000000" font-family="Helvetica Neue" font-size="12" lengthAdjust="spacingAndGlyphs" textLength="173" x="266.5" y="183.61">master_password2db_password</text><line style="stroke: #A80036; stroke-width: 1.5;" x1="260.5" x2="445.5" y1="188.166" y2="188.166"/><rect fill="#FEFECE" filter="url(#f1)" height="48.692" style="stroke: #A80036; stroke-width: 1.5;" width="194" x="672" y="155.474"/><text fill="#000000" font-family="Helvetica Neue" font-size="12" font-style="italic" lengthAdjust="spacingAndGlyphs" textLength="161" x="688.5" y="167.294">&lt;&lt; ConnectParamResource&gt;&gt;</text><text fill="#000000" font-family="Helvetica Neue" font-size="12" lengthAdjust="spacingAndGlyphs" textLength="180" x="679" y="183.61">master_password2db_password2</text><line style="stroke: #A80036; stroke-width: 1.5;" x1="673" x2="865" y1="188.166" y2="188.166"/><rect fill="#FEFECE" filter="url(#f1)" height="48.692" style="stroke: #A80036; stroke-width: 1.5;" width="171" x="1196.5" y="437.474"/><text fill="#000000" font-family="Helvetica Neue" font-size="12" font-style="italic" lengthAdjust="spacingAndGlyphs" textLength="161" x="1201.5" y="449.294">&lt;&lt; ConnectParamResource&gt;&gt;</text><text fill="#000000" font-family="Helvetica Neue" font-size="12" lengthAdjust="spacingAndGlyphs" textLength="126" x="1219" y="465.61">db_api_url2db_api_url2</text><line style="stroke: #A80036; stroke-width: 1.5;" x1="1197.5" x2="1366.5" y1="470.166" y2="470.166"/><path d="M259.511,642.675 C258.988,668.041 258.158,708.297 257.597,735.5206 " fill="none" style="stroke: #A80036; stroke-width: 1.0;"/><polygon fill="#A80036" points="257.488,740.7832,261.6728,731.8676,257.5912,735.7843,253.6745,731.7026,257.488,740.7832" style="stroke: #A80036; stroke-width: 1.0;"/><text fill="#000000" font-family="Helvetica Neue" font-size="13" lengthAdjust="spacingAndGlyphs" textLength="94" x="260" y="688.214">is composed_of</text><path d="M224.147,633.332 C202.704,642.988 175.694,657.114 155,674.474 C134.556,691.624 116.233,715.668 103.4658,734.59 " fill="none" style="stroke: #A80036; stroke-width: 1.0;"/><polygon fill="#A80036" points="100.6659,738.7902,108.9863,733.5204,103.4393,734.6299,102.3298,729.0829,100.6659,738.7902" style="stroke: #A80036; stroke-width: 1.0;"/><text fill="#000000" font-family="Helvetica Neue" font-size="13" lengthAdjust="spacingAndGlyphs" textLength="94" x="156" y="688.214">is composed_of</text><path d="M295.9,635.93 C316.214,646.104 341.73,659.877 363,674.474 C381.956,687.483 401.423,703.352 418.365,718.122 " fill="none" style="stroke: #A80036; stroke-width: 1.0;"/><polygon fill="#A80036" points="422.164,721.452,418.0325,712.5116,418.4039,718.1562,412.7593,718.5277,422.164,721.452" style="stroke: #A80036; stroke-width: 1.0;"/><text fill="#000000" font-family="Helvetica Neue" font-size="13" lengthAdjust="spacingAndGlyphs" textLength="94" x="386" y="688.214">is composed_of</text><path d="M1111.69,630.675 C1089.59,639.419 1062.73,653.52 1046,674.474 C1032.13,691.85 1025.94,716.43 1023.19,735.5127 " fill="none" style="stroke: #A80036; stroke-width: 1.0;"/><polygon fill="#A80036" points="1022.5,740.7387,1027.6419,732.3386,1023.1534,735.7816,1019.7105,731.2931,1022.5,740.7387" style="stroke: #A80036; stroke-width: 1.0;"/><text fill="#000000" font-family="Helvetica Neue" font-size="13" lengthAdjust="spacingAndGlyphs" textLength="91" x="1047" y="688.214">is composed of</text><path d="M1145.84,642.587 C1144.69,656.976 1144.58,675.588 1149,691.474 C1153.24,706.717 1161.61,721.96 1169.93,734.545 " fill="none" style="stroke: #A80036; stroke-width: 1.0;"/><polygon fill="#A80036" points="1172.74,738.7072,1171.0167,729.0103,1169.9412,734.5639,1164.3875,733.4884,1172.74,738.7072" style="stroke: #A80036; stroke-width: 1.0;"/><text fill="#000000" font-family="Helvetica Neue" font-size="13" lengthAdjust="spacingAndGlyphs" textLength="91" x="1150" y="688.214">is composed of</text><path d="M1186.34,638.29 C1204.78,648.335 1227.07,661.257 1246,674.474 C1272.79,693.181 1301,717.101 1321.72,735.5787 " fill="none" style="stroke: #A80036; stroke-width: 1.0;"/><polygon fill="#A80036" points="1325.5,738.963,1321.4732,729.975,1321.7787,735.6236,1316.1301,735.9291,1325.5,738.963" style="stroke: #A80036; stroke-width: 1.0;"/><text fill="#000000" font-family="Helvetica Neue" font-size="13" lengthAdjust="spacingAndGlyphs" textLength="91" x="1269" y="688.214">is composed of</text><path d="M635.271,56.069 C527.244,60.212 207.684,78.848 146,155.474 C115.932,192.825 154.709,245.615 184.859,277.443 " fill="none" style="stroke: #A80036; stroke-width: 1.0;"/><polygon fill="#A80036" points="188.487,281.219,185.1323,271.9591,185.0214,277.6149,179.3657,277.504,188.487,281.219" style="stroke: #A80036; stroke-width: 1.0;"/><text fill="#000000" font-family="Helvetica Neue" font-size="13" lengthAdjust="spacingAndGlyphs" textLength="94" x="147" y="185.214">is composed_of</text><path d="M217.495,330.529 C225.799,386.488 246.689,527.269 255.725,588.164 " fill="none" style="stroke: #A80036; stroke-width: 1.0;"/><polygon fill="#A80036" points="256.51,593.455,259.1449,583.9651,255.7757,588.5092,251.2316,585.14,256.51,593.455" style="stroke: #A80036; stroke-width: 1.0;"/><text fill="#000000" font-family="Helvetica Neue" font-size="13" lengthAdjust="spacingAndGlyphs" textLength="28" x="244" y="467.214">child</text><path d="M706.644,63.191 C739.324,71.635 788.362,86.642 827,108.474 C896.714,147.864 946.38,232.37 968.736,276.626 " fill="none" style="stroke: #A80036; stroke-width: 1.0;"/><polygon fill="#A80036" points="971.071,281.299,970.6276,271.4601,968.8366,276.826,963.4708,275.0351,971.071,281.299" style="stroke: #A80036; stroke-width: 1.0;"/><text fill="#000000" font-family="Helvetica Neue" font-size="13" lengthAdjust="spacingAndGlyphs" textLength="94" x="927" y="185.214">is composed_of</text><path d="M982,330.699 C982,355.56 982,394.954 982,423.919 " fill="none" style="stroke: #A80036; stroke-width: 1.0;"/><polygon fill="#A80036" points="982,429.2,986,420.2,982,424.2,978,420.2,982,429.2" style="stroke: #A80036; stroke-width: 1.0;"/><text fill="#000000" font-family="Helvetica Neue" font-size="13" lengthAdjust="spacingAndGlyphs" textLength="28" x="983" y="374.214">child</text><path d="M706.561,59.246 C762.053,66.412 872.287,82.658 963,108.474 C1005.169,120.475 1051.17,138.586 1086.12,153.446 " fill="none" style="stroke: #A80036; stroke-width: 1.0;"/><polygon fill="#A80036" points="1090.75,155.427,1084.036,148.2213,1086.1496,153.4685,1080.9024,155.582,1090.75,155.427" style="stroke: #A80036; stroke-width: 1.0;"/><text fill="#000000" font-family="Helvetica Neue" font-size="13" lengthAdjust="spacingAndGlyphs" textLength="94" x="1015" y="122.214">is composed_of</text><path d="M1143.33,204.725 C1144.35,279.147 1147.5,507.649 1148.61,588.368 " fill="none" style="stroke: #A80036; stroke-width: 1.0;"/><polygon fill="#A80036" points="1148.68,593.468,1152.5562,584.414,1148.6114,588.4685,1144.557,584.5237,1148.68,593.468" style="stroke: #A80036; stroke-width: 1.0;"/><text fill="#000000" font-family="Helvetica Neue" font-size="13" lengthAdjust="spacingAndGlyphs" textLength="28" x="1147" y="374.214">child</text><path d="M1092.09,204.528 C1076.28,212.929 1059.28,223.15 1045,234.474 C1029.5,246.769 1014.63,263.115 1003.233,276.971 " fill="none" style="stroke: #A80036; stroke-width: 1.0;"/><polygon fill="#A80036" points="999.81,281.184,1008.5892,276.7202,1002.9625,277.303,1002.3797,271.6763,999.81,281.184" style="stroke: #A80036; stroke-width: 1.0;"/><text fill="#000000" font-family="Helvetica Neue" font-size="13" lengthAdjust="spacingAndGlyphs" textLength="70" x="1046" y="248.214">depends on</text><path d="M1067.94,198.981 C1058.89,200.942 1049.75,202.822 1041,204.474 C900.611,230.977 865.003,235.768 723,251.474 C542.72,271.414 495.343,254.367 316,281.474 C308.919,282.544 301.602,283.842 294.288,285.271 " fill="none" style="stroke: #A80036; stroke-width: 1.0;"/><polygon fill="#A80036" points="289.228,286.281,298.8367,288.4426,294.1313,285.3026,297.2713,280.5972,289.228,286.281" style="stroke: #A80036; stroke-width: 1.0;"/><text fill="#000000" font-family="Helvetica Neue" font-size="13" lengthAdjust="spacingAndGlyphs" textLength="70" x="863" y="248.214">depends on</text><path d="M664.54,78.545 C655.566,112.63 639.779,177.813 634,234.474 C627.197,301.179 632.554,379.456 636.896,424.332 " fill="none" style="stroke: #A80036; stroke-width: 1.0;"/><polygon fill="#A80036" points="637.393,429.369,640.489,420.0194,636.9016,424.3932,632.5278,420.8057,637.393,429.369" style="stroke: #A80036; stroke-width: 1.0;"/><text fill="#000000" font-family="Helvetica Neue" font-size="13" lengthAdjust="spacingAndGlyphs" textLength="94" x="635" y="248.214">is composed_of</text><path d="M649.472,78.477 C615.561,117.276 551.084,198.702 527,281.474 C509.54,341.482 533.737,458.915 555,502.474 C571.468,536.211 601.171,566.976 624.953,588.1 " fill="none" style="stroke: #A80036; stroke-width: 1.0;"/><polygon fill="#A80036" points="628.716,591.407,624.5953,582.4616,624.9599,588.1067,619.3148,588.4713,628.716,591.407" style="stroke: #A80036; stroke-width: 1.0;"/><text fill="#000000" font-family="Helvetica Neue" font-size="13" lengthAdjust="spacingAndGlyphs" textLength="94" x="528" y="311.214">is composed_of</text><path d="M645.096,494.51 C648.567,521.239 653.517,559.356 656.97,585.941 " fill="none" style="stroke: #A80036; stroke-width: 1.0;"/><polygon fill="#A80036" points="657.639,591.097,660.446,581.6566,656.9947,586.1387,652.5127,582.6874,657.639,591.097" style="stroke: #A80036; stroke-width: 1.0;"/><text fill="#000000" font-family="Helvetica Neue" font-size="13" lengthAdjust="spacingAndGlyphs" textLength="95" x="652" y="538.214">will be added to</text><path d="M635.493,57.282 C566.887,62.409 419.476,76.874 381,108.474 C368.382,118.837 361.418,135.699 357.592,150.333 " fill="none" style="stroke: #A80036; stroke-width: 1.0;"/><polygon fill="#A80036" points="356.411,155.198,362.4199,147.3946,357.5897,150.3389,354.6454,145.5087,356.411,155.198" style="stroke: #A80036; stroke-width: 1.0;"/><text fill="#000000" font-family="Helvetica Neue" font-size="13" lengthAdjust="spacingAndGlyphs" textLength="91" x="382" y="122.214">is composed of</text><path d="M352.349,209.565 C353.057,242.084 358.785,295.227 386,330.474 C432.35,390.503 513.968,425.322 572.388,443.665 " fill="none" style="stroke: #00008B; stroke-width: 1.0;"/><polygon fill="#00008B" points="352.276,204.529,348.4076,213.5863,352.3489,209.5285,356.4067,213.4697,352.276,204.529" style="stroke: #00008B; stroke-width: 1.0;"/><text fill="#000000" font-family="Helvetica Neue" font-size="13" lengthAdjust="spacingAndGlyphs" textLength="39" x="387" y="311.214">source</text><path d="M260.194,204.478 C181.051,227.326 80,264.436 80,304.974 C80,304.974 80,304.974 80,618.974 C80,658.473 81.8632,703.967 83.3149,733.4185 " fill="none" style="stroke: #00008B; stroke-width: 1.0;"/><polygon fill="#00008B" points="83.5806,738.7259,87.1253,729.5371,83.3305,733.7322,79.1353,729.9373,83.5806,738.7259" style="stroke: #00008B; stroke-width: 1.0;"/><text fill="#000000" font-family="Helvetica Neue" font-size="13" lengthAdjust="spacingAndGlyphs" textLength="64" x="81" y="467.214">destination</text><path d="M689.664,78.589 C706.08,99.361 729.986,129.609 747.261,151.467 " fill="none" style="stroke: #A80036; stroke-width: 1.0;"/><polygon fill="#A80036" points="750.406,155.447,747.9642,145.9056,747.3059,151.524,741.6875,150.8657,750.406,155.447" style="stroke: #A80036; stroke-width: 1.0;"/><text fill="#000000" font-family="Helvetica Neue" font-size="13" lengthAdjust="spacingAndGlyphs" textLength="91" x="727" y="122.214">is composed of</text><path d="M755.985,209.444 C731.936,262.051 680.704,374.121 655.549,429.148 " fill="none" style="stroke: #00008B; stroke-width: 1.0;"/><polygon fill="#00008B" points="758.087,204.847,750.7065,211.3684,756.0077,209.3941,757.9819,214.6953,758.087,204.847" style="stroke: #00008B; stroke-width: 1.0;"/><text fill="#000000" font-family="Helvetica Neue" font-size="13" lengthAdjust="spacingAndGlyphs" textLength="39" x="723" y="311.214">source</text><path d="M769.858,204.483 C773.424,289.318 789.78,578.162 849,644.474 C930.411,735.6357 999.886,675.177 1113,721.474 C1123.5,725.7731 1134.42,731.0539 1144.7,736.4245 " fill="none" style="stroke: #00008B; stroke-width: 1.0;"/><polygon fill="#00008B" points="1149.37,738.8952,1143.2916,731.1458,1144.9523,736.5534,1139.5447,738.2141,1149.37,738.8952" style="stroke: #00008B; stroke-width: 1.0;"/><text fill="#000000" font-family="Helvetica Neue" font-size="13" lengthAdjust="spacingAndGlyphs" textLength="64" x="801" y="467.214">destination</text><path d="M706.617,55.478 C819.994,57.924 1168.93,72.205 1235,155.474 C1300.4,237.901 1293.19,373.287 1286.23,432.147 " fill="none" style="stroke: #A80036; stroke-width: 1.0;"/><polygon fill="#A80036" points="1285.6,437.264,1290.6639,428.8167,1286.2075,432.301,1282.7232,427.8447,1285.6,437.264" style="stroke: #A80036; stroke-width: 1.0;"/><text fill="#000000" font-family="Helvetica Neue" font-size="13" lengthAdjust="spacingAndGlyphs" textLength="91" x="1280" y="248.214">is composed of</text><path d="M1191.28,478.447 C1082.61,497.671 912.221,530.275 889,549.474 C836.062,593.241 881.299,648.147 828,691.474 C789.031,723.152 661.747,743.4828 569.568,754.4381 " fill="none" style="stroke: #00008B; stroke-width: 1.0;"/><polygon fill="#00008B" points="1196.4,477.542,1186.8474,475.1446,1191.4741,478.3994,1188.2193,483.0261,1196.4,477.542" style="stroke: #00008B; stroke-width: 1.0;"/><text fill="#000000" font-family="Helvetica Neue" font-size="13" lengthAdjust="spacingAndGlyphs" textLength="39" x="890" y="623.214">source</text><path d="M1295.41,486.746 C1316.09,524.899 1354.84,602.805 1369,674.474 C1372.88,694.086 1369.06,716.189 1364.19,733.5824 " fill="none" style="stroke: #00008B; stroke-width: 1.0;"/><polygon fill="#00008B" points="1362.65,738.8213,1369.0236,731.3128,1364.0587,734.0238,1361.3477,729.0589,1362.65,738.8213" style="stroke: #00008B; stroke-width: 1.0;"/><text fill="#000000" font-family="Helvetica Neue" font-size="13" lengthAdjust="spacingAndGlyphs" textLength="64" x="1362" y="623.214">destination</text><path d="M607.748,644.484 C574.255,659.755 529.801,678.629 489,691.474 C428.302,710.583 409.321,701.206 349,721.474 C334.886,726.2165 320.072,732.5097 306.555,738.8143 " fill="none" style="stroke: #00008B; stroke-width: 1.0;"/><polygon fill="#00008B" points="302.024,740.9506,311.8704,740.7295,306.5463,738.8179,308.458,733.4938,302.024,740.9506" style="stroke: #00008B; stroke-width: 1.0;"/><text fill="#000000" font-family="Helvetica Neue" font-size="13" lengthAdjust="spacingAndGlyphs" textLength="71" x="534" y="688.214">be parent of</text><path d="M702.122,644.48 C727.416,659.467 760.85,678.045 792,691.474 C840.433,712.354 896.863,730.4109 941.588,743.3426 " fill="none" style="stroke: #00008B; stroke-width: 1.0;"/><polygon fill="#00008B" points="946.429,744.7357,938.8863,738.4026,941.624,743.3529,936.6738,746.0905,946.429,744.7357" style="stroke: #00008B; stroke-width: 1.0;"/><text fill="#000000" font-family="Helvetica Neue" font-size="13" lengthAdjust="spacingAndGlyphs" textLength="71" x="793" y="688.214">be parent of</text><polygon fill="#DDDDDD" points="459.5,843.474,459.5,936.984,989.5,936.984,989.5,843.474,459.5,843.474" style="stroke: #000000; stroke-width: 1.0;"/><text fill="#000000" font-family="Helvetica Neue" font-size="14" lengthAdjust="spacingAndGlyphs" textLength="477" x="465.5" y="862.194">-   Stack is not connected to any existing Foreman models to allow sharing.</text><text fill="#000000" font-family="Helvetica Neue" font-size="14" lengthAdjust="spacingAndGlyphs" textLength="476" x="465.5" y="878.896">-   ParamResource defines inputs and outputs through parameters to avoid</text><text fill="#000000" font-family="Helvetica Neue" font-size="14" lengthAdjust="spacingAndGlyphs" textLength="195" x="465.5" y="895.598">entanglement between stacks.</text><text fill="#000000" font-family="Helvetica Neue" font-size="14" lengthAdjust="spacingAndGlyphs" textLength="518" x="465.5" y="912.3">-   ConnectParamResource connects parameters between child stacks in a given</text><text fill="#000000" font-family="Helvetica Neue" font-size="14" lengthAdjust="spacingAndGlyphs" textLength="45" x="465.5" y="929.002">parent.</text></g></svg>