<?xml version="1.0" encoding="UTF-8" standalone="yes"?><svg xmlns="http://www.w3.org/2000/svg" xmlns:xlink="http://www.w3.org/1999/xlink" height="658pt" style="width:1285px;height:658px;" version="1.1" viewBox="0 0 1285 658" width="1285pt"><defs><filter height="300%" id="f1" width="300%" x="-1" y="-1"><feGaussianBlur result="blurOut" stdDeviation="2.0"/><feColorMatrix in="blurOut" result="blurOut2" type="matrix" values="0 0 0 0 0 0 0 0 0 0 0 0 0 0 0 0 0 0 .4 0"/><feOffset dx="4.0" dy="4.0" in="blurOut2" result="blurOut3"/><feBlend in="SourceGraphic" in2="blurOut3" mode="normal"/></filter></defs><g><text fill="#000000" font-family="Helvetica Neue" font-size="18" lengthAdjust="spacingAndGlyphs" textLength="216" x="539" y="17.64">Web server stack example</text><rect fill="#FEFECE" filter="url(#f1)" height="48.692" style="stroke: #A80036; stroke-width: 1.5;" width="74" x="615" y="29.474"/><text fill="#000000" font-family="Helvetica Neue" font-size="12" font-style="italic" lengthAdjust="spacingAndGlyphs" textLength="61" x="621.5" y="41.294">&lt;&lt; Stack&gt;&gt;</text><text fill="#000000" font-family="Helvetica Neue" font-size="12" lengthAdjust="spacingAndGlyphs" textLength="60" x="622" y="57.61">web_server</text><line style="stroke: #A80036; stroke-width: 1.5;" x1="616" x2="688" y1="62.166" y2="62.166"/><rect fill="#FEFECE" filter="url(#f1)" height="48.692" style="stroke: #A80036; stroke-width: 1.5;" width="149" x="232.5" y="600.474"/><text fill="#000000" font-family="Helvetica Neue" font-size="12" font-style="italic" lengthAdjust="spacingAndGlyphs" textLength="139" x="237.5" y="612.294">&lt;&lt; HostgroupResource&gt;&gt;</text><text fill="#000000" font-family="Helvetica Neue" font-size="12" lengthAdjust="spacingAndGlyphs" textLength="122" x="246" y="628.61">web_server_hostgroup</text><line style="stroke: #A80036; stroke-width: 1.5;" x1="233.5" x2="380.5" y1="633.166" y2="633.166"/><rect fill="#FEFECE" filter="url(#f1)" height="64.552" style="stroke: #A80036; stroke-width: 1.5;" width="203" x="297.5" y="155.474"/><text fill="#000000" font-family="Helvetica Neue" font-size="12" font-style="italic" lengthAdjust="spacingAndGlyphs" textLength="193" x="302.5" y="167.294">&lt;&lt; HostgroupParameterResource&gt;&gt;</text><text fill="#000000" font-family="Helvetica Neue" font-size="12" lengthAdjust="spacingAndGlyphs" textLength="72" x="363" y="183.61">db_password</text><line style="stroke: #A80036; stroke-width: 1.5;" x1="298.5" x2="499.5" y1="188.166" y2="188.166"/><text fill="#000000" font-family="Helvetica Neue" font-size="10" lengthAdjust="spacingAndGlyphs" textLength="106" x="303.5" y="201.966">name = "db_password"</text><text fill="#000000" font-family="Helvetica Neue" font-size="10" lengthAdjust="spacingAndGlyphs" textLength="106" x="303.5" y="213.896">name = "db_password"</text><rect fill="#FEFECE" filter="url(#f1)" height="52.622" style="stroke: #A80036; stroke-width: 1.5;" width="203" x="59.5" y="161.474"/><text fill="#000000" font-family="Helvetica Neue" font-size="12" font-style="italic" lengthAdjust="spacingAndGlyphs" textLength="193" x="64.5" y="173.294">&lt;&lt; HostgroupParameterResource&gt;&gt;</text><text fill="#000000" font-family="Helvetica Neue" font-size="12" lengthAdjust="spacingAndGlyphs" textLength="56" x="133" y="189.61">db_api_url</text><line style="stroke: #A80036; stroke-width: 1.5;" x1="60.5" x2="261.5" y1="194.166" y2="194.166"/><text fill="#000000" font-family="Helvetica Neue" font-size="10" lengthAdjust="spacingAndGlyphs" textLength="91" x="65.5" y="207.966">name = "db_api_url"</text><rect fill="#FEFECE" filter="url(#f1)" height="48.692" style="stroke: #A80036; stroke-width: 1.5;" width="160" x="510" y="474.474"/><text fill="#000000" font-family="Helvetica Neue" font-size="12" font-style="italic" lengthAdjust="spacingAndGlyphs" textLength="150" x="515" y="486.294">&lt;&lt; PuppetClassResource&gt;&gt;</text><text fill="#000000" font-family="Helvetica Neue" font-size="12" lengthAdjust="spacingAndGlyphs" textLength="36" x="572" y="502.61">sinatra</text><line style="stroke: #A80036; stroke-width: 1.5;" x1="511" x2="669" y1="507.166" y2="507.166"/><rect fill="#FEFECE" filter="url(#f1)" height="64.552" style="stroke: #A80036; stroke-width: 1.5;" width="117" x="937.5" y="314.974"/><text fill="#000000" font-family="Helvetica Neue" font-size="12" font-style="italic" lengthAdjust="spacingAndGlyphs" textLength="107" x="942.5" y="326.794">&lt;&lt; HostResource&gt;&gt;</text><text fill="#000000" font-family="Helvetica Neue" font-size="12" lengthAdjust="spacingAndGlyphs" textLength="93" x="949.5" y="343.11">sinatra_instances</text><line style="stroke: #A80036; stroke-width: 1.5;" x1="938.5" x2="1053.5" y1="347.666" y2="347.666"/><text fill="#000000" font-family="Helvetica Neue" font-size="10" lengthAdjust="spacingAndGlyphs" textLength="35" x="943.5" y="361.466">min = 1</text><text fill="#000000" font-family="Helvetica Neue" font-size="10" lengthAdjust="spacingAndGlyphs" textLength="94" x="943.5" y="373.396">max = nil # unlimited</text><rect fill="#FEFECE" filter="url(#f1)" height="48.692" style="stroke: #A80036; stroke-width: 1.5;" width="152" x="1124" y="163.474"/><text fill="#000000" font-family="Helvetica Neue" font-size="12" font-style="italic" lengthAdjust="spacingAndGlyphs" textLength="142" x="1129" y="175.294">&lt;&lt; PuppetRunResource&gt;&gt;</text><text fill="#000000" font-family="Helvetica Neue" font-size="12" lengthAdjust="spacingAndGlyphs" textLength="122" x="1139" y="191.61">web_server_puppetrun</text><line style="stroke: #A80036; stroke-width: 1.5;" x1="1125" x2="1275" y1="196.166" y2="196.166"/><rect fill="#FEFECE" filter="url(#f1)" height="100.342" style="stroke: #A80036; stroke-width: 1.5;" width="208" x="360" y="297.474"/><text fill="#000000" font-family="Helvetica Neue" font-size="12" font-style="italic" lengthAdjust="spacingAndGlyphs" textLength="180" x="374" y="309.294">&lt;&lt; ParameterOverrideResource&gt;&gt;</text><text fill="#000000" font-family="Helvetica Neue" font-size="12" lengthAdjust="spacingAndGlyphs" textLength="83" x="422.5" y="325.61">db_url_override</text><line style="stroke: #A80036; stroke-width: 1.5;" x1="361" x2="567" y1="330.166" y2="330.166"/><text fill="#000000" font-family="Helvetica Neue" font-size="10" lengthAdjust="spacingAndGlyphs" textLength="105" x="366" y="343.966">key = "$sinatra::db::url"</text><text fill="#000000" font-family="Helvetica Neue" font-size="10" lengthAdjust="spacingAndGlyphs" textLength="68" x="366" y="355.896">\# only pseudo</text><text fill="#000000" font-family="Helvetica Neue" font-size="10" lengthAdjust="spacingAndGlyphs" textLength="32" x="366" y="367.826">value =</text><text fill="#000000" font-family="Helvetica Neue" font-size="10" lengthAdjust="spacingAndGlyphs" textLength="151" x="366" y="379.756">"&lt;%= get_param('web_server', "+</text><text fill="#000000" font-family="Helvetica Neue" font-size="10" lengthAdjust="spacingAndGlyphs" textLength="196" x="366" y="391.686">"'web_server_hostgroup', 'db_api_url') %&gt;"</text><rect fill="#FEFECE" filter="url(#f1)" height="100.342" style="stroke: #A80036; stroke-width: 1.5;" width="223" x="603.5" y="297.474"/><text fill="#000000" font-family="Helvetica Neue" font-size="12" font-style="italic" lengthAdjust="spacingAndGlyphs" textLength="180" x="625" y="309.294">&lt;&lt; ParameterOverrideResource&gt;&gt;</text><text fill="#000000" font-family="Helvetica Neue" font-size="12" lengthAdjust="spacingAndGlyphs" textLength="121" x="654.5" y="325.61">db_password_override</text><line style="stroke: #A80036; stroke-width: 1.5;" x1="604.5" x2="825.5" y1="330.166" y2="330.166"/><text fill="#000000" font-family="Helvetica Neue" font-size="10" lengthAdjust="spacingAndGlyphs" textLength="138" x="609.5" y="343.966">key = "$sinatra::db::password"</text><text fill="#000000" font-family="Helvetica Neue" font-size="10" lengthAdjust="spacingAndGlyphs" textLength="68" x="609.5" y="355.896">\# only pseudo</text><text fill="#000000" font-family="Helvetica Neue" font-size="10" lengthAdjust="spacingAndGlyphs" textLength="32" x="609.5" y="367.826">value =</text><text fill="#000000" font-family="Helvetica Neue" font-size="10" lengthAdjust="spacingAndGlyphs" textLength="151" x="609.5" y="379.756">"&lt;%= get_param('web_server', "+</text><text fill="#000000" font-family="Helvetica Neue" font-size="10" lengthAdjust="spacingAndGlyphs" textLength="211" x="609.5" y="391.686">"'web_server_hostgroup', 'db_password') %&gt;"</text><path d="M614.948,54.592 C477.681,54.158 6,61.772 6,186.974 C6,186.974 6,186.974 6,499.974 C6,547.885 138.025,586.7237 227.198,607.492 " fill="none" style="stroke: #A80036; stroke-width: 1.0;"/><polygon fill="#A80036" points="232.209,608.6505,224.3423,602.7246,227.3377,607.5234,222.539,610.5187,232.209,608.6505" style="stroke: #A80036; stroke-width: 1.0;"/><text fill="#000000" font-family="Helvetica Neue" font-size="13" lengthAdjust="spacingAndGlyphs" textLength="91" x="7" y="352.714">is composed of</text><path d="M614.781,57.17 C571.941,61.341 501.175,73.43 452,108.474 C436.951,119.198 424.902,135.633 416.118,150.699 " fill="none" style="stroke: #A80036; stroke-width: 1.0;"/><polygon fill="#A80036" points="413.497,155.323,421.4149,149.4658,415.9626,150.9732,414.4552,145.5209,413.497,155.323" style="stroke: #A80036; stroke-width: 1.0;"/><text fill="#000000" font-family="Helvetica Neue" font-size="13" lengthAdjust="spacingAndGlyphs" textLength="91" x="453" y="122.214">is composed of</text><path d="M614.682,58.145 C554.682,63.934 433.512,78.486 335,108.474 C292.673,121.359 247.171,142.154 213.317,159.105 " fill="none" style="stroke: #A80036; stroke-width: 1.0;"/><polygon fill="#A80036" points="208.829,161.364,218.6665,160.8916,213.2954,159.1165,215.0705,153.7454,208.829,161.364" style="stroke: #A80036; stroke-width: 1.0;"/><text fill="#000000" font-family="Helvetica Neue" font-size="13" lengthAdjust="spacingAndGlyphs" textLength="91" x="336" y="122.214">is composed of</text><path d="M689.174,74.33 C719.681,91.882 762.092,120.349 789,155.474 C856.076,243.032 905.769,306.094 844,397.474 C806.619,452.775 733.56,477.646 675.356,488.832 " fill="none" style="stroke: #A80036; stroke-width: 1.0;"/><polygon fill="#A80036" points="670.128,489.807,679.7097,492.0853,675.0429,488.8883,678.2398,484.2215,670.128,489.807" style="stroke: #A80036; stroke-width: 1.0;"/><text fill="#000000" font-family="Helvetica Neue" font-size="13" lengthAdjust="spacingAndGlyphs" textLength="91" x="862" y="264.214">is composed of</text><path d="M689.192,58.754 C751.32,65.719 872.689,82.305 906,108.474 C968.761,157.779 987.762,256.034 993.511,309.588 " fill="none" style="stroke: #A80036; stroke-width: 1.0;"/><polygon fill="#A80036" points="994.027,314.628,997.0882,305.267,993.517,309.6541,989.1299,306.0829,994.027,314.628" style="stroke: #A80036; stroke-width: 1.0;"/><text fill="#000000" font-family="Helvetica Neue" font-size="13" lengthAdjust="spacingAndGlyphs" textLength="91" x="975" y="193.214">is composed of</text><path d="M689.196,57.008 C756.684,61.429 903.311,74.412 1022,108.474 C1067.21,121.447 1115.9,143.533 1150.91,160.979 " fill="none" style="stroke: #A80036; stroke-width: 1.0;"/><polygon fill="#A80036" points="1155.54,163.3,1149.2703,155.7046,1151.0653,161.0691,1145.7008,162.8641,1155.54,163.3" style="stroke: #A80036; stroke-width: 1.0;"/><text fill="#000000" font-family="Helvetica Neue" font-size="13" lengthAdjust="spacingAndGlyphs" textLength="91" x="1068" y="122.214">is composed of</text><path d="M628.777,78.533 C611.169,97.712 587.729,126.297 574,155.474 C552.285,201.623 574.377,223.233 549,267.474 C543.745,276.635 537.078,285.357 529.798,293.435 " fill="none" style="stroke: #A80036; stroke-width: 1.0;"/><polygon fill="#A80036" points="526.178,297.348,535.2263,293.4586,529.5737,293.678,529.3543,288.0254,526.178,297.348" style="stroke: #A80036; stroke-width: 1.0;"/><text fill="#000000" font-family="Helvetica Neue" font-size="13" lengthAdjust="spacingAndGlyphs" textLength="91" x="575" y="193.214">is composed of</text><path d="M657.156,78.829 C667.18,125.211 689.523,228.59 703.32,292.432 " fill="none" style="stroke: #A80036; stroke-width: 1.0;"/><polygon fill="#A80036" points="704.381,297.339,706.3878,287.6968,703.3239,292.452,698.5686,289.3881,704.381,297.339" style="stroke: #A80036; stroke-width: 1.0;"/><text fill="#000000" font-family="Helvetica Neue" font-size="13" lengthAdjust="spacingAndGlyphs" textLength="91" x="689" y="193.214">is composed of</text><path d="M536.104,523.589 C487.321,544.964 415.636,576.3739 365.481,598.35 " fill="none" style="stroke: #A80036; stroke-width: 1.0;"/><polygon fill="#A80036" points="360.696,600.4466,370.5447,600.4975,365.2755,598.4396,367.3335,593.1703,360.696,600.4466" style="stroke: #A80036; stroke-width: 1.0;"/><text fill="#000000" font-family="Helvetica Neue" font-size="13" lengthAdjust="spacingAndGlyphs" textLength="95" x="467" y="567.214">will be added to</text><path d="M972.612,380.154 C955.975,400.823 932.03,427.095 906,444.474 C741.475,554.3227 507.672,598.7366 386.578,615.2125 " fill="none" style="stroke: #A80036; stroke-width: 1.0;"/><polygon fill="#A80036" points="381.608,615.8816,391.0612,618.645,386.5633,615.2145,389.9938,610.7165,381.608,615.8816" style="stroke: #A80036; stroke-width: 1.0;"/><text fill="#000000" font-family="Helvetica Neue" font-size="13" lengthAdjust="spacingAndGlyphs" textLength="74" x="850" y="504.214">provisions in</text><path d="M1169.46,212.553 C1135.46,238.8 1080.18,281.479 1041.18,311.591 " fill="none" style="stroke: #A80036; stroke-width: 1.0;"/><polygon fill="#A80036" points="1036.98,314.832,1046.5476,312.4951,1040.9367,311.7752,1041.6567,306.1643,1036.98,314.832" style="stroke: #A80036; stroke-width: 1.0;"/><text fill="#000000" font-family="Helvetica Neue" font-size="13" lengthAdjust="spacingAndGlyphs" textLength="14" x="1117" y="264.214">on</text><path d="M163.307,214.677 C168.081,261.52 181.107,363.429 210,444.474 C230.206,501.153 266.307,561.6489 288.311,595.9393 " fill="none" style="stroke: #A80036; stroke-width: 1.0;"/><polygon fill="#A80036" points="291.187,600.3968,289.6689,590.6657,288.4763,596.1954,282.9466,595.0028,291.187,600.3968" style="stroke: #A80036; stroke-width: 1.0;"/><text fill="#000000" font-family="Helvetica Neue" font-size="13" lengthAdjust="spacingAndGlyphs" textLength="95" x="211" y="441.214">will be added to</text><path d="M378.155,220.826 C365.525,241.746 350.297,270.195 342,297.474 C309.634,403.891 306.273,537.753 306.505,595.4094 " fill="none" style="stroke: #A80036; stroke-width: 1.0;"/><polygon fill="#A80036" points="306.535,600.4188,310.4807,591.3948,306.5049,595.4189,302.4808,591.4431,306.535,600.4188" style="stroke: #A80036; stroke-width: 1.0;"/><text fill="#000000" font-family="Helvetica Neue" font-size="13" lengthAdjust="spacingAndGlyphs" textLength="95" x="317" y="441.214">will be added to</text><path d="M505.606,397.84 C525.901,421.92 549.557,449.988 566.651,470.27 " fill="none" style="stroke: #A80036; stroke-width: 1.0;"/><polygon fill="#A80036" points="569.979,474.219,567.2362,464.7598,566.7562,470.3962,561.1198,469.9162,569.979,474.219" style="stroke: #A80036; stroke-width: 1.0;"/><text fill="#000000" font-family="Helvetica Neue" font-size="13" lengthAdjust="spacingAndGlyphs" textLength="68" x="543" y="441.214">overrides in</text><path d="M673.724,397.84 C653.59,421.92 630.122,449.988 613.164,470.27 " fill="none" style="stroke: #A80036; stroke-width: 1.0;"/><polygon fill="#A80036" points="609.862,474.219,618.7037,469.8803,613.0692,470.3832,612.5664,464.7487,609.862,474.219" style="stroke: #A80036; stroke-width: 1.0;"/><text fill="#000000" font-family="Helvetica Neue" font-size="13" lengthAdjust="spacingAndGlyphs" textLength="68" x="650" y="441.214">overrides in</text><path d="M214.968,217.027 C257.826,239.305 318.799,270.998 369.684,297.448 " fill="none" style="stroke: #A80036; stroke-width: 1.0; stroke-dasharray: 7.0,7.0;"/><polygon fill="#A80036" points="210.357,214.63,216.4987,222.3293,214.7937,216.9355,220.1875,215.2305,210.357,214.63" style="stroke: #A80036; stroke-width: 1.0;"/><text fill="#000000" font-family="Helvetica Neue" font-size="13" lengthAdjust="spacingAndGlyphs" textLength="28" x="305" y="264.214">uses</text><path d="M467.281,223.006 C510.909,244.752 568.189,273.301 616.678,297.468 " fill="none" style="stroke: #A80036; stroke-width: 1.0; stroke-dasharray: 7.0,7.0;"/><polygon fill="#A80036" points="462.567,220.657,468.8387,228.2508,467.0423,222.8868,472.4063,221.0904,462.567,220.657" style="stroke: #A80036; stroke-width: 1.0;"/><text fill="#000000" font-family="Helvetica Neue" font-size="13" lengthAdjust="spacingAndGlyphs" textLength="28" x="549" y="264.214">uses</text></g></svg>