<?xml version="1.0" encoding="UTF-8" standalone="yes"?><svg xmlns="http://www.w3.org/2000/svg" xmlns:xlink="http://www.w3.org/1999/xlink" height="658pt" style="width:1247px;height:658px;" version="1.1" viewBox="0 0 1247 658" width="1247pt"><defs><filter height="300%" id="f1" width="300%" x="-1" y="-1"><feGaussianBlur result="blurOut" stdDeviation="2.0"/><feColorMatrix in="blurOut" result="blurOut2" type="matrix" values="0 0 0 0 0 0 0 0 0 0 0 0 0 0 0 0 0 0 .4 0"/><feOffset dx="4.0" dy="4.0" in="blurOut2" result="blurOut3"/><feBlend in="SourceGraphic" in2="blurOut3" mode="normal"/></filter></defs><g><text fill="#000000" font-family="Helvetica Neue" font-size="18" lengthAdjust="spacingAndGlyphs" textLength="216" x="520" y="17.64">Web server stack example</text><rect fill="#FEFECE" filter="url(#f1)" height="48.692" style="stroke: #A80036; stroke-width: 1.5;" width="74" x="560" y="29.474"/><text fill="#000000" font-family="Helvetica Neue" font-size="12" font-style="italic" lengthAdjust="spacingAndGlyphs" textLength="61" x="566.5" y="41.294">&lt;&lt; Stack&gt;&gt;</text><text fill="#000000" font-family="Helvetica Neue" font-size="12" lengthAdjust="spacingAndGlyphs" textLength="60" x="567" y="57.61">web_server</text><line style="stroke: #A80036; stroke-width: 1.5;" x1="561" x2="633" y1="62.166" y2="62.166"/><rect fill="#FEFECE" filter="url(#f1)" height="48.692" style="stroke: #A80036; stroke-width: 1.5;" width="149" x="214.5" y="600.474"/><text fill="#000000" font-family="Helvetica Neue" font-size="12" font-style="italic" lengthAdjust="spacingAndGlyphs" textLength="139" x="219.5" y="612.294">&lt;&lt; HostgroupResource&gt;&gt;</text><text fill="#000000" font-family="Helvetica Neue" font-size="12" lengthAdjust="spacingAndGlyphs" textLength="122" x="228" y="628.61">web_server_hostgroup</text><line style="stroke: #A80036; stroke-width: 1.5;" x1="215.5" x2="362.5" y1="633.166" y2="633.166"/><rect fill="#FEFECE" filter="url(#f1)" height="64.552" style="stroke: #A80036; stroke-width: 1.5;" width="125" x="320.5" y="155.474"/><text fill="#000000" font-family="Helvetica Neue" font-size="12" font-style="italic" lengthAdjust="spacingAndGlyphs" textLength="115" x="325.5" y="167.294">&lt;&lt; ParamResource&gt;&gt;</text><text fill="#000000" font-family="Helvetica Neue" font-size="12" lengthAdjust="spacingAndGlyphs" textLength="72" x="347" y="183.61">db_password</text><line style="stroke: #A80036; stroke-width: 1.5;" x1="321.5" x2="444.5" y1="188.166" y2="188.166"/><text fill="#000000" font-family="Helvetica Neue" font-size="10" lengthAdjust="spacingAndGlyphs" textLength="106" x="326.5" y="201.966">name = "db_password"</text><text fill="#000000" font-family="Helvetica Neue" font-size="10" lengthAdjust="spacingAndGlyphs" textLength="106" x="326.5" y="213.896">name = "db_password"</text><rect fill="#FEFECE" filter="url(#f1)" height="52.622" style="stroke: #A80036; stroke-width: 1.5;" width="125" x="155.5" y="161.474"/><text fill="#000000" font-family="Helvetica Neue" font-size="12" font-style="italic" lengthAdjust="spacingAndGlyphs" textLength="115" x="160.5" y="173.294">&lt;&lt; ParamResource&gt;&gt;</text><text fill="#000000" font-family="Helvetica Neue" font-size="12" lengthAdjust="spacingAndGlyphs" textLength="56" x="190" y="189.61">db_api_url</text><line style="stroke: #A80036; stroke-width: 1.5;" x1="156.5" x2="279.5" y1="194.166" y2="194.166"/><text fill="#000000" font-family="Helvetica Neue" font-size="10" lengthAdjust="spacingAndGlyphs" textLength="91" x="161.5" y="207.966">name = "db_api_url"</text><rect fill="#FEFECE" filter="url(#f1)" height="48.692" style="stroke: #A80036; stroke-width: 1.5;" width="160" x="439" y="474.474"/><text fill="#000000" font-family="Helvetica Neue" font-size="12" font-style="italic" lengthAdjust="spacingAndGlyphs" textLength="150" x="444" y="486.294">&lt;&lt; PuppetClassResource&gt;&gt;</text><text fill="#000000" font-family="Helvetica Neue" font-size="12" lengthAdjust="spacingAndGlyphs" textLength="36" x="501" y="502.61">sinatra</text><line style="stroke: #A80036; stroke-width: 1.5;" x1="440" x2="598" y1="507.166" y2="507.166"/><rect fill="#FEFECE" filter="url(#f1)" height="64.552" style="stroke: #A80036; stroke-width: 1.5;" width="117" x="899.5" y="314.974"/><text fill="#000000" font-family="Helvetica Neue" font-size="12" font-style="italic" lengthAdjust="spacingAndGlyphs" textLength="107" x="904.5" y="326.794">&lt;&lt; HostResource&gt;&gt;</text><text fill="#000000" font-family="Helvetica Neue" font-size="12" lengthAdjust="spacingAndGlyphs" textLength="93" x="911.5" y="343.11">sinatra_instances</text><line style="stroke: #A80036; stroke-width: 1.5;" x1="900.5" x2="1015.5" y1="347.666" y2="347.666"/><text fill="#000000" font-family="Helvetica Neue" font-size="10" lengthAdjust="spacingAndGlyphs" textLength="35" x="905.5" y="361.466">min = 1</text><text fill="#000000" font-family="Helvetica Neue" font-size="10" lengthAdjust="spacingAndGlyphs" textLength="94" x="905.5" y="373.396">max = nil # unlimited</text><rect fill="#FEFECE" filter="url(#f1)" height="48.692" style="stroke: #A80036; stroke-width: 1.5;" width="152" x="1086" y="163.474"/><text fill="#000000" font-family="Helvetica Neue" font-size="12" font-style="italic" lengthAdjust="spacingAndGlyphs" textLength="142" x="1091" y="175.294">&lt;&lt; PuppetRunResource&gt;&gt;</text><text fill="#000000" font-family="Helvetica Neue" font-size="12" lengthAdjust="spacingAndGlyphs" textLength="122" x="1101" y="191.61">web_server_puppetrun</text><line style="stroke: #A80036; stroke-width: 1.5;" x1="1087" x2="1237" y1="196.166" y2="196.166"/><rect fill="#FEFECE" filter="url(#f1)" height="100.342" style="stroke: #A80036; stroke-width: 1.5;" width="208" x="324" y="297.474"/><text fill="#000000" font-family="Helvetica Neue" font-size="12" font-style="italic" lengthAdjust="spacingAndGlyphs" textLength="160" x="348" y="309.294">&lt;&lt; ParamOverrideResource&gt;&gt;</text><text fill="#000000" font-family="Helvetica Neue" font-size="12" lengthAdjust="spacingAndGlyphs" textLength="83" x="386.5" y="325.61">db_url_override</text><line style="stroke: #A80036; stroke-width: 1.5;" x1="325" x2="531" y1="330.166" y2="330.166"/><text fill="#000000" font-family="Helvetica Neue" font-size="10" lengthAdjust="spacingAndGlyphs" textLength="105" x="330" y="343.966">key = "$sinatra::db::url"</text><text fill="#000000" font-family="Helvetica Neue" font-size="10" lengthAdjust="spacingAndGlyphs" textLength="68" x="330" y="355.896">\# only pseudo</text><text fill="#000000" font-family="Helvetica Neue" font-size="10" lengthAdjust="spacingAndGlyphs" textLength="32" x="330" y="367.826">value =</text><text fill="#000000" font-family="Helvetica Neue" font-size="10" lengthAdjust="spacingAndGlyphs" textLength="151" x="330" y="379.756">"&lt;%= get_param('web_server', "+</text><text fill="#000000" font-family="Helvetica Neue" font-size="10" lengthAdjust="spacingAndGlyphs" textLength="196" x="330" y="391.686">"'web_server_hostgroup', 'db_api_url') %&gt;"</text><rect fill="#FEFECE" filter="url(#f1)" height="100.342" style="stroke: #A80036; stroke-width: 1.5;" width="223" x="567.5" y="297.474"/><text fill="#000000" font-family="Helvetica Neue" font-size="12" font-style="italic" lengthAdjust="spacingAndGlyphs" textLength="160" x="599" y="309.294">&lt;&lt; ParamOverrideResource&gt;&gt;</text><text fill="#000000" font-family="Helvetica Neue" font-size="12" lengthAdjust="spacingAndGlyphs" textLength="121" x="618.5" y="325.61">db_password_override</text><line style="stroke: #A80036; stroke-width: 1.5;" x1="568.5" x2="789.5" y1="330.166" y2="330.166"/><text fill="#000000" font-family="Helvetica Neue" font-size="10" lengthAdjust="spacingAndGlyphs" textLength="138" x="573.5" y="343.966">key = "$sinatra::db::password"</text><text fill="#000000" font-family="Helvetica Neue" font-size="10" lengthAdjust="spacingAndGlyphs" textLength="68" x="573.5" y="355.896">\# only pseudo</text><text fill="#000000" font-family="Helvetica Neue" font-size="10" lengthAdjust="spacingAndGlyphs" textLength="32" x="573.5" y="367.826">value =</text><text fill="#000000" font-family="Helvetica Neue" font-size="10" lengthAdjust="spacingAndGlyphs" textLength="151" x="573.5" y="379.756">"&lt;%= get_param('web_server', "+</text><text fill="#000000" font-family="Helvetica Neue" font-size="10" lengthAdjust="spacingAndGlyphs" textLength="211" x="573.5" y="391.686">"'web_server_hostgroup', 'db_password') %&gt;"</text><path d="M559.582,55.296 C429.668,57.41 6,73.037 6,186.974 C6,186.974 6,186.974 6,499.974 C6,589.1628 125.379,614.805 209.067,621.8232 " fill="none" style="stroke: #A80036; stroke-width: 1.0;"/><polygon fill="#A80036" points="214.275,622.2399,205.6225,617.5352,209.2909,621.8413,204.9848,625.5097,214.275,622.2399" style="stroke: #A80036; stroke-width: 1.0;"/><text fill="#000000" font-family="Helvetica Neue" font-size="13" lengthAdjust="spacingAndGlyphs" textLength="91" x="7" y="352.714">is composed of</text><path d="M559.941,60.086 C508.37,67.972 418.822,84.716 397,108.474 C386.825,119.552 382.765,135.368 381.462,149.904 " fill="none" style="stroke: #A80036; stroke-width: 1.0;"/><polygon fill="#A80036" points="381.101,155.19,385.7062,146.4841,381.4424,150.2017,377.7249,145.9379,381.101,155.19" style="stroke: #A80036; stroke-width: 1.0;"/><text fill="#000000" font-family="Helvetica Neue" font-size="13" lengthAdjust="spacingAndGlyphs" textLength="91" x="398" y="122.214">is composed of</text><path d="M559.948,58.262 C488.213,65.127 333.346,82.531 287,108.474 C266.419,119.994 248.95,140.054 236.737,157.011 " fill="none" style="stroke: #A80036; stroke-width: 1.0;"/><polygon fill="#A80036" points="233.747,161.248,242.2041,156.2004,236.6296,157.1626,235.6674,151.5882,233.747,161.248" style="stroke: #A80036; stroke-width: 1.0;"/><text fill="#000000" font-family="Helvetica Neue" font-size="13" lengthAdjust="spacingAndGlyphs" textLength="91" x="288" y="122.214">is composed of</text><path d="M634.16,72.642 C667.007,89.854 714.337,118.766 745,155.474 C816.251,240.77 872.385,306.883 808,397.474 C762.187,461.934 671.924,485.41 604.402,493.77 " fill="none" style="stroke: #A80036; stroke-width: 1.0;"/><polygon fill="#A80036" points="599.172,494.393,608.582,497.3002,604.1369,493.8015,607.6356,489.3564,599.172,494.393" style="stroke: #A80036; stroke-width: 1.0;"/><text fill="#000000" font-family="Helvetica Neue" font-size="13" lengthAdjust="spacingAndGlyphs" textLength="91" x="825" y="264.214">is composed of</text><path d="M634.055,58.192 C699.463,64.526 831.902,80.484 868,108.474 C931.242,157.511 950.047,256.327 955.637,309.915 " fill="none" style="stroke: #A80036; stroke-width: 1.0;"/><polygon fill="#A80036" points="956.137,314.956,959.2277,305.6047,955.6427,309.9805,951.2669,306.3955,956.137,314.956" style="stroke: #A80036; stroke-width: 1.0;"/><text fill="#000000" font-family="Helvetica Neue" font-size="13" lengthAdjust="spacingAndGlyphs" textLength="91" x="938" y="193.214">is composed of</text><path d="M634.25,56.686 C704.074,60.646 858.878,72.987 984,108.474 C1029.4,121.351 1078.27,143.557 1113.29,161.072 " fill="none" style="stroke: #A80036; stroke-width: 1.0;"/><polygon fill="#A80036" points="1117.93,163.401,1111.7011,155.7721,1113.4673,161.1461,1108.0933,162.9123,1117.93,163.401" style="stroke: #A80036; stroke-width: 1.0;"/><text fill="#000000" font-family="Helvetica Neue" font-size="13" lengthAdjust="spacingAndGlyphs" textLength="91" x="1030" y="122.214">is composed of</text><path d="M576.356,78.635 C560.326,98.095 538.605,127.007 525,155.474 C502.728,202.074 517.988,221.733 494,267.474 C489.363,276.315 483.608,285.059 477.443,293.328 " fill="none" style="stroke: #A80036; stroke-width: 1.0;"/><polygon fill="#A80036" points="474.386,297.347,483.0171,292.6031,477.412,293.3666,476.6485,287.7615,474.386,297.347" style="stroke: #A80036; stroke-width: 1.0;"/><text fill="#000000" font-family="Helvetica Neue" font-size="13" lengthAdjust="spacingAndGlyphs" textLength="91" x="526" y="193.214">is composed of</text><path d="M603.71,78.829 C616.758,125.211 645.839,228.59 663.798,292.432 " fill="none" style="stroke: #A80036; stroke-width: 1.0;"/><polygon fill="#A80036" points="665.178,297.339,666.5906,287.592,663.8237,292.5259,658.8897,289.7589,665.178,297.339" style="stroke: #A80036; stroke-width: 1.0;"/><text fill="#000000" font-family="Helvetica Neue" font-size="13" lengthAdjust="spacingAndGlyphs" textLength="91" x="645" y="193.214">is composed of</text><path d="M475.197,523.589 C435.87,544.792 378.229,575.8679 337.518,597.8165 " fill="none" style="stroke: #A80036; stroke-width: 1.0;"/><polygon fill="#A80036" points="332.64,600.4466,342.4602,599.6964,337.0411,598.0738,338.6637,592.6546,332.64,600.4466" style="stroke: #A80036; stroke-width: 1.0;"/><text fill="#000000" font-family="Helvetica Neue" font-size="13" lengthAdjust="spacingAndGlyphs" textLength="95" x="419" y="567.214">will be added to</text><path d="M935.333,380.272 C919.154,400.993 895.763,427.277 870,444.474 C711.233,550.4507 486.904,596.2699 368.828,614.0427 " fill="none" style="stroke: #A80036; stroke-width: 1.0;"/><polygon fill="#A80036" points="363.633,614.8168,373.1244,617.4463,368.5784,614.0797,371.945,609.5337,363.633,614.8168" style="stroke: #A80036; stroke-width: 1.0;"/><text fill="#000000" font-family="Helvetica Neue" font-size="13" lengthAdjust="spacingAndGlyphs" textLength="74" x="816" y="504.214">provisions in</text><path d="M1131.46,212.553 C1097.46,238.8 1042.18,281.479 1003.181,311.591 " fill="none" style="stroke: #A80036; stroke-width: 1.0;"/><polygon fill="#A80036" points="998.984,314.832,1008.5521,312.4973,1002.9414,311.7761,1003.6626,306.1654,998.984,314.832" style="stroke: #A80036; stroke-width: 1.0;"/><text fill="#000000" font-family="Helvetica Neue" font-size="13" lengthAdjust="spacingAndGlyphs" textLength="14" x="1079" y="264.214">on</text><path d="M200.946,214.703 C172.371,261.167 120.613,361.92 149,444.474 C170.513,507.037 223.754,564.5324 258.03,596.8361 " fill="none" style="stroke: #A80036; stroke-width: 1.0;"/><polygon fill="#A80036" points="261.699,600.266,257.8578,591.1971,258.0471,596.8508,252.3934,597.0401,261.699,600.266" style="stroke: #A80036; stroke-width: 1.0;"/><text fill="#000000" font-family="Helvetica Neue" font-size="13" lengthAdjust="spacingAndGlyphs" textLength="95" x="150" y="441.214">will be added to</text><path d="M352.961,220.875 C335.867,241.152 315.937,268.893 306,297.474 C269.631,402.079 278.825,536.89 285.255,595.1018 " fill="none" style="stroke: #A80036; stroke-width: 1.0;"/><polygon fill="#A80036" points="285.829,600.1602,288.7897,590.7669,285.2657,595.192,280.8406,591.6681,285.829,600.1602" style="stroke: #A80036; stroke-width: 1.0;"/><text fill="#000000" font-family="Helvetica Neue" font-size="13" lengthAdjust="spacingAndGlyphs" textLength="95" x="283" y="441.214">will be added to</text><path d="M458.049,397.84 C472.584,421.72 489.507,449.521 501.827,469.762 " fill="none" style="stroke: #A80036; stroke-width: 1.0;"/><polygon fill="#A80036" points="504.541,474.219,503.2807,464.4511,501.9423,469.9474,496.4461,468.609,504.541,474.219" style="stroke: #A80036; stroke-width: 1.0;"/><text fill="#000000" font-family="Helvetica Neue" font-size="13" lengthAdjust="spacingAndGlyphs" textLength="68" x="486" y="441.214">overrides in</text><path d="M626.167,397.84 C600.181,422.121 569.855,450.456 548.108,470.776 " fill="none" style="stroke: #A80036; stroke-width: 1.0;"/><polygon fill="#A80036" points="544.423,474.219,553.7307,470.9994,548.0772,470.8062,548.2703,465.1527,544.423,474.219" style="stroke: #A80036; stroke-width: 1.0;"/><text fill="#000000" font-family="Helvetica Neue" font-size="13" lengthAdjust="spacingAndGlyphs" textLength="68" x="596" y="441.214">overrides in</text><path d="M256.483,217.836 C286.064,240.022 327.62,271.189 362.418,297.288 " fill="none" style="stroke: #A80036; stroke-width: 1.0; stroke-dasharray: 7.0,7.0;"/><polygon fill="#A80036" points="252.208,214.63,257.008,223.23,256.208,217.63,261.808,216.83,252.208,214.63" style="stroke: #A80036; stroke-width: 1.0;"/><text fill="#000000" font-family="Helvetica Neue" font-size="13" lengthAdjust="spacingAndGlyphs" textLength="28" x="318" y="264.214">uses</text><path d="M446.959,223.006 C487.826,244.752 541.481,273.301 586.901,297.468 " fill="none" style="stroke: #A80036; stroke-width: 1.0; stroke-dasharray: 7.0,7.0;"/><polygon fill="#A80036" points="442.544,220.657,448.6107,228.4156,446.9581,223.0055,452.3682,221.353,442.544,220.657" style="stroke: #A80036; stroke-width: 1.0;"/><text fill="#000000" font-family="Helvetica Neue" font-size="13" lengthAdjust="spacingAndGlyphs" textLength="28" x="524" y="264.214">uses</text></g></svg>