<?xml version="1.0" encoding="UTF-8" standalone="yes"?><svg xmlns="http://www.w3.org/2000/svg" xmlns:xlink="http://www.w3.org/1999/xlink" height="937pt" style="width:1488px;height:937px;" version="1.1" viewBox="0 0 1488 937" width="1488pt"><defs><filter height="300%" id="f1" width="300%" x="-1" y="-1"><feGaussianBlur result="blurOut" stdDeviation="2.0"/><feColorMatrix in="blurOut" result="blurOut2" type="matrix" values="0 0 0 0 0 0 0 0 0 0 0 0 0 0 0 0 0 0 .4 0"/><feOffset dx="4.0" dy="4.0" in="blurOut2" result="blurOut3"/><feBlend in="SourceGraphic" in2="blurOut3" mode="normal"/></filter></defs><g><text fill="#000000" font-family="Helvetica Neue" font-size="18" lengthAdjust="spacingAndGlyphs" textLength="256" x="625.5" y="17.64">Web application stack example</text><rect fill="#FFFFFF" filter="url(#f1)" height="268" style="stroke: #000000; stroke-width: 2.0;" width="584" x="14" y="549.474"/><text fill="#000000" font-family="Helvetica Neue" font-size="14" font-weight="bold" lengthAdjust="spacingAndGlyphs" textLength="20" x="296" y="568.53">DB</text><rect fill="#FFFFFF" filter="url(#f1)" height="250.5" style="stroke: #000000; stroke-width: 2.0;" width="526" x="955" y="549.474"/><text fill="#000000" font-family="Helvetica Neue" font-size="14" font-weight="bold" lengthAdjust="spacingAndGlyphs" textLength="72" x="1182" y="568.53">WebServer</text><rect fill="#FFFFFF" filter="url(#f1)" height="117" style="stroke: #000000; stroke-width: 2.0;" width="109" x="947" y="385.474"/><text fill="#000000" font-family="Helvetica Neue" font-size="14" font-weight="bold" lengthAdjust="spacingAndGlyphs" textLength="93" x="955" y="404.53">LoadBalancer</text><rect fill="#FEFECE" filter="url(#f1)" height="48.692" style="stroke: #A80036; stroke-width: 1.5;" width="71" x="239.5" y="593.474"/><text fill="#000000" font-family="Helvetica Neue" font-size="12" font-style="italic" lengthAdjust="spacingAndGlyphs" textLength="61" x="244.5" y="605.294">&lt;&lt; Stack&gt;&gt;</text><text fill="#000000" font-family="Helvetica Neue" font-size="12" lengthAdjust="spacingAndGlyphs" textLength="14" x="268" y="621.61">db</text><line style="stroke: #A80036; stroke-width: 1.5;" x1="240.5" x2="309.5" y1="626.166" y2="626.166"/><rect fill="#FEFECE" filter="url(#f1)" height="48.692" style="stroke: #A80036; stroke-width: 1.5;" width="149" x="202.5" y="740.974"/><text fill="#000000" font-family="Helvetica Neue" font-size="12" font-style="italic" lengthAdjust="spacingAndGlyphs" textLength="139" x="207.5" y="752.794">&lt;&lt; HostgroupResource&gt;&gt;</text><text fill="#000000" font-family="Helvetica Neue" font-size="12" lengthAdjust="spacingAndGlyphs" textLength="76" x="239" y="769.11">db_hostgroup</text><line style="stroke: #A80036; stroke-width: 1.5;" x1="203.5" x2="350.5" y1="773.666" y2="773.666"/><rect fill="#FEFECE" filter="url(#f1)" height="88.412" style="stroke: #A80036; stroke-width: 1.5;" width="203" x="386.5" y="721.474"/><text fill="#000000" font-family="Helvetica Neue" font-size="12" font-style="italic" lengthAdjust="spacingAndGlyphs" textLength="135" x="420.5" y="733.294">&lt;&lt; ParameterResource&gt;&gt;</text><text fill="#000000" font-family="Helvetica Neue" font-size="12" lengthAdjust="spacingAndGlyphs" textLength="56" x="460" y="749.61">db_api_url</text><line style="stroke: #A80036; stroke-width: 1.5;" x1="387.5" x2="588.5" y1="754.166" y2="754.166"/><text fill="#000000" font-family="Helvetica Neue" font-size="10" lengthAdjust="spacingAndGlyphs" textLength="91" x="392.5" y="767.966">name = "db_api_url"</text><text fill="#000000" font-family="Helvetica Neue" font-size="10" lengthAdjust="spacingAndGlyphs" textLength="71" x="392.5" y="779.896">\# pseudo code</text><text fill="#000000" font-family="Helvetica Neue" font-size="10" lengthAdjust="spacingAndGlyphs" textLength="191" x="392.5" y="791.826">\# computes the url for other stacks to use</text><text fill="#000000" font-family="Helvetica Neue" font-size="10" lengthAdjust="spacingAndGlyphs" textLength="184" x="392.5" y="803.756">default_value = "&lt;%= compute_url() %&gt;"</text><rect fill="#FEFECE" filter="url(#f1)" height="52.622" style="stroke: #A80036; stroke-width: 1.5;" width="145" x="22.5" y="738.974"/><text fill="#000000" font-family="Helvetica Neue" font-size="12" font-style="italic" lengthAdjust="spacingAndGlyphs" textLength="135" x="27.5" y="750.794">&lt;&lt; ParameterResource&gt;&gt;</text><text fill="#000000" font-family="Helvetica Neue" font-size="12" lengthAdjust="spacingAndGlyphs" textLength="72" x="59" y="767.11">db_password</text><line style="stroke: #A80036; stroke-width: 1.5;" x1="23.5" x2="166.5" y1="771.666" y2="771.666"/><text fill="#000000" font-family="Helvetica Neue" font-size="10" lengthAdjust="spacingAndGlyphs" textLength="106" x="28.5" y="785.466">name = "db_password"</text><rect fill="#FEFECE" filter="url(#f1)" height="48.692" style="stroke: #A80036; stroke-width: 1.5;" width="74" x="1129" y="593.474"/><text fill="#000000" font-family="Helvetica Neue" font-size="12" font-style="italic" lengthAdjust="spacingAndGlyphs" textLength="61" x="1135.5" y="605.294">&lt;&lt; Stack&gt;&gt;</text><text fill="#000000" font-family="Helvetica Neue" font-size="12" lengthAdjust="spacingAndGlyphs" textLength="60" x="1136" y="621.61">web_server</text><line style="stroke: #A80036; stroke-width: 1.5;" x1="1130" x2="1202" y1="626.166" y2="626.166"/><rect fill="#FEFECE" filter="url(#f1)" height="48.692" style="stroke: #A80036; stroke-width: 1.5;" width="149" x="963.5" y="740.974"/><text fill="#000000" font-family="Helvetica Neue" font-size="12" font-style="italic" lengthAdjust="spacingAndGlyphs" textLength="139" x="968.5" y="752.794">&lt;&lt; HostgroupResource&gt;&gt;</text><text fill="#000000" font-family="Helvetica Neue" font-size="12" lengthAdjust="spacingAndGlyphs" textLength="122" x="977" y="769.11">web_server_hostgroup</text><line style="stroke: #A80036; stroke-width: 1.5;" x1="964.5" x2="1111.5" y1="773.666" y2="773.666"/><rect fill="#FEFECE" filter="url(#f1)" height="52.622" style="stroke: #A80036; stroke-width: 1.5;" width="145" x="1147.5" y="738.974"/><text fill="#000000" font-family="Helvetica Neue" font-size="12" font-style="italic" lengthAdjust="spacingAndGlyphs" textLength="135" x="1152.5" y="750.794">&lt;&lt; ParameterResource&gt;&gt;</text><text fill="#000000" font-family="Helvetica Neue" font-size="12" lengthAdjust="spacingAndGlyphs" textLength="72" x="1184" y="767.11">db_password</text><line style="stroke: #A80036; stroke-width: 1.5;" x1="1148.5" x2="1291.5" y1="771.666" y2="771.666"/><text fill="#000000" font-family="Helvetica Neue" font-size="10" lengthAdjust="spacingAndGlyphs" textLength="106" x="1153.5" y="785.466">name = "db_password"</text><rect fill="#FEFECE" filter="url(#f1)" height="52.622" style="stroke: #A80036; stroke-width: 1.5;" width="145" x="1327.5" y="738.974"/><text fill="#000000" font-family="Helvetica Neue" font-size="12" font-style="italic" lengthAdjust="spacingAndGlyphs" textLength="135" x="1332.5" y="750.794">&lt;&lt; ParameterResource&gt;&gt;</text><text fill="#000000" font-family="Helvetica Neue" font-size="12" lengthAdjust="spacingAndGlyphs" textLength="56" x="1372" y="767.11">db_api_url</text><line style="stroke: #A80036; stroke-width: 1.5;" x1="1328.5" x2="1471.5" y1="771.666" y2="771.666"/><text fill="#000000" font-family="Helvetica Neue" font-size="10" lengthAdjust="spacingAndGlyphs" textLength="91" x="1333.5" y="785.466">name = "db_api_url"</text><rect fill="#FEFECE" filter="url(#f1)" height="64.552" style="stroke: #A80036; stroke-width: 1.5;" width="92" x="956" y="429.474"/><text fill="#000000" font-family="Helvetica Neue" font-size="12" font-style="italic" lengthAdjust="spacingAndGlyphs" textLength="61" x="971.5" y="441.294">&lt;&lt; Stack&gt;&gt;</text><text fill="#000000" font-family="Helvetica Neue" font-size="12" lengthAdjust="spacingAndGlyphs" textLength="74" x="965" y="457.61">load_balancer</text><line style="stroke: #A80036; stroke-width: 1.5;" x1="957" x2="1047" y1="462.166" y2="462.166"/><line style="stroke: #A80036; stroke-width: 1.0; stroke-dasharray: 1.0,2.0;" x1="962" x2="962" y1="472.131" y2="472.131"/><text fill="#000000" font-family="Helvetica Neue" font-size="10" lengthAdjust="spacingAndGlyphs" textLength="25" x="962" y="475.466">notes</text><line style="stroke: #A80036; stroke-width: 1.0; stroke-dasharray: 1.0,2.0;" x1="987" x2="987" y1="472.131" y2="472.131"/><text fill="#000000" font-family="Helvetica Neue" font-size="10" lengthAdjust="spacingAndGlyphs" textLength="80" x="962" y="487.896">resources omitted</text><rect fill="#FEFECE" filter="url(#f1)" height="48.692" style="stroke: #A80036; stroke-width: 1.5;" width="71" x="652.5" y="29.474"/><text fill="#000000" font-family="Helvetica Neue" font-size="12" font-style="italic" lengthAdjust="spacingAndGlyphs" textLength="61" x="657.5" y="41.294">&lt;&lt; Stack&gt;&gt;</text><text fill="#000000" font-family="Helvetica Neue" font-size="12" lengthAdjust="spacingAndGlyphs" textLength="48" x="664" y="57.61">web_app</text><line style="stroke: #A80036; stroke-width: 1.5;" x1="653.5" x2="722.5" y1="62.166" y2="62.166"/><rect fill="#FEFECE" filter="url(#f1)" height="52.622" style="stroke: #A80036; stroke-width: 1.5;" width="149" x="606.5" y="591.474"/><text fill="#000000" font-family="Helvetica Neue" font-size="12" font-style="italic" lengthAdjust="spacingAndGlyphs" textLength="139" x="611.5" y="603.294">&lt;&lt; HostgroupResource&gt;&gt;</text><text fill="#000000" font-family="Helvetica Neue" font-size="12" lengthAdjust="spacingAndGlyphs" textLength="98" x="632" y="619.61">master_hostgroup</text><line style="stroke: #A80036; stroke-width: 1.5;" x1="607.5" x2="754.5" y1="624.166" y2="624.166"/><text fill="#000000" font-family="Helvetica Neue" font-size="10" lengthAdjust="spacingAndGlyphs" textLength="127" x="612.5" y="637.966">name = "master_hostgroup"</text><rect fill="#FEFECE" filter="url(#f1)" height="64.552" style="stroke: #A80036; stroke-width: 1.5;" width="145" x="583.5" y="429.474"/><text fill="#000000" font-family="Helvetica Neue" font-size="12" font-style="italic" lengthAdjust="spacingAndGlyphs" textLength="135" x="588.5" y="441.294">&lt;&lt; ParameterResource&gt;&gt;</text><text fill="#000000" font-family="Helvetica Neue" font-size="12" lengthAdjust="spacingAndGlyphs" textLength="94" x="609" y="457.61">master_password</text><line style="stroke: #A80036; stroke-width: 1.5;" x1="584.5" x2="727.5" y1="462.166" y2="462.166"/><text fill="#000000" font-family="Helvetica Neue" font-size="10" lengthAdjust="spacingAndGlyphs" textLength="124" x="589.5" y="475.966">name = "master_password"</text><text fill="#000000" font-family="Helvetica Neue" font-size="10" lengthAdjust="spacingAndGlyphs" textLength="125" x="589.5" y="487.896">default_value = "changeme"</text><rect fill="#FEFECE" filter="url(#f1)" height="48.692" style="stroke: #A80036; stroke-width: 1.5;" width="150" x="156" y="281.474"/><text fill="#000000" font-family="Helvetica Neue" font-size="12" font-style="italic" lengthAdjust="spacingAndGlyphs" textLength="140" x="161" y="293.294">&lt;&lt; ChildStackResource&gt;&gt;</text><text fill="#000000" font-family="Helvetica Neue" font-size="12" lengthAdjust="spacingAndGlyphs" textLength="46" x="208" y="309.61">db_child</text><line style="stroke: #A80036; stroke-width: 1.5;" x1="157" x2="305" y1="314.166" y2="314.166"/><rect fill="#FEFECE" filter="url(#f1)" height="48.692" style="stroke: #A80036; stroke-width: 1.5;" width="150" x="927" y="281.474"/><text fill="#000000" font-family="Helvetica Neue" font-size="12" font-style="italic" lengthAdjust="spacingAndGlyphs" textLength="140" x="932" y="293.294">&lt;&lt; ChildStackResource&gt;&gt;</text><text fill="#000000" font-family="Helvetica Neue" font-size="12" lengthAdjust="spacingAndGlyphs" textLength="106" x="949" y="309.61">load_balancer_child</text><line style="stroke: #A80036; stroke-width: 1.5;" x1="928" x2="1076" y1="314.166" y2="314.166"/><rect fill="#FEFECE" filter="url(#f1)" height="48.692" style="stroke: #A80036; stroke-width: 1.5;" width="150" x="1085" y="155.474"/><text fill="#000000" font-family="Helvetica Neue" font-size="12" font-style="italic" lengthAdjust="spacingAndGlyphs" textLength="140" x="1090" y="167.294">&lt;&lt; ChildStackResource&gt;&gt;</text><text fill="#000000" font-family="Helvetica Neue" font-size="12" lengthAdjust="spacingAndGlyphs" textLength="92" x="1114" y="183.61">web_server_child</text><line style="stroke: #A80036; stroke-width: 1.5;" x1="1086" x2="1234" y1="188.166" y2="188.166"/><rect fill="#FEFECE" filter="url(#f1)" height="48.692" style="stroke: #A80036; stroke-width: 1.5;" width="191" x="274.5" y="155.474"/><text fill="#000000" font-family="Helvetica Neue" font-size="12" font-style="italic" lengthAdjust="spacingAndGlyphs" textLength="181" x="279.5" y="167.294">&lt;&lt; ConnectParameterResource&gt;&gt;</text><text fill="#000000" font-family="Helvetica Neue" font-size="12" lengthAdjust="spacingAndGlyphs" textLength="173" x="283.5" y="183.61">master_password2db_password</text><line style="stroke: #A80036; stroke-width: 1.5;" x1="275.5" x2="464.5" y1="188.166" y2="188.166"/><rect fill="#FEFECE" filter="url(#f1)" height="48.692" style="stroke: #A80036; stroke-width: 1.5;" width="194" x="689" y="155.474"/><text fill="#000000" font-family="Helvetica Neue" font-size="12" font-style="italic" lengthAdjust="spacingAndGlyphs" textLength="181" x="695.5" y="167.294">&lt;&lt; ConnectParameterResource&gt;&gt;</text><text fill="#000000" font-family="Helvetica Neue" font-size="12" lengthAdjust="spacingAndGlyphs" textLength="180" x="696" y="183.61">master_password2db_password2</text><line style="stroke: #A80036; stroke-width: 1.5;" x1="690" x2="882" y1="188.166" y2="188.166"/><rect fill="#FEFECE" filter="url(#f1)" height="48.692" style="stroke: #A80036; stroke-width: 1.5;" width="191" x="1213.5" y="437.474"/><text fill="#000000" font-family="Helvetica Neue" font-size="12" font-style="italic" lengthAdjust="spacingAndGlyphs" textLength="181" x="1218.5" y="449.294">&lt;&lt; ConnectParameterResource&gt;&gt;</text><text fill="#000000" font-family="Helvetica Neue" font-size="12" lengthAdjust="spacingAndGlyphs" textLength="126" x="1246" y="465.61">db_api_url2db_api_url2</text><line style="stroke: #A80036; stroke-width: 1.5;" x1="1214.5" x2="1403.5" y1="470.166" y2="470.166"/><path d="M275.326,642.675 C275.674,668.041 276.228,708.297 276.602,735.5206 " fill="none" style="stroke: #A80036; stroke-width: 1.0;"/><polygon fill="#A80036" points="276.674,740.7832,280.5497,731.729,276.6051,735.7837,272.5504,731.8391,276.674,740.7832" style="stroke: #A80036; stroke-width: 1.0;"/><text fill="#000000" font-family="Helvetica Neue" font-size="13" lengthAdjust="spacingAndGlyphs" textLength="94" x="277" y="688.214">is composed_of</text><path d="M239.163,634.254 C218.392,644.061 192.397,658.025 172,674.474 C150.422,691.875 130.218,715.906 115.924,734.7593 " fill="none" style="stroke: #A80036; stroke-width: 1.0;"/><polygon fill="#A80036" points="112.785,738.9429,121.386,734.1447,115.7858,734.9435,114.987,729.3434,112.785,738.9429" style="stroke: #A80036; stroke-width: 1.0;"/><text fill="#000000" font-family="Helvetica Neue" font-size="13" lengthAdjust="spacingAndGlyphs" textLength="94" x="173" y="688.214">is composed_of</text><path d="M310.572,635.465 C331.416,645.688 357.905,659.665 380,674.474 C399.414,687.487 419.415,703.357 436.848,718.126 " fill="none" style="stroke: #A80036; stroke-width: 1.0;"/><polygon fill="#A80036" points="440.758,721.457,436.4984,712.5769,436.9509,718.2156,431.3122,718.6682,440.758,721.457" style="stroke: #A80036; stroke-width: 1.0;"/><text fill="#000000" font-family="Helvetica Neue" font-size="13" lengthAdjust="spacingAndGlyphs" textLength="94" x="403" y="688.214">is composed_of</text><path d="M1128.76,630.33 C1106.33,639.002 1078.92,653.149 1062,674.474 C1048.22,691.845 1042.32,716.425 1039.81,735.5093 " fill="none" style="stroke: #A80036; stroke-width: 1.0;"/><polygon fill="#A80036" points="1039.18,740.7358,1044.2176,732.2728,1039.7721,735.771,1036.2738,731.3255,1039.18,740.7358" style="stroke: #A80036; stroke-width: 1.0;"/><text fill="#000000" font-family="Helvetica Neue" font-size="13" lengthAdjust="spacingAndGlyphs" textLength="91" x="1063" y="688.214">is composed of</text><path d="M1162.31,642.749 C1160.96,657.197 1160.84,675.814 1166,691.474 C1171.19,707.212 1181.22,722.333 1191.24,734.6913 " fill="none" style="stroke: #A80036; stroke-width: 1.0;"/><polygon fill="#A80036" points="1194.64,738.7732,1191.9784,729.2908,1191.4501,734.9229,1185.818,734.3946,1194.64,738.7732" style="stroke: #A80036; stroke-width: 1.0;"/><text fill="#000000" font-family="Helvetica Neue" font-size="13" lengthAdjust="spacingAndGlyphs" textLength="91" x="1167" y="688.214">is composed of</text><path d="M1203.16,639.529 C1221.35,649.771 1243.49,662.498 1263,674.474 C1295.35,694.327 1331.17,717.92 1358.07,735.9691 " fill="none" style="stroke: #A80036; stroke-width: 1.0;"/><polygon fill="#A80036" points="1362.31,738.8168,1357.0664,730.4799,1358.1584,736.0303,1352.608,737.1224,1362.31,738.8168" style="stroke: #A80036; stroke-width: 1.0;"/><text fill="#000000" font-family="Helvetica Neue" font-size="13" lengthAdjust="spacingAndGlyphs" textLength="91" x="1291" y="688.214">is composed of</text><path d="M652.144,56.052 C543.732,60.146 223.021,78.656 161,155.474 C130.725,192.972 170.43,245.716 201.241,277.495 " fill="none" style="stroke: #A80036; stroke-width: 1.0;"/><polygon fill="#A80036" points="204.949,281.265,201.4916,272.0429,201.4436,277.6996,195.7869,277.6516,204.949,281.265" style="stroke: #A80036; stroke-width: 1.0;"/><text fill="#000000" font-family="Helvetica Neue" font-size="13" lengthAdjust="spacingAndGlyphs" textLength="94" x="162" y="185.214">is composed_of</text><path d="M234.343,330.529 C242.286,386.488 262.268,527.269 270.911,588.164 " fill="none" style="stroke: #A80036; stroke-width: 1.0;"/><polygon fill="#A80036" points="271.662,593.455,274.3574,583.9822,270.9593,588.5046,266.4368,585.1065,271.662,593.455" style="stroke: #A80036; stroke-width: 1.0;"/><text fill="#000000" font-family="Helvetica Neue" font-size="13" lengthAdjust="spacingAndGlyphs" textLength="28" x="260" y="467.214">child</text><path d="M723.644,63.191 C756.324,71.635 805.362,86.642 844,108.474 C914.234,148.159 965.227,232.535 988.284,276.695 " fill="none" style="stroke: #A80036; stroke-width: 1.0;"/><polygon fill="#A80036" points="990.693,281.358,990.1138,271.5262,988.3971,276.9163,983.007,275.1996,990.693,281.358" style="stroke: #A80036; stroke-width: 1.0;"/><text fill="#000000" font-family="Helvetica Neue" font-size="13" lengthAdjust="spacingAndGlyphs" textLength="94" x="945" y="185.214">is composed_of</text><path d="M1002,330.699 C1002,355.56 1002,394.954 1002,423.919 " fill="none" style="stroke: #A80036; stroke-width: 1.0;"/><polygon fill="#A80036" points="1002,429.2,1006,420.2,1002,424.2,998,420.2,1002,429.2" style="stroke: #A80036; stroke-width: 1.0;"/><text fill="#000000" font-family="Helvetica Neue" font-size="13" lengthAdjust="spacingAndGlyphs" textLength="28" x="1003" y="374.214">child</text><path d="M723.561,59.246 C779.053,66.412 889.287,82.658 980,108.474 C1022.17,120.475 1068.17,138.586 1103.12,153.446 " fill="none" style="stroke: #A80036; stroke-width: 1.0;"/><polygon fill="#A80036" points="1107.75,155.427,1101.036,148.2213,1103.1496,153.4685,1097.9024,155.582,1107.75,155.427" style="stroke: #A80036; stroke-width: 1.0;"/><text fill="#000000" font-family="Helvetica Neue" font-size="13" lengthAdjust="spacingAndGlyphs" textLength="94" x="1032" y="122.214">is composed_of</text><path d="M1160.33,204.725 C1161.35,279.147 1164.5,507.649 1165.61,588.368 " fill="none" style="stroke: #A80036; stroke-width: 1.0;"/><polygon fill="#A80036" points="1165.68,593.468,1169.5562,584.414,1165.6114,588.4685,1161.557,584.5237,1165.68,593.468" style="stroke: #A80036; stroke-width: 1.0;"/><text fill="#000000" font-family="Helvetica Neue" font-size="13" lengthAdjust="spacingAndGlyphs" textLength="28" x="1164" y="374.214">child</text><path d="M1108.41,204.59 C1092.74,212.93 1075.99,223.101 1062,234.474 C1046.86,246.787 1032.58,263.283 1021.75,277.222 " fill="none" style="stroke: #A80036; stroke-width: 1.0;"/><polygon fill="#A80036" points="1018.51,281.458,1027.1578,276.7447,1021.5501,277.4884,1020.8064,271.8806,1018.51,281.458" style="stroke: #A80036; stroke-width: 1.0;"/><text fill="#000000" font-family="Helvetica Neue" font-size="13" lengthAdjust="spacingAndGlyphs" textLength="70" x="1063" y="248.214">depends on</text><path d="M1084.94,198.981 C1075.89,200.942 1066.75,202.822 1058,204.474 C917.611,230.977 882.003,235.768 740,251.474 C559.72,271.414 512.343,254.367 333,281.474 C325.919,282.544 318.602,283.842 311.288,285.271 " fill="none" style="stroke: #A80036; stroke-width: 1.0;"/><polygon fill="#A80036" points="306.228,286.281,315.8367,288.4426,311.1313,285.3026,314.2713,280.5972,306.228,286.281" style="stroke: #A80036; stroke-width: 1.0;"/><text fill="#000000" font-family="Helvetica Neue" font-size="13" lengthAdjust="spacingAndGlyphs" textLength="70" x="880" y="248.214">depends on</text><path d="M681.54,78.545 C672.566,112.63 656.779,177.813 651,234.474 C644.198,301.163 648.669,379.445 652.418,424.327 " fill="none" style="stroke: #A80036; stroke-width: 1.0;"/><polygon fill="#A80036" points="652.847,429.364,656.0688,420.057,652.4227,424.382,648.0976,420.7359,652.847,429.364" style="stroke: #A80036; stroke-width: 1.0;"/><text fill="#000000" font-family="Helvetica Neue" font-size="13" lengthAdjust="spacingAndGlyphs" textLength="94" x="652" y="248.214">is composed_of</text><path d="M666.472,78.477 C632.561,117.276 568.084,198.702 544,281.474 C527.557,337.985 539.908,449.464 566,502.474 C575.764,522.311 616.783,560.863 647.062,587.726 " fill="none" style="stroke: #A80036; stroke-width: 1.0;"/><polygon fill="#A80036" points="651.071,591.271,646.9775,582.3131,647.325,587.9593,641.6788,588.3068,651.071,591.271" style="stroke: #A80036; stroke-width: 1.0;"/><text fill="#000000" font-family="Helvetica Neue" font-size="13" lengthAdjust="spacingAndGlyphs" textLength="94" x="545" y="311.214">is composed_of</text><path d="M661.119,494.51 C665.459,521.239 671.646,559.356 675.962,585.941 " fill="none" style="stroke: #A80036; stroke-width: 1.0;"/><polygon fill="#A80036" points="676.799,591.097,679.3044,581.5721,675.9974,586.1617,671.4079,582.8547,676.799,591.097" style="stroke: #A80036; stroke-width: 1.0;"/><text fill="#000000" font-family="Helvetica Neue" font-size="13" lengthAdjust="spacingAndGlyphs" textLength="95" x="670" y="538.214">will be added to</text><path d="M652.276,57.437 C584.031,62.799 438.479,77.607 400,108.474 C387.136,118.794 379.695,135.654 375.443,150.299 " fill="none" style="stroke: #A80036; stroke-width: 1.0;"/><polygon fill="#A80036" points="374.119,155.168,380.3398,147.5324,375.4306,150.3431,372.62,145.4339,374.119,155.168" style="stroke: #A80036; stroke-width: 1.0;"/><text fill="#000000" font-family="Helvetica Neue" font-size="13" lengthAdjust="spacingAndGlyphs" textLength="91" x="401" y="122.214">is composed of</text><path d="M369.369,209.55 C370.096,242.054 375.841,295.184 403,330.474 C447.761,388.637 525.724,423.234 583.309,442.034 " fill="none" style="stroke: #00008B; stroke-width: 1.0;"/><polygon fill="#00008B" points="369.293,204.516,365.4297,213.5755,369.3687,209.5154,373.4288,213.4544,369.293,204.516" style="stroke: #00008B; stroke-width: 1.0;"/><text fill="#000000" font-family="Helvetica Neue" font-size="13" lengthAdjust="spacingAndGlyphs" textLength="39" x="404" y="311.214">source</text><path d="M276.13,204.474 C196.464,227.252 95,264.255 95,304.974 C95,304.974 95,304.974 95,618.974 C95,658.449 95,703.949 95,733.4079 " fill="none" style="stroke: #00008B; stroke-width: 1.0;"/><polygon fill="#00008B" points="95,738.7167,99,729.7167,95,733.7167,91,729.7167,95,738.7167" style="stroke: #00008B; stroke-width: 1.0;"/><text fill="#000000" font-family="Helvetica Neue" font-size="13" lengthAdjust="spacingAndGlyphs" textLength="64" x="96" y="467.214">destination</text><path d="M706.664,78.589 C723.08,99.361 746.986,129.609 764.261,151.467 " fill="none" style="stroke: #A80036; stroke-width: 1.0;"/><polygon fill="#A80036" points="767.406,155.447,764.9642,145.9056,764.3059,151.524,758.6875,150.8657,767.406,155.447" style="stroke: #A80036; stroke-width: 1.0;"/><text fill="#000000" font-family="Helvetica Neue" font-size="13" lengthAdjust="spacingAndGlyphs" textLength="91" x="744" y="122.214">is composed of</text><path d="M772.782,209.444 C748.357,262.051 696.325,374.121 670.776,429.148 " fill="none" style="stroke: #00008B; stroke-width: 1.0;"/><polygon fill="#00008B" points="774.916,204.847,767.4981,211.3258,772.8106,209.3821,774.7543,214.6945,774.916,204.847" style="stroke: #00008B; stroke-width: 1.0;"/><text fill="#000000" font-family="Helvetica Neue" font-size="13" lengthAdjust="spacingAndGlyphs" textLength="39" x="740" y="311.214">source</text><path d="M786.802,204.482 C790.164,289.315 805.838,578.154 865,644.474 C946.646,735.9981 1015.4,677.781 1130,721.474 C1141.71,725.9398 1154,731.3183 1165.6,736.7363 " fill="none" style="stroke: #00008B; stroke-width: 1.0;"/><polygon fill="#00008B" points="1170.18,738.8939,1163.74,731.4423,1165.6559,736.7648,1160.3334,738.6808,1170.18,738.8939" style="stroke: #00008B; stroke-width: 1.0;"/><text fill="#000000" font-family="Helvetica Neue" font-size="13" lengthAdjust="spacingAndGlyphs" textLength="64" x="817" y="467.214">destination</text><path d="M723.509,55.565 C836.559,58.274 1184.61,73.266 1252,155.474 C1319.07,237.292 1316.83,373.002 1312.12,432.047 " fill="none" style="stroke: #A80036; stroke-width: 1.0;"/><polygon fill="#A80036" points="1311.68,437.18,1316.4214,428.5475,1312.0997,432.1976,1308.4496,427.876,1311.68,437.18" style="stroke: #A80036; stroke-width: 1.0;"/><text fill="#000000" font-family="Helvetica Neue" font-size="13" lengthAdjust="spacingAndGlyphs" textLength="91" x="1300" y="248.214">is composed of</text><path d="M1208.11,479.697 C1096.54,498.96 929.338,530.397 906,549.474 C852.682,593.058 897.517,648.136 844,691.474 C805.572,722.593 680.733,742.9724 589.71,754.0969 " fill="none" style="stroke: #00008B; stroke-width: 1.0;"/><polygon fill="#00008B" points="1213.05,478.847,1203.5044,476.4218,1208.1216,479.6901,1204.8533,484.3073,1213.05,478.847" style="stroke: #00008B; stroke-width: 1.0;"/><text fill="#000000" font-family="Helvetica Neue" font-size="13" lengthAdjust="spacingAndGlyphs" textLength="39" x="907" y="623.214">source</text><path d="M1320.66,486.716 C1338.97,525.144 1374.1,603.808 1391,674.474 C1395.63,693.851 1397.89,716.127 1398.98,733.6698 " fill="none" style="stroke: #00008B; stroke-width: 1.0;"/><polygon fill="#00008B" points="1399.28,738.9536,1402.7575,729.7391,1398.9934,733.9618,1394.7706,730.1977,1399.28,738.9536" style="stroke: #00008B; stroke-width: 1.0;"/><text fill="#000000" font-family="Helvetica Neue" font-size="13" lengthAdjust="spacingAndGlyphs" textLength="64" x="1383" y="623.214">destination</text><path d="M626.364,644.548 C592.307,659.747 547.26,678.522 506,691.474 C446.53,710.142 428.041,701.488 369,721.474 C355.168,726.1563 340.656,732.31 327.351,738.493 " fill="none" style="stroke: #00008B; stroke-width: 1.0;"/><polygon fill="#00008B" points="322.508,740.7695,332.3546,740.5606,327.033,738.6424,328.9512,733.3207,322.508,740.7695" style="stroke: #00008B; stroke-width: 1.0;"/><text fill="#000000" font-family="Helvetica Neue" font-size="13" lengthAdjust="spacingAndGlyphs" textLength="71" x="552" y="688.214">be parent of</text><path d="M720.761,644.574 C745.245,659.595 777.654,678.175 808,691.474 C856.591,712.768 913.39,730.8584 958.386,743.7035 " fill="none" style="stroke: #00008B; stroke-width: 1.0;"/><polygon fill="#00008B" points="963.256,745.0866,955.6926,738.7783,958.4465,743.7195,953.5053,746.4734,963.256,745.0866" style="stroke: #00008B; stroke-width: 1.0;"/><text fill="#000000" font-family="Helvetica Neue" font-size="13" lengthAdjust="spacingAndGlyphs" textLength="71" x="809" y="688.214">be parent of</text><polygon fill="#DDDDDD" points="475.5,843.474,475.5,936.984,1030.5,936.984,1030.5,843.474,475.5,843.474" style="stroke: #000000; stroke-width: 1.0;"/><text fill="#000000" font-family="Helvetica Neue" font-size="14" lengthAdjust="spacingAndGlyphs" textLength="477" x="481.5" y="862.194">-   Stack is not connected to any existing Foreman models to allow sharing.</text><text fill="#000000" font-family="Helvetica Neue" font-size="14" lengthAdjust="spacingAndGlyphs" textLength="501" x="481.5" y="878.896">-   ParameterResource defines inputs and outputs through parameters to avoid</text><text fill="#000000" font-family="Helvetica Neue" font-size="14" lengthAdjust="spacingAndGlyphs" textLength="195" x="481.5" y="895.598">entanglement between stacks.</text><text fill="#000000" font-family="Helvetica Neue" font-size="14" lengthAdjust="spacingAndGlyphs" textLength="543" x="481.5" y="912.3">-   ConnectParameterResource connects parameters between child stacks in a given</text><text fill="#000000" font-family="Helvetica Neue" font-size="14" lengthAdjust="spacingAndGlyphs" textLength="45" x="481.5" y="929.002">parent.</text></g></svg>