<?xml version="1.0" encoding="UTF-8" standalone="yes"?><svg xmlns="http://www.w3.org/2000/svg" xmlns:xlink="http://www.w3.org/1999/xlink" height="937pt" style="width:1657px;height:937px;" version="1.1" viewBox="0 0 1657 937" width="1657pt"><defs><filter height="300%" id="f1" width="300%" x="-1" y="-1"><feGaussianBlur result="blurOut" stdDeviation="2.0"/><feColorMatrix in="blurOut" result="blurOut2" type="matrix" values="0 0 0 0 0 0 0 0 0 0 0 0 0 0 0 0 0 0 .4 0"/><feOffset dx="4.0" dy="4.0" in="blurOut2" result="blurOut3"/><feBlend in="SourceGraphic" in2="blurOut3" mode="normal"/></filter></defs><g><text fill="#000000" font-family="Helvetica Neue" font-size="18" lengthAdjust="spacingAndGlyphs" textLength="256" x="710" y="17.64">Web application stack example</text><rect fill="#FFFFFF" filter="url(#f1)" height="268" style="stroke: #000000; stroke-width: 2.0;" width="642" x="14" y="549.474"/><text fill="#000000" font-family="Helvetica Neue" font-size="14" font-weight="bold" lengthAdjust="spacingAndGlyphs" textLength="20" x="325" y="568.53">DB</text><rect fill="#FFFFFF" filter="url(#f1)" height="250.5" style="stroke: #000000; stroke-width: 2.0;" width="642" x="1008" y="549.474"/><text fill="#000000" font-family="Helvetica Neue" font-size="14" font-weight="bold" lengthAdjust="spacingAndGlyphs" textLength="72" x="1293" y="568.53">WebServer</text><rect fill="#FFFFFF" filter="url(#f1)" height="117" style="stroke: #000000; stroke-width: 2.0;" width="109" x="1003" y="385.474"/><text fill="#000000" font-family="Helvetica Neue" font-size="14" font-weight="bold" lengthAdjust="spacingAndGlyphs" textLength="93" x="1011" y="404.53">LoadBalancer</text><rect fill="#FEFECE" filter="url(#f1)" height="48.692" style="stroke: #A80036; stroke-width: 1.5;" width="71" x="280.5" y="593.474"/><text fill="#000000" font-family="Helvetica Neue" font-size="12" font-style="italic" lengthAdjust="spacingAndGlyphs" textLength="61" x="285.5" y="605.294">&lt;&lt; Stack&gt;&gt;</text><text fill="#000000" font-family="Helvetica Neue" font-size="12" lengthAdjust="spacingAndGlyphs" textLength="14" x="309" y="621.61">db</text><line style="stroke: #A80036; stroke-width: 1.5;" x1="281.5" x2="350.5" y1="626.166" y2="626.166"/><rect fill="#FEFECE" filter="url(#f1)" height="48.692" style="stroke: #A80036; stroke-width: 1.5;" width="149" x="260.5" y="740.974"/><text fill="#000000" font-family="Helvetica Neue" font-size="12" font-style="italic" lengthAdjust="spacingAndGlyphs" textLength="139" x="265.5" y="752.794">&lt;&lt; HostgroupResource&gt;&gt;</text><text fill="#000000" font-family="Helvetica Neue" font-size="12" lengthAdjust="spacingAndGlyphs" textLength="76" x="297" y="769.11">db_hostgroup</text><line style="stroke: #A80036; stroke-width: 1.5;" x1="261.5" x2="408.5" y1="773.666" y2="773.666"/><rect fill="#FEFECE" filter="url(#f1)" height="88.412" style="stroke: #A80036; stroke-width: 1.5;" width="203" x="444.5" y="721.474"/><text fill="#000000" font-family="Helvetica Neue" font-size="12" font-style="italic" lengthAdjust="spacingAndGlyphs" textLength="193" x="449.5" y="733.294">&lt;&lt; HostgroupParameterResource&gt;&gt;</text><text fill="#000000" font-family="Helvetica Neue" font-size="12" lengthAdjust="spacingAndGlyphs" textLength="56" x="518" y="749.61">db_api_url</text><line style="stroke: #A80036; stroke-width: 1.5;" x1="445.5" x2="646.5" y1="754.166" y2="754.166"/><text fill="#000000" font-family="Helvetica Neue" font-size="10" lengthAdjust="spacingAndGlyphs" textLength="91" x="450.5" y="767.966">name = "db_api_url"</text><text fill="#000000" font-family="Helvetica Neue" font-size="10" lengthAdjust="spacingAndGlyphs" textLength="71" x="450.5" y="779.896">\# pseudo code</text><text fill="#000000" font-family="Helvetica Neue" font-size="10" lengthAdjust="spacingAndGlyphs" textLength="191" x="450.5" y="791.826">\# computes the url for other stacks to use</text><text fill="#000000" font-family="Helvetica Neue" font-size="10" lengthAdjust="spacingAndGlyphs" textLength="184" x="450.5" y="803.756">default_value = "&lt;%= compute_url() %&gt;"</text><rect fill="#FEFECE" filter="url(#f1)" height="52.622" style="stroke: #A80036; stroke-width: 1.5;" width="203" x="22.5" y="738.974"/><text fill="#000000" font-family="Helvetica Neue" font-size="12" font-style="italic" lengthAdjust="spacingAndGlyphs" textLength="193" x="27.5" y="750.794">&lt;&lt; HostgroupParameterResource&gt;&gt;</text><text fill="#000000" font-family="Helvetica Neue" font-size="12" lengthAdjust="spacingAndGlyphs" textLength="72" x="88" y="767.11">db_password</text><line style="stroke: #A80036; stroke-width: 1.5;" x1="23.5" x2="224.5" y1="771.666" y2="771.666"/><text fill="#000000" font-family="Helvetica Neue" font-size="10" lengthAdjust="spacingAndGlyphs" textLength="106" x="28.5" y="785.466">name = "db_password"</text><rect fill="#FEFECE" filter="url(#f1)" height="48.692" style="stroke: #A80036; stroke-width: 1.5;" width="74" x="1200" y="593.474"/><text fill="#000000" font-family="Helvetica Neue" font-size="12" font-style="italic" lengthAdjust="spacingAndGlyphs" textLength="61" x="1206.5" y="605.294">&lt;&lt; Stack&gt;&gt;</text><text fill="#000000" font-family="Helvetica Neue" font-size="12" lengthAdjust="spacingAndGlyphs" textLength="60" x="1207" y="621.61">web_server</text><line style="stroke: #A80036; stroke-width: 1.5;" x1="1201" x2="1273" y1="626.166" y2="626.166"/><rect fill="#FEFECE" filter="url(#f1)" height="48.692" style="stroke: #A80036; stroke-width: 1.5;" width="149" x="1016.5" y="740.974"/><text fill="#000000" font-family="Helvetica Neue" font-size="12" font-style="italic" lengthAdjust="spacingAndGlyphs" textLength="139" x="1021.5" y="752.794">&lt;&lt; HostgroupResource&gt;&gt;</text><text fill="#000000" font-family="Helvetica Neue" font-size="12" lengthAdjust="spacingAndGlyphs" textLength="122" x="1030" y="769.11">web_server_hostgroup</text><line style="stroke: #A80036; stroke-width: 1.5;" x1="1017.5" x2="1164.5" y1="773.666" y2="773.666"/><rect fill="#FEFECE" filter="url(#f1)" height="52.622" style="stroke: #A80036; stroke-width: 1.5;" width="203" x="1200.5" y="738.974"/><text fill="#000000" font-family="Helvetica Neue" font-size="12" font-style="italic" lengthAdjust="spacingAndGlyphs" textLength="193" x="1205.5" y="750.794">&lt;&lt; HostgroupParameterResource&gt;&gt;</text><text fill="#000000" font-family="Helvetica Neue" font-size="12" lengthAdjust="spacingAndGlyphs" textLength="72" x="1266" y="767.11">db_password</text><line style="stroke: #A80036; stroke-width: 1.5;" x1="1201.5" x2="1402.5" y1="771.666" y2="771.666"/><text fill="#000000" font-family="Helvetica Neue" font-size="10" lengthAdjust="spacingAndGlyphs" textLength="106" x="1206.5" y="785.466">name = "db_password"</text><rect fill="#FEFECE" filter="url(#f1)" height="52.622" style="stroke: #A80036; stroke-width: 1.5;" width="203" x="1438.5" y="738.974"/><text fill="#000000" font-family="Helvetica Neue" font-size="12" font-style="italic" lengthAdjust="spacingAndGlyphs" textLength="193" x="1443.5" y="750.794">&lt;&lt; HostgroupParameterResource&gt;&gt;</text><text fill="#000000" font-family="Helvetica Neue" font-size="12" lengthAdjust="spacingAndGlyphs" textLength="56" x="1512" y="767.11">db_api_url</text><line style="stroke: #A80036; stroke-width: 1.5;" x1="1439.5" x2="1640.5" y1="771.666" y2="771.666"/><text fill="#000000" font-family="Helvetica Neue" font-size="10" lengthAdjust="spacingAndGlyphs" textLength="91" x="1444.5" y="785.466">name = "db_api_url"</text><rect fill="#FEFECE" filter="url(#f1)" height="64.552" style="stroke: #A80036; stroke-width: 1.5;" width="92" x="1012" y="429.474"/><text fill="#000000" font-family="Helvetica Neue" font-size="12" font-style="italic" lengthAdjust="spacingAndGlyphs" textLength="61" x="1027.5" y="441.294">&lt;&lt; Stack&gt;&gt;</text><text fill="#000000" font-family="Helvetica Neue" font-size="12" lengthAdjust="spacingAndGlyphs" textLength="74" x="1021" y="457.61">load_balancer</text><line style="stroke: #A80036; stroke-width: 1.5;" x1="1013" x2="1103" y1="462.166" y2="462.166"/><line style="stroke: #A80036; stroke-width: 1.0; stroke-dasharray: 1.0,2.0;" x1="1018" x2="1018" y1="472.131" y2="472.131"/><text fill="#000000" font-family="Helvetica Neue" font-size="10" lengthAdjust="spacingAndGlyphs" textLength="25" x="1018" y="475.466">notes</text><line style="stroke: #A80036; stroke-width: 1.0; stroke-dasharray: 1.0,2.0;" x1="1043" x2="1043" y1="472.131" y2="472.131"/><text fill="#000000" font-family="Helvetica Neue" font-size="10" lengthAdjust="spacingAndGlyphs" textLength="80" x="1018" y="487.896">resources omitted</text><rect fill="#FEFECE" filter="url(#f1)" height="48.692" style="stroke: #A80036; stroke-width: 1.5;" width="71" x="705.5" y="29.474"/><text fill="#000000" font-family="Helvetica Neue" font-size="12" font-style="italic" lengthAdjust="spacingAndGlyphs" textLength="61" x="710.5" y="41.294">&lt;&lt; Stack&gt;&gt;</text><text fill="#000000" font-family="Helvetica Neue" font-size="12" lengthAdjust="spacingAndGlyphs" textLength="48" x="717" y="57.61">web_app</text><line style="stroke: #A80036; stroke-width: 1.5;" x1="706.5" x2="775.5" y1="62.166" y2="62.166"/><rect fill="#FEFECE" filter="url(#f1)" height="52.622" style="stroke: #A80036; stroke-width: 1.5;" width="149" x="664.5" y="591.474"/><text fill="#000000" font-family="Helvetica Neue" font-size="12" font-style="italic" lengthAdjust="spacingAndGlyphs" textLength="139" x="669.5" y="603.294">&lt;&lt; HostgroupResource&gt;&gt;</text><text fill="#000000" font-family="Helvetica Neue" font-size="12" lengthAdjust="spacingAndGlyphs" textLength="98" x="690" y="619.61">master_hostgroup</text><line style="stroke: #A80036; stroke-width: 1.5;" x1="665.5" x2="812.5" y1="624.166" y2="624.166"/><text fill="#000000" font-family="Helvetica Neue" font-size="10" lengthAdjust="spacingAndGlyphs" textLength="127" x="670.5" y="637.966">name = "master_hostgroup"</text><rect fill="#FEFECE" filter="url(#f1)" height="64.552" style="stroke: #A80036; stroke-width: 1.5;" width="203" x="595.5" y="429.474"/><text fill="#000000" font-family="Helvetica Neue" font-size="12" font-style="italic" lengthAdjust="spacingAndGlyphs" textLength="193" x="600.5" y="441.294">&lt;&lt; HostgroupParameterResource&gt;&gt;</text><text fill="#000000" font-family="Helvetica Neue" font-size="12" lengthAdjust="spacingAndGlyphs" textLength="94" x="650" y="457.61">master_password</text><line style="stroke: #A80036; stroke-width: 1.5;" x1="596.5" x2="797.5" y1="462.166" y2="462.166"/><text fill="#000000" font-family="Helvetica Neue" font-size="10" lengthAdjust="spacingAndGlyphs" textLength="124" x="601.5" y="475.966">name = "master_password"</text><text fill="#000000" font-family="Helvetica Neue" font-size="10" lengthAdjust="spacingAndGlyphs" textLength="125" x="601.5" y="487.896">default_value = "changeme"</text><rect fill="#FEFECE" filter="url(#f1)" height="48.692" style="stroke: #A80036; stroke-width: 1.5;" width="150" x="209" y="281.474"/><text fill="#000000" font-family="Helvetica Neue" font-size="12" font-style="italic" lengthAdjust="spacingAndGlyphs" textLength="140" x="214" y="293.294">&lt;&lt; ChildStackResource&gt;&gt;</text><text fill="#000000" font-family="Helvetica Neue" font-size="12" lengthAdjust="spacingAndGlyphs" textLength="46" x="261" y="309.61">db_child</text><line style="stroke: #A80036; stroke-width: 1.5;" x1="210" x2="358" y1="314.166" y2="314.166"/><rect fill="#FEFECE" filter="url(#f1)" height="48.692" style="stroke: #A80036; stroke-width: 1.5;" width="150" x="983" y="281.474"/><text fill="#000000" font-family="Helvetica Neue" font-size="12" font-style="italic" lengthAdjust="spacingAndGlyphs" textLength="140" x="988" y="293.294">&lt;&lt; ChildStackResource&gt;&gt;</text><text fill="#000000" font-family="Helvetica Neue" font-size="12" lengthAdjust="spacingAndGlyphs" textLength="106" x="1005" y="309.61">load_balancer_child</text><line style="stroke: #A80036; stroke-width: 1.5;" x1="984" x2="1132" y1="314.166" y2="314.166"/><rect fill="#FEFECE" filter="url(#f1)" height="48.692" style="stroke: #A80036; stroke-width: 1.5;" width="150" x="1141" y="155.474"/><text fill="#000000" font-family="Helvetica Neue" font-size="12" font-style="italic" lengthAdjust="spacingAndGlyphs" textLength="140" x="1146" y="167.294">&lt;&lt; ChildStackResource&gt;&gt;</text><text fill="#000000" font-family="Helvetica Neue" font-size="12" lengthAdjust="spacingAndGlyphs" textLength="92" x="1170" y="183.61">web_server_child</text><line style="stroke: #A80036; stroke-width: 1.5;" x1="1142" x2="1290" y1="188.166" y2="188.166"/><rect fill="#FEFECE" filter="url(#f1)" height="48.692" style="stroke: #A80036; stroke-width: 1.5;" width="191" x="315.5" y="155.474"/><text fill="#000000" font-family="Helvetica Neue" font-size="12" font-style="italic" lengthAdjust="spacingAndGlyphs" textLength="181" x="320.5" y="167.294">&lt;&lt; ConnectParameterResource&gt;&gt;</text><text fill="#000000" font-family="Helvetica Neue" font-size="12" lengthAdjust="spacingAndGlyphs" textLength="173" x="324.5" y="183.61">master_password2db_password</text><line style="stroke: #A80036; stroke-width: 1.5;" x1="316.5" x2="505.5" y1="188.166" y2="188.166"/><rect fill="#FEFECE" filter="url(#f1)" height="48.692" style="stroke: #A80036; stroke-width: 1.5;" width="194" x="742" y="155.474"/><text fill="#000000" font-family="Helvetica Neue" font-size="12" font-style="italic" lengthAdjust="spacingAndGlyphs" textLength="181" x="748.5" y="167.294">&lt;&lt; ConnectParameterResource&gt;&gt;</text><text fill="#000000" font-family="Helvetica Neue" font-size="12" lengthAdjust="spacingAndGlyphs" textLength="180" x="749" y="183.61">master_password2db_password2</text><line style="stroke: #A80036; stroke-width: 1.5;" x1="743" x2="935" y1="188.166" y2="188.166"/><rect fill="#FEFECE" filter="url(#f1)" height="48.692" style="stroke: #A80036; stroke-width: 1.5;" width="191" x="1269.5" y="437.474"/><text fill="#000000" font-family="Helvetica Neue" font-size="12" font-style="italic" lengthAdjust="spacingAndGlyphs" textLength="181" x="1274.5" y="449.294">&lt;&lt; ConnectParameterResource&gt;&gt;</text><text fill="#000000" font-family="Helvetica Neue" font-size="12" lengthAdjust="spacingAndGlyphs" textLength="126" x="1302" y="465.61">db_api_url2db_api_url2</text><line style="stroke: #A80036; stroke-width: 1.5;" x1="1270.5" x2="1459.5" y1="470.166" y2="470.166"/><path d="M319.095,642.675 C322.407,668.041 327.664,708.297 331.219,735.5206 " fill="none" style="stroke: #A80036; stroke-width: 1.0;"/><polygon fill="#A80036" points="331.906,740.7832,334.7068,731.341,331.2585,735.8253,326.7741,732.377,331.906,740.7832" style="stroke: #A80036; stroke-width: 1.0;"/><text fill="#000000" font-family="Helvetica Neue" font-size="13" lengthAdjust="spacingAndGlyphs" textLength="94" x="326" y="688.214">is composed_of</text><path d="M280.127,637.165 C261.544,647.212 238.857,660.473 220,674.474 C195.41,692.732 170.247,716.549 151.855,735.0955 " fill="none" style="stroke: #A80036; stroke-width: 1.0;"/><polygon fill="#A80036" points="148.269,738.7314,157.4367,735.1323,151.7799,735.1715,151.7407,729.5147,148.269,738.7314" style="stroke: #A80036; stroke-width: 1.0;"/><text fill="#000000" font-family="Helvetica Neue" font-size="13" lengthAdjust="spacingAndGlyphs" textLength="94" x="221" y="688.214">is composed_of</text><path d="M351.582,634.24 C374.331,644.532 404.126,659.013 429,674.474 C449.842,687.428 471.462,703.284 490.362,718.058 " fill="none" style="stroke: #A80036; stroke-width: 1.0;"/><polygon fill="#A80036" points="494.602,721.39,489.9978,712.6836,490.6709,718.3003,485.0542,718.9733,494.602,721.39" style="stroke: #A80036; stroke-width: 1.0;"/><text fill="#000000" font-family="Helvetica Neue" font-size="13" lengthAdjust="spacingAndGlyphs" textLength="94" x="454" y="688.214">is composed_of</text><path d="M1201.65,642.686 C1188.9,651.947 1174.76,663.074 1163,674.474 C1143.23,693.636 1123.91,718.199 1110.27,736.8215 " fill="none" style="stroke: #A80036; stroke-width: 1.0;"/><polygon fill="#A80036" points="1107.28,740.94,1115.809,736.0149,1110.2212,736.8966,1109.3395,731.3089,1107.28,740.94" style="stroke: #A80036; stroke-width: 1.0;"/><text fill="#000000" font-family="Helvetica Neue" font-size="13" lengthAdjust="spacingAndGlyphs" textLength="91" x="1164" y="688.214">is composed of</text><path d="M1247.59,642.675 C1258.74,667.643 1276.34,707.039 1288.49,734.2309 " fill="none" style="stroke: #A80036; stroke-width: 1.0;"/><polygon fill="#A80036" points="1290.54,738.8226,1290.5262,728.9738,1288.5029,734.2564,1283.2203,732.2331,1290.54,738.8226" style="stroke: #A80036; stroke-width: 1.0;"/><text fill="#000000" font-family="Helvetica Neue" font-size="13" lengthAdjust="spacingAndGlyphs" textLength="91" x="1269" y="688.214">is composed of</text><path d="M1274.08,633.563 C1300.74,644.297 1337.42,659.557 1369,674.474 C1410.22,693.945 1455.87,718.106 1489.62,736.4903 " fill="none" style="stroke: #A80036; stroke-width: 1.0;"/><polygon fill="#A80036" points="1494.1,738.9307,1488.1224,731.1033,1489.713,736.5319,1484.2844,738.1225,1494.1,738.9307" style="stroke: #A80036; stroke-width: 1.0;"/><text fill="#000000" font-family="Helvetica Neue" font-size="13" lengthAdjust="spacingAndGlyphs" textLength="91" x="1404" y="688.214">is composed of</text><path d="M705.492,55.864 C595.754,59.443 265.609,76.69 202,155.474 C170.691,194.253 216.032,246.688 250.744,278.044 " fill="none" style="stroke: #A80036; stroke-width: 1.0;"/><polygon fill="#A80036" points="254.492,281.386,250.4366,272.4108,250.7601,278.0584,245.1125,278.3819,254.492,281.386" style="stroke: #A80036; stroke-width: 1.0;"/><text fill="#000000" font-family="Helvetica Neue" font-size="13" lengthAdjust="spacingAndGlyphs" textLength="94" x="203" y="185.214">is composed_of</text><path d="M286.431,330.529 C292.208,386.488 306.74,527.269 313.026,588.164 " fill="none" style="stroke: #A80036; stroke-width: 1.0;"/><polygon fill="#A80036" points="313.572,593.455,316.6279,584.0922,313.0592,588.4814,308.6701,584.9127,313.572,593.455" style="stroke: #A80036; stroke-width: 1.0;"/><text fill="#000000" font-family="Helvetica Neue" font-size="13" lengthAdjust="spacingAndGlyphs" textLength="28" x="305" y="467.214">child</text><path d="M776.644,63.191 C809.324,71.635 858.362,86.642 897,108.474 C967.761,148.456 1020.08,232.702 1043.83,276.765 " fill="none" style="stroke: #A80036; stroke-width: 1.0;"/><polygon fill="#A80036" points="1046.32,281.417,1045.6141,271.5935,1043.9671,277.0052,1038.5553,275.3582,1046.32,281.417" style="stroke: #A80036; stroke-width: 1.0;"/><text fill="#000000" font-family="Helvetica Neue" font-size="13" lengthAdjust="spacingAndGlyphs" textLength="94" x="998" y="185.214">is composed_of</text><path d="M1058,330.699 C1058,355.56 1058,394.954 1058,423.919 " fill="none" style="stroke: #A80036; stroke-width: 1.0;"/><polygon fill="#A80036" points="1058,429.2,1062,420.2,1058,424.2,1054,420.2,1058,429.2" style="stroke: #A80036; stroke-width: 1.0;"/><text fill="#000000" font-family="Helvetica Neue" font-size="13" lengthAdjust="spacingAndGlyphs" textLength="28" x="1059" y="374.214">child</text><path d="M776.928,59.204 C832.992,66.313 944.361,82.484 1036,108.474 C1078.18,120.437 1124.18,138.548 1159.12,153.419 " fill="none" style="stroke: #A80036; stroke-width: 1.0;"/><polygon fill="#A80036" points="1163.76,155.401,1157.046,148.1953,1159.1596,153.4425,1153.9124,155.556,1163.76,155.401" style="stroke: #A80036; stroke-width: 1.0;"/><text fill="#000000" font-family="Helvetica Neue" font-size="13" lengthAdjust="spacingAndGlyphs" textLength="94" x="1088" y="122.214">is composed_of</text><path d="M1217.14,204.725 C1220.73,279.147 1231.73,507.649 1235.62,588.368 " fill="none" style="stroke: #A80036; stroke-width: 1.0;"/><polygon fill="#A80036" points="1235.87,593.468,1239.4313,584.2856,1235.6289,588.4738,1231.4406,584.6714,1235.87,593.468" style="stroke: #A80036; stroke-width: 1.0;"/><text fill="#000000" font-family="Helvetica Neue" font-size="13" lengthAdjust="spacingAndGlyphs" textLength="28" x="1227" y="374.214">child</text><path d="M1164.41,204.59 C1148.74,212.93 1131.99,223.101 1118,234.474 C1102.86,246.787 1088.58,263.283 1077.75,277.222 " fill="none" style="stroke: #A80036; stroke-width: 1.0;"/><polygon fill="#A80036" points="1074.51,281.458,1083.1578,276.7447,1077.5501,277.4884,1076.8064,271.8806,1074.51,281.458" style="stroke: #A80036; stroke-width: 1.0;"/><text fill="#000000" font-family="Helvetica Neue" font-size="13" lengthAdjust="spacingAndGlyphs" textLength="70" x="1119" y="248.214">depends on</text><path d="M1140.94,198.992 C1131.89,200.951 1122.75,202.828 1114,204.474 C972.297,231.126 936.325,235.72 793,251.474 C612.706,271.292 565.343,254.367 386,281.474 C378.919,282.544 371.602,283.842 364.288,285.271 " fill="none" style="stroke: #A80036; stroke-width: 1.0;"/><polygon fill="#A80036" points="359.228,286.281,368.8367,288.4426,364.1313,285.3026,367.2713,280.5972,359.228,286.281" style="stroke: #A80036; stroke-width: 1.0;"/><text fill="#000000" font-family="Helvetica Neue" font-size="13" lengthAdjust="spacingAndGlyphs" textLength="70" x="934" y="248.214">depends on</text><path d="M734.154,78.52 C724.619,112.577 707.754,177.724 701,234.474 C693.078,301.033 693.931,379.359 695.387,424.283 " fill="none" style="stroke: #A80036; stroke-width: 1.0;"/><polygon fill="#A80036" points="695.557,429.326,699.2513,420.1963,695.3884,424.3288,691.2558,420.466,695.557,429.326" style="stroke: #A80036; stroke-width: 1.0;"/><text fill="#000000" font-family="Helvetica Neue" font-size="13" lengthAdjust="spacingAndGlyphs" textLength="94" x="702" y="248.214">is composed_of</text><path d="M719.778,78.695 C686.142,117.802 621.3,199.65 591,281.474 C574.824,325.157 580.894,338.982 578,385.474 C574.769,437.374 551.929,457.482 578,502.474 C599.06,538.82 625.66,525.281 660,549.474 C676.446,561.06 693.554,575.361 707.627,587.813 " fill="none" style="stroke: #A80036; stroke-width: 1.0;"/><polygon fill="#A80036" points="711.513,591.272,707.4504,582.3001,707.7784,587.9474,702.1311,588.2755,711.513,591.272" style="stroke: #A80036; stroke-width: 1.0;"/><text fill="#000000" font-family="Helvetica Neue" font-size="13" lengthAdjust="spacingAndGlyphs" textLength="94" x="592" y="311.214">is composed_of</text><path d="M705.601,494.51 C712.921,521.35 723.373,559.674 730.627,586.273 " fill="none" style="stroke: #A80036; stroke-width: 1.0;"/><polygon fill="#A80036" points="731.943,591.097,733.4333,581.3615,730.6271,586.2733,725.7153,583.4671,731.943,591.097" style="stroke: #A80036; stroke-width: 1.0;"/><text fill="#000000" font-family="Helvetica Neue" font-size="13" lengthAdjust="spacingAndGlyphs" textLength="95" x="719" y="538.214">will be added to</text><path d="M705.432,57.128 C635.08,62.047 481.455,76.26 441,108.474 C428.005,118.822 420.55,135.851 416.321,150.58 " fill="none" style="stroke: #A80036; stroke-width: 1.0;"/><polygon fill="#A80036" points="415.008,155.474,421.206,147.8199,416.3052,150.6452,413.4799,145.7444,415.008,155.474" style="stroke: #A80036; stroke-width: 1.0;"/><text fill="#000000" font-family="Helvetica Neue" font-size="13" lengthAdjust="spacingAndGlyphs" textLength="91" x="442" y="122.214">is composed of</text><path d="M413.134,209.578 C416.909,242.108 427.324,295.262 456,330.474 C493.407,376.407 551.43,408.528 601.169,429.408 " fill="none" style="stroke: #00008B; stroke-width: 1.0;"/><polygon fill="#00008B" points="412.584,204.54,409.5846,213.921,413.1268,209.5105,417.5373,213.0526,412.584,204.54" style="stroke: #00008B; stroke-width: 1.0;"/><text fill="#000000" font-family="Helvetica Neue" font-size="13" lengthAdjust="spacingAndGlyphs" textLength="39" x="457" y="311.214">source</text><path d="M315.306,203.474 C232.511,225.81 126,262.751 126,304.974 C126,304.974 126,304.974 126,618.974 C126,658.453 125.255,703.952 124.674,733.4096 " fill="none" style="stroke: #00008B; stroke-width: 1.0;"/><polygon fill="#00008B" points="124.568,738.7182,128.7474,729.8001,124.6681,733.7192,120.749,729.6399,124.568,738.7182" style="stroke: #00008B; stroke-width: 1.0;"/><text fill="#000000" font-family="Helvetica Neue" font-size="13" lengthAdjust="spacingAndGlyphs" textLength="64" x="127" y="467.214">destination</text><path d="M759.664,78.589 C776.08,99.361 799.986,129.609 817.261,151.467 " fill="none" style="stroke: #A80036; stroke-width: 1.0;"/><polygon fill="#A80036" points="820.406,155.447,817.9642,145.9056,817.3059,151.524,811.6875,150.8657,820.406,155.447" style="stroke: #A80036; stroke-width: 1.0;"/><text fill="#000000" font-family="Helvetica Neue" font-size="13" lengthAdjust="spacingAndGlyphs" textLength="91" x="797" y="122.214">is composed of</text><path d="M824.562,209.444 C797.883,262.051 741.047,374.121 713.14,429.148 " fill="none" style="stroke: #00008B; stroke-width: 1.0;"/><polygon fill="#00008B" points="826.893,204.847,819.2529,211.0622,824.6301,209.3056,826.3867,214.6828,826.893,204.847" style="stroke: #00008B; stroke-width: 1.0;"/><text fill="#000000" font-family="Helvetica Neue" font-size="13" lengthAdjust="spacingAndGlyphs" textLength="39" x="788" y="311.214">source</text><path d="M840.14,204.485 C844.721,289.327 864.495,578.195 924,644.474 C1004.227,733.8344 1068.93,683.942 1183,721.474 C1197.72,726.316 1213.36,731.7538 1228.29,737.0915 " fill="none" style="stroke: #00008B; stroke-width: 1.0;"/><polygon fill="#00008B" points="1233.33,738.8969,1226.2057,732.0965,1228.6228,737.211,1223.5083,739.6281,1233.33,738.8969" style="stroke: #00008B; stroke-width: 1.0;"/><text fill="#000000" font-family="Helvetica Neue" font-size="13" lengthAdjust="spacingAndGlyphs" textLength="64" x="874" y="467.214">destination</text><path d="M776.699,55.531 C890.353,58.134 1240.27,72.842 1308,155.474 C1375.07,237.292 1372.83,373.002 1368.12,432.047 " fill="none" style="stroke: #A80036; stroke-width: 1.0;"/><polygon fill="#A80036" points="1367.68,437.18,1372.4214,428.5475,1368.0997,432.1976,1364.4496,427.876,1367.68,437.18" style="stroke: #A80036; stroke-width: 1.0;"/><text fill="#000000" font-family="Helvetica Neue" font-size="13" lengthAdjust="spacingAndGlyphs" textLength="91" x="1356" y="248.214">is composed of</text><path d="M1264.16,479.268 C1151.58,498.264 982.055,529.588 959,549.474 C907.99,593.473 957.226,647.727 906,691.474 C867.811,724.088 740.347,744.203 647.914,754.8537 " fill="none" style="stroke: #00008B; stroke-width: 1.0;"/><polygon fill="#00008B" points="1269.15,478.429,1259.6048,476.0024,1264.2215,479.2714,1260.9525,483.8881,1269.15,478.429" style="stroke: #00008B; stroke-width: 1.0;"/><text fill="#000000" font-family="Helvetica Neue" font-size="13" lengthAdjust="spacingAndGlyphs" textLength="39" x="960" y="623.214">source</text><path d="M1382.92,486.744 C1411.15,524.896 1466.6,602.799 1504,674.474 C1513.96,693.566 1522.96,716.06 1529.47,733.7836 " fill="none" style="stroke: #00008B; stroke-width: 1.0;"/><polygon fill="#00008B" points="1531.24,738.6494,1531.9159,728.8238,1529.5277,733.9518,1524.3997,731.5635,1531.24,738.6494" style="stroke: #00008B; stroke-width: 1.0;"/><text fill="#000000" font-family="Helvetica Neue" font-size="13" lengthAdjust="spacingAndGlyphs" textLength="64" x="1488" y="623.214">destination</text><path d="M681.21,644.615 C645.832,659.651 599.364,678.232 557,691.474 C500.404,709.164 483.058,702.147 427,721.474 C413.194,726.2338 398.691,732.415 385.388,738.5994 " fill="none" style="stroke: #00008B; stroke-width: 1.0;"/><polygon fill="#00008B" points="380.544,740.8754,390.3906,740.6668,385.069,738.7484,386.9874,733.4268,380.544,740.8754" style="stroke: #00008B; stroke-width: 1.0;"/><text fill="#000000" font-family="Helvetica Neue" font-size="13" lengthAdjust="spacingAndGlyphs" textLength="71" x="604" y="688.214">be parent of</text><path d="M780.464,644.535 C805.742,659.45 839.039,677.934 870,691.474 C915.718,711.467 968.755,729.1585 1011.41,742.1161 " fill="none" style="stroke: #00008B; stroke-width: 1.0;"/><polygon fill="#00008B" points="1016.3,743.5931,1008.8552,737.1452,1011.5168,742.1368,1006.5252,744.7983,1016.3,743.5931" style="stroke: #00008B; stroke-width: 1.0;"/><text fill="#000000" font-family="Helvetica Neue" font-size="13" lengthAdjust="spacingAndGlyphs" textLength="71" x="871" y="688.214">be parent of</text><polygon fill="#DDDDDD" points="560,843.474,560,936.984,1115,936.984,1115,843.474,560,843.474" style="stroke: #000000; stroke-width: 1.0;"/><text fill="#000000" font-family="Helvetica Neue" font-size="14" lengthAdjust="spacingAndGlyphs" textLength="477" x="566" y="862.194">-   Stack is not connected to any existing Foreman models to allow sharing.</text><text fill="#000000" font-family="Helvetica Neue" font-size="14" lengthAdjust="spacingAndGlyphs" textLength="501" x="566" y="878.896">-   ParameterResource defines inputs and outputs through parameters to avoid</text><text fill="#000000" font-family="Helvetica Neue" font-size="14" lengthAdjust="spacingAndGlyphs" textLength="195" x="566" y="895.598">entanglement between stacks.</text><text fill="#000000" font-family="Helvetica Neue" font-size="14" lengthAdjust="spacingAndGlyphs" textLength="543" x="566" y="912.3">-   ConnectParameterResource connects parameters between child stacks in a given</text><text fill="#000000" font-family="Helvetica Neue" font-size="14" lengthAdjust="spacingAndGlyphs" textLength="45" x="566" y="929.002">parent.</text></g></svg>