<svg id="mermaid-1615986986982" width="100%" xmlns="http://www.w3.org/2000/svg" xmlns:xlink="http://www.w3.org/1999/xlink" height="562" style="max-width: 351.1484375px;" viewBox="-35.390625 -20 351.1484375 562"><style>#mermaid-1615986986982{font-family:"trebuchet ms",verdana,arial,sans-serif;font-size:16px;fill:#333;}#mermaid-1615986986982 .error-icon{fill:#552222;}#mermaid-1615986986982 .error-text{fill:#552222;stroke:#552222;}#mermaid-1615986986982 .edge-thickness-normal{stroke-width:2px;}#mermaid-1615986986982 .edge-thickness-thick{stroke-width:3.5px;}#mermaid-1615986986982 .edge-pattern-solid{stroke-dasharray:0;}#mermaid-1615986986982 .edge-pattern-dashed{stroke-dasharray:3;}#mermaid-1615986986982 .edge-pattern-dotted{stroke-dasharray:2;}#mermaid-1615986986982 .marker{fill:#333333;stroke:#333333;}#mermaid-1615986986982 .marker.cross{stroke:#333333;}#mermaid-1615986986982 svg{font-family:"trebuchet ms",verdana,arial,sans-serif;font-size:16px;}#mermaid-1615986986982 g.classGroup text{fill:#9370DB;fill:#131300;stroke:none;font-family:"trebuchet ms",verdana,arial,sans-serif;font-size:10px;}#mermaid-1615986986982 g.classGroup text .title{font-weight:bolder;}#mermaid-1615986986982 .classTitle{font-weight:bolder;}#mermaid-1615986986982 .node rect,#mermaid-1615986986982 .node circle,#mermaid-1615986986982 .node ellipse,#mermaid-1615986986982 .node polygon,#mermaid-1615986986982 .node path{fill:#ECECFF;stroke:#9370DB;stroke-width:1px;}#mermaid-1615986986982 .divider{stroke:#9370DB;stroke:1;}#mermaid-1615986986982 g.clickable{cursor:pointer;}#mermaid-1615986986982 g.classGroup rect{fill:#ECECFF;stroke:#9370DB;}#mermaid-1615986986982 g.classGroup line{stroke:#9370DB;stroke-width:1;}#mermaid-1615986986982 .classLabel .box{stroke:none;stroke-width:0;fill:#ECECFF;opacity:0.5;}#mermaid-1615986986982 .classLabel .label{fill:#9370DB;font-size:10px;}#mermaid-1615986986982 .relation{stroke:#333333;stroke-width:1;fill:none;}#mermaid-1615986986982 .dashed-line{stroke-dasharray:3;}#mermaid-1615986986982 #compositionStart,#mermaid-1615986986982 .composition{fill:#333333 !important;stroke:#333333 !important;stroke-width:1;}#mermaid-1615986986982 #compositionEnd,#mermaid-1615986986982 .composition{fill:#333333 !important;stroke:#333333 !important;stroke-width:1;}#mermaid-1615986986982 #dependencyStart,#mermaid-1615986986982 .dependency{fill:#333333 !important;stroke:#333333 !important;stroke-width:1;}#mermaid-1615986986982 #dependencyStart,#mermaid-1615986986982 .dependency{fill:#333333 !important;stroke:#333333 !important;stroke-width:1;}#mermaid-1615986986982 #extensionStart,#mermaid-1615986986982 .extension{fill:#333333 !important;stroke:#333333 !important;stroke-width:1;}#mermaid-1615986986982 #extensionEnd,#mermaid-1615986986982 .extension{fill:#333333 !important;stroke:#333333 !important;stroke-width:1;}#mermaid-1615986986982 #aggregationStart,#mermaid-1615986986982 .aggregation{fill:#ECECFF !important;stroke:#333333 !important;stroke-width:1;}#mermaid-1615986986982 #aggregationEnd,#mermaid-1615986986982 .aggregation{fill:#ECECFF !important;stroke:#333333 !important;stroke-width:1;}#mermaid-1615986986982 .edgeTerminals{font-size:11px;}#mermaid-1615986986982:root{--mermaid-font-family:"trebuchet ms",verdana,arial,sans-serif;}#mermaid-1615986986982 class{fill:apa;}</style><g></g><defs><marker id="extensionStart" class="extension" refX="0" refY="7" markerWidth="190" markerHeight="240" orient="auto"><path d="M 1,7 L18,13 V 1 Z"></path></marker></defs><defs><marker id="extensionEnd" refX="19" refY="7" markerWidth="20" markerHeight="28" orient="auto"><path d="M 1,1 V 13 L18,7 Z"></path></marker></defs><defs><marker id="compositionStart" class="extension" refX="0" refY="7" markerWidth="190" markerHeight="240" orient="auto"><path d="M 18,7 L9,13 L1,7 L9,1 Z"></path></marker></defs><defs><marker id="compositionEnd" refX="19" refY="7" markerWidth="20" markerHeight="28" orient="auto"><path d="M 18,7 L9,13 L1,7 L9,1 Z"></path></marker></defs><defs><marker id="aggregationStart" class="extension" refX="0" refY="7" markerWidth="190" markerHeight="240" orient="auto"><path d="M 18,7 L9,13 L1,7 L9,1 Z"></path></marker></defs><defs><marker id="aggregationEnd" refX="19" refY="7" markerWidth="20" markerHeight="28" orient="auto"><path d="M 18,7 L9,13 L1,7 L9,1 Z"></path></marker></defs><defs><marker id="dependencyStart" class="extension" refX="0" refY="7" markerWidth="190" markerHeight="240" orient="auto"><path d="M 5,7 L9,13 L1,7 L9,1 Z"></path></marker></defs><defs><marker id="dependencyEnd" refX="19" refY="7" markerWidth="20" markerHeight="28" orient="auto"><path d="M 18,7 L9,13 L14,7 L9,1 Z"></path></marker></defs><g id="classid-OrchestrationCompute-18" class="classGroup" transform="translate(0,0 )"><rect x="0" y="0" width="171.234375" height="68" class=" "></rect><text y="15" x="0"><tspan class="title" x="30.9453125">OrchestrationCompute</tspan></text><line x1="0" y1="21" y2="21" x2="171.234375"></line><text x="5" y="31" fill="white" class="classText"><tspan x="5">Hash compute_attributes</tspan></text><line x1="0" y1="37" y2="37" x2="171.234375"></line><text x="5" y="52" fill="white" class="classText"><tspan x="5">FogServer vm</tspan><tspan x="5" dy="10">Boolean compute_update_required</tspan></text></g><g id="classid-Host-19" class="classGroup" transform="translate(22.8125,118 )"><rect x="0" y="0" width="125.609375" height="58" class=" "></rect><text y="15" x="0"><tspan class="title" x="51.3515625">Host</tspan></text><line x1="0" y1="21" y2="21" x2="125.609375"></line><text x="5" y="31" fill="white" class="classText"><tspan x="5">+VMUUID uuid</tspan></text><line x1="0" y1="37" y2="37" x2="125.609375"></line><text x="5" y="52" fill="white" class="classText"><tspan x="5">vm_compute_attributes()</tspan></text></g><g id="classid-ComputeResource-20" class="classGroup" transform="translate(24.01171875,425 )"><rect x="0" y="0" width="180.65625" height="97" class=" "></rect><text y="15" x="0"><tspan class="title" x="45.6484375">ComputeResource</tspan></text><line x1="0" y1="21" y2="21" x2="180.65625"></line><text x="5" y="31" fill="white" class="classText"></text><line x1="0" y1="26" y2="26" x2="180.65625"></line><text x="5" y="41" fill="white" class="classText"><tspan x="5">vm_instance_defaults()</tspan><tspan x="5" dy="10">host_compute_attrs()</tspan><tspan x="5" dy="10">host_interfaces_attrs()</tspan><tspan x="5" dy="10">vm_compute_attributes_for(uuid)</tspan><tspan x="5" dy="10">vm_compute_attributes(vm)</tspan><tspan x="5" dy="10">compute_profile_attributes_for(cp_id)</tspan></text></g><g id="classid-ComputeProfile-21" class="classGroup" transform="translate(201.625,231.5 )"><rect x="0" y="0" width="84.890625" height="30" class=" "></rect><text y="15" x="0"><tspan class="title" x="5">ComputeProfile</tspan></text><line x1="0" y1="21" y2="21" x2="84.890625"></line><text x="5" y="31" fill="white" class="classText"></text><line x1="0" y1="26" y2="26" x2="84.890625"></line><text x="5" y="41" fill="white" class="classText"></text></g><g id="classid-ComputeAttribute-22" class="classGroup" transform="translate(192.3828125,317 )"><rect x="0" y="0" width="103.375" height="58" class=" "></rect><text y="15" x="0"><tspan class="title" x="8.96875">ComputeAttribute</tspan></text><line x1="0" y1="21" y2="21" x2="103.375"></line><text x="5" y="31" fill="white" class="classText"><tspan x="5">+Hash vm_attrs</tspan></text><line x1="0" y1="37" y2="37" x2="103.375"></line><text x="5" y="52" fill="white" class="classText"><tspan x="5">Hash vm_interfaces</tspan></text></g><g id="classid-Interface-23" class="classGroup" transform="translate(19.609375,226 )"><rect x="0" y="0" width="132.015625" height="41" class=" "></rect><text y="15" x="0"><tspan class="title" x="44.9453125">Interface</tspan></text><line x1="0" y1="21" y2="21" x2="132.015625"></line><text x="5" y="31" fill="white" class="classText"><tspan x="5">+Hash compute_attributes</tspan></text><line x1="0" y1="37" y2="37" x2="132.015625"></line><text x="5" y="52" fill="white" class="classText"></text></g><path d="M85.6171875,68L85.6171875,72.16666666666667C85.6171875,76.33333333333333,85.6171875,84.66666666666667,85.6171875,93C85.6171875,101.33333333333333,85.6171875,109.66666666666667,85.6171875,113.83333333333333L85.6171875,118" id="edge5" class="relation" marker-start="url(#extensionStart)"></path><path d="M85.6171875,176L85.6171875,180.16666666666666C85.6171875,184.33333333333334,85.6171875,192.66666666666666,85.6171875,201C85.6171875,209.33333333333334,85.6171875,217.66666666666666,85.6171875,221.83333333333334L85.6171875,226" id="edge6" class="relation" marker-end="url(#dependencyEnd)"></path><g class="cardinality"><text class="type2" x="95.6171875" y="213.5" fill="black" font-size="6">1..*</text></g><path d="M31.372251157407405,176L23.578438464506167,180.16666666666666C15.784625771604937,184.33333333333334,0.19700038580246826,192.66666666666666,-7.596812307098766,204.41666666666666C-15.390625,216.16666666666666,-15.390625,231.33333333333334,-15.390625,246.5C-15.390625,261.6666666666667,-15.390625,276.8333333333333,-15.390625,293.4166666666667C-15.390625,310,-15.390625,328,-15.390625,346C-15.390625,364,-15.390625,382,-8.036290036848072,395.1666666666667C-0.6819550736961446,408.3333333333333,14.02671485260771,416.6666666666667,21.38104981575964,420.8333333333333L28.735384778911566,425" id="edge7" class="relation" marker-end="url(#dependencyEnd)"></path><g class="cardinality"><text class="type2" x="22.789024924757875" y="410.1376043490657" fill="black" font-size="6">1</text></g><path d="M148.421875,168.40351050192288L164.36328125,173.8362587516024C180.3046875,179.26900700128192,212.1875,190.134503500641,228.12890625,200.65058508365382C244.0703125,211.16666666666666,244.0703125,221.33333333333334,244.0703125,226.41666666666666L244.0703125,231.5" id="edge8" class="relation" marker-end="url(#dependencyEnd)"></path><g class="cardinality"><text class="type2" x="254.0703125" y="219" fill="black" font-size="6">0..1</text></g><path d="M244.0703125,261.5L244.0703125,266.5833333333333C244.0703125,271.6666666666667,244.0703125,281.8333333333333,244.0703125,291.0833333333333C244.0703125,300.3333333333333,244.0703125,308.6666666666667,244.0703125,312.8333333333333L244.0703125,317" id="edge9" class="relation" marker-end="url(#dependencyEnd)"></path><g class="cardinality"><text class="type1" x="239.0703125" y="274" fill="black" font-size="6">1</text></g><g class="cardinality"><text class="type2" x="254.0703125" y="304.5" fill="black" font-size="6">1..CRcount</text></g><path d="M244.0703125,375L244.0703125,379.1666666666667C244.0703125,383.3333333333333,244.0703125,391.6666666666667,236.71597753684807,400C229.36164257369614,408.3333333333333,214.6529726473923,416.6666666666667,207.29863768424036,420.8333333333333L199.94430272108843,425" id="edge10" class="relation" marker-end="url(#dependencyEnd)"></path><g class="cardinality"><text class="type2" x="215.74949942169218" y="427.5388495928717" fill="black" font-size="6">1</text></g></svg>
